<svg width="66" height="67" viewBox="0 0 66 67" fill="none" xmlns="http://www.w3.org/2000/svg">
<g clip-path="url(#clip0)">
<path d="M33.0046 3.05176L35.1963 7.49232L40.0969 8.20427L36.5507 11.6609L37.388 16.5417L33.0046 14.2372L28.6216 16.5417L29.4587 11.6609L25.9126 8.20427L30.8132 7.49232L33.0046 3.05176Z" fill="#FF8617"/>
<path d="M38.8449 18.547L33.0047 15.4765L27.1643 18.547L28.2797 12.0438L23.5547 7.43807L30.0844 6.48932L33.0045 0.572266L35.9247 6.48919L42.4544 7.43794L37.7295 12.0436L38.8449 18.547ZM33.0045 12.9974L35.9306 14.5358L35.3718 11.2775L37.7391 8.97025L34.4678 8.49484L33.0048 5.53052L31.5418 8.49484L28.2705 8.97025L30.6378 11.2775L30.079 14.5358L33.0045 12.9974Z" fill="#174682"/>
<path d="M23.423 13.4179H21.2288V11.2236H23.423V13.4179ZM17.1328 13.4179H14.9386V11.2236H17.1328V13.4179ZM10.8424 13.4179H8.64819V11.2236H10.8424V13.4179Z" fill="#174682"/>
<path d="M57.3611 13.4179H55.1669V11.2236H57.3611V13.4179ZM51.0709 13.4179H48.8767V11.2236H51.0709V13.4179ZM44.7807 13.4179H42.5864V11.2236H44.7807V13.4179Z" fill="#174682"/>
<path d="M46.5451 20.1269L43.5943 18.8877L37.766 32.8537H28.3579L28.3411 32.8694L22.5064 18.8877L19.4641 20.1269L25.7544 35.3405L27.7044 46.5573L29.1372 65.4752H36.8721L38.486 46.3405L40.2549 35.3405L46.5451 20.1269Z" fill="#FF8617"/>
<path d="M45.5315 19.708L39.1922 35.0401L37.403 46.1668L37.3966 46.2075L35.8637 64.3784H30.1546L28.7945 46.422L26.8357 35.1529L26.8147 35.0335L20.4783 19.708L18.4504 20.5464L24.6944 35.6482L26.6146 46.6934L28.1203 66.5726H37.8806L39.576 46.4742L41.318 35.6416L47.5593 20.5464L45.5315 19.708Z" fill="#174682"/>
<path d="M33.5807 32.5611C35.8728 32.5611 37.7376 30.6963 37.7376 28.4042V25.2281C37.82 25.1637 37.9011 25.0963 37.9787 25.0221C38.6923 24.3413 39.0542 23.3587 39.0542 22.1016H36.8599C36.8599 22.7354 36.7268 23.1837 36.464 23.4343C35.9094 23.9637 32.817 23.8182 32.5017 23.8182V26.0124C32.7655 26.0124 35.2134 26.0644 35.5433 26.0288V28.404C35.5433 29.4862 34.6628 30.3668 33.5805 30.3668C32.4984 30.3668 31.6178 29.4863 31.6178 28.404V26.1977H29.4236V28.404C29.4237 30.6964 31.2886 32.5611 33.5807 32.5611Z" fill="#174682"/>
<path d="M14.8845 32.0449L13.4016 33.6626L16.5567 36.5547V46.0195C16.5567 46.7857 15.9332 47.4093 15.167 47.4093H14.1605L12.6977 64.3784H8.85844L7.3773 47.4093H6.37171C5.60549 47.4093 4.98197 46.7857 4.98197 46.0195V36.5547L8.13708 33.6626L6.65414 32.0449L2.7876 35.5892V46.0191C2.7876 47.6417 3.87144 49.0159 5.35309 49.4558L6.84711 66.5723H14.7107L16.1862 49.4556C17.6675 49.0154 18.751 47.6416 18.751 46.0193V35.5893L14.8845 32.0449Z" fill="#174682"/>
<path d="M10.7602 32.5609C13.0523 32.5609 14.9172 30.696 14.9172 28.4039V25.2278C14.9996 25.1635 15.0807 25.0961 15.1583 25.0218C15.8719 24.341 16.2337 23.3584 16.2337 22.1016H14.0395C14.0395 22.7354 13.9063 23.1836 13.6436 23.4343C13.0892 23.9636 9.9966 23.8182 9.68129 23.8182V26.0124H12.723V28.404C12.723 29.4862 11.8425 30.3668 10.7602 30.3668C9.67794 30.3668 8.79751 29.4863 8.79751 28.404V26.1977H6.60327V28.404C6.60327 30.6961 8.46803 32.5609 10.7602 32.5609Z" fill="#174682"/>
<path d="M59.346 32.0089L57.863 33.6266L61.0182 36.5187V45.9835C61.0182 46.7497 60.3946 47.3733 59.6284 47.3733H58.6218L57.159 64.3423H53.3197L51.8386 47.3733H50.833C50.0668 47.3733 49.4433 46.7497 49.4433 45.9835V36.5186L52.5984 33.6264L51.1155 32.0088L47.2488 35.5531V45.983C47.2488 47.6055 48.3326 48.9798 49.8143 49.4196L51.3083 66.5361H59.1718L60.6474 49.4194C62.1287 48.9792 63.2121 47.6053 63.2121 45.983V35.5531L59.346 32.0089Z" fill="#174682"/>
<path d="M55.2218 32.5248C57.5139 32.5248 59.3788 30.6599 59.3788 28.3678V25.1917C59.4611 25.1273 59.5422 25.0599 59.6198 24.9857C60.3334 24.3049 60.6953 23.3223 60.6953 22.0654H58.501C58.501 22.6993 58.3679 23.1475 58.1052 23.3982C57.5507 23.9275 54.4582 23.7821 54.1428 23.7821V25.9763H57.1844V28.3679C57.1844 29.4501 56.304 30.3306 55.2217 30.3306C54.1394 30.3306 53.2589 29.4502 53.2589 28.3679V26.1616H51.0647V28.3679C51.0648 30.66 52.9296 32.5248 55.2218 32.5248Z" fill="#174682"/>
</g>
<defs>
<clipPath id="clip0">
<rect width="66" height="66" fill="white" transform="translate(0 0.572266)"/>
</clipPath>
</defs>
</svg>
