<svg width="58" height="59" viewBox="0 0 58 59" fill="none" xmlns="http://www.w3.org/2000/svg">
<g clip-path="url(#clip0)">
<path d="M12.7806 52.6747C12.5199 52.6748 12.2697 52.5713 12.0853 52.387C11.9009 52.2026 11.7974 51.9524 11.7976 51.6917C11.7976 48.977 9.59699 46.7764 6.88233 46.7764C4.16767 46.7764 1.96708 48.977 1.96708 51.6917C1.96708 52.2346 1.52698 52.6747 0.984027 52.6747C0.441072 52.6747 0.000976562 52.2346 0.000976562 51.6917V7.4546C0.000976562 3.65414 3.08187 0.573242 6.88233 0.573242C10.6828 0.573242 13.7637 3.65414 13.7637 7.4546V51.6917C13.7638 51.9524 13.6603 52.2026 13.476 52.387C13.2915 52.5714 13.0414 52.6749 12.7806 52.6747ZM6.88233 44.8104C8.73289 44.8092 10.5054 45.5556 11.7976 46.8802V7.4546C11.7976 4.73994 9.59699 2.53934 6.88233 2.53934C4.16767 2.53934 1.96708 4.73994 1.96708 7.4546V46.8802C3.25927 45.5555 5.03189 44.8091 6.88233 44.8104Z" fill="#174682"/>
<path d="M57.017 58.5725H6.82307C3.0567 58.5684 0.00446684 55.5162 0.000275448 51.7497C-0.0247596 48.9424 1.65871 46.4016 4.25363 45.3303C6.84855 44.259 9.83418 44.8722 11.7968 46.8796V8.43715C11.7967 8.17638 11.9002 7.92626 12.0845 7.74183C12.2689 7.55741 12.5191 7.45388 12.7798 7.4541H57.0169C57.2777 7.45399 57.5278 7.55753 57.7122 7.74183C57.8966 7.92626 58.0002 8.17638 57.9999 8.43715V57.5895C58 57.8502 57.8965 58.1004 57.7122 58.2848C57.5279 58.4692 57.2778 58.5727 57.017 58.5725ZM6.88163 46.776C4.17852 46.7762 1.9828 48.9591 1.96672 51.6622C1.95063 54.3653 4.12018 56.574 6.82307 56.6065H56.0339V9.4202H13.763V51.6913C13.763 52.2342 13.3229 52.6743 12.7799 52.6743C12.237 52.6743 11.7969 52.2342 11.7969 51.6913C11.7937 48.978 9.59493 46.7792 6.88163 46.776Z" fill="#174682"/>
<path d="M51.1187 40.8775H17.6951V24.1656L34.4068 12.3691L51.1187 24.1656V40.8775Z" fill="#FF8617"/>
<path d="M51.1191 41.8607H17.6955C17.4347 41.8608 17.1846 41.7573 17.0001 41.573C16.8157 41.3885 16.7122 41.1384 16.7124 40.8776V24.1658C16.7125 23.8464 16.8675 23.5469 17.128 23.3623L33.8399 11.5658C34.1801 11.3257 34.6344 11.3257 34.9746 11.5658L51.6864 23.3624C51.947 23.547 52.1019 23.8465 52.102 24.1659V40.8776C52.1021 41.1384 51.9986 41.3885 51.8143 41.573C51.63 41.7573 51.3798 41.8608 51.1191 41.8607ZM18.6785 39.8946H50.136V24.6755L34.4073 13.5721L18.6786 24.6755V39.8946H18.6785Z" fill="#174682"/>
<path d="M52.1023 53.6574H41.2887C41.0279 53.6575 40.7778 53.554 40.5934 53.3697C40.409 53.1852 40.3054 52.9351 40.3057 52.6743V46.776C40.3056 46.5152 40.4091 46.2651 40.5934 46.0807C40.7778 45.8963 41.0279 45.7927 41.2887 45.793H52.1023C52.3631 45.7929 52.6132 45.8964 52.7976 46.0807C52.982 46.2651 53.0856 46.5152 53.0853 46.776V52.6743C53.0855 52.9351 52.9819 53.1852 52.7976 53.3697C52.6132 53.5541 52.3631 53.6576 52.1023 53.6574ZM42.2718 51.6913H51.1192V47.7591H42.2718V51.6913Z" fill="#174682"/>
<rect x="23" y="28.5723" width="7" height="7" fill="#C7E2F8"/>
<rect x="39" y="28.5723" width="7" height="7" fill="#C7E2F8"/>
<path d="M30.4751 36.9457H22.6107C22.35 36.9459 22.0998 36.8423 21.9154 36.658C21.731 36.4736 21.6275 36.2235 21.6277 35.9627V28.0983C21.6276 27.8375 21.7311 27.5874 21.9154 27.403C22.0997 27.2185 22.35 27.115 22.6107 27.1152H30.4751C30.7359 27.1151 30.986 27.2187 31.1705 27.403C31.3549 27.5873 31.4584 27.8375 31.4582 28.0983V35.9627C31.4583 36.2235 31.3548 36.4736 31.1705 36.658C30.986 36.8423 30.7359 36.9459 30.4751 36.9457ZM23.5939 34.9796H29.4922V29.0813H23.5939V34.9796Z" fill="#174682"/>
<path d="M46.2036 36.9457H38.3392C38.0785 36.9459 37.8284 36.8423 37.6439 36.658C37.4595 36.4736 37.356 36.2235 37.3562 35.9627V28.0983C37.3561 27.8375 37.4596 27.5874 37.6439 27.403C37.8284 27.2185 38.0785 27.115 38.3392 27.1152H46.2036C46.4644 27.1151 46.7145 27.2187 46.899 27.403C47.0834 27.5874 47.1869 27.8375 47.1867 28.0983V35.9627C47.1868 36.2235 47.0833 36.4736 46.899 36.658C46.7145 36.8423 46.4644 36.9459 46.2036 36.9457ZM39.3223 34.9796H45.2206V29.0813H39.3223V34.9796Z" fill="#174682"/>
<path d="M37.3563 47.7591H32.4411C31.8981 47.7591 31.458 47.319 31.458 46.776C31.458 46.2331 31.8981 45.793 32.4411 45.793H37.3563C37.8993 45.793 38.3394 46.2331 38.3394 46.776C38.3394 47.3189 37.8993 47.7591 37.3563 47.7591Z" fill="#174682"/>
<path d="M37.3564 50.7083H30.475C29.932 50.7083 29.4919 50.2682 29.4919 49.7252C29.4919 49.1823 29.932 48.7422 30.475 48.7422H37.3564C37.8993 48.7422 38.3394 49.1823 38.3394 49.7252C38.3394 50.2682 37.8993 50.7083 37.3564 50.7083Z" fill="#174682"/>
<path d="M37.3563 53.6575H27.5258C26.9828 53.6575 26.5427 53.2174 26.5427 52.6745C26.5427 52.1315 26.9828 51.6914 27.5258 51.6914H37.3563C37.8992 51.6914 38.3393 52.1315 38.3393 52.6745C38.3393 53.2174 37.8992 53.6575 37.3563 53.6575Z" fill="#174682"/>
</g>
<defs>
<clipPath id="clip0">
<rect width="58" height="58" fill="white" transform="translate(0 0.572266)"/>
</clipPath>
</defs>
</svg>
