<svg width="61" height="61" viewBox="0 0 61 61" fill="none" xmlns="http://www.w3.org/2000/svg">
<g clip-path="url(#clip0)">
<path d="M3.93555 40.3389H15.742V57.0647H3.93555V40.3389Z" fill="#FF8617"/>
<path d="M61.0001 50.9403V43.5094L58.1536 42.7821C58.134 42.7341 58.1143 42.686 58.0936 42.6385L59.592 40.113L54.3373 34.8583L51.8118 36.3567C51.7633 36.336 51.7152 36.3163 51.6682 36.2966L50.9408 33.4512H43.5099L42.7826 36.2976C42.7345 36.3173 42.6865 36.337 42.6389 36.3576L40.1134 34.8592L34.8588 40.1139L36.3572 42.6394C36.3365 42.6879 36.3168 42.736 36.2971 42.7831L33.4517 43.5104V50.9413L36.2981 51.6686C36.3178 51.7167 36.3375 51.7647 36.3581 51.8123L34.8597 54.3378L40.1144 59.5925L42.6399 58.0941C42.6884 58.1147 42.7365 58.1344 42.7835 58.1541L43.5109 60.9996H50.9418L51.6691 58.1532C51.7172 58.1335 51.7652 58.1138 51.8128 58.0931L54.3383 59.5915L59.5929 54.3368L58.0946 51.8113C58.1152 51.7628 58.1349 51.7148 58.1546 51.6677L61.0001 50.9403ZM47.2259 50.177C45.5954 50.177 44.2742 48.8559 44.2742 47.2254C44.2742 45.5949 45.5954 44.2738 47.2259 44.2738C48.8564 44.2738 50.1775 45.5949 50.1775 47.2254C50.1775 48.8559 48.8564 50.177 47.2259 50.177Z" fill="#FF8617"/>
<path d="M30.5001 0C25.6173 0 21.6453 3.97199 21.6453 8.85484V12.7903H22.6291C22.6291 11.1598 23.9503 9.83871 25.5807 9.83871H25.7499C27.5317 9.83871 29.241 9.13107 30.5001 7.87097C31.7602 9.13107 33.4685 9.83871 35.2504 9.83871H35.4195C37.05 9.83871 38.3711 11.1598 38.3711 12.7903H39.3549V8.85484C39.3549 3.97199 35.3829 0 30.5001 0Z" fill="#FF8617"/>
<path d="M47.2257 39.3545C42.8857 39.3545 39.3547 42.8855 39.3547 47.2255C39.3547 51.5654 42.8857 55.0964 47.2257 55.0964C51.5657 55.0964 55.0967 51.5654 55.0967 47.2255C55.0967 42.8855 51.5657 39.3545 47.2257 39.3545ZM47.2257 53.1287C43.97 53.1287 41.3225 50.4812 41.3225 47.2255C41.3225 43.9698 43.97 41.3222 47.2257 41.3222C50.4814 41.3222 53.1289 43.9698 53.1289 47.2255C53.1289 50.4812 50.4814 53.1287 47.2257 53.1287Z" fill="#174682"/>
<path d="M47.2258 43.29C45.0553 43.29 43.2903 45.055 43.2903 47.2255C43.2903 49.396 45.0553 51.161 47.2258 51.161C49.3962 51.161 51.1613 49.396 51.1613 47.2255C51.1613 45.055 49.3962 43.29 47.2258 43.29ZM47.2258 49.1933C46.1405 49.1933 45.258 48.3108 45.258 47.2255C45.258 46.1403 46.1405 45.2578 47.2258 45.2578C48.311 45.2578 49.1935 46.1403 49.1935 47.2255C49.1935 48.3108 48.311 49.1933 47.2258 49.1933Z" fill="#174682"/>
<path d="M24.9168 16.6588C25.2463 17.6249 25.8199 18.4766 26.5646 19.1459V19.9803L21.8864 21.7343C19.9768 22.4496 18.6936 24.3006 18.6936 26.3399V31.4836H42.3065V26.3399C42.3065 24.3006 41.0233 22.4496 39.1147 21.7333L34.4355 19.9794V19.1459C35.1802 18.4776 35.7538 17.6258 36.0833 16.6588C37.9372 16.3408 39.3549 14.7324 39.3549 12.7901C39.3549 10.6196 37.5899 8.8546 35.4194 8.8546H35.2503C33.7183 8.8546 32.278 8.25842 31.1957 7.1751L30.5001 6.47852L29.8044 7.1751C28.7211 8.25842 27.2818 8.8546 25.7498 8.8546H25.5807C23.4102 8.8546 21.6452 10.6196 21.6452 12.7901C21.6452 14.7324 23.0629 16.3408 24.9168 16.6588ZM32.4678 20.3887L30.5001 23.6679L28.5323 20.3887V20.3166C29.1492 20.5361 29.8092 20.6611 30.5001 20.6611C31.1909 20.6611 31.851 20.5352 32.4678 20.3166V20.3887ZM27.1262 21.8702L29.1098 25.1749L27.1391 26.1598L25.8661 22.3425L27.1262 21.8702ZM40.3388 26.3399V29.5159H20.6613V26.3399C20.6613 25.1159 21.431 24.0061 22.5767 23.5762L24.0232 23.0343L25.99 28.9356L30.5001 26.6805L35.0101 28.9356L36.9769 23.0343L38.4243 23.5771C39.5692 24.0061 40.3388 25.1159 40.3388 26.3399ZM35.134 22.3425L33.861 26.1607L31.8903 25.1759L33.8739 21.8702L35.134 22.3425ZM37.3872 12.7901C37.3872 13.515 36.9889 14.1429 36.4033 14.4845V11.0967C36.9889 11.4373 37.3872 12.0652 37.3872 12.7901ZM30.5001 9.18416C31.6362 10.0787 32.9953 10.6028 34.4355 10.7546V14.7578C34.4355 16.9283 32.6705 18.6933 30.5001 18.6933C28.3296 18.6933 26.5646 16.9283 26.5646 14.7578V10.7556C28.0048 10.6038 29.3639 10.0787 30.5001 9.18416ZM24.5968 11.0957V14.4835C24.0112 14.1419 23.613 13.5141 23.613 12.7891C23.613 12.0642 24.0112 11.4373 24.5968 11.0957Z" fill="#174682"/>
<path d="M0 60.9996H19.6774V35.4189H0V60.9996ZM1.96774 37.3867H17.7097V59.0319H1.96774V37.3867Z" fill="#174682"/>
<path d="M3.93555 39.3545H15.742V41.3222H3.93555V39.3545Z" fill="#174682"/>
<path d="M3.93555 43.29H5.90329V45.2578H3.93555V43.29Z" fill="#174682"/>
<path d="M7.87085 43.29H15.7418V45.2578H7.87085V43.29Z" fill="#174682"/>
<path d="M3.93555 47.2256H15.742V49.1933H3.93555V47.2256Z" fill="#174682"/>
<path d="M3.93555 51.1611H15.742V53.1289H3.93555V51.1611Z" fill="#174682"/>
<path d="M13.7742 55.0967H15.7419V57.0644H13.7742V55.0967Z" fill="#174682"/>
<path d="M3.93555 55.0967H11.8065V57.0644H3.93555V55.0967Z" fill="#174682"/>
<path d="M26.2763 43.986L24.885 42.5947L20.2539 47.2258L24.885 51.8569L26.2763 50.4657L24.0203 48.2097H31.4839V46.242H24.0203L26.2763 43.986Z" fill="#174682"/>
<path d="M10.8225 15.7424C10.8225 15.2005 11.2635 14.7585 11.8063 14.7585H16.3183L14.0623 17.0145L15.4536 18.4058L20.0847 13.7747L15.4536 9.14355L14.0623 10.5348L16.3183 12.7908H11.8063C10.1792 12.7908 8.85474 14.1153 8.85474 15.7424V33.4521H10.8225V15.7424Z" fill="#174682"/>
<path d="M47.2257 15.7417V28.1246L44.9698 25.8686L43.5785 27.2599L48.2096 31.891L52.8407 27.2599L51.4495 25.8686L49.1935 28.1246V15.7417C49.1935 14.1145 47.869 12.79 46.2419 12.79H41.3225V14.7578H46.2419C46.7847 14.7578 47.2257 15.1998 47.2257 15.7417Z" fill="#174682"/>
</g>
<defs>
<clipPath id="clip0">
<rect width="61" height="61" fill="white"/>
</clipPath>
</defs>
</svg>
