<svg width="57" height="58" viewBox="0 0 57 58" fill="none" xmlns="http://www.w3.org/2000/svg">
<g clip-path="url(#clip0)">
<path d="M25.7 23.3984C31.5 23.3984 36.2 18.6984 36.2 12.8984C36.2 7.09844 31.5 2.39844 25.7 2.39844C19.9 2.39844 15.2 7.09844 15.2 12.8984C15.2 18.6984 19.9 23.3984 25.7 23.3984Z" fill="#FF8617"/>
<path d="M25.3999 18.0984C23.5999 18.0984 22.3999 17.0984 22.3999 16.3984C22.3999 15.9984 22.6999 15.5984 23.0999 15.5984C23.5999 15.5984 23.9999 16.5984 25.4999 16.6984V13.2984C24.1999 12.7984 22.6999 12.2984 22.6999 10.3984C22.6999 8.59844 24.0999 7.79844 25.4999 7.69844V7.19844C25.4999 6.99844 25.6999 6.89844 25.8999 6.89844C26.0999 6.89844 26.2999 7.09844 26.2999 7.19844V7.59844C27.2999 7.59844 28.6999 7.89844 28.6999 8.69844C28.6999 8.99844 28.4999 9.49844 28.0999 9.49844C27.6999 9.49844 27.3999 8.99844 26.2999 8.99844V11.9984C27.5999 12.4984 28.9999 13.0984 28.9999 15.0984C28.9999 16.8984 27.8999 17.8984 26.2999 18.0984V18.5984C26.2999 18.7984 26.0999 18.8984 25.8999 18.8984C25.6999 18.8984 25.4999 18.6984 25.4999 18.5984V18.0984H25.3999ZM25.4999 11.6984V8.99844C24.6999 9.09844 24.0999 9.49844 24.0999 10.1984C24.0999 11.0984 24.7999 11.3984 25.4999 11.6984ZM26.1999 13.5984V16.6984C26.9999 16.5984 27.4999 16.0984 27.4999 15.2984C27.4999 14.2984 26.8999 13.8984 26.1999 13.5984Z" fill="#174682"/>
<path d="M47.9 31.9982C47.9 31.4982 47.5 31.1982 47.1 31.1982C46.7 31.1982 46.3 31.5982 46.3 31.9982C46.3 32.5982 45.8 33.0982 45.2 33.0982C44.6 33.0982 44.1 32.5982 44.1 31.9982C44.1 31.4982 43.7 31.1982 43.3 31.1982C42.9 31.1982 42.5 31.5982 42.5 31.9982C42.5 33.4982 43.7 34.6982 45.2 34.6982C46.6 34.6982 47.9 33.4982 47.9 31.9982Z" fill="#174682" stroke="#174682" stroke-width="0.2835" stroke-miterlimit="10"/>
<path d="M54.8 31.2977L52.5 30.5977C52.2 30.4977 52 30.2977 51.9 29.9977C51.4 28.3977 50.7 26.9977 49.7 25.5977C49.3 24.9977 48.8 24.3977 48.2 23.8977C48.5 22.3977 48.7 20.6977 48.7 19.1977C48.7 17.0977 48.2 15.7977 47.4 15.3977C47 15.1977 45.6 14.3977 38.2 17.7977C38 17.8977 37.9 17.9977 37.7 18.0977C37.2 17.9977 36.7 17.7977 36.2 17.6977C36.1 17.6977 36.1 17.6977 36 17.6977C36.6 16.3977 36.9 14.9977 37 13.4977C37 12.9977 36.7 12.6977 36.2 12.5977C35.7 12.5977 35.4 12.8977 35.3 13.3977C35.2 15.7977 34.2 18.0977 32.5 19.7977C31.5 20.7977 30.3 21.5977 29 21.9977C26.8 21.6977 24.5 21.6977 22.3 21.9977C21 21.4977 19.8 20.7977 18.8 19.7977C17 17.8977 16 15.4977 16 12.8977C16 10.2977 17 7.89766 18.8 6.09766C20.6 4.29766 23.1 3.29766 25.6 3.29766C28.1 3.29766 30.6 4.29766 32.4 6.09766C33.1 6.79766 33.7 7.69766 34.2 8.59766C34.5 8.99766 35 9.09766 35.4 8.89766C35.8 8.69766 36 8.19766 35.8 7.79766C35.3 6.69766 34.5 5.69766 33.7 4.89766C31.6 2.79766 28.7 1.59766 25.7 1.59766C22.7 1.59766 19.8 2.79766 17.7 4.89766C15.6 6.99766 14.4 9.89766 14.4 12.8977C14.4 15.8977 15.6 18.7977 17.7 20.8977C18.3 21.4977 19 21.9977 19.7 22.4977C19.2 22.5977 18.7 22.7977 18.2 22.9977C17.8 23.0977 17.5 23.5977 17.7 23.9977C17.8 24.3977 18.3 24.6977 18.7 24.4977C23.2 22.9977 28.2 22.9977 32.7 24.4977C32.8 24.4977 32.9 24.4977 33 24.4977C33.3 24.4977 33.7 24.2977 33.8 23.8977C33.9 23.4977 33.7 22.9977 33.3 22.8977C32.8 22.6977 32.3 22.5977 31.8 22.3977C32.5 21.9977 33.2 21.3977 33.8 20.7977C34.3 20.2977 34.8 19.6977 35.2 18.9977C35.4 18.9977 35.7 19.0977 35.9 19.0977C36.2 19.1977 36.5 19.1977 36.8 19.2977V19.3977C36.4 21.2977 36.4 22.9977 36.9 24.3977C37.3 25.6977 38.1 26.6977 39.1 27.4977C40.3 28.3977 41.8 28.7977 43.2 28.7977C44.2 28.7977 45.2 28.5977 45.8 28.1977C46.6 27.7977 47.2 26.7977 47.8 25.3977C48 25.6977 48.3 25.9977 48.5 26.2977C49.4 27.4977 50 28.7977 50.5 30.1977C50.8 30.9977 51.4 31.6977 52.2 31.8977L54.5 32.5977C55.1 32.7977 55.5 33.3977 55.5 33.9977V37.8977C55.5 38.4977 55.1 39.0977 54.5 39.2977L50.7 40.4977C50.1 40.6977 49.6 41.0977 49.3 41.6977C47.8 44.2977 45.5 46.3977 42.4 47.9977C42 48.1977 41.8 48.4977 41.7 48.8977L40.5 55.2977C40.5 55.4977 40.3 55.5977 40.1 55.5977H36C35.8 55.5977 35.7 55.4977 35.6 55.2977L35 51.8977C34.9 51.1977 34.2 50.6977 33.5 50.8977C31.8 51.1977 30.1 51.2977 28.3 51.2977C27 51.2977 25.7 51.1977 24.5 51.0977C23.8 50.9977 23.2 51.4977 23.1 52.1977L22.5 55.4977C22.5 55.6977 22.3 55.7977 22.1 55.7977H18.2C18 55.7977 17.9 55.6977 17.8 55.4977L16.6 49.4977C16.5 49.0977 16.3 48.7977 15.9 48.5977C10.6 45.7977 7.8 41.0977 7.8 34.8977C7.8 31.7977 8.5 29.0977 9.8 26.7977C11 24.6977 12.9 22.8977 15.2 21.4977C15.6 21.2977 15.7 20.7977 15.5 20.3977C15.3 19.9977 14.8 19.8977 14.4 20.0977C9.9 22.6977 7.1 26.7977 6.4 31.8977C6.3 31.8977 6.2 31.8977 6.2 31.8977C6.2 31.2977 6.1 30.7977 5.9 30.1977C5.4 28.9977 4.5 28.0977 3.4 27.9977C2.6 27.8977 1.8 28.1977 1.2 28.9977C0.4 29.9977 0.5 30.8977 0.8 31.3977C1.2 32.2977 2.3 32.8977 4.1 33.2977C4.1 33.3977 4 33.3977 3.9 33.4977C2.8 34.7977 1.6 35.0977 0.8 35.0977C0.3 35.0977 0 35.4977 0 35.9977C0 36.4977 0.4 36.7977 0.8 36.8977C0.9 36.8977 0.9 36.8977 1 36.8977C2 36.8977 3.7 36.4977 5.2 34.5977C5.4 34.2977 5.7 33.9977 5.8 33.5977C6 33.5977 6.1 33.5977 6.3 33.5977C6.3 33.9977 6.3 34.4977 6.3 34.9977C6.3 38.4977 7.1 41.4977 8.7 44.1977C10.2 46.5977 12.3 48.5977 15.1 50.0977L16.2 55.9977C16.4 56.9977 17.2 57.6977 18.2 57.6977H22.1C23.1 57.6977 23.9 56.9977 24.1 55.9977L24.7 52.9977C25.9 53.0977 27.1 53.1977 28.4 53.1977C30.1 53.1977 31.8 53.0977 33.5 52.7977L34.1 55.9977C34.3 56.9977 35.1 57.6977 36.1 57.6977H40C41 57.6977 41.8 56.9977 42 55.9977L43.2 49.7977C46.5 47.9977 49 45.6977 50.6 42.9977C50.7 42.7977 50.9 42.6977 51.1 42.5977L54.9 41.3977C56.2 40.9977 57.1 39.7977 57.1 38.3977V34.4977C57 32.8977 56.1 31.6977 54.8 31.2977ZM46.9 21.3977C46.6 24.0977 45.7 26.4977 44.9 26.9977C43.9 27.5977 41.7 27.6977 40 26.3977C38.3 25.1977 37.7 22.8977 38.4 19.8977C38.5 19.5977 38.7 19.2977 39 19.1977C43.2 17.2977 45.5 16.6977 46.4 16.6977C46.5 16.6977 46.6 16.6977 46.7 16.6977C46.9 16.9977 47.2 18.5977 46.9 21.3977ZM2.3 30.5977C2.2 30.3977 2.4 30.0977 2.5 29.8977C2.7 29.5977 2.9 29.5977 3 29.5977H3.1C3.5 29.6977 4 30.0977 4.3 30.7977C4.4 30.9977 4.5 31.1977 4.5 31.5977C3.4 31.3977 2.5 30.9977 2.3 30.5977Z" fill="#174682" stroke="#174682" stroke-width="0.2835" stroke-miterlimit="10"/>
</g>
<defs>
<clipPath id="clip0">
<rect width="57" height="57" fill="white" transform="translate(0 0.998047)"/>
</clipPath>
</defs>
</svg>
