<svg width="63" height="63" viewBox="0 0 63 63" fill="none" xmlns="http://www.w3.org/2000/svg">
<path d="M22 57.3996V53.3996C22 51.3996 22.6 49.4996 23.7 47.8996C24.6 46.4996 26.3 45.5996 28 45.5996H35.1C36.8 45.5996 38.5 46.4996 39.4 47.8996C40.5 49.5996 41.1 51.4996 41.1 53.3996V60.7996C33.7 60.7996 28.8 60.7996 22 60.7996V57.3996Z" fill="#FF8617"/>
<path d="M38.7001 14.2004L28.5 24.2004C27.9 24.8004 27 24.8004 26.4 24.2004L23 20.9004C22.4 20.3004 22.4 19.5004 23 18.9004L24.6 17.2004C25.2 16.6004 26.2 16.6004 26.8 17.2004C27.4 17.8004 28.3 17.8004 28.9 17.3004L36.6 10.2004C37.5 9.40041 39 9.90041 39.1 11.1004L39.3 13.2004C39.2 13.5004 39 13.9004 38.7001 14.2004Z" fill="#FF8617"/>
<path d="M31.6 32.2C40.6 32.2 47.9 25 47.9 16.1C47.9 7.2 40.6 0 31.6 0C29 0 26.5 0.6 24.2 1.8C23.6 2.1 23.4 2.8 23.7 3.4C24 4 24.8 4.2 25.4 3.9C27.4 2.9 29.5 2.4 31.7 2.4C39.4 2.4 45.6 8.5 45.6 16.1C45.6 23.6 39.4 29.8 31.7 29.8C24 29.8 17.8 23.7 17.8 16.1C17.8 14 18.3 12 19.2 10.2C19.5 9.6 19.2 8.9 18.6 8.6C18 8.3 17.3 8.6 17 9.2C15.9 11.4 15.4 13.7 15.4 16.2C15.2 24.9 22.6 32.2 31.6 32.2Z" fill="#174682"/>
<path d="M22.0999 21.8003L25.4999 25.2003C25.9999 25.7003 26.6999 26.0003 27.3999 26.0003C28.0999 26.0003 28.7999 25.7003 29.2999 25.2003L39.4999 15.2003C40.0999 14.6003 40.3999 13.8003 40.2999 13.1003L40.0999 11.0003C39.9999 10.0003 39.2999 9.10025 38.2999 8.80025C37.2999 8.40025 36.1999 8.70025 35.4999 9.40025L27.9999 16.3003C27.8999 16.4003 27.6999 16.4003 27.6999 16.3003C27.1999 15.8003 26.4999 15.5003 25.6999 15.5003C24.9999 15.5003 24.1999 15.8003 23.6999 16.4003L21.9999 18.1003C21.0999 19.1003 21.0999 20.7003 22.0999 21.8003ZM23.8999 19.7003L25.4999 18.0003C25.5999 17.9003 25.5999 17.9003 25.6999 17.9003C25.6999 17.9003 25.7999 17.9003 25.8999 18.0003C26.8999 19.1003 28.5999 19.1003 29.6999 18.1003L37.3999 11.0003C37.4999 10.9003 37.5999 10.9003 37.6999 10.9003C37.7999 10.9003 37.7999 11.0003 37.8999 11.1003L38.0999 13.2003C38.0999 13.3003 38.0999 13.3003 37.9999 13.4003L27.7999 23.4003C27.6999 23.5003 27.6999 23.5003 27.5999 23.5003C27.5999 23.5003 27.4999 23.5003 27.3999 23.4003L23.8999 20.0003C23.7999 20.0003 23.7999 19.8003 23.8999 19.7003Z" fill="#174682"/>
<path d="M20.3 6.89975C20.6 7.09975 20.8 7.19975 21.1 7.19975C21.5 7.19975 21.8 6.99975 22.1 6.69975C22.5 6.19975 22.4 5.39975 21.9 4.99975C21.4 4.59975 20.6 4.69975 20.2 5.19975C19.6 5.69975 19.7 6.49975 20.3 6.89975Z" fill="#174682"/>
<path d="M30.4 55.8997C30.7 56.0997 30.9 56.1997 31.2 56.1997C31.6 56.1997 31.9 55.9997 32.2 55.6997C32.6 55.1997 32.5 54.3997 32 53.9997C31.5 53.5997 30.7 53.6997 30.3 54.1997C29.7 54.6997 29.9 55.3997 30.4 55.8997Z" fill="#174682"/>
<path d="M55.7 52.5002C54.9 51.3002 53.7 50.5002 52.2 50.2002C52.5 49.6002 52.6 49.0002 52.6 48.4002V45.9002C52.6 45.9002 52.6 45.9002 52.6 45.8002V45.7002C52.5 43.5002 50.6 41.8002 48.4 41.8002H48.1C47.6 41.8002 47.1 41.9002 46.7 42.0002C46.8 41.7002 46.8 41.3002 46.8 41.0002V38.5002C46.8 38.5002 46.8 38.5002 46.8 38.4002V38.3002C46.7 36.1002 44.9 34.4002 42.6 34.4002H42.5H42.4C40.2 34.4002 38.3 36.1002 38.2 38.3002C38.2 38.4002 38.2 38.4002 38.2 38.5002V41.0002C38.2 41.7002 38.3 42.3002 38.6 42.8002C37.4 43.0002 36.3 43.7002 35.5 44.6002H35.4C35.8 43.9002 36.1 43.0002 36.1 42.1002V39.0002V38.9002V38.8002C36 36.2002 33.8 34.2002 31.2 34.2002H31C28.3 34.2002 26.1 36.4002 26.1 39.0002V42.1002C26.1 43.0002 26.4 43.9002 26.8 44.6002C26.7 44.6002 26.7 44.6002 26.6 44.6002C25.8 43.7002 24.7 43.0002 23.5 42.8002C23.8 42.2002 23.9 41.6002 23.9 41.0002V38.5002C23.9 38.5002 23.9 38.5002 23.9 38.4002V38.3002C23.8 36.1002 22 34.4002 19.7 34.4002H19.6H19.5C18.4 34.4002 17.3 34.8002 16.5 35.6002C15.7 36.4002 15.3 37.4002 15.3 38.5002V41.0002C15.3 41.3002 15.3 41.7002 15.4 42.0002C15 41.9002 14.5 41.8002 14.1 41.8002H13.8C11.5 41.8002 9.6 43.6002 9.6 45.9002V48.4002C9.6 49.0002 9.8 49.7002 10 50.2002C8.6 50.5002 7.3 51.3002 6.5 52.5002C5.5 54.0002 5 55.8002 5 57.6002V60.8002C5 61.5002 5.6 62.0002 6.2 62.0002C8.6 62.0002 11.2 62.0002 13.7 62.0002C16.3 62.0002 19 62.0002 21.5 62.0002C24.8 62.0002 27.6 62.0002 30.6 62.0002C33.7 62.0002 36.8 62.0002 40.6 62.0002C40.7 62.0002 40.9 62.0002 41 61.9002C43.1 61.9002 45.3 61.9002 47.5 61.9002C50.2 61.9002 52.9 61.9002 55.9 61.9002C56.6 61.9002 57.1 61.4002 57.1 60.7002V57.4002C57.2 55.8002 56.7 54.1002 55.7 52.5002ZM48.3 44.2002H48.5C49.1 44.2002 49.6 44.5002 49.9 44.9002C49.2 45.0002 48.5 45.2002 47.8 45.5002C47.6 45.6002 47.5 45.6002 47.3 45.7002C47.3 45.7002 47.1 45.8002 46.6 45.7002C46.7 44.8002 47.4 44.2002 48.3 44.2002ZM46.5 48.0002C46.7 48.0002 46.9 48.0002 47 48.0002C47.4 48.0002 47.8 47.9002 48.1 47.8002C48.3 47.7002 48.5 47.7002 48.6 47.6002C49.2 47.4002 49.8 47.2002 50.2 47.2002V48.3002C50.2 49.2002 49.5 50.0002 48.5 50.0002H48.2C47.3 50.0002 46.5 49.2002 46.5 48.3002V48.0002ZM41.3 37.3002C41.6 37.0002 42.1 36.8002 42.5 36.8002H42.6H42.7C43.3 36.8002 43.8 37.1002 44.1 37.5002C43.4 37.6002 42.7 37.8002 42 38.1002C41.8 38.2002 41.7 38.2002 41.5 38.3002C41.5 38.3002 41.3 38.4002 40.8 38.3002C40.9 37.8002 41.1 37.5002 41.3 37.3002ZM40.8 40.6002C41 40.6002 41.2 40.6002 41.3 40.6002C41.7 40.6002 42.1 40.5002 42.4 40.4002C42.6 40.3002 42.8 40.3002 42.9 40.2002C43.5 40.0002 44.1 39.8002 44.5 39.8002V40.9002C44.5 41.4002 44.3 41.8002 44 42.1002C43.7 42.4002 43.3 42.6002 42.8 42.6002H42.4C41.5 42.6002 40.7 41.8002 40.7 40.9002L40.8 40.6002ZM28.6 38.8002C28.6 38.7002 28.6 38.7002 28.6 38.8002C28.7 37.6002 29.8 36.6002 31.1 36.6002H31.3C32.3 36.6002 33.1 37.2002 33.5 38.0002C32.5 38.0002 31.5 38.4002 30.5 38.7002C30.3 38.8002 30.1 38.9002 29.9 38.9002C29.7 39.0002 29.3 39.0002 28.6 38.8002ZM28.6 41.3002C28.9 41.3002 29.3 41.4002 29.5 41.4002C30 41.4002 30.4 41.3002 30.7 41.2002C30.9 41.1002 31.1 41.0002 31.3 41.0002C32.3 40.6002 33.1 40.3002 33.7 40.5002V42.2002C33.7 43.5002 32.6 44.6002 31.3 44.6002H30.9C29.6 44.6002 28.5 43.5002 28.5 42.2002V41.3002H28.6ZM18.3 37.3002C18.6 37.0002 19.1 36.8002 19.5 36.8002H19.6H19.7C19.8 36.8002 19.8 36.8002 19.9 36.8002C20.3 36.8002 20.7 37.0002 21 37.3002C21.1 37.4002 21.1 37.4002 21.1 37.5002C20.4 37.6002 19.7 37.8002 19 38.1002C18.8 38.2002 18.7 38.2002 18.5 38.3002C18.5 38.3002 18.3 38.4002 17.8 38.3002C17.8 37.8002 18 37.5002 18.3 37.3002ZM17.7 40.6002C17.9 40.6002 18.1 40.6002 18.2 40.6002C18.6 40.6002 19 40.5002 19.3 40.4002C19.5 40.3002 19.7 40.3002 19.8 40.2002C20.4 40.0002 21 39.8002 21.4 39.8002V40.9002C21.4 41.4002 21.2 41.8002 20.9 42.1002C20.6 42.4002 20.2 42.6002 19.8 42.6002H19.4C19 42.6002 18.5 42.4002 18.2 42.1002C17.9 41.8002 17.7 41.3002 17.7 40.9002V40.6002ZM13.8 44.2002H14C14.6 44.2002 15.1 44.5002 15.4 44.9002C14.7 45.0002 14 45.2002 13.3 45.5002C13.1 45.6002 13 45.6002 12.8 45.7002C12.8 45.7002 12.6 45.8002 12.1 45.7002C12.3 44.8002 13 44.2002 13.8 44.2002ZM12.1 48.0002C12.3 48.0002 12.4 48.0002 12.6 48.0002C13 48.0002 13.4 47.9002 13.7 47.8002C13.9 47.7002 14.1 47.7002 14.2 47.6002C14.8 47.4002 15.4 47.2002 15.8 47.2002V48.3002C15.8 49.2002 15.1 50.0002 14.1 50.0002H13.8C12.9 50.0002 12.1 49.2002 12.1 48.3002V48.0002ZM20.3 59.7002C18.1 59.7002 15.9 59.7002 13.7 59.7002C11.6 59.7002 9.5 59.7002 7.4 59.7002V57.7002C7.4 56.4002 7.8 55.0002 8.5 53.9002C9 53.1002 10 52.6002 10.9 52.6002H13.5C13.6 52.6002 13.6 52.6002 13.7 52.6002H14C14.1 52.6002 14.1 52.6002 14.2 52.6002H16.8C17.8 52.6002 18.7 53.1002 19.2 53.9002C19.9 55.0002 20.3 56.3002 20.3 57.7002V59.7002ZM20.5 51.6002C19.8 50.9002 18.8 50.4002 17.8 50.2002C18.1 49.6002 18.2 49.0002 18.2 48.4002V45.9002C18.2 45.9002 18.2 45.9002 18.2 45.8002V45.7002C18.2 45.5002 18.2 45.3002 18.1 45.1002H19.3H19.4H19.6C19.7 45.1002 19.7 45.1002 19.8 45.1002H22.4C22.9 45.1002 23.5 45.2002 23.9 45.5002C23.2 46.0002 22.5 46.6002 22.1 47.3002C21.3 48.7002 20.8 50.1002 20.5 51.6002ZM39.4 57.7002V59.8002C36.1 59.8002 33.4 59.8002 30.6 59.8002C28 59.8002 25.5 59.8002 22.7 59.8002V53.7002C22.7 52.0002 23.2 50.3002 24.2 48.8002C24.7 48.0002 25.5 47.5002 26.3 47.2002C26.4 47.2002 26.4 47.2002 26.5 47.2002C26.8 47.1002 27.2 47.1002 27.5 47.1002H29.9V51.0002C29.9 51.7002 30.5 52.2002 31.1 52.2002C31.8 52.2002 32.3 51.7002 32.3 51.0002V46.9002H34.6C35.9 46.9002 37.2 47.6002 37.9 48.7002C38.9 50.2002 39.4 51.8002 39.4 53.6002V57.7002ZM40 47.4002C39.5 46.7002 38.9 46.0002 38.2 45.6002C38.7 45.3002 39.2 45.2002 39.7 45.2002H42.3C42.4 45.2002 42.4 45.2002 42.5 45.2002H42.7H42.8H44C44 45.4002 43.9 45.7002 43.9 45.9002V48.4002C43.9 49.1002 44.1 49.7002 44.3 50.2002C43.3 50.4002 42.3 50.9002 41.5 51.6002C41.4 50.1002 40.9 48.7002 40 47.4002ZM54.8 59.7002C52.3 59.7002 49.9 59.7002 47.6 59.7002C45.6 59.7002 43.8 59.7002 41.9 59.7002V57.7002C41.9 56.4002 42.3 55.0002 43 53.9002C43.5 53.1002 44.5 52.6002 45.4 52.6002H48C48.1 52.6002 48.1 52.6002 48.2 52.6002H48.4C48.5 52.6002 48.5 52.6002 48.6 52.6002H51.2C52.2 52.6002 53.1 53.1002 53.6 53.9002C54.3 55.0002 54.7 56.3002 54.7 57.7002V59.7002H54.8Z" fill="#174682"/>
</svg>
