<svg width="82" height="82" viewBox="0 0 82 82" fill="none" xmlns="http://www.w3.org/2000/svg">
<path d="M58.2436 45.5613V43.5625C58.2436 43.2652 58.1255 42.98 57.9153 42.7698C57.705 42.5595 57.4199 42.4414 57.1225 42.4414C56.8252 42.4414 56.5401 42.5595 56.3298 42.7698C56.1196 42.98 56.0014 43.2652 56.0014 43.5625V46.4453C56.0014 46.7426 56.1196 47.0278 56.3298 47.238C56.5401 47.4483 56.8252 47.5664 57.1225 47.5664C57.2201 47.5664 57.316 47.5917 57.4009 47.6397C57.4858 47.6878 57.5568 47.757 57.607 47.8406C57.6572 47.9243 57.6849 48.0195 57.6874 48.117C57.6899 48.2145 57.6671 48.311 57.6212 48.3971C57.5754 48.4832 57.508 48.556 57.4257 48.6083C57.3433 48.6606 57.2489 48.6907 57.1514 48.6957C57.054 48.7007 56.957 48.6804 56.8697 48.6367C56.7825 48.5931 56.708 48.5276 56.6536 48.4466C56.5722 48.3224 56.4669 48.2156 56.3438 48.1325C56.2208 48.0493 56.0824 47.9914 55.9368 47.9622C55.7912 47.9329 55.6412 47.9329 55.4956 47.9621C55.35 47.9914 55.2116 48.0492 55.0885 48.1323C54.9654 48.2155 54.8601 48.3222 54.7786 48.4464C54.6972 48.5706 54.6412 48.7098 54.614 48.8558C54.5867 49.0018 54.5888 49.1517 54.62 49.2969C54.6512 49.4421 54.711 49.5797 54.7958 49.7016C55.0391 50.0631 55.3632 50.363 55.7425 50.5775C56.1218 50.7921 56.5458 50.9153 56.981 50.9376C57.4161 50.9598 57.8505 50.8804 58.2497 50.7057C58.6489 50.5309 59.0019 50.2656 59.2807 49.9308C59.5596 49.596 59.7567 49.2008 59.8564 48.7766C59.956 48.3524 59.9556 47.9109 59.855 47.4869C59.7544 47.0629 59.5565 46.6682 59.2769 46.3339C58.9974 45.9997 58.6438 45.7352 58.2443 45.5613H58.2436Z" fill="#F1F3FA"/>
<path d="M57.1226 16.1758C56.8252 16.1758 56.5401 16.2939 56.3298 16.5041C56.1196 16.7144 56.0015 16.9995 56.0015 17.2969V37.3696C56.0015 37.6669 56.1196 37.9521 56.3298 38.1623C56.5401 38.3726 56.8252 38.4907 57.1226 38.4907C57.4199 38.4907 57.705 38.3726 57.9153 38.1623C58.1255 37.9521 58.2437 37.6669 58.2437 37.3696V17.2969C58.2437 16.9995 58.1255 16.7144 57.9153 16.5041C57.705 16.2939 57.4199 16.1758 57.1226 16.1758Z" fill="#F1F3FA"/>
<path d="M29.0068 23.0625H24.5225L25.1951 8.32812H28.3342L29.0068 23.0625Z" fill="#F1F3FA"/>
<path d="M29.0068 23.0625H26.7646V8.32812H28.3342L29.0068 23.0625Z" fill="#D8E2EB"/>
<path d="M33.2941 47.3819V47.3787L32.369 23.0202C32.3581 22.7304 32.2352 22.4561 32.0263 22.2549C31.8173 22.0537 31.5386 21.9414 31.2485 21.9414H22.2798C21.9898 21.9414 21.711 22.0537 21.502 22.2549C21.2931 22.4561 21.1703 22.7304 21.1593 23.0202L20.9146 29.4688C20.9146 29.4752 20.9146 29.4809 20.9108 29.4873C20.9069 29.4937 20.9108 29.5136 20.9108 29.527L20.2356 47.3422C20.2356 47.3544 20.2311 47.3659 20.2311 47.3781C20.2311 47.3902 20.2311 47.3947 20.2311 47.4031L19.8704 56.9048L19.4181 68.8172V68.8813L19.2381 73.6264C19.2324 73.7771 19.2572 73.9274 19.3109 74.0683C19.3647 74.2092 19.4463 74.3378 19.5509 74.4464C19.6555 74.555 19.781 74.6414 19.9197 74.7004C20.0585 74.7594 20.2078 74.7898 20.3586 74.7898H33.1711C33.3219 74.7898 33.4711 74.7594 33.6099 74.7004C33.7487 74.6414 33.8741 74.555 33.9787 74.4464C34.0833 74.3378 34.1649 74.2092 34.2187 74.0683C34.2724 73.9274 34.2972 73.7771 34.2915 73.6264L33.2941 47.3819ZM23.3189 25.1708L24.816 26.2285L23.2362 27.3444L23.3189 25.1708ZM30.287 27.3489L28.7033 26.2304L30.2043 25.1702L30.287 27.3489ZM26.7629 41.6771L23.3721 38.9865L26.7629 35.7078L30.1544 38.9865L26.7629 41.6771ZM30.8206 41.3203L30.9609 45.0071L28.5675 43.1083L30.8206 41.3203ZM24.9589 43.1083L22.5687 45.0045L22.7084 41.3229L24.9589 43.1083ZM26.7629 44.5395L30.41 47.4325L26.7629 50.5453L23.1158 47.4306L26.7629 44.5395ZM31.1409 49.7573L31.319 54.4384L28.4894 52.0188L31.1409 49.7573ZM30.6284 36.3286L28.3734 34.1504L30.4689 32.1241L30.6284 36.3286ZM26.7629 32.5886L23.7814 29.7058L26.7622 27.6007L29.7431 29.7058L26.7629 32.5886ZM26.7629 24.8556L25.8109 24.1836H27.7136L26.7629 24.8556ZM25.1498 34.1453L22.898 36.3234L23.0575 32.1235L25.1498 34.1453ZM25.0364 52.0188L22.2106 54.4352L22.3881 49.7586L25.0364 52.0188ZM22.6469 57.0086L26.7629 53.4935L30.8783 57.0118L26.7622 61.1015L22.6469 57.0086ZM25.1722 62.6781L21.7686 66.06L22.0159 59.5429L25.1722 62.6781ZM31.5144 59.5391L31.7623 66.0632L28.3555 62.6781L31.5144 59.5391ZM21.5251 72.5508L21.6469 69.3477L26.7654 64.2617L31.8904 69.3509L32.0122 72.554L21.5251 72.5508Z" fill="#869AFF"/>
<path d="M41.9834 60.2031H55.9497V64.6926H41.9834V60.2031Z" fill="#FF8617"/>
<path d="M41.9834 69.1826H55.9497V73.6721H41.9834V69.1826Z" fill="#FF8617"/>
<path d="M55.949 69.1826H69.9152V73.6721H55.949V69.1826Z" fill="#FF8617"/>
<path d="M48.9661 64.6924H62.9323V69.1819H48.9661V64.6924Z" fill="#FF8617"/>
<path d="M17.3154 68.8672H36.2139V73.6719H17.3154V68.8672Z" fill="#FF8617"/>
<path d="M8.32812 13.2178H73.6719V17.2966H8.32812V13.2178Z" fill="#FF8617"/>
<path d="M59.2444 43.563H55.0002L53.719 41.4278L54.3596 37.3701H59.885L60.5256 41.4278L59.2444 43.563Z" fill="#FF8617"/>
<path d="M48.0872 65.8135C48.3845 65.8135 48.6696 65.6954 48.8799 65.4851C49.0901 65.2749 49.2083 64.9897 49.2083 64.6924C49.2083 64.395 49.0901 64.1099 48.8799 63.8996C48.6696 63.6894 48.3845 63.5713 48.0872 63.5713H47.6868C47.3894 63.5713 47.1043 63.6894 46.894 63.8996C46.6838 64.1099 46.5657 64.395 46.5657 64.6924C46.5657 64.9897 46.6838 65.2749 46.894 65.4851C47.1043 65.6954 47.3894 65.8135 47.6868 65.8135H48.0872Z" fill="#174682"/>
<path d="M44.3101 16.1758C44.0127 16.1758 43.7276 16.2939 43.5173 16.5041C43.3071 16.7144 43.189 16.9995 43.189 17.2969C43.189 17.5942 43.3071 17.8794 43.5173 18.0896C43.7276 18.2999 44.0127 18.418 44.3101 18.418H44.8437C45.141 18.418 45.4262 18.2999 45.6364 18.0896C45.8467 17.8794 45.9648 17.5942 45.9648 17.2969C45.9648 16.9995 45.8467 16.7144 45.6364 16.5041C45.4262 16.2939 45.141 16.1758 44.8437 16.1758H44.3101Z" fill="#174682"/>
<path d="M8.88867 72.5508H8.32812C8.03079 72.5508 7.74564 72.6689 7.53539 72.8791C7.32515 73.0894 7.20703 73.3745 7.20703 73.6719C7.20703 73.9692 7.32515 74.2544 7.53539 74.4646C7.74564 74.6749 8.03079 74.793 8.32812 74.793H8.88867C9.186 74.793 9.47116 74.6749 9.68141 74.4646C9.89165 74.2544 10.0098 73.9692 10.0098 73.6719C10.0098 73.3745 9.89165 73.0894 9.68141 72.8791C9.47116 72.6689 9.186 72.5508 8.88867 72.5508Z" fill="#174682"/>
<path d="M74.4 73.0004C74.2001 72.8004 74 72.7004 73.7 72.7004H70.9001V69.2004C70.9001 68.9004 70.8 68.7004 70.6 68.5004C70.4 68.3004 70.2001 68.2004 69.9001 68.2004H63.9001V64.7004C63.9001 64.4004 63.8 64.2004 63.6 64.0004C63.4 63.8004 63.2001 63.7004 62.9001 63.7004H56.9001V60.2004C56.9001 59.9004 56.8 59.7004 56.6 59.5004C56.4 59.3004 56.2001 59.2004 55.9001 59.2004H42C41.7001 59.2004 41.5 59.3004 41.3 59.5004C41.1 59.7004 41 59.9004 41 60.2004V64.7004C41 65.0004 41.1 65.2004 41.3 65.4004C41.5 65.6004 41.7001 65.7004 42 65.7004H44C44.3 65.7004 44.5 65.6004 44.7001 65.4004C44.9001 65.2004 45 65.0004 45 64.7004C45 64.4004 44.9001 64.2004 44.7001 64.0004C44.5 63.8004 44.3 63.7004 44 63.7004H43V61.2004H55V63.7004H51.7001C51.4001 63.7004 51.2001 63.8004 51 64.0004C50.8 64.2004 50.7001 64.4004 50.7001 64.7004C50.7001 65.0004 50.8 65.2004 51 65.4004C51.2001 65.6004 51.4001 65.7004 51.7001 65.7004H62V68.2004H42C41.7001 68.2004 41.5 68.3004 41.3 68.5004C41.1 68.7004 41 68.9004 41 69.2004V72.7004H18.3V69.9004H36.2001C36.5 69.9004 36.7 69.8004 36.9 69.6004C37.1 69.4004 37.2001 69.2004 37.2001 68.9004C37.2001 68.6004 37.1 68.4004 36.9 68.2004C36.7 68.0004 36.5 67.9004 36.2001 67.9004H33.9V67.8004L32.2001 23.0004C32.2001 22.8004 32.1 22.7004 32.1 22.5004C32 22.4004 31.9 22.2004 31.8 22.2004C31.8 22.2004 31.7001 22.2004 31.7001 22.1004H31.6H31.5H31.4C31.4 22.1004 31.4 22.1004 31.3 22.1004H30L29.8 18.3004H40C40.3 18.3004 40.5 18.2004 40.7001 18.0004C40.9001 17.8004 41 17.6004 41 17.3004C41 17.0004 40.9001 16.8004 40.7001 16.6004C40.5 16.4004 40.3 16.3004 40 16.3004H9.30005V14.2004H72.7V16.3004H48.8C48.5 16.3004 48.3 16.4004 48.1 16.6004C47.9 16.8004 47.8 17.0004 47.8 17.3004C47.8 17.6004 47.9 17.8004 48.1 18.0004C48.3 18.2004 48.5 18.3004 48.8 18.3004H56.2001V36.4004H54.4001C54.2001 36.4004 53.9 36.5004 53.8 36.6004C53.6 36.8004 53.5 37.0004 53.5 37.2004L52.9001 41.3004C52.9001 41.5004 52.9001 41.8004 53 42.0004L54.3 44.1004C54.4 44.2004 54.5 44.4004 54.7001 44.4004C54.8 44.5004 55 44.5004 55.2001 44.5004H56.3V46.4004C56.3 46.7004 56.4 46.9004 56.6 47.1004C56.8 47.3004 57 47.4004 57.3 47.4004C57.4 47.4004 57.5 47.4004 57.6 47.5004C57.7 47.6004 57.8001 47.6004 57.9001 47.8004C58 48.0004 58 48.0004 58 48.1004C58 48.2004 58 48.3004 57.9001 48.4004C57.8001 48.5004 57.8 48.6004 57.7001 48.7004C57.6001 48.8004 57.5 48.8004 57.4001 48.8004C57.3001 48.8004 57.2001 48.8004 57 48.7004C56.9001 48.6004 56.8 48.6004 56.7001 48.5004C56.6001 48.4004 56.5 48.3004 56.4001 48.2004C56.3001 48.1004 56.2001 48.1004 56 48.1004C55.9001 48.1004 55.7 48.1004 55.6 48.1004C55.5 48.1004 55.4001 48.2004 55.2001 48.2004C55.1001 48.3004 55 48.4004 54.9001 48.5004C54.8001 48.6004 54.8 48.7004 54.8 48.9004C54.8 49.0004 54.8 49.2004 54.8 49.3004C54.8 49.4004 54.9001 49.5004 55 49.7004C55.2001 50.0004 55.5 50.3004 55.9001 50.5004C56.3001 50.7004 56.7 50.8004 57.1 50.8004C57.5 50.8004 57.9 50.7004 58.3 50.6004C58.7001 50.4004 59 50.2004 59.3 49.9004C59.6 49.6004 59.8 49.2004 59.8 48.8004C59.9 48.4004 59.9 48.0004 59.8 47.6004C59.7001 47.2004 59.5 46.8004 59.3 46.5004C59 46.2004 58.7001 45.9004 58.3 45.8004H58.2001V44.7004H59.3C59.5 44.7004 59.6 44.7004 59.8 44.6004C59.9 44.5004 60.1001 44.4004 60.2001 44.3004L61.5 42.2004C61.6 42.0004 61.7 41.8004 61.6 41.5004L61 37.4004C61 37.2004 60.8 37.0004 60.7001 36.8004C60.6001 36.6004 60.3 36.6004 60.1 36.6004H58.3V18.3004H73.9C74.2001 18.3004 74.4 18.2004 74.6 18.0004C74.8 17.8004 74.9 17.6004 74.9 17.3004V13.2004C74.9 13.0004 74.8 12.7004 74.7 12.6004C74.5 12.4004 74.3 12.3004 74.1 12.3004L28.4 7.40039H28.3H25.2001C25.1 7.40039 25 7.40039 24.9 7.40039L8.00005 12.3004C7.80005 12.3004 7.70005 12.5004 7.50005 12.6004C7.40005 12.8004 7.30005 13.0004 7.30005 13.2004V17.3004C7.30005 17.6004 7.40005 17.8004 7.60005 18.0004C7.80005 18.2004 8.00005 18.3004 8.30005 18.3004H23.7001L23.5 22.1004H22.1H22C22 22.1004 22 22.1004 21.9 22.1004C21.8 22.1004 21.8 22.1004 21.8 22.1004H21.7C21.7 22.1004 21.6 22.1004 21.6 22.2004L21.5 22.3004C21.5 22.4004 21.4 22.4004 21.4 22.5004C21.4 22.6004 21.4 22.6004 21.4 22.7004C21.4 22.7004 21.4 22.7004 21.4 22.8004L21.1 29.3004L19.6 67.7004H17.3C17 67.7004 16.8 67.8004 16.6 68.0004C16.4 68.2004 16.3 68.4004 16.3 68.7004V72.5004H12.3C12 72.5004 11.8 72.6004 11.6 72.8004C11.4 73.0004 11.3 73.2004 11.3 73.5004C11.3 73.8004 11.4 74.0004 11.6 74.2004C11.8 74.4004 12 74.5004 12.3 74.5004H73.7C74 74.5004 74.2001 74.4004 74.4 74.2004C74.6 74.0004 74.7 73.8004 74.7 73.5004C74.7 73.4004 74.5 73.2004 74.4 73.0004ZM59 38.3004L59.5 41.2004L58.7001 42.6004H55.6L54.8 41.2004V41.1004L55.2001 38.3004H59ZM29.5 9.40039L52.8 12.0004V12.3004H29.5L29.4 9.50039L29.5 9.40039ZM26.2001 9.30039H27.4L27.5 12.2004H26L26.2001 9.30039ZM24.2001 9.60039L24 12.2004H15.2L24.2001 9.60039ZM22.9 67.9004L26.8 64.1004L30.7001 67.9004H22.9ZM26.8 35.5004L30.4 39.0004L26.8 41.9004L23.2 39.0004L26.8 35.5004ZM26.8 32.8004L23.6 29.7004L26.8 27.4004L30 29.7004L26.8 32.8004ZM30.6 47.4004L26.7001 50.7004L26.6 50.6004L22.8 47.4004L26.7001 44.3004L30.6 47.4004ZM26.8 53.3004L31.1 57.0004L26.8 61.3004L22.4 57.0004L26.8 53.3004ZM31.6 59.2004L31.9 66.4004L28.1 62.7004L31.6 59.2004ZM31.3 49.5004L31.5 54.8004L28.3 52.0004L31.3 49.5004ZM31.1 45.3004L28.3 43.1004L31 41.0004L31.1 45.3004ZM30.8 36.7004L28.2001 34.2004L30.6 31.9004L30.8 36.7004ZM30.3 24.9004L30.4 27.6004L28.4 26.2004L30.3 24.9004ZM25.7001 18.3004H27.8L28 22.1004H25.6L25.7001 18.3004ZM28.2001 24.0004L26.8 25.0004L25.4 24.0004H28.2001ZM23.2 24.9004L25.1 26.2004L23.1 27.6004L23.2 24.9004ZM22.9 31.8004L25.3 34.1004L22.7 36.6004L22.9 31.8004ZM22.6 41.0004L25.2001 43.1004L22.4 45.3004L22.6 41.0004ZM22.3 49.5004L25.3 52.1004L22.1 54.8004L22.3 49.5004ZM21.9 59.2004L25.4 62.7004L21.6 66.4004L21.9 59.2004ZM55 72.7004H43V70.2004H55V72.7004ZM68.9001 72.7004H56.9001V70.2004H68.9001V72.7004Z" fill="#174682"/>
</svg>
