<svg width="66" height="66" viewBox="0 0 66 66" fill="none" xmlns="http://www.w3.org/2000/svg">
<g clip-path="url(#clip0)">
<path d="M0 34.6834C0.257812 33.6847 0.435058 32.6698 0.789551 31.7193C3.48047 24.2768 13.229 21.8121 19.1587 27.0637C24.5083 31.7837 24.5566 39.6451 19.2876 44.494C19.1909 44.5746 19.0942 44.639 18.9976 44.7196C19.0137 44.7679 19.0459 44.8162 19.062 44.8645C19.2876 44.8645 19.5132 44.8645 19.7388 44.8645C22.0591 44.8645 24.3794 44.8645 26.6997 44.8645C27.9243 44.8645 28.3594 45.3156 28.3755 46.5399C28.3755 48.022 28.3755 49.4879 28.3755 51.0505C29.165 51.0505 29.9224 51.0505 30.6636 51.0505C31.7593 51.0666 32.2427 51.5338 32.2427 52.6292C32.2427 54.4979 32.2588 56.3666 32.2427 58.2353C32.2427 59.3307 31.7593 59.7979 30.6636 59.814C29.9385 59.8301 29.2134 59.814 28.4238 59.814C28.4238 61.0061 28.4238 62.1821 28.4238 63.3742C40.0737 63.3742 51.7236 63.3742 63.4057 63.3742C63.4057 47.0393 63.4057 30.7205 63.4057 14.3212C63.1802 14.3212 62.9546 14.3212 62.729 14.3212C59.6191 14.3212 56.4931 14.3212 53.3833 14.3212C52.1587 14.3212 51.7075 13.8863 51.7075 12.6619C51.7075 9.56895 51.7075 6.47596 51.7075 3.38296C51.7075 3.15743 51.7075 2.91579 51.7075 2.64193C41.0083 2.64193 30.3413 2.64193 19.6421 2.64193C19.6421 4.05956 19.6421 5.47718 19.6421 6.97535C19.8677 6.97535 20.0933 6.97535 20.3188 6.97535C24.5566 6.97535 28.7783 6.97535 33.0161 6.97535C33.3061 6.97535 33.6284 6.99146 33.9023 7.08811C34.4502 7.26532 34.7241 7.68416 34.7241 8.2641C34.7241 8.84403 34.4502 9.26288 33.9023 9.44008C33.6445 9.52063 33.3545 9.55284 33.0806 9.55284C24.9756 9.55284 16.8867 9.55284 8.78174 9.55284C7.60547 9.55284 6.99316 9.10178 6.97705 8.28021C6.97705 7.44252 7.60547 6.97535 8.76562 6.97535C11.4888 6.97535 14.2119 6.97535 17.0317 6.97535C17.0317 6.10544 17.0317 5.28387 17.0317 4.44618C17.0317 3.52795 17.0317 2.59361 17.0317 1.67537C17.0317 0.467171 17.499 0.0161093 18.7236 0.0161093C25.9424 0.0161093 33.1611 0.0161093 40.3799 0.0161093C44.4404 0.0161093 48.501 0.0322187 52.5615 0C53.2383 0 53.7539 0.209421 54.2212 0.676593C57.9272 4.39785 61.6333 8.08689 65.3393 11.792C65.5972 12.0498 65.8066 12.3559 66.0322 12.6297C66.0322 30.4145 66.0322 48.1992 66.0322 65.9839C44.0376 65.9839 22.0268 65.9839 0.0322266 65.9839C0.0322266 63.3581 0.0322266 60.7484 0.0322266 58.1225C0.435058 57.3976 1.04736 57.156 1.85303 57.2043C2.52978 57.2526 3.20654 57.2204 3.86719 57.2204C3.86719 55.9639 3.86719 54.8201 3.86719 53.6119C3.17432 53.6119 2.51367 53.5797 1.85303 53.628C1.04736 53.6763 0.435058 53.4347 0.0322266 52.7098C0.0322266 50.39 0.0322266 48.0703 0.0322266 45.7505C0.435058 45.0256 1.04736 44.8001 1.85303 44.8323C2.62646 44.8806 3.3999 44.8484 4.35058 44.8484C2.6748 43.4308 1.51465 41.8843 0.83789 40.0156C0.483398 39.033 0.290039 38.002 0.0322266 36.9871C0 36.2299 0 35.4567 0 34.6834ZM11.6177 26.8221C6.65478 26.8221 2.59424 30.8655 2.59424 35.8272C2.59424 40.7889 6.63867 44.8484 11.6016 44.8645C16.5644 44.8645 20.625 40.8211 20.625 35.8594C20.625 30.8816 16.5644 26.8221 11.6177 26.8221ZM15.501 63.3742C16.8061 63.3742 18.063 63.3742 19.3037 63.3742C19.4004 62.0693 19.771 61.5377 20.5767 61.4894C21.3984 61.4572 21.8013 62.0049 21.9624 63.3742C23.2192 63.3742 24.46 63.3742 25.7329 63.3742C25.7329 62.166 25.7329 61.0061 25.7329 59.8462C17.9985 59.8462 10.2964 59.8462 2.61035 59.8462C2.61035 61.0383 2.61035 62.1982 2.61035 63.3742C3.89941 63.3742 5.15625 63.3742 6.39697 63.3742C6.50976 62.0693 6.88037 61.5055 7.66992 61.5055C7.92773 61.5055 8.31445 61.5699 8.42724 61.7471C8.74951 62.2304 8.95898 62.7942 9.24902 63.3742C10.3447 63.3742 11.5854 63.3742 12.8262 63.3742C13.0195 61.9888 13.4062 61.4572 14.2119 61.4894C15.0337 61.5216 15.4204 62.0854 15.501 63.3742ZM29.6162 53.6602C21.8657 53.6602 14.1797 53.6602 6.49365 53.6602C6.49365 54.8684 6.49365 56.0444 6.49365 57.1882C7.78271 57.1882 9.02343 57.1882 10.248 57.1882C10.4092 55.7061 10.7153 55.2067 11.521 55.1906C11.7949 55.1906 12.2139 55.2712 12.3428 55.4645C12.665 55.98 12.8584 56.576 13.1162 57.1882C14.228 57.1882 15.4849 57.1882 16.7256 57.1882C16.8061 55.7706 17.1768 55.2067 17.9985 55.1745C18.8042 55.1423 19.1587 55.6578 19.4004 57.2204C20.0127 57.2204 20.625 57.2204 21.2373 57.2204C21.8818 57.2204 22.5102 57.2204 23.1387 57.2204C23.2676 55.7383 23.606 55.1584 24.4116 55.1906C25.7329 55.2228 25.7651 56.2377 25.7974 57.2043C27.1025 57.2043 28.3271 57.2043 29.6001 57.2043C29.6162 56.0122 29.6162 54.8684 29.6162 53.6602ZM12.8906 51.0183C12.8906 50.6317 12.8745 50.3095 12.8906 49.9873C12.939 49.2141 13.4546 48.7147 14.1475 48.6986C14.8726 48.6824 15.4043 49.2141 15.4526 50.0034C15.4687 50.3417 15.4526 50.6639 15.4526 51.0022C16.79 51.0022 18.0146 51.0022 19.2554 51.0022C19.3037 50.4867 19.3037 49.9873 19.4326 49.5201C19.5776 48.9724 20.0288 48.6986 20.6089 48.6986C21.4468 48.6986 21.7046 49.1174 21.9624 51.0022C23.2192 51.0022 24.46 51.0022 25.7168 51.0022C25.7168 49.794 25.7168 48.6341 25.7168 47.4743C17.9824 47.4743 10.2803 47.4743 2.59424 47.4743C2.59424 48.6663 2.59424 49.8262 2.59424 51.0022C3.8833 51.0022 5.14014 51.0022 6.38086 51.0022C6.5581 49.1818 6.78369 48.7147 7.60547 48.7147C9.20068 48.7308 8.94287 50.0034 9.03955 51.0183C10.3447 51.0183 11.5693 51.0183 12.8906 51.0183ZM61.3432 11.6954C59.0068 9.35953 56.6382 7.00757 54.3017 4.67171C54.3017 6.95924 54.3017 9.3112 54.3017 11.7115C56.7026 11.6954 59.0713 11.6954 61.3432 11.6954Z" fill="#FF8617"/>
<path d="M41.5403 30.6884C41.2986 31.0267 41.1213 31.3166 40.9119 31.5422C38.9621 33.5075 36.9963 35.4728 35.0305 37.4221C34.821 37.6315 34.5955 37.8409 34.3376 38.002C33.8059 38.3081 33.2903 38.1953 32.8552 37.7926C32.4202 37.406 32.3396 36.7616 32.6457 36.2622C32.7746 36.0528 32.9519 35.8434 33.1291 35.6662C35.5461 33.2498 37.9631 30.8334 40.3801 28.417C41.3308 27.4665 41.9431 27.4826 42.8938 28.4331C44.0378 29.5929 45.1819 30.7528 46.2615 31.8482C49.2102 28.9002 52.0784 26.0328 54.9465 23.1653C54.7532 23.1492 54.5115 23.1331 54.2537 23.1009C53.6252 23.0042 53.158 22.4887 53.158 21.8766C53.1418 21.2805 53.5447 20.6684 54.157 20.6522C55.6072 20.5878 57.0735 20.5878 58.5237 20.6361C59.1843 20.6684 59.5388 21.1677 59.5549 21.8282C59.5872 23.1009 59.5872 24.3574 59.571 25.63C59.5549 26.4355 59.0876 26.9349 58.3948 26.9832C57.6536 27.0315 57.1379 26.5644 57.0251 25.7428C56.9929 25.5495 56.9929 25.3562 56.9768 25.034C56.7351 25.2595 56.574 25.4045 56.429 25.5495C53.5124 28.4653 50.5959 31.3811 47.6794 34.2969C46.6965 35.2795 46.1003 35.2956 45.1335 34.313C43.9895 33.1692 42.8616 32.0093 41.5403 30.6884Z" fill="#FF8617"/>
<path d="M47.3086 56.4632C51.1758 56.4632 55.043 56.4632 58.9102 56.4632C59.7803 56.4632 60.312 56.8015 60.457 57.4298C60.6665 58.3319 60.0703 59.0246 59.0391 59.0407C56.9282 59.0568 54.8335 59.0407 52.7227 59.0407C47.1958 59.0407 41.6851 59.0407 36.1582 59.0407C36.0454 59.0407 35.9487 59.0407 35.8359 59.0407C34.7886 59.0407 34.1763 58.5574 34.1763 57.752C34.1763 56.9465 34.8047 56.4632 35.8359 56.4632C39.6548 56.4471 43.4897 56.4632 47.3086 56.4632Z" fill="#FF8617"/>
<path d="M18.4981 15.2234C15.2593 15.2234 12.0205 15.2234 8.76563 15.2234C8.55616 15.2234 8.33058 15.2395 8.1211 15.2073C7.42823 15.1106 6.92872 14.5307 6.96095 13.8863C6.99317 13.258 7.47657 12.7425 8.16944 12.662C8.34669 12.6459 8.50782 12.6459 8.68507 12.6459C15.1626 12.6459 21.6563 12.6459 28.1338 12.6459C28.1821 12.6459 28.2144 12.6459 28.2627 12.6459C29.3423 12.6459 29.9224 13.0969 29.9224 13.9185C29.9224 14.7562 29.3423 15.2234 28.2788 15.2234C25.0239 15.2234 21.7691 15.2234 18.4981 15.2234Z" fill="#FF8617"/>
<path d="M15.5976 20.8939C13.2129 20.8939 10.8281 20.91 8.44333 20.8939C7.34763 20.8939 6.68699 20.0079 7.08982 19.1058C7.37986 18.4614 7.92771 18.3164 8.57224 18.3164C11.2954 18.3164 14.0346 18.3164 16.7578 18.3164C18.7075 18.3164 20.6733 18.3164 22.623 18.3164C23.2837 18.3164 23.8154 18.5419 24.0571 19.1863C24.3794 20.0562 23.7026 20.8778 22.623 20.8939C20.4316 20.91 18.2402 20.8939 16.0488 20.8939C15.9038 20.8939 15.7426 20.8939 15.5976 20.8939Z" fill="#FF8617"/>
<path d="M59.0389 45.3962C59.0389 47.6676 59.055 49.9551 59.0389 52.2265C59.0389 53.0642 58.4749 53.628 57.7498 53.6119C57.0409 53.5958 56.5252 53.0481 56.4769 52.2588C56.4608 52.0815 56.4769 51.9205 56.4769 51.7433C56.4769 47.7642 56.4769 43.8013 56.4769 39.8223C56.4769 39.4357 56.4769 39.0491 56.4769 38.6625C56.493 37.7281 57.0086 37.1321 57.7821 37.1321C58.5555 37.1482 59.055 37.7442 59.055 38.6786C59.0389 40.9339 59.0389 43.157 59.0389 45.3962Z" fill="#FF8617"/>
<path d="M53.8828 45.4445C53.8828 47.6193 53.8828 49.7779 53.8828 51.9527C53.8828 52.2265 53.8667 52.5165 53.77 52.7743C53.5928 53.322 53.1577 53.6119 52.5938 53.6119C52.0298 53.6119 51.5947 53.3381 51.4175 52.7904C51.3208 52.5165 51.3047 52.1943 51.3047 51.9044C51.3047 47.5709 51.3047 43.2214 51.3047 38.888C51.3047 38.743 51.3047 38.5819 51.3047 38.4369C51.3691 37.6798 51.9009 37.1643 52.5776 37.1482C53.2544 37.1482 53.8184 37.6798 53.8667 38.4208C53.8989 39.1135 53.8828 39.7901 53.8828 40.4828C53.8828 42.126 53.8828 43.7852 53.8828 45.4445Z" fill="#FF8617"/>
<path d="M40.9922 45.6539C40.9922 43.5919 40.9922 41.5299 40.9922 39.484C40.9922 39.2101 41.0083 38.9202 41.0889 38.6624C41.2822 38.0825 41.7173 37.7925 42.3135 37.8086C42.8774 37.8247 43.2964 38.1308 43.4736 38.6785C43.5542 38.9202 43.5703 39.1779 43.5703 39.4357C43.5703 43.6241 43.5703 47.7964 43.5703 51.9848C43.5703 52.1943 43.5703 52.4198 43.522 52.6292C43.3931 53.2414 42.8613 53.6441 42.2812 53.6441C41.7012 53.6441 41.1855 53.2253 41.0405 52.6131C40.9922 52.3876 40.9922 52.1459 40.9922 51.9043C40.9922 49.8101 40.9922 47.732 40.9922 45.6539Z" fill="#FF8617"/>
<path d="M35.8358 47.5064C35.8358 45.8955 35.8197 44.2846 35.8358 42.6897C35.8519 41.6426 36.7381 40.9983 37.6082 41.3849C38.14 41.6104 38.3978 42.0454 38.3978 42.6092C38.4139 45.8472 38.4139 49.0851 38.3978 52.3231C38.3978 53.1125 37.8016 53.6441 37.0926 53.6441C36.3836 53.628 35.8519 53.0803 35.8358 52.2909C35.8197 50.68 35.8358 49.0851 35.8358 47.5064Z" fill="#FF8617"/>
<path d="M46.1486 47.9575C46.1486 46.5398 46.1486 45.1222 46.1486 43.7207C46.1486 43.1408 46.4064 42.6736 46.9542 42.4481C47.4537 42.2548 47.9694 42.3031 48.3077 42.7219C48.5333 42.9958 48.7106 43.4146 48.7106 43.769C48.7428 46.5721 48.7428 49.3751 48.7267 52.1942C48.7267 53.0641 48.1627 53.6441 47.4215 53.628C46.6964 53.6118 46.1647 53.048 46.1647 52.2103C46.1324 50.7766 46.1486 49.359 46.1486 47.9575Z" fill="#FF8617"/>
<path d="M36.9476 15.2234C36.3031 15.2234 35.6585 15.2395 35.014 15.2234C34.16 15.2073 33.596 14.7079 33.5799 13.9668C33.5638 13.2097 34.1439 12.662 35.014 12.6459C36.3031 12.6298 37.5921 12.6298 38.8812 12.6459C39.7191 12.662 40.2992 13.1775 40.3153 13.9024C40.3314 14.6434 39.7352 15.1912 38.8651 15.2234C38.2367 15.2234 37.5921 15.2234 36.9476 15.2234Z" fill="#FF8617"/>
<path d="M57.7661 31.7354C58.4429 31.7354 59.0391 32.3637 59.0391 33.0403C59.0391 33.7169 58.4268 34.3129 57.75 34.2968C57.0732 34.2807 56.4771 33.6846 56.4771 33.0081C56.4771 32.3315 57.0894 31.7193 57.7661 31.7354Z" fill="#FF8617"/>
<path d="M34.7726 20.8777C34.0797 20.8294 33.548 20.2172 33.5963 19.5245C33.6447 18.8318 34.2731 18.2841 34.9498 18.3324C35.6427 18.3808 36.1744 18.9768 36.1261 19.6856C36.0617 20.3783 35.4493 20.9261 34.7726 20.8777Z" fill="#FF8617"/>
<path d="M38.7686 6.97534C39.4453 6.97534 40.0415 7.57139 40.0254 8.26409C40.0254 8.95679 39.4292 9.53673 38.7524 9.53673C38.0757 9.53673 37.4956 8.94068 37.4956 8.24798C37.4956 7.55528 38.0757 6.97534 38.7686 6.97534Z" fill="#FF8617"/>
<path d="M29.9222 19.6373C29.9061 20.33 29.3099 20.91 28.6331 20.8777C27.9403 20.8616 27.3763 20.2495 27.3924 19.5729C27.4085 18.8802 28.0208 18.3002 28.6976 18.3325C29.3905 18.3325 29.9383 18.9285 29.9222 19.6373Z" fill="#FF8617"/>
<path d="M41.0244 18.3164C41.7012 18.3002 42.2974 18.8963 42.2974 19.5729C42.2974 20.2656 41.7334 20.8616 41.0566 20.8616C40.3799 20.8777 39.7837 20.2817 39.7676 19.589C39.7676 18.9285 40.3315 18.3325 41.0244 18.3164Z" fill="#FF8617"/>
<path d="M15.7266 38.6302C15.6299 40.0478 14.8243 41.1432 13.4546 41.8842C13.1807 42.0292 12.939 42.287 12.7779 42.5447C12.504 43.0119 12.1495 43.3019 11.6016 43.3019C11.0538 43.3019 10.6993 43.0119 10.4253 42.5447C10.2642 42.287 10.0225 42.0292 9.74858 41.8842C8.54008 41.2399 7.73442 40.2894 7.50883 38.9201C7.3477 37.9858 7.78276 37.2931 8.57231 37.1642C9.29741 37.0353 9.84526 37.5186 10.0386 38.4368C10.2964 39.6128 11.7305 40.0961 12.6651 39.3229C13.4063 38.7107 13.1807 37.6153 12.23 37.277C11.9078 37.1642 11.5533 37.1481 11.2149 37.1159C9.34575 36.9387 7.8311 35.6338 7.52495 33.8779C7.21879 32.1542 8.13725 30.5755 9.90971 29.7539C10.1031 29.6572 10.2964 29.4317 10.377 29.2223C10.6187 28.6746 11.0215 28.3524 11.6177 28.3685C12.1817 28.3846 12.5523 28.7068 12.8101 29.2062C12.9229 29.4478 13.1646 29.6572 13.3902 29.7861C14.6148 30.4144 15.4205 31.3487 15.6783 32.718C15.8555 33.6524 15.4366 34.3773 14.6792 34.5223C13.9219 34.6673 13.3096 34.2001 13.1646 33.2496C12.9873 32.0414 11.4566 31.6387 10.522 32.3797C9.84526 32.9274 9.94194 33.9101 10.7476 34.2806C11.2149 34.49 11.7789 34.5384 12.2945 34.6189C14.2764 34.9572 15.7427 36.5843 15.7266 38.6302Z" fill="#FF8617"/>
</g>
<defs>
<clipPath id="clip0">
<rect width="66" height="66" fill="white"/>
</clipPath>
</defs>
</svg>
