<svg width="81" height="81" viewBox="0 0 81 81" fill="none" xmlns="http://www.w3.org/2000/svg">
<path d="M35.0986 39.1513H37.7986V41.8513H35.0986V39.1513Z" fill="#FF8617"/>
<path d="M40.4985 39.1513H43.1986V41.8513H40.4985V39.1513Z" fill="#FF8617"/>
<path d="M29.6987 39.1513H32.3987V41.8513H29.6987V39.1513Z" fill="#FF8617"/>
<path d="M35.0986 44.5511H37.7986V47.2511H35.0986V44.5511Z" fill="#FF8617"/>
<path d="M40.4985 44.5511H43.1986V47.2511H40.4985V44.5511Z" fill="#FF8617"/>
<path d="M29.6987 44.5511H32.3987V47.2511H29.6987V44.5511Z" fill="#FF8617"/>
<path d="M35.0986 49.9509H37.7986V52.6509H35.0986V49.9509Z" fill="#FF8617"/>
<path d="M40.4985 49.9509H43.1986V52.6509H40.4985V49.9509Z" fill="#FF8617"/>
<path d="M29.6987 49.9509H32.3987V52.6509H29.6987V49.9509Z" fill="#FF8617"/>
<path d="M35.0986 55.3507H37.7986V58.0507H35.0986V55.3507Z" fill="#FF8617"/>
<path d="M40.4985 55.3507H43.1986V58.0507H40.4985V55.3507Z" fill="#FF8617"/>
<path d="M29.6987 55.3507H32.3987V58.0507H29.6987V55.3507Z" fill="#FF8617"/>
<path d="M35.0986 33.7516H37.7986V36.4516H35.0986V33.7516Z" fill="#FF8617"/>
<path d="M40.4985 33.7516H43.1986V36.4516H40.4985V33.7516Z" fill="#FF8617"/>
<path d="M29.6987 33.7516H32.3987V36.4516H29.6987V33.7516Z" fill="#FF8617"/>
<path d="M35.0986 28.3517H37.7986V31.0517H35.0986V28.3517Z" fill="#FF8617"/>
<path d="M40.4985 28.3517H43.1986V31.0517H40.4985V28.3517Z" fill="#FF8617"/>
<path d="M29.6987 28.3517H32.3987V31.0517H29.6987V28.3517Z" fill="#FF8617"/>
<path d="M35.0986 22.9519H37.7986V25.6519H35.0986V22.9519Z" fill="#FF8617"/>
<path d="M40.4985 22.9519H43.1986V25.6519H40.4985V22.9519Z" fill="#FF8617"/>
<path d="M29.6987 22.9519H32.3987V25.6519H29.6987V22.9519Z" fill="#FF8617"/>
<path d="M35.0986 17.5521H37.7986V20.2521H35.0986V17.5521Z" fill="#FF8617"/>
<path d="M40.4985 17.5521H43.1986V20.2521H40.4985V17.5521Z" fill="#FF8617"/>
<path d="M29.6987 17.5521H32.3987V20.2521H29.6987V17.5521Z" fill="#FF8617"/>
<path d="M51.2979 31.0516H62.0975V33.7515H51.2979V31.0516Z" fill="#FF8617"/>
<path d="M51.2979 36.4514H62.0975V39.1513H51.2979V36.4514Z" fill="#FF8617"/>
<path d="M51.2979 41.8513H62.0975V44.5512H51.2979V41.8513Z" fill="#FF8617"/>
<path d="M10.7998 36.4514H21.5994V39.1513H10.7998V36.4514Z" fill="#FF8617"/>
<path d="M10.7998 41.8513H21.5994V44.5512H10.7998V41.8513Z" fill="#FF8617"/>
<path d="M10.7998 47.251H21.5994V49.9509H10.7998V47.251Z" fill="#FF8617"/>
<path d="M10.7998 52.6508H21.5994V55.3507H10.7998V52.6508Z" fill="#FF8617"/>
<path d="M10.7998 58.0507H21.5994V60.7506H10.7998V58.0507Z" fill="#FF8617"/>
<path d="M10.7998 63.4504H21.5994V66.1503H10.7998V63.4504Z" fill="#FF8617"/>
<path d="M63.4478 59.4006C64.1933 59.4006 64.7977 60.005 64.7977 60.7505H67.4976C67.4904 59.0407 66.41 57.5193 64.7977 56.9492V55.3507H62.0978V56.9492C60.2397 57.6037 59.1244 59.5034 59.4579 61.4446C59.7921 63.3865 61.4776 64.8043 63.4478 64.8004C64.1933 64.8004 64.7977 65.4048 64.7977 66.1503C64.7977 66.8958 64.1933 67.5003 63.4478 67.5003C62.7023 67.5003 62.0978 66.8958 62.0978 66.1503H59.3979C59.4052 67.8608 60.4856 69.3822 62.0978 69.9517V71.5501H64.7977V69.9517C66.6559 69.2971 67.7712 67.3981 67.4377 65.4562C67.1035 63.515 65.418 62.0972 63.4478 62.1005C62.7023 62.1005 62.0978 61.496 62.0978 60.7505C62.0978 60.005 62.7023 59.4006 63.4478 59.4006Z" fill="#FF8617"/>
<path d="M63.4477 49.9509C55.992 49.9509 49.9482 55.9947 49.9482 63.4504C49.9482 70.9061 55.992 76.9499 63.4477 76.9499C70.9035 76.9499 76.9473 70.9061 76.9473 63.4504C76.9393 55.9987 70.9002 49.9595 63.4477 49.9509ZM63.4477 74.25C57.483 74.25 52.6481 69.4151 52.6481 63.4504C52.6481 57.4864 57.483 52.6508 63.4477 52.6508C69.4124 52.6508 74.2474 57.4864 74.2474 63.4504C74.2408 69.4125 69.4092 74.2434 63.4477 74.25Z" fill="#FF8617"/>
<path d="M67.4975 46.3929V28.3531H70.1974V25.6532H48.5982V13.5037C48.5982 12.7582 47.9938 12.1537 47.2483 12.1537H44.5484V8.10385C44.5484 7.35835 43.9439 6.7539 43.1984 6.7539H37.7986V0.00415039H35.0987V6.7539H29.6989C28.9534 6.7539 28.349 7.35835 28.349 8.10385V12.1537H25.6491C24.9035 12.1537 24.2991 12.7582 24.2991 13.5037V31.053H2.6999V33.7529H5.3998V74.2514H0V76.9513H52.2499C57.8178 81.5786 65.6572 82.3096 71.985 78.7904C78.3123 75.2718 81.8275 68.2267 80.8342 61.0551C79.8409 53.8835 74.5432 48.0592 67.4975 46.3929ZM64.7976 28.3531V45.9717C64.3507 45.9361 63.9038 45.9025 63.4477 45.9025C57.4105 45.9091 51.801 49.0196 48.5982 54.1373V28.3531H64.7976ZM31.0489 9.4538H41.8485V12.1537H31.0489V9.4538ZM8.0997 33.7529H24.2991V74.2514H8.0997V33.7529ZM26.999 14.8536H45.8983V74.2514H43.1984V64.8018C43.1984 64.0563 42.594 63.4518 41.8485 63.4518H31.0489C30.3034 63.4518 29.6989 64.0563 29.6989 64.8018V74.2514H26.999V14.8536ZM32.3988 74.2514V66.1517H40.4985V74.2514H32.3988ZM48.5982 72.7663C48.9205 73.2798 49.2699 73.7755 49.6443 74.2514H48.5982V72.7663ZM63.4477 78.3013C55.2464 78.3013 48.5982 71.653 48.5982 63.4518C48.5982 55.2506 55.2464 48.6024 63.4477 48.6024C71.6489 48.6024 78.2971 55.2506 78.2971 63.4518C78.2872 71.6491 71.6449 78.292 63.4477 78.3013Z" fill="#FF8617"/>
<path d="M70.1973 62.1005H72.8973V64.8005H70.1973V62.1005Z" fill="#FF8617"/>
<path d="M53.998 62.1005H56.6981V64.8005H53.998V62.1005Z" fill="#FF8617"/>
</svg>
