<svg width="66" height="66" viewBox="0 0 66 66" fill="none" xmlns="http://www.w3.org/2000/svg">
<g clip-path="url(#clip0)">
<path d="M65.6224 25.3782C65.1189 24.8749 64.3029 24.8749 63.7993 25.3782L54.4867 34.6909C54.245 34.9327 54.1091 35.2606 54.1091 35.6024V40.4842C54.1091 41.0382 54.0622 41.587 53.9743 42.1286L44.6204 32.7746L42.516 30.6691C41.1773 29.3296 39.3257 28.6087 37.4329 28.6976C35.5413 28.784 33.7618 29.6685 32.551 31.1244L26.1474 38.823C25.3746 39.752 24.0591 39.979 23.0196 39.3628C21.9632 38.7365 21.5345 37.4142 22.0227 36.2872L26.877 25.0767C28.0045 22.4728 30.5665 20.7903 33.404 20.7903H39.297C39.6388 20.7903 39.9667 20.6544 40.2085 20.4127L58.4055 2.21609C58.9089 1.71271 58.9089 0.896484 58.4055 0.392981C57.9023 -0.110136 57.086 -0.110265 56.5824 0.392981L38.7632 18.2123H33.4041C32.3887 18.2123 31.3997 18.3719 30.4647 18.6694C28.6191 17.0954 26.3004 16.235 23.8481 16.235H23.1315L7.2951 0.398395C6.7916 -0.104851 5.97563 -0.104851 5.472 0.398395C4.96862 0.901769 4.96862 1.718 5.472 2.2215L21.686 18.4355C21.9278 18.6772 22.2556 18.813 22.5974 18.813H23.848C25.2892 18.813 26.6687 19.2112 27.8635 19.9524C26.4169 20.9605 25.2423 22.3637 24.511 24.0524L19.6567 35.2629C18.6542 37.578 19.5348 40.294 21.705 41.5806C22.5107 42.0584 23.3969 42.2895 24.2737 42.2894C25.7204 42.2894 27.1411 41.66 28.1295 40.4718L34.5332 32.7732C35.2927 31.8602 36.3643 31.3274 37.5506 31.2731C38.7378 31.218 39.8527 31.6517 40.6924 32.4918L41.583 33.3829C41.5852 33.3851 41.587 33.3876 41.5892 33.3898L42.7736 34.5743L42.7968 34.5973L42.7969 34.5975L53.5632 45.3636C54.3921 46.1926 54.3921 47.5412 53.5632 48.37C53.1618 48.7714 52.6279 48.9926 52.0602 48.9926C51.4925 48.9926 50.9585 48.7714 50.5571 48.3698L45.3038 43.1166L42.1441 39.9568C41.6406 39.4536 40.8246 39.4536 40.321 39.9568C39.8176 40.4602 39.8176 41.2764 40.321 41.7799L43.4802 44.9391C43.4804 44.9393 43.4805 44.9395 43.4806 44.9397L48.7339 50.1928C49.5627 51.0218 49.5627 52.3704 48.7339 53.1991C48.3325 53.6005 47.7985 53.8216 47.2309 53.8216C46.6632 53.8216 46.1292 53.6005 45.7278 53.199L40.4745 47.9457L37.3148 44.786C36.8113 44.2828 35.9953 44.2828 35.4917 44.786C34.9883 45.2894 34.9883 46.1056 35.4917 46.6091L38.6509 49.7683C38.651 49.7684 38.6512 49.7687 38.6513 49.7688L43.9046 55.022C44.7334 55.851 44.7334 57.1996 43.9046 58.0283C43.5032 58.4297 42.9692 58.6508 42.4015 58.6508C41.9974 58.6508 41.6116 58.5368 41.2774 58.3275C41.1767 58.2043 41.0694 58.0853 40.9554 57.9712L38.4918 55.5077C38.3811 55.3971 38.2548 55.3121 38.1206 55.2501L32.4856 49.6152C31.9821 49.1119 31.1662 49.1119 30.6625 49.6152C30.1592 50.1186 30.1592 50.9348 30.6625 51.4383L39.0755 59.8512C39.1896 59.9652 39.3086 60.0725 39.4318 60.1732C39.6412 60.5074 39.7551 60.8934 39.7551 61.2975C39.7551 61.8652 39.5339 62.3991 39.1324 62.8005C38.3035 63.6294 36.955 63.6294 36.1263 62.8005L34.8058 61.48C36.1317 59.6426 35.969 57.0564 34.3165 55.4037C33.4279 54.5151 32.2467 54.0259 30.9903 54.0259C30.9466 54.0259 30.9032 54.028 30.8596 54.0291C30.8934 52.7821 30.4368 51.5243 29.4873 50.5746C28.5988 49.6861 27.4175 49.1969 26.1612 49.1969C26.1175 49.1969 26.074 49.1989 26.0305 49.2001C26.0642 47.9531 25.6076 46.6952 24.6581 45.7456C23.7696 44.857 22.5883 44.3678 21.332 44.3678C21.2883 44.3678 21.2448 44.3699 21.2013 44.3711C21.235 43.124 20.7785 41.8662 19.8289 40.9165C18.9404 40.028 17.7591 39.5388 16.5028 39.5388C15.2464 39.5388 14.0651 40.0282 13.1767 40.9165L12.1987 41.8944C10.166 39.5745 9.00735 36.6654 8.88979 33.5718L15.1648 27.2969C15.6681 26.7935 15.6681 25.9773 15.1648 25.4738C14.6614 24.9707 13.8454 24.9706 13.3417 25.4738L7.58965 31.2257L2.20064 25.8368C1.69713 25.3336 0.881164 25.3336 0.377531 25.8368C-0.125844 26.3402 -0.125844 27.1564 0.377531 27.6599L6.30962 33.592C6.43646 37.4251 7.90457 41.0253 10.4891 43.8509C10.0974 44.5464 9.88764 45.3337 9.88764 46.1537C9.88764 47.4101 10.377 48.5913 11.2654 49.4798H11.2655C12.1824 50.3967 13.387 50.8552 14.5915 50.8552C14.6345 50.8552 14.6772 50.8533 14.72 50.8522C14.7189 50.8957 14.717 50.9392 14.717 50.9829C14.717 52.2393 15.2063 53.4205 16.0947 54.309H16.0948C17.0117 55.2259 18.2163 55.6844 19.4208 55.6844C19.4638 55.6844 19.5066 55.6825 19.5494 55.6813C19.5482 55.7249 19.5463 55.7683 19.5463 55.812C19.5463 57.0685 20.0356 58.2496 20.924 59.1382H20.9241C21.841 60.0551 23.0456 60.5136 24.2501 60.5136C24.2931 60.5136 24.3359 60.5117 24.3787 60.5105C24.3775 60.5541 24.3756 60.5975 24.3756 60.6412C24.3756 61.8977 24.8649 63.0788 25.7533 63.9674H25.7534C26.6703 64.8843 27.875 65.3428 29.0794 65.3428C30.2841 65.3428 31.4884 64.8843 32.4056 63.9674L33.0263 63.3467L34.3037 64.624C35.2206 65.5409 36.4252 65.9994 37.6297 65.9994C38.8344 65.9994 40.0387 65.5409 40.9557 64.624C41.8443 63.7356 42.3336 62.5543 42.3336 61.2979C42.3336 61.2744 42.3322 61.2511 42.3319 61.2277C42.3553 61.228 42.3786 61.2294 42.4019 61.2294C43.6584 61.2294 44.8397 60.7401 45.7281 59.8517C46.6777 58.902 47.1342 57.644 47.1004 56.397C47.144 56.3982 47.1874 56.4002 47.2311 56.4002C48.4876 56.4002 49.6688 55.9109 50.5573 55.0225C51.5068 54.0728 51.9634 52.815 51.9296 51.568C51.9731 51.5691 52.0166 51.5712 52.0603 51.5712C53.3167 51.5712 54.498 51.0817 55.3864 50.1934C56.953 48.6269 57.1801 46.2215 56.0704 44.4101C56.4788 43.1412 56.6875 41.8243 56.6875 40.4849V36.1365H56.6873L65.6224 27.2013C66.1258 26.6979 66.1258 25.8817 65.6224 25.3782ZM13.0887 47.6563C12.26 46.8275 12.26 45.479 13.0889 44.6503L15 42.7391C15.4014 42.3377 15.9352 42.1165 16.5031 42.1165C17.0708 42.1165 17.6047 42.3377 18.0061 42.7392C18.835 43.568 18.835 44.9166 18.0061 45.7453L16.0949 47.6563C15.2663 48.4849 13.918 48.4852 13.0887 47.6563ZM17.9179 52.4854C17.0892 51.6565 17.0892 50.308 17.9181 49.4793L19.8292 47.5682C20.2306 47.1668 20.7644 46.9456 21.3322 46.9456C21.8999 46.9456 22.4339 47.1668 22.8353 47.5683C23.6641 48.397 23.6641 49.7456 22.8353 50.5744L20.9241 52.4854C20.0955 53.3141 18.7472 53.3144 17.9179 52.4854ZM25.7533 57.3146C24.9247 58.1433 23.5764 58.1435 22.7471 57.3146C21.9184 56.4857 21.9184 55.1372 22.7472 54.3085L24.6584 52.3973C25.0598 51.9959 25.5936 51.7747 26.1614 51.7747C26.7291 51.7747 27.263 51.9959 27.6645 52.3975C28.4933 53.2262 28.4933 54.5748 27.6645 55.4035L25.7533 57.3146ZM32.4936 60.2327L30.5825 62.1437C29.7537 62.9726 28.4054 62.9726 27.5763 62.1437H27.5764C26.7475 61.3149 26.7475 59.9664 27.5764 59.1377L29.4876 57.2265C29.889 56.8251 30.4228 56.6039 30.9906 56.6039C31.5583 56.6039 32.0922 56.8251 32.4936 57.2266C33.3225 58.0554 33.3225 59.404 32.4936 60.2327Z" fill="#FF8617"/>
<path d="M33.0005 4.42569C32.2887 4.42569 31.7114 5.00293 31.7114 5.71474V11.6676C31.7114 12.3794 32.2887 12.9566 33.0005 12.9566C33.7123 12.9566 34.2895 12.3794 34.2895 11.6676V5.71474C34.2895 5.00293 33.7123 4.42569 33.0005 4.42569Z" fill="#FF8617"/>
<path d="M33.9117 0.37873C33.6721 0.138966 33.3395 0.0010376 33.0005 0.0010376C32.6615 0.0010376 32.3289 0.138837 32.0891 0.37873C31.8494 0.618622 31.7114 0.951069 31.7114 1.29009C31.7114 1.62911 31.8492 1.96169 32.0891 2.20132C32.3289 2.44121 32.6615 2.57914 33.0005 2.57914C33.3395 2.57914 33.6721 2.44121 33.9117 2.20132C34.1515 1.96169 34.2895 1.62911 34.2895 1.29009C34.2895 0.951069 34.1516 0.618494 33.9117 0.37873Z" fill="#FF8617"/>
<path d="M42.1252 8.59179C41.622 8.08867 40.806 8.08842 40.3021 8.59179L37.8473 11.0468C37.3439 11.5502 37.3439 12.3664 37.8473 12.8699C38.099 13.1214 38.4289 13.2473 38.7587 13.2473C39.0886 13.2473 39.4185 13.1214 39.6702 12.8698L42.1252 10.4149C42.6286 9.91152 42.6286 9.09529 42.1252 8.59179Z" fill="#FF8617"/>
<path d="M28.0323 10.9252L25.6987 8.59179C25.1952 8.08854 24.379 8.08854 23.8756 8.59179C23.3722 9.09517 23.3722 9.91139 23.8756 10.4149L26.2093 12.7483C26.461 13 26.7909 13.1259 27.1208 13.1259C27.4506 13.1259 27.7806 13 28.0323 12.7483C28.5356 12.245 28.5356 11.4287 28.0323 10.9252Z" fill="#FF8617"/>
<path d="M18.443 22.1959C18.202 21.9549 17.8707 21.8182 17.5317 21.8182C17.1913 21.8182 16.8601 21.9549 16.6191 22.1959C16.3793 22.4345 16.2427 22.767 16.2427 23.1073C16.2427 23.4463 16.3793 23.7789 16.6191 24.0185C16.8601 24.2584 17.1927 24.3963 17.5317 24.3963C17.8707 24.3963 18.202 24.2584 18.443 24.0185C18.6827 23.7789 18.8208 23.4463 18.8208 23.1073C18.8208 22.7668 18.6829 22.4357 18.443 22.1959Z" fill="#FF8617"/>
</g>
<defs>
<clipPath id="clip0">
<rect width="66" height="66" fill="white"/>
</clipPath>
</defs>
</svg>
