<svg width="107" height="77" viewBox="0 0 107 77" fill="none" xmlns="http://www.w3.org/2000/svg">
<g clip-path="url(#clip0)">
<mask id="path-1-outside-1" maskUnits="userSpaceOnUse" x="-1" y="16.3352" width="79" height="61" fill="black">
<rect fill="white" x="-1" y="16.3352" width="79" height="61"/>
<path d="M77.575 76.2264C77.3853 76.7923 77.0059 76.9998 76.3798 76.9998C51.2993 76.981 26.2378 76.981 1.15727 76.981C0.379433 76.981 0 76.698 0 76.1321C0 75.5851 0.436348 75.2078 1.1383 75.1889C1.72642 75.1701 2.29557 75.1889 2.88369 75.1889C3.43387 75.1889 3.98404 75.1889 4.64805 75.1889C4.64805 73.4347 4.66702 71.737 4.62908 70.0393C4.62908 69.8884 4.28759 69.662 4.0789 69.5865C0.986525 68.6245 -0.664007 65.5687 0.303546 62.4939C1.04344 60.1549 3.5477 58.4383 5.86223 58.6647C8.82181 58.9476 10.8707 60.8906 11.1743 63.7201C11.4589 66.2289 9.84628 68.7377 7.37997 69.4734C6.71596 69.6809 6.52624 69.9638 6.54521 70.624C6.60213 72.1142 6.56418 73.6233 6.56418 75.1512C9.14433 75.1512 11.6296 75.1512 14.2098 75.1512C14.2098 74.8117 14.2098 74.491 14.2098 74.1703C14.2098 60.3624 14.2098 46.5545 14.2098 32.7465C14.2098 31.1809 14.3615 31.03 15.9551 31.03C22.1399 31.03 28.3246 31.03 34.5094 31.03C34.7371 31.03 34.9647 31.03 35.2872 31.03C35.2872 30.3697 35.2872 29.7661 35.2872 29.1436C35.2872 27.9175 35.2872 26.6914 35.2872 25.4464C35.2872 24.1826 35.5339 23.9374 36.767 23.9185C36.9378 23.9185 37.1085 23.9185 37.3931 23.9185C37.4121 23.6167 37.431 23.3715 37.431 23.1074C37.431 21.6172 37.431 20.1458 37.431 18.6556C37.431 17.6747 37.7725 17.3352 38.759 17.3352C45.7785 17.3352 52.798 17.3352 59.8176 17.3352C60.8041 17.3352 61.1456 17.6747 61.1456 18.6556C61.1645 20.1081 61.1456 21.5606 61.1456 23.0319C61.1456 23.296 61.1456 23.579 61.1456 23.8808C61.4491 23.8996 61.6578 23.9185 61.8855 23.9185C63.0238 23.9374 63.3083 24.2014 63.3083 25.3521C63.3083 36.406 63.3083 47.441 63.3083 58.4949C63.3083 63.7389 63.3083 68.9829 63.3083 74.2458C63.3083 74.5287 63.3083 74.7928 63.3083 75.1135C65.8316 75.1135 68.3168 75.1135 70.916 75.1135C70.916 73.8308 70.8401 72.5292 70.9349 71.2277C71.0108 70.1902 70.7642 69.6809 69.6638 69.247C65.6608 67.6059 65.1106 62.2865 68.5825 59.721C68.7532 59.589 68.9429 59.457 69.1516 59.306C67.1596 58.0045 66.1541 56.2502 66.3248 53.8734C66.5335 51.1382 68.905 48.9312 71.8076 48.8369C74.4637 48.7426 77.0248 50.8742 77.4043 53.4962C77.4232 53.6848 77.4991 53.8734 77.5371 54.0809C77.5371 54.3261 77.5371 54.5902 77.5371 54.8354C77.2145 56.7218 76.3798 58.2874 74.6154 59.2872C74.9379 59.5324 75.2036 59.721 75.4502 59.9285C76.6833 60.9094 77.2335 62.2487 77.5371 63.7389C77.5371 64.0407 77.5371 64.3426 77.5371 64.6444C77.4991 64.7764 77.4422 64.9273 77.4043 65.0594C77.0628 67.0023 76.0762 68.5868 74.217 69.2093C72.87 69.662 72.7562 70.3788 72.8321 71.4917C72.908 72.699 72.8511 73.9251 72.8511 75.1889C73.9894 75.1889 75.0138 75.2267 76.0383 75.1701C76.7213 75.1324 77.2145 75.3399 77.5371 75.9435C77.575 76.0378 77.575 76.1321 77.575 76.2264ZM42.7241 75.1512C42.7241 72.0011 42.7241 68.9452 42.7241 65.8893C42.7241 64.8519 43.0466 64.5123 44.0711 64.5123C47.5619 64.4935 51.0337 64.4935 54.5245 64.5123C55.5869 64.5123 55.9094 64.8519 55.9094 65.9082C55.9094 68.7188 55.9094 71.5295 55.9094 74.3401C55.9094 74.6042 55.9094 74.8683 55.9094 75.1324C57.7876 75.1324 59.533 75.1324 61.3163 75.1324C61.3163 58.7024 61.3163 42.2914 61.3163 25.918C53.2723 25.918 45.2853 25.918 37.2982 25.918C37.2982 42.3668 37.2982 58.7402 37.2982 75.1512C39.1005 75.1512 40.8649 75.1512 42.7241 75.1512ZM20.736 75.1324C20.736 74.7928 20.736 74.5287 20.736 74.2458C20.736 71.454 20.736 68.6811 20.736 65.8893C20.736 64.8141 21.0395 64.5123 22.1399 64.4935C24.3785 64.4935 26.6362 64.4935 28.8748 64.4935C30.108 64.4935 30.3926 64.7764 30.3926 66.0025C30.3926 68.7566 30.3926 71.5295 30.3926 74.2835C30.3926 74.5476 30.4115 74.8117 30.4305 75.0946C32.0621 75.0946 33.6367 75.0946 35.2493 75.0946C35.2493 61.0226 35.2493 47.0072 35.2493 32.9729C28.8748 32.9729 22.5573 32.9729 16.2018 32.9729C16.2018 47.0449 16.2018 61.0603 16.2018 75.0946C17.7195 75.1324 19.1803 75.1324 20.736 75.1324ZM59.1725 23.8808C59.1725 22.2963 59.1725 20.8061 59.1725 19.3159C52.5704 19.3159 46.0062 19.3159 39.442 19.3159C39.442 20.8438 39.442 22.334 39.442 23.8808C46.0442 23.8808 52.5894 23.8808 59.1725 23.8808ZM53.8984 75.1512C53.8984 72.2274 53.8984 69.3602 53.8984 66.5118C50.7871 66.5118 47.7516 66.5118 44.7161 66.5118C44.7161 69.4168 44.7161 72.2651 44.7161 75.1512C47.7895 75.1512 50.806 75.1512 53.8984 75.1512ZM22.747 66.4741C22.747 69.4168 22.747 72.2651 22.747 75.1324C24.6631 75.1324 26.5223 75.1324 28.4005 75.1324C28.4005 72.2274 28.4005 69.3602 28.4005 66.4741C26.5034 66.4741 24.6631 66.4741 22.747 66.4741ZM71.9215 67.8511C73.9324 67.8511 75.583 66.21 75.583 64.2105C75.583 62.2299 73.9135 60.5699 71.9025 60.5699C69.8915 60.5699 68.2599 62.211 68.2599 64.2294C68.2789 66.2477 69.9105 67.8511 71.9215 67.8511ZM71.8266 58.0422C73.8376 58.0799 75.5261 56.4954 75.583 54.4959C75.6399 52.5341 73.9894 50.8176 71.9973 50.7798C69.9864 50.7233 68.3168 52.3266 68.2599 54.345C68.203 56.3445 69.7966 58.0045 71.8266 58.0422ZM9.25816 64.2294C9.25816 62.2299 7.6266 60.5888 5.6156 60.5699C3.62358 60.5699 1.95408 62.211 1.95408 64.2105C1.95408 66.2289 3.56667 67.8511 5.59663 67.8511C7.6266 67.8511 9.23918 66.2477 9.25816 64.2294Z"/>
</mask>
<path d="M77.575 76.2264C77.3853 76.7923 77.0059 76.9998 76.3798 76.9998C51.2993 76.981 26.2378 76.981 1.15727 76.981C0.379433 76.981 0 76.698 0 76.1321C0 75.5851 0.436348 75.2078 1.1383 75.1889C1.72642 75.1701 2.29557 75.1889 2.88369 75.1889C3.43387 75.1889 3.98404 75.1889 4.64805 75.1889C4.64805 73.4347 4.66702 71.737 4.62908 70.0393C4.62908 69.8884 4.28759 69.662 4.0789 69.5865C0.986525 68.6245 -0.664007 65.5687 0.303546 62.4939C1.04344 60.1549 3.5477 58.4383 5.86223 58.6647C8.82181 58.9476 10.8707 60.8906 11.1743 63.7201C11.4589 66.2289 9.84628 68.7377 7.37997 69.4734C6.71596 69.6809 6.52624 69.9638 6.54521 70.624C6.60213 72.1142 6.56418 73.6233 6.56418 75.1512C9.14433 75.1512 11.6296 75.1512 14.2098 75.1512C14.2098 74.8117 14.2098 74.491 14.2098 74.1703C14.2098 60.3624 14.2098 46.5545 14.2098 32.7465C14.2098 31.1809 14.3615 31.03 15.9551 31.03C22.1399 31.03 28.3246 31.03 34.5094 31.03C34.7371 31.03 34.9647 31.03 35.2872 31.03C35.2872 30.3697 35.2872 29.7661 35.2872 29.1436C35.2872 27.9175 35.2872 26.6914 35.2872 25.4464C35.2872 24.1826 35.5339 23.9374 36.767 23.9185C36.9378 23.9185 37.1085 23.9185 37.3931 23.9185C37.4121 23.6167 37.431 23.3715 37.431 23.1074C37.431 21.6172 37.431 20.1458 37.431 18.6556C37.431 17.6747 37.7725 17.3352 38.759 17.3352C45.7785 17.3352 52.798 17.3352 59.8176 17.3352C60.8041 17.3352 61.1456 17.6747 61.1456 18.6556C61.1645 20.1081 61.1456 21.5606 61.1456 23.0319C61.1456 23.296 61.1456 23.579 61.1456 23.8808C61.4491 23.8996 61.6578 23.9185 61.8855 23.9185C63.0238 23.9374 63.3083 24.2014 63.3083 25.3521C63.3083 36.406 63.3083 47.441 63.3083 58.4949C63.3083 63.7389 63.3083 68.9829 63.3083 74.2458C63.3083 74.5287 63.3083 74.7928 63.3083 75.1135C65.8316 75.1135 68.3168 75.1135 70.916 75.1135C70.916 73.8308 70.8401 72.5292 70.9349 71.2277C71.0108 70.1902 70.7642 69.6809 69.6638 69.247C65.6608 67.6059 65.1106 62.2865 68.5825 59.721C68.7532 59.589 68.9429 59.457 69.1516 59.306C67.1596 58.0045 66.1541 56.2502 66.3248 53.8734C66.5335 51.1382 68.905 48.9312 71.8076 48.8369C74.4637 48.7426 77.0248 50.8742 77.4043 53.4962C77.4232 53.6848 77.4991 53.8734 77.5371 54.0809C77.5371 54.3261 77.5371 54.5902 77.5371 54.8354C77.2145 56.7218 76.3798 58.2874 74.6154 59.2872C74.9379 59.5324 75.2036 59.721 75.4502 59.9285C76.6833 60.9094 77.2335 62.2487 77.5371 63.7389C77.5371 64.0407 77.5371 64.3426 77.5371 64.6444C77.4991 64.7764 77.4422 64.9273 77.4043 65.0594C77.0628 67.0023 76.0762 68.5868 74.217 69.2093C72.87 69.662 72.7562 70.3788 72.8321 71.4917C72.908 72.699 72.8511 73.9251 72.8511 75.1889C73.9894 75.1889 75.0138 75.2267 76.0383 75.1701C76.7213 75.1324 77.2145 75.3399 77.5371 75.9435C77.575 76.0378 77.575 76.1321 77.575 76.2264ZM42.7241 75.1512C42.7241 72.0011 42.7241 68.9452 42.7241 65.8893C42.7241 64.8519 43.0466 64.5123 44.0711 64.5123C47.5619 64.4935 51.0337 64.4935 54.5245 64.5123C55.5869 64.5123 55.9094 64.8519 55.9094 65.9082C55.9094 68.7188 55.9094 71.5295 55.9094 74.3401C55.9094 74.6042 55.9094 74.8683 55.9094 75.1324C57.7876 75.1324 59.533 75.1324 61.3163 75.1324C61.3163 58.7024 61.3163 42.2914 61.3163 25.918C53.2723 25.918 45.2853 25.918 37.2982 25.918C37.2982 42.3668 37.2982 58.7402 37.2982 75.1512C39.1005 75.1512 40.8649 75.1512 42.7241 75.1512ZM20.736 75.1324C20.736 74.7928 20.736 74.5287 20.736 74.2458C20.736 71.454 20.736 68.6811 20.736 65.8893C20.736 64.8141 21.0395 64.5123 22.1399 64.4935C24.3785 64.4935 26.6362 64.4935 28.8748 64.4935C30.108 64.4935 30.3926 64.7764 30.3926 66.0025C30.3926 68.7566 30.3926 71.5295 30.3926 74.2835C30.3926 74.5476 30.4115 74.8117 30.4305 75.0946C32.0621 75.0946 33.6367 75.0946 35.2493 75.0946C35.2493 61.0226 35.2493 47.0072 35.2493 32.9729C28.8748 32.9729 22.5573 32.9729 16.2018 32.9729C16.2018 47.0449 16.2018 61.0603 16.2018 75.0946C17.7195 75.1324 19.1803 75.1324 20.736 75.1324ZM59.1725 23.8808C59.1725 22.2963 59.1725 20.8061 59.1725 19.3159C52.5704 19.3159 46.0062 19.3159 39.442 19.3159C39.442 20.8438 39.442 22.334 39.442 23.8808C46.0442 23.8808 52.5894 23.8808 59.1725 23.8808ZM53.8984 75.1512C53.8984 72.2274 53.8984 69.3602 53.8984 66.5118C50.7871 66.5118 47.7516 66.5118 44.7161 66.5118C44.7161 69.4168 44.7161 72.2651 44.7161 75.1512C47.7895 75.1512 50.806 75.1512 53.8984 75.1512ZM22.747 66.4741C22.747 69.4168 22.747 72.2651 22.747 75.1324C24.6631 75.1324 26.5223 75.1324 28.4005 75.1324C28.4005 72.2274 28.4005 69.3602 28.4005 66.4741C26.5034 66.4741 24.6631 66.4741 22.747 66.4741ZM71.9215 67.8511C73.9324 67.8511 75.583 66.21 75.583 64.2105C75.583 62.2299 73.9135 60.5699 71.9025 60.5699C69.8915 60.5699 68.2599 62.211 68.2599 64.2294C68.2789 66.2477 69.9105 67.8511 71.9215 67.8511ZM71.8266 58.0422C73.8376 58.0799 75.5261 56.4954 75.583 54.4959C75.6399 52.5341 73.9894 50.8176 71.9973 50.7798C69.9864 50.7233 68.3168 52.3266 68.2599 54.345C68.203 56.3445 69.7966 58.0045 71.8266 58.0422ZM9.25816 64.2294C9.25816 62.2299 7.6266 60.5888 5.6156 60.5699C3.62358 60.5699 1.95408 62.211 1.95408 64.2105C1.95408 66.2289 3.56667 67.8511 5.59663 67.8511C7.6266 67.8511 9.23918 66.2477 9.25816 64.2294Z" fill="#174782"/>
<path d="M77.575 76.2264C77.3853 76.7923 77.0059 76.9998 76.3798 76.9998C51.2993 76.981 26.2378 76.981 1.15727 76.981C0.379433 76.981 0 76.698 0 76.1321C0 75.5851 0.436348 75.2078 1.1383 75.1889C1.72642 75.1701 2.29557 75.1889 2.88369 75.1889C3.43387 75.1889 3.98404 75.1889 4.64805 75.1889C4.64805 73.4347 4.66702 71.737 4.62908 70.0393C4.62908 69.8884 4.28759 69.662 4.0789 69.5865C0.986525 68.6245 -0.664007 65.5687 0.303546 62.4939C1.04344 60.1549 3.5477 58.4383 5.86223 58.6647C8.82181 58.9476 10.8707 60.8906 11.1743 63.7201C11.4589 66.2289 9.84628 68.7377 7.37997 69.4734C6.71596 69.6809 6.52624 69.9638 6.54521 70.624C6.60213 72.1142 6.56418 73.6233 6.56418 75.1512C9.14433 75.1512 11.6296 75.1512 14.2098 75.1512C14.2098 74.8117 14.2098 74.491 14.2098 74.1703C14.2098 60.3624 14.2098 46.5545 14.2098 32.7465C14.2098 31.1809 14.3615 31.03 15.9551 31.03C22.1399 31.03 28.3246 31.03 34.5094 31.03C34.7371 31.03 34.9647 31.03 35.2872 31.03C35.2872 30.3697 35.2872 29.7661 35.2872 29.1436C35.2872 27.9175 35.2872 26.6914 35.2872 25.4464C35.2872 24.1826 35.5339 23.9374 36.767 23.9185C36.9378 23.9185 37.1085 23.9185 37.3931 23.9185C37.4121 23.6167 37.431 23.3715 37.431 23.1074C37.431 21.6172 37.431 20.1458 37.431 18.6556C37.431 17.6747 37.7725 17.3352 38.759 17.3352C45.7785 17.3352 52.798 17.3352 59.8176 17.3352C60.8041 17.3352 61.1456 17.6747 61.1456 18.6556C61.1645 20.1081 61.1456 21.5606 61.1456 23.0319C61.1456 23.296 61.1456 23.579 61.1456 23.8808C61.4491 23.8996 61.6578 23.9185 61.8855 23.9185C63.0238 23.9374 63.3083 24.2014 63.3083 25.3521C63.3083 36.406 63.3083 47.441 63.3083 58.4949C63.3083 63.7389 63.3083 68.9829 63.3083 74.2458C63.3083 74.5287 63.3083 74.7928 63.3083 75.1135C65.8316 75.1135 68.3168 75.1135 70.916 75.1135C70.916 73.8308 70.8401 72.5292 70.9349 71.2277C71.0108 70.1902 70.7642 69.6809 69.6638 69.247C65.6608 67.6059 65.1106 62.2865 68.5825 59.721C68.7532 59.589 68.9429 59.457 69.1516 59.306C67.1596 58.0045 66.1541 56.2502 66.3248 53.8734C66.5335 51.1382 68.905 48.9312 71.8076 48.8369C74.4637 48.7426 77.0248 50.8742 77.4043 53.4962C77.4232 53.6848 77.4991 53.8734 77.5371 54.0809C77.5371 54.3261 77.5371 54.5902 77.5371 54.8354C77.2145 56.7218 76.3798 58.2874 74.6154 59.2872C74.9379 59.5324 75.2036 59.721 75.4502 59.9285C76.6833 60.9094 77.2335 62.2487 77.5371 63.7389C77.5371 64.0407 77.5371 64.3426 77.5371 64.6444C77.4991 64.7764 77.4422 64.9273 77.4043 65.0594C77.0628 67.0023 76.0762 68.5868 74.217 69.2093C72.87 69.662 72.7562 70.3788 72.8321 71.4917C72.908 72.699 72.8511 73.9251 72.8511 75.1889C73.9894 75.1889 75.0138 75.2267 76.0383 75.1701C76.7213 75.1324 77.2145 75.3399 77.5371 75.9435C77.575 76.0378 77.575 76.1321 77.575 76.2264ZM42.7241 75.1512C42.7241 72.0011 42.7241 68.9452 42.7241 65.8893C42.7241 64.8519 43.0466 64.5123 44.0711 64.5123C47.5619 64.4935 51.0337 64.4935 54.5245 64.5123C55.5869 64.5123 55.9094 64.8519 55.9094 65.9082C55.9094 68.7188 55.9094 71.5295 55.9094 74.3401C55.9094 74.6042 55.9094 74.8683 55.9094 75.1324C57.7876 75.1324 59.533 75.1324 61.3163 75.1324C61.3163 58.7024 61.3163 42.2914 61.3163 25.918C53.2723 25.918 45.2853 25.918 37.2982 25.918C37.2982 42.3668 37.2982 58.7402 37.2982 75.1512C39.1005 75.1512 40.8649 75.1512 42.7241 75.1512ZM20.736 75.1324C20.736 74.7928 20.736 74.5287 20.736 74.2458C20.736 71.454 20.736 68.6811 20.736 65.8893C20.736 64.8141 21.0395 64.5123 22.1399 64.4935C24.3785 64.4935 26.6362 64.4935 28.8748 64.4935C30.108 64.4935 30.3926 64.7764 30.3926 66.0025C30.3926 68.7566 30.3926 71.5295 30.3926 74.2835C30.3926 74.5476 30.4115 74.8117 30.4305 75.0946C32.0621 75.0946 33.6367 75.0946 35.2493 75.0946C35.2493 61.0226 35.2493 47.0072 35.2493 32.9729C28.8748 32.9729 22.5573 32.9729 16.2018 32.9729C16.2018 47.0449 16.2018 61.0603 16.2018 75.0946C17.7195 75.1324 19.1803 75.1324 20.736 75.1324ZM59.1725 23.8808C59.1725 22.2963 59.1725 20.8061 59.1725 19.3159C52.5704 19.3159 46.0062 19.3159 39.442 19.3159C39.442 20.8438 39.442 22.334 39.442 23.8808C46.0442 23.8808 52.5894 23.8808 59.1725 23.8808ZM53.8984 75.1512C53.8984 72.2274 53.8984 69.3602 53.8984 66.5118C50.7871 66.5118 47.7516 66.5118 44.7161 66.5118C44.7161 69.4168 44.7161 72.2651 44.7161 75.1512C47.7895 75.1512 50.806 75.1512 53.8984 75.1512ZM22.747 66.4741C22.747 69.4168 22.747 72.2651 22.747 75.1324C24.6631 75.1324 26.5223 75.1324 28.4005 75.1324C28.4005 72.2274 28.4005 69.3602 28.4005 66.4741C26.5034 66.4741 24.6631 66.4741 22.747 66.4741ZM71.9215 67.8511C73.9324 67.8511 75.583 66.21 75.583 64.2105C75.583 62.2299 73.9135 60.5699 71.9025 60.5699C69.8915 60.5699 68.2599 62.211 68.2599 64.2294C68.2789 66.2477 69.9105 67.8511 71.9215 67.8511ZM71.8266 58.0422C73.8376 58.0799 75.5261 56.4954 75.583 54.4959C75.6399 52.5341 73.9894 50.8176 71.9973 50.7798C69.9864 50.7233 68.3168 52.3266 68.2599 54.345C68.203 56.3445 69.7966 58.0045 71.8266 58.0422ZM9.25816 64.2294C9.25816 62.2299 7.6266 60.5888 5.6156 60.5699C3.62358 60.5699 1.95408 62.211 1.95408 64.2105C1.95408 66.2289 3.56667 67.8511 5.59663 67.8511C7.6266 67.8511 9.23918 66.2477 9.25816 64.2294Z" stroke="#174782" stroke-width="0.4" mask="url(#path-1-outside-1)"/>
<path d="M76.2734 11.3293C76.5645 11.5003 76.8398 11.4668 77.0768 11.3317C77.3074 11.2004 77.5027 10.9734 77.6571 10.7528L77.6751 10.727V10.6955V10.6941C77.6751 10.3367 77.6751 9.97592 77.656 9.63353L77.6554 9.62333L77.6528 9.61346C77.2884 8.24035 76.6333 7.02877 75.4139 6.16255C75.2877 6.07038 75.1775 5.9282 75.0761 5.75854C74.9825 5.60208 74.9005 5.42953 74.8206 5.26171C74.814 5.24771 74.8073 5.23374 74.8007 5.21982L74.8007 5.21981L74.7998 5.2179C74.7505 5.11988 74.7285 5.01086 74.7097 4.88706C74.7066 4.86695 74.7037 4.84631 74.7006 4.82527C74.6856 4.72126 74.6691 4.60728 74.6352 4.49759L74.6351 4.4971C73.7304 1.62634 70.9386 -0.330403 68.0806 -0.0807944C64.7911 0.206117 62.3992 2.46705 62.014 5.68479L62.0139 5.68479L62.0138 5.68667C61.9974 5.84944 61.9664 6.01289 61.9329 6.18045C61.8185 6.20748 61.7466 6.21917 61.6769 6.21917V6.21879L61.6682 6.21955C59.0403 6.4501 57.104 8.37436 56.8912 10.9891C56.8616 11.3531 56.9248 11.6653 57.0808 11.8992C57.2384 12.1355 57.4836 12.2814 57.7936 12.3225L57.7935 12.3226L57.7974 12.323C58.1223 12.3532 58.3984 12.2779 58.6084 12.0905C58.8163 11.905 58.9466 11.6211 59.0057 11.2586L59.0058 11.2586L59.0059 11.2574C59.1745 10.1398 59.5604 9.37198 60.1718 8.91266C60.7837 8.45302 61.6409 8.28751 62.7849 8.41804L62.7861 8.41817C63.2604 8.46629 63.6199 8.40278 63.8583 8.17943C64.0956 7.95699 64.1863 7.60042 64.1863 7.13029C64.1863 6.9927 64.1837 6.85499 64.1811 6.71789C64.1716 6.2216 64.1624 5.73331 64.278 5.28795L64.2781 5.28721C64.8159 3.14865 66.7422 1.83972 68.933 2.06124L68.9332 2.06126C70.9694 2.26372 72.6021 3.95776 72.7324 6.11702C72.752 6.52458 72.8404 6.85071 73.0223 7.11815C73.2042 7.38567 73.4728 7.58434 73.8341 7.74941C74.8199 8.20331 75.3179 9.05577 75.5227 10.1477C75.5631 10.3684 75.658 10.6108 75.787 10.8229C75.915 11.0334 76.0823 11.2233 76.2734 11.3293ZM76.2734 11.3293C76.2738 11.3296 76.2742 11.3298 76.2747 11.33L76.323 11.2425L76.2722 11.3286C76.2726 11.3289 76.273 11.3291 76.2734 11.3293Z" fill="#174782" stroke="#174782" stroke-width="0.2"/>
<path d="M8.49183 12.8512L8.49217 12.851C12.0605 11.0483 16.7061 13.327 17.3817 17.2619L17.3819 17.2628C17.4277 17.545 17.5092 17.7763 17.6374 17.9743C17.7656 18.172 17.9438 18.3415 18.19 18.4956L18.1922 18.497L18.1922 18.497C19.2235 19.1807 19.7817 20.2336 20.128 21.4042H20.129H20.1375H20.1459H20.1544H20.1628H20.1712H20.1797H20.1881H20.1965H20.205H20.2134H20.2218H20.2303H20.2387H20.2471H20.2556H20.264H20.2724H20.2808H20.2893H20.2977H20.3061H20.3145H20.323H20.3314H20.3398H20.3482H20.3566H20.3651H20.3735H20.3819H20.3903H20.3987H20.4071H20.4155H20.424H20.4324H20.4408H20.4492H20.4576H20.466H20.4744H20.4828H20.4912H20.4996H20.508H20.5165H20.5249H20.5333H20.5417H20.5501H20.5585H20.5669H20.5753H20.5837H20.5921H20.6005H20.6089H20.6173H20.6256H20.634H20.6424H20.6508H20.6592H20.6676H20.676H20.6844H20.6928H20.7012H20.7096H20.718H20.7263H20.7347H20.7431H20.7515H20.7599H20.7683H20.7767H20.785H20.7934H20.8018H20.8102H20.8186H20.8269H20.8353H20.8437H20.8521H20.8604H20.8688H20.8772H20.8856H20.894H20.9023H20.9107H20.9191H20.9274H20.9358H20.9442H20.9526H20.9609H20.9693H20.9777H20.986H20.9944H21.0028H21.0111H21.0195H21.0279H21.0362H21.0446H21.053H21.0613H21.0697H21.078H21.0864H21.0948H21.1031H21.1115H21.1198H21.1282H21.1366H21.1449H21.1533H21.1616H21.17H21.1783H21.1867H21.195H21.2034H21.2118H21.2201H21.2285H21.2368H21.2452H21.2535H21.2619H21.2702H21.2786H21.2869H21.2953H21.3036H21.3119H21.3203H21.3286H21.337H21.3453H21.3537H21.362H21.3704H21.3787H21.387H21.3954H21.4037H21.4121H21.4204H21.4288H21.4371H21.4454H21.4538H21.4621H21.4704H21.4788H21.4871H21.4955H21.5038H21.5121H21.5205H21.5288H21.5371H21.5455H21.5538H21.5621H21.5705H21.5788H21.5871H21.5955H21.6038H21.6121H21.6205H21.6288H21.6371H21.6454H21.6538H21.6621H21.6704H21.6788H21.6871H21.6954H21.7037H21.7121H21.7204H21.7287H21.737H21.7454H21.7537H21.762H21.7703H21.7787H21.787H21.7953H21.8036H21.812H21.8203H21.8286H21.8369H21.8452H21.8536H21.8619H21.8702H21.8785H21.8868H21.8952H21.9035H21.9118H21.9201H21.9284H21.9368H21.9451H21.9534H21.9617H21.97H21.9783H21.9867H21.995H22.0033H22.0116H22.0199H22.0282H22.0365H22.0449H22.0532H22.0615H22.0698H22.0781H22.0864H22.0947H22.103H22.1114H22.1197H22.128H22.1363H22.1446H22.1529H22.1612H22.1695H22.1778H22.1862H22.1945H22.2028H22.2111H22.2194H22.2277H22.236H22.2443H22.2526H22.2609H22.2692H22.2775H22.2859H22.2942H22.3025H22.3108H22.3191H22.3274H22.3357H22.344H22.3523H22.3606H22.3689H22.3772H22.3855H22.3938H22.4021H22.4104H22.4187H22.427H22.4354H22.4437H22.452H22.4603H22.4686H22.4769H22.4852H22.4935H22.5018H22.5101H22.5184H22.5267H22.535H22.5433H22.5516H22.5599H22.5682H22.5765H22.5848H22.5931H22.6014H22.6097H22.618H22.6263H22.6346H22.6429H22.6512H22.6595H22.6678H22.6761H22.6844H22.6927H22.701H22.7093H22.7176H22.7259H22.7342H22.7425H22.7508H22.7591H22.7674H22.7757H22.784H22.7923H22.8006H22.8089H22.8172H22.8255H22.8338H22.8421H22.8504H22.8587H22.867H22.8753H22.8836H22.8919H22.9002H22.9085H22.9168H22.9251H22.9334H22.9417H22.95H22.9583H22.9666H22.9749H22.9832H22.9915H22.9998H23.0081H23.0164H23.0247H23.033H23.0413H23.0496H23.0579H23.0662H23.0745H23.0828H23.0911H23.0994H23.1077H23.116H23.1243H23.1326H23.1409H23.1492H23.1575H23.1658H23.1742H23.1825H23.1908H23.1991H23.2074H23.2157H23.224H23.2323H23.2406H23.2489H23.2572H23.2655H23.2738H23.2821H23.2904H23.2987H23.307H23.3153H23.3236H23.3319H23.3402H23.3485H23.3568H23.3651H23.3734H23.3817H23.39H23.3983H23.4066H23.4149H23.4232H23.4315H23.4399H23.4482H23.4565H23.4648H23.4731H23.4814H23.4897H23.498H23.5063H23.5146H23.5229H23.5312H23.5395H23.5478H23.5561H23.5645H23.5728H23.5811H23.5894H23.5977H23.606H23.6143H23.6226H23.6309H23.6392H23.6475H23.6559H23.6642H23.6725H23.6808H23.6891H23.6974H23.7057H23.714H23.7223H23.7307H23.739H23.7473H23.7556H23.7639H23.7722H23.7805H23.7889H23.7972H23.8055H23.8138H23.8221H23.8304H23.8387H23.8471H23.8554H23.8637H23.872H23.8803H23.8887H23.897H23.9053H23.9136H23.9219H23.9302H23.9386H23.9469H23.9552H23.9635H23.9718H23.9802H23.9885H23.9968H24.0051H24.0135H24.0218H24.0301H24.0384H24.0468H24.0551H24.0634H24.0717H24.08H24.0884H24.0967H24.105H24.1134H24.1217H24.13H24.1383H24.1467H24.155H24.1633H24.1717H24.18H24.1883H24.1966H24.205H24.2133H24.2216H24.23H24.2383H24.2466H24.255H24.2633H24.2716H24.28H24.2883H24.2966H24.305H24.3133H24.3217H24.3233H24.325H24.3267H24.3283H24.33H24.3317H24.3333H24.335H24.3366H24.3383H24.34H24.3416H24.3433H24.345H24.3466H24.3483H24.3499H24.3516H24.3533H24.3549H24.3566H24.3582H24.3599H24.3616H24.3632H24.3649H24.3665H24.3682H24.3698H24.3715H24.3731H24.3748H24.3765H24.3781H24.3798H24.3814H24.3831H24.3847H24.3864H24.388H24.3897H24.3913H24.393H24.3946H24.3963H24.3979H24.3996H24.4012H24.4029H24.4045H24.4062H24.4078H24.4095H24.4111H24.4128H24.4144H24.416H24.4177H24.4193H24.421H24.4226H24.4243H24.4259H24.4276H24.4292H24.4308H24.4325H24.4341H24.4358H24.4374H24.439H24.4407H24.4423H24.444H24.4456H24.4473H24.4489H24.4505H24.4522H24.4538H24.4554H24.4571H24.4587H24.4604H24.462H24.4636H24.4653H24.4669H24.4685H24.4702H24.4718H24.4734H24.4751H24.4767H24.4783H24.48H24.4816H24.4832H24.4849H24.4865H24.4881H24.4898H24.4914H24.493H24.4947H24.4963H24.4979H24.4996H24.5012H24.5028H24.5045H24.5061H24.5077H24.5093H24.511H24.5126H24.5142H24.5159H24.5175H24.5191H24.5207H24.5224H24.524H24.5256H24.5272H24.5289H24.5305H24.5321H24.5337H24.5354H24.537H24.5386H24.5402H24.5419H24.5435H24.5451H24.5467H24.5484H24.55H24.5516H24.5532H24.5549H24.5565H24.5581H24.5597H24.5614H24.563H24.5646H24.5662H24.5678H24.5695H24.5711H24.5727H24.5743H24.5759H24.5776H24.5792H24.5808H24.5824H24.584H24.5857H24.5873H24.5889H24.5905H24.5921H24.5938H24.5954H24.597H24.5986H24.6002H24.6019H24.6035H24.6051H24.6067H24.6083H24.6099H24.6116H24.6132H24.6148H24.6164H24.618H24.6196H24.6213H24.6229H24.6245H24.6261H24.6277H24.6293H24.631H24.6326H24.6342H24.6358H24.6374H24.639H24.6406H24.6423H24.6439H24.6455H24.6471H24.6487H24.6503H24.6519H24.6536H24.6552H24.6568H24.6584H24.66H24.6616H24.6632H24.6649H24.6665H24.6681H24.6697H24.6713H24.6729H24.6745H24.6762H24.6778H24.6794H24.681H24.6826H24.6842H24.6858H24.6874H24.6891H24.6907H24.6923H24.6939H24.6955H24.6971H24.6987H24.7003H24.702H24.7036H24.7052H24.7068H24.7084H24.71H24.7116H24.7132H24.7149H24.7165H24.7181H24.7197H24.7213H24.7229H24.7245H24.7261H24.7277H24.7294H24.731H24.7326H24.7342H24.7358H24.7374H24.739H24.7406H24.7423H24.7439H24.7455H24.7471H24.7487H24.7503H24.7519H24.7535H24.7551H24.7568H24.7584H24.76H24.7616H24.7632H24.7648H24.7664H24.768H24.7697H24.7713H24.7729H24.7745H24.7761H24.7777H24.7793H24.7809H24.7826H24.7842H24.7858H24.7874H24.789H24.7906H24.7922H24.7938H24.7955H24.7971H24.7987H24.8003H24.8019H24.8035H24.8051H24.8068H24.8084H24.81H24.8116H24.8132H24.8148H24.8164H24.818H24.8197H24.8213H24.8229H24.8245H24.8261H24.8277H24.8293H24.831H24.8326H24.8342H24.8358H24.8374H24.839H24.8406H24.8423H24.8439H24.8455H24.8471H24.8487H24.8503H24.852H24.8536H24.8552H24.8568H24.8584H24.86H24.8617H24.8633H24.8649H24.8665H24.8681H24.8697H24.8714H24.873H24.8746H24.8762H24.8778H24.8794H24.8811H24.8827H24.8843H24.8859H24.8875H24.8892H24.8908H24.8924H24.894H24.8956H24.8973H24.8989H24.9005H24.9021H24.9037H24.9054H24.907H24.9086H24.9102H24.9118H24.9135H24.9151H24.9167H24.9183H24.92H24.9216H24.9232H24.9248H24.9264H24.9281H24.9297H24.9313H24.9329H24.9346H24.9362H24.9378H24.9394H24.9411H24.9427H24.9443H24.9459H24.9476H24.9492H24.9508H24.9524H24.9541H24.9557H24.9573H24.959H24.9606H24.9622H24.9638H24.9655H24.9671H24.9687H24.9704H24.972H24.9736H24.9752H24.9769H24.9785H24.9801H24.9818H24.9834H24.985H24.9867H24.9883H24.9899H24.9916H24.9932H24.9948H24.9965H24.9981H24.9997H25.0014H25.003H25.0046H25.0063H25.0079H25.0095H25.0112H25.0128H25.0144H25.0161H25.0177H25.0193H25.021H25.0226H25.0243H25.0259H25.0275H25.0292H25.0308H25.0325H25.0341H25.0357H25.0374H25.039H25.0407H25.0423H25.0439H25.0456H25.0472H25.0489H25.0505H25.0522H25.0538H25.0554H25.0571H25.0587H25.0604H25.062H25.0637H25.0653H25.067H25.0686H25.0702H25.0719H25.0735H25.0752H25.0768H25.0785H25.0801H25.0818H25.0834H25.0851H25.0867H25.0884H25.09H25.0917H25.0933H25.095H25.0966H25.0983H25.1H25.1016H25.1033H25.1049H25.1066H25.1082H25.1099H25.1115H25.1132H25.1149H25.1165H25.1182H25.1198H25.1215H25.1231H25.1248H25.1265H25.1281H25.1298H25.1314H25.1331H25.1348H25.1364H25.1381H25.1398H25.1414H25.1431H25.1447H25.1464H25.1481H25.1497H25.1514H25.1531H25.1547H25.1564H25.1595L25.1595 21.4043C25.4781 21.4142 25.7452 21.4987 25.9388 21.6698C26.1337 21.842 26.2414 22.0909 26.2617 22.4032L26.2619 22.4067L26.2619 22.4067C26.272 22.7481 26.1758 23.0189 25.9795 23.2059C25.7851 23.3912 25.5066 23.4806 25.1786 23.4905C25.1785 23.4905 25.1785 23.4905 25.1784 23.4905L25.1754 23.3905L8.49183 12.8512ZM8.49183 12.8512C6.26219 13.9881 5.08705 15.8052 4.85861 18.3072L8.49183 12.8512Z" fill="#174782" stroke="#174782" stroke-width="0.2"/>
<path d="M44.3863 13.4732C44.7339 13.4326 44.9766 13.2822 45.1232 13.05C45.2669 12.8225 45.3099 12.5298 45.2903 12.2171C45.2128 10.8137 44.6309 9.63441 43.4856 8.80407C43.0304 8.45991 42.7983 8.10386 42.6895 7.54489L42.6892 7.54339C41.9164 3.87452 37.7277 1.91908 34.3697 3.60766C32.3274 4.63245 31.3242 6.33625 31.079 8.58949C30.8746 8.61928 30.7297 8.63352 30.6013 8.63352V8.6326L30.5878 8.63444C28.3222 8.94249 26.4582 11.0388 26.5552 13.208C26.5652 13.5031 26.6348 13.7581 26.7884 13.9484C26.9437 14.1408 27.1743 14.2538 27.4784 14.2844C27.7814 14.3242 28.041 14.27 28.2418 14.1216C28.4423 13.9734 28.5708 13.7412 28.6313 13.4509L28.6314 13.4502C28.6509 13.3532 28.6655 13.2518 28.6796 13.1538L28.6798 13.1523C28.6941 13.0528 28.7079 12.9565 28.7262 12.8654L28.7263 12.8654L28.7266 12.8637C28.9097 11.8622 29.491 11.1944 30.4413 10.8851C30.8048 10.7769 31.2081 10.758 31.5973 10.7949L31.5987 10.795C31.951 10.8234 32.2381 10.8312 32.4681 10.8025C32.6989 10.7737 32.883 10.7067 33.0184 10.5763C33.1538 10.4459 33.2274 10.2645 33.2636 10.0344C33.2997 9.80521 33.3003 9.51713 33.2813 9.16202L33.2815 9.16201L33.2806 9.15491C33.2626 9.01164 33.2624 8.86739 33.2624 8.71593C33.3185 6.51377 35.2939 4.8607 37.4929 5.17305L37.4934 5.17313C39.2484 5.41191 40.4855 6.73195 40.6706 8.49872L40.77 8.4883L40.6706 8.49831C40.6775 8.5675 40.6828 8.63785 40.688 8.70966L40.6891 8.72478C40.6939 8.79133 40.6989 8.85915 40.7052 8.92648C40.7187 9.07116 40.739 9.2185 40.781 9.35872C40.8667 9.64545 41.042 9.8976 41.4148 10.052L41.4148 10.052L41.4161 10.0526C41.9694 10.2726 42.3799 10.5915 42.6687 10.9984C42.9578 11.4059 43.1289 11.9074 43.1939 12.4983L43.194 12.4994C43.234 12.8276 43.3558 13.0947 43.5634 13.2689C43.7719 13.444 44.0529 13.5133 44.3863 13.4732ZM44.3863 13.4732L44.3747 13.3739L44.3866 13.4732C44.3865 13.4732 44.3864 13.4732 44.3863 13.4732Z" fill="#174782" stroke="#174782" stroke-width="0.2"/>
<path d="M42.4533 44.8003H42.4534C42.4534 44.6326 42.4513 44.4655 42.4491 44.2985C42.4449 43.9638 42.4407 43.6289 42.4534 43.2878C42.4534 43.2877 42.4534 43.2876 42.4534 43.2875L42.5534 43.2912C42.5723 42.7065 42.8759 42.3481 43.483 42.3104L42.4533 44.8003ZM42.4533 44.8003L42.4534 44.8038C42.4628 45.0753 42.4628 45.3471 42.4628 45.6209V45.6217C42.4628 45.8947 42.4628 46.1696 42.4724 46.4449L42.4723 46.4449L42.4725 46.4481C42.4927 46.7486 42.5894 46.9952 42.7645 47.172C42.9397 47.3489 43.183 47.4454 43.4761 47.4655C43.772 47.4858 44.0362 47.41 44.2304 47.2465C44.4252 47.0824 44.5399 46.8378 44.5504 46.54M42.4533 44.8003L44.5504 46.54M44.5504 46.54C44.5504 46.5397 44.5505 46.5395 44.5505 46.5392L44.4505 46.5357L44.5504 46.54Z" fill="#174782" stroke="#174782" stroke-width="0.2"/>
<path d="M43.4418 56.5011C43.7369 56.5112 44 56.4304 44.1933 56.2649C44.3874 56.0987 44.5022 55.8546 44.5127 55.5566C44.5697 54.4408 44.5697 53.3061 44.5127 52.1903C44.5022 51.9027 44.3928 51.6585 44.2009 51.4919C44.0092 51.3255 43.7446 51.2446 43.4386 51.2649L43.4384 51.2649C43.1435 51.2851 42.9046 51.3874 42.7347 51.5671C42.5654 51.7461 42.4739 51.9919 42.4538 52.2821L42.4538 52.2821L42.4536 52.2853C42.4409 52.6265 42.4451 52.9781 42.4494 53.3297C42.4515 53.5051 42.4536 53.6805 42.4536 53.8546C42.4536 54.3835 42.4535 54.9079 42.4159 55.4128L42.4153 55.4128L42.4157 55.4235C42.4257 55.733 42.5166 55.9988 42.6935 56.1907C42.8714 56.3837 43.1262 56.4909 43.4418 56.5011ZM43.4418 56.5011C43.4419 56.5011 43.442 56.5011 43.442 56.5011L43.4452 56.4012L43.4418 56.5011C43.4418 56.5011 43.4418 56.5011 43.4418 56.5011Z" fill="#174782" stroke="#174782" stroke-width="0.2"/>
<path d="M55.1538 51.2648C54.8399 51.2548 54.5758 51.3403 54.3867 51.5095C54.1974 51.679 54.0936 51.923 54.0832 52.2093C54.0261 53.3442 54.0261 54.4791 54.0832 55.5953L54.0832 55.5953L54.0833 55.5971C54.1039 55.8942 54.2236 56.1379 54.4203 56.3013C54.6165 56.4643 54.8803 56.5402 55.1764 56.5199L55.1767 56.5199C55.4607 56.4997 55.7037 56.403 55.8786 56.2264C56.0538 56.0495 56.151 55.8022 56.1612 55.4994C56.1739 55.145 56.1697 54.7886 56.1654 54.435C56.1633 54.2595 56.1613 54.0848 56.1613 53.9113C56.1613 53.6483 56.166 53.3851 56.1707 53.1208L56.1707 53.1204C56.1755 52.8566 56.1802 52.5918 56.1802 52.3268H56.1803L56.1802 52.3234C56.1701 52.0242 56.0844 51.7628 55.9095 51.5729C55.7335 51.3818 55.4782 51.2749 55.1538 51.2648ZM55.1538 51.2648C55.1538 51.2648 55.1537 51.2648 55.1537 51.2648L55.1506 51.3648L55.1538 51.2648C55.1538 51.2648 55.1538 51.2648 55.1538 51.2648Z" fill="#174782" stroke="#174782" stroke-width="0.2"/>
<path d="M44.5883 37.3179L44.5883 37.3179L44.5884 37.3152C44.6011 36.974 44.5969 36.639 44.5927 36.3042C44.5906 36.1372 44.5885 35.9701 44.5885 35.8024C44.5885 35.6624 44.5915 35.5191 44.5945 35.3735C44.6023 34.9999 44.6104 34.6117 44.569 34.2267C44.5391 33.9111 44.4387 33.6363 44.2488 33.4448C44.0564 33.2508 43.7844 33.1547 43.4392 33.1749L43.4392 33.1749L43.4388 33.1749C43.115 33.195 42.8641 33.3071 42.6955 33.5045C42.5284 33.7002 42.4535 33.9663 42.4534 34.2735C42.4407 34.9409 42.4449 35.6094 42.4491 36.2763C42.4513 36.6093 42.4534 36.9418 42.4534 37.2737H42.4533L42.4534 37.2768C42.4633 37.6023 42.548 37.8823 42.7247 38.0846C42.9032 38.289 43.1643 38.4011 43.4989 38.4112L43.4991 38.4112C43.8552 38.4213 44.1229 38.3092 44.3048 38.104C44.4837 37.9022 44.5685 37.6229 44.5883 37.3179Z" fill="#174782" stroke="#174782" stroke-width="0.2"/>
<path d="M56.1611 37.353C56.1738 37.0118 56.1696 36.677 56.1653 36.3422C56.1632 36.1752 56.1611 36.0082 56.1611 35.8404C56.1611 35.7102 56.1623 35.5792 56.1635 35.4479C56.1671 35.0531 56.1706 34.6561 56.1422 34.271C56.1415 33.9635 56.0611 33.7023 55.8886 33.512C55.7149 33.3204 55.46 33.2141 55.1379 33.1941C54.832 33.1738 54.5675 33.2547 54.3759 33.4211C54.1838 33.5879 54.0744 33.8323 54.064 34.1203L54.064 34.1205C54.026 35.2545 54.026 36.3886 54.064 37.5038L54.064 37.504C54.0744 37.7939 54.19 38.0335 54.3841 38.197C54.5772 38.3596 54.8399 38.4404 55.1349 38.4303L55.1349 38.4303L55.1377 38.4302C55.4601 38.4101 55.7146 38.3038 55.8904 38.1128C56.0655 37.9227 56.151 37.6612 56.1611 37.353ZM56.1611 37.353C56.1611 37.3529 56.1611 37.3528 56.1611 37.3527L56.0611 37.3495L56.1611 37.3532C56.1611 37.3531 56.1611 37.353 56.1611 37.353Z" fill="#174782" stroke="#174782" stroke-width="0.2"/>
<path d="M56.1609 46.4672L56.1608 46.4672C56.1406 46.769 56.0384 47.0161 55.8578 47.1903C55.6772 47.3644 55.4287 47.4558 55.1349 47.4659M56.1609 46.4672L55.1314 47.3659M56.1609 46.4672L56.161 46.4642C56.1737 46.123 56.1695 45.7713 56.1653 45.4198C56.1632 45.2443 56.161 45.0689 56.161 44.8948C56.161 44.7604 56.1622 44.624 56.1634 44.4869C56.167 44.0715 56.1706 43.6486 56.142 43.2484M56.1609 46.4672L56.061 46.4605C56.0737 46.1216 56.0695 45.7744 56.0653 45.4244C56.0632 45.2483 56.061 45.0716 56.061 44.8948C56.061 44.7584 56.0622 44.6207 56.0634 44.4828C56.067 44.0678 56.0706 43.6501 56.0421 43.2537M55.1349 47.4659L55.1314 47.3659M55.1349 47.4659C55.135 47.4659 55.135 47.4659 55.1351 47.4658L55.1314 47.3659M55.1349 47.4659C54.86 47.4759 54.608 47.4053 54.4176 47.256C54.2257 47.1055 54.1041 46.8809 54.0831 46.5999L54.083 46.5975L54.083 46.5975C54.0259 45.4435 54.0259 44.2901 54.064 43.156L54.064 43.1558C54.0743 42.8673 54.1842 42.6271 54.3793 42.4628C54.5732 42.2994 54.8412 42.2194 55.1536 42.2295L55.157 42.2296L55.157 42.2296C55.4604 42.2497 55.7046 42.3514 55.8752 42.5319C56.0452 42.7116 56.1316 42.9581 56.142 43.2484M55.1314 47.3659C54.6192 47.3848 54.2208 47.1018 54.1829 46.5925C54.126 45.4419 54.126 44.2912 54.1639 43.1594C54.1829 42.6312 54.5623 42.3105 55.1504 42.3294C55.7196 42.3671 56.0231 42.7067 56.0421 43.2537M56.142 43.2484C56.1419 43.2478 56.1419 43.2472 56.1418 43.2465L56.0421 43.2537M56.142 43.2484C56.142 43.249 56.142 43.2496 56.142 43.2502L56.0421 43.2537" fill="#174782" stroke="#174782" stroke-width="0.2"/>
<path d="M50.2801 53.8736H50.2802L50.2801 53.8702C50.2707 53.6008 50.2753 53.331 50.2801 53.0535L50.2801 53.0501C50.2848 52.7721 50.2897 52.4868 50.2801 52.1916L50.2801 52.1916L50.2799 52.1879C50.2595 51.8946 50.1566 51.6556 49.9716 51.4906C49.7872 51.3262 49.5334 51.2459 49.2315 51.2459C48.9474 51.2459 48.6992 51.3268 48.5183 51.4853C48.3362 51.6447 48.2314 51.8746 48.221 52.1533L48.221 52.1533L48.221 52.1537C48.183 53.2865 48.1639 54.4019 48.202 55.5369C48.2122 55.8423 48.3206 56.0915 48.5103 56.2613C48.6991 56.4301 48.9578 56.5111 49.2522 56.5013C49.5462 56.501 49.7952 56.4147 49.9763 56.2427C50.1575 56.0706 50.2597 55.8231 50.2799 55.5214L50.28 55.5214L50.2801 55.5182C50.2928 55.1513 50.2885 54.7824 50.2843 54.4163C50.2822 54.2346 50.2801 54.0535 50.2801 53.8736Z" fill="#174782" stroke="#174782" stroke-width="0.2"/>
<path d="M48.2017 46.4826C48.212 46.7883 48.3207 47.033 48.5106 47.2003C48.6993 47.3665 48.9575 47.4469 49.2502 47.4469C49.536 47.4469 49.7854 47.3603 49.9665 47.1883C50.1479 47.016 50.2506 46.7677 50.2608 46.4638L50.2798 43.2126C50.2798 43.2125 50.2798 43.2125 50.2798 43.2125C50.2697 42.903 50.1787 42.6445 49.9966 42.4635C49.814 42.2819 49.5533 42.1915 49.2313 42.1915C48.9266 42.1915 48.672 42.2828 48.4907 42.4577C48.3094 42.6326 48.2119 42.8809 48.2017 43.1746C48.1637 44.271 48.1637 45.3862 48.2017 46.4826ZM48.2017 46.4826C48.2017 46.4826 48.2017 46.4826 48.2017 46.4826L48.3017 46.4792L48.2017 46.4825C48.2017 46.4825 48.2017 46.4825 48.2017 46.4826ZM50.2609 44.821L50.2618 44.7951L50.2609 44.821Z" fill="#174782" stroke="#174782" stroke-width="0.2"/>
<path d="M50.28 37.3904C50.2927 37.0361 50.2884 36.6797 50.2842 36.3262C50.2821 36.1507 50.28 35.976 50.28 35.8025C50.28 35.6284 50.2821 35.453 50.2842 35.2776C50.2884 34.926 50.2927 34.5744 50.28 34.2331L50.28 34.2331L50.2798 34.2306C50.2599 33.9131 50.1641 33.6509 49.9802 33.468C49.7954 33.2843 49.5348 33.1937 49.2125 33.1937C48.9077 33.1937 48.6572 33.2851 48.4803 33.4609C48.3039 33.6364 48.212 33.8846 48.2019 34.1768L48.2019 34.1768L48.2018 34.1785C48.1829 35.2735 48.1828 36.3496 48.2018 37.4257C48.202 37.7299 48.2995 37.9835 48.4809 38.1611C48.662 38.3386 48.9167 38.4302 49.2125 38.4302C49.5345 38.4302 49.7996 38.3398 49.9868 38.1564C50.1738 37.9732 50.2699 37.71 50.28 37.3904ZM50.28 37.3904C50.28 37.3903 50.28 37.3902 50.28 37.3902L50.18 37.387L50.28 37.3906C50.28 37.3905 50.28 37.3905 50.28 37.3904Z" fill="#174782" stroke="#174782" stroke-width="0.2"/>
<path d="M30.0563 54.085L30.0566 54.085L30.0562 54.077C30.0529 53.9974 30.0502 53.9156 30.0474 53.8319C30.0344 53.4462 30.0202 53.0223 29.9411 52.612C29.8997 52.3274 29.7748 52.1047 29.5827 51.9594C29.3909 51.8144 29.1423 51.7542 28.8676 51.7744L28.8673 51.7744C28.6027 51.7947 28.366 51.8865 28.1919 52.0515C28.0168 52.2176 27.9127 52.4509 27.9023 52.7383L27.9023 52.7383L27.9023 52.7397C27.8833 53.6088 27.8833 54.4969 27.9023 55.366L27.9023 55.366L27.9023 55.3673C27.9126 55.663 28.016 55.9065 28.1995 56.0782C28.3823 56.2492 28.635 56.3403 28.9284 56.3504L28.9284 56.3504H28.9319C29.2136 56.3504 29.4564 56.2803 29.6403 56.1297C29.8249 55.9786 29.9387 55.7556 29.9794 55.4724L29.9794 55.4724L29.9796 55.4712C30.0237 55.1346 30.0342 54.7856 30.0451 54.423C30.0485 54.3116 30.0518 54.199 30.0563 54.085Z" fill="#174782" stroke="#174782" stroke-width="0.2"/>
<path d="M28.887 49.201C29.1816 49.2212 29.4451 49.1509 29.6417 48.9929C29.8394 48.834 29.9594 48.5945 29.98 48.297L29.98 48.297L29.9801 48.2962C30.0373 47.3679 30.0373 46.4395 29.9801 45.5111L29.9801 45.5111L29.98 45.51C29.9593 45.2215 29.8389 44.982 29.6389 44.8234C29.4394 44.6653 29.1703 44.5951 28.8649 44.6254C28.5606 44.6557 28.3216 44.7682 28.1569 44.9561C27.9931 45.143 27.9123 45.3936 27.9022 45.6828C27.8894 45.9505 27.8937 46.2292 27.898 46.5013C27.9 46.6346 27.9021 46.7662 27.9021 46.8942C27.9021 47.0006 27.9009 47.1079 27.8997 47.2153C27.8961 47.5387 27.8926 47.8631 27.9212 48.1646C27.9317 48.4527 28.0125 48.7028 28.1764 48.8871C28.3419 49.0732 28.582 49.1807 28.887 49.201ZM28.887 49.201C28.887 49.201 28.8871 49.201 28.8871 49.201L28.8938 49.1012L28.8869 49.201C28.8869 49.201 28.887 49.201 28.887 49.201Z" fill="#174782" stroke="#174782" stroke-width="0.2"/>
<path d="M21.5465 55.481L21.5464 55.481L21.5466 55.4841C21.5674 55.7738 21.6887 55.9993 21.8818 56.148C22.0729 56.2952 22.3252 56.3603 22.5986 56.3503C22.8719 56.3402 23.1099 56.2592 23.2856 56.1006C23.4622 55.9413 23.5657 55.7128 23.5863 55.4281C23.612 55.1211 23.6033 54.8094 23.5949 54.5044C23.5907 54.355 23.5866 54.2071 23.5866 54.0622C23.5866 53.9173 23.5907 53.7694 23.5949 53.62C23.6033 53.3149 23.612 53.0033 23.5863 52.6963C23.5657 52.4103 23.4567 52.1781 23.2792 52.015C23.1022 51.8524 22.8648 51.7654 22.5988 51.7553C22.3341 51.7451 22.0823 51.8106 21.8894 51.9571C21.6946 52.1051 21.5676 52.3302 21.5466 52.6214L21.5466 52.6214L21.5465 52.6246C21.5084 53.5704 21.5084 54.5351 21.5465 55.481Z" fill="#174782" stroke="#174782" stroke-width="0.2"/>
<path d="M22.5606 49.2199C22.8633 49.2098 23.1121 49.1189 23.2907 48.9467C23.4692 48.7745 23.5664 48.5319 23.5866 48.2403L23.5867 48.2403L23.5868 48.2377C23.5995 47.9464 23.5953 47.661 23.5911 47.3762C23.589 47.2344 23.5869 47.0928 23.5869 46.9506C23.5869 46.8021 23.589 46.6541 23.5911 46.506C23.5953 46.2087 23.5995 45.911 23.5868 45.6072L23.5868 45.6072L23.5866 45.6042C23.5663 45.3208 23.4685 45.0886 23.2983 44.9221C23.1284 44.7559 22.8956 44.6641 22.6215 44.6439L22.6215 44.6439L22.6208 44.6439C22.3176 44.6238 22.0535 44.6936 21.8585 44.8524C21.6627 45.012 21.5484 45.2519 21.5279 45.5478L21.5279 45.5478L21.5278 45.5486C21.4707 46.477 21.4707 47.4054 21.5278 48.3338L21.5278 48.3338L21.5279 48.3351C21.5486 48.6125 21.6583 48.8416 21.8428 48.9981C22.0267 49.1541 22.2754 49.2299 22.5606 49.2199ZM22.5606 49.2199L22.5573 49.1199M22.5606 49.2199C22.5606 49.2199 22.5607 49.2199 22.5608 49.2199L22.5573 49.1199M22.5573 49.1199C22.0261 49.1388 21.6656 48.837 21.6276 48.3277C21.5707 47.4034 21.5707 46.4791 21.6276 45.5548C21.6656 45.0077 22.045 44.7059 22.6142 44.7436C23.1264 44.7814 23.4489 45.0832 23.4869 45.6114C23.4995 45.9125 23.4953 46.2052 23.4911 46.5007C23.489 46.6495 23.4869 46.799 23.4869 46.9506C23.4869 47.096 23.489 47.2392 23.4911 47.3817C23.4953 47.6646 23.4995 47.9448 23.4869 48.2333C23.4489 48.7804 23.1264 49.1011 22.5573 49.1199Z" fill="#174782" stroke="#174782" stroke-width="0.2"/>
<path d="M27.9021 39.8017H27.902L27.9022 39.8063C27.9097 39.9704 27.9112 40.1372 27.9127 40.3068C27.9131 40.3493 27.9135 40.3919 27.9139 40.4348C27.9163 40.6464 27.921 40.861 27.9402 41.0718C27.9508 41.3719 28.0424 41.6185 28.2151 41.7956C28.3882 41.9731 28.6319 42.0695 28.9249 42.0896C29.221 42.1099 29.4807 42.0341 29.6725 41.8702C29.8646 41.7061 29.9785 41.4624 29.999 41.1668L29.999 41.1668L29.9992 41.1641C30.0372 40.2559 30.0372 39.3476 29.9992 38.4582L29.9992 38.4582L29.999 38.4555C29.9786 38.1612 29.8703 37.9176 29.6808 37.7507C29.4916 37.5841 29.2324 37.5036 28.9284 37.5136L28.9284 37.5136L28.9255 37.5138C28.6032 37.5338 28.3486 37.6402 28.1728 37.8312C27.9978 38.0212 27.9123 38.2825 27.9022 38.5906C27.8894 38.8707 27.8937 39.145 27.898 39.4128C27.9 39.544 27.9021 39.6737 27.9021 39.8017Z" fill="#174782" stroke="#174782" stroke-width="0.2"/>
<path d="M21.5464 41.2202C21.5569 41.5105 21.6729 41.7413 21.8633 41.8954C22.052 42.0482 22.3049 42.1188 22.5797 42.1086C22.8528 42.0986 23.0949 42.0177 23.275 41.8599C23.4563 41.7012 23.5656 41.4728 23.5863 41.1865C23.612 40.8795 23.6033 40.5678 23.5949 40.2628C23.5907 40.1133 23.5866 39.9655 23.5866 39.8206C23.5866 39.6964 23.5896 39.5701 23.5927 39.4425C23.6005 39.1171 23.6085 38.783 23.5672 38.4526C23.5464 38.1706 23.4488 37.9389 23.2785 37.775C23.1077 37.6105 22.8737 37.5238 22.5986 37.5136C22.3268 37.5036 22.0748 37.5632 21.8832 37.7054C21.6891 37.8495 21.5675 38.0708 21.5466 38.3609L21.5466 38.3609L21.5465 38.3641C21.5084 39.3098 21.5084 40.2745 21.5464 41.2202ZM21.5464 41.2202C21.5464 41.2202 21.5464 41.2201 21.5464 41.22L21.6464 41.2164M21.5464 41.2202C21.5465 41.2203 21.5465 41.2204 21.5465 41.2205L21.6464 41.2164M21.6464 41.2164C21.6653 41.7446 22.0638 42.0276 22.576 42.0087C23.0882 41.9898 23.4487 41.7069 23.4866 41.1787L21.6464 38.3681C21.6084 39.3113 21.6084 40.2733 21.6464 41.2164Z" fill="#174782" stroke="#174782" stroke-width="0.2"/>
<path d="M103.107 12.8968C102.563 12.9177 102.137 13.3557 102.157 13.8853V13.9022H102.157L102.157 13.9057L102.262 16.9073C101.087 15.698 99.775 14.6442 98.3242 13.7787C95.577 12.1284 92.4859 11.2745 89.3942 11.2745C84.452 11.2745 79.9099 13.3051 76.5712 16.9852L76.5709 16.9854C73.6343 20.2465 71.8592 24.6273 71.8592 28.7099C71.8592 29.2575 72.3044 29.6776 72.8319 29.6776C73.3609 29.6776 73.8046 29.2372 73.8046 28.7099C73.8046 25.0961 75.3686 21.1961 78.0093 18.2891L78.0099 18.2884C80.9506 14.9898 84.9833 13.1911 89.3562 13.1911C92.0883 13.1911 94.8404 13.9592 97.2917 15.4215C98.7736 16.3199 100.134 17.4244 101.289 18.7182L97.404 18.5935C97.4039 18.5935 97.4038 18.5935 97.4037 18.5935C96.8544 18.5727 96.4107 18.994 96.3896 19.5385C96.3684 20.0863 96.7932 20.5268 97.3394 20.5477L97.34 20.5477L103.033 20.7358C103.389 20.8735 103.802 20.788 104.073 20.5187C104.344 20.2493 104.43 19.838 104.291 19.4836L104.102 13.8423L104.102 13.8417C104.081 13.2987 103.639 12.8757 103.107 12.8968ZM103.107 12.8968C103.107 12.8968 103.107 12.8968 103.107 12.8968L103.111 12.9968L103.107 12.8968C103.107 12.8968 103.107 12.8968 103.107 12.8968Z" fill="#174782" stroke="#174782" stroke-width="0.2"/>
<path d="M75.8332 44.4477C76.3773 44.4269 76.8033 43.9888 76.7831 43.4593V43.4424H76.7832L76.7831 43.4389L76.6784 40.4373C77.8526 41.6466 79.1651 42.7004 80.6158 43.5659C83.363 45.2162 86.4541 46.0701 89.5459 46.0701C94.4881 46.0701 99.03 44.0395 102.369 40.3784L102.369 40.378C105.305 37.1174 107.08 32.7376 107.081 28.6556C107.101 28.1439 106.673 27.7047 106.127 27.7047C105.578 27.7047 105.154 28.1465 105.154 28.6724C105.154 32.2862 103.59 36.1862 100.95 39.0932L100.95 39.0932C97.9899 42.3548 93.9567 44.1535 89.5838 44.1535C86.8517 44.1535 84.0996 43.3854 81.6483 41.9231C80.1665 41.0246 78.8065 39.9201 77.6508 38.6264L81.536 38.751C81.5362 38.751 81.5363 38.751 81.5364 38.751C82.0857 38.7718 82.5294 38.3505 82.5504 37.8061C82.5716 37.2583 82.1469 36.8178 81.6006 36.7969L81.6001 36.7969L75.9071 36.6088C75.5512 36.4711 75.1381 36.5566 74.8672 36.8259C74.5963 37.0952 74.51 37.5065 74.6487 37.8609L74.8378 43.5023L74.8378 43.5028C74.8588 44.0458 75.3012 44.4688 75.8332 44.4477ZM75.8332 44.4477L75.8294 44.3478M75.8332 44.4477C75.8333 44.4477 75.8333 44.4477 75.8334 44.4477L75.8294 44.3478M75.8294 44.3478C75.3551 44.3667 74.9567 43.9894 74.9377 43.499L76.6831 43.4612C76.7021 43.9328 76.3227 44.3289 75.8294 44.3478Z" fill="#174782" stroke="#174782" stroke-width="0.2"/>
<path d="M97.395 24.8194L97.395 24.8195L97.397 24.8174C97.7577 24.4376 97.7552 23.7908 97.357 23.3949C96.9576 22.9977 96.3254 22.9977 95.926 23.3949L87.9146 31.3606L83.7354 27.2053C83.3359 26.8081 82.7038 26.8081 82.3043 27.2053C81.9045 27.6028 81.9045 28.2323 82.3043 28.6298L87.218 33.5154C87.4084 33.7047 87.6808 33.8086 87.9335 33.8086C88.1863 33.8086 88.4587 33.7047 88.6491 33.5154L97.395 24.8194Z" fill="#174782" stroke="#174782" stroke-width="0.2"/>
</g>
<defs>
<clipPath id="clip0">
<rect width="107" height="77" fill="white"/>
</clipPath>
</defs>
</svg>
