<svg width="66" height="66" viewBox="0 0 66 66" fill="none" xmlns="http://www.w3.org/2000/svg">
<path d="M30.9088 23.0923C30.8406 24.1164 30.7999 25.2108 30.7999 26.4C30.7999 31.9098 32.4443 35.2 35.1998 35.2C38.6736 35.2 39.5998 31.052 39.5998 28.6C39.5998 27.9929 39.107 27.5001 38.4998 27.5001C37.8927 27.5001 37.3999 27.9929 37.3999 28.6C37.3999 28.644 37.3052 33 35.1998 33C33.9249 33 32.9998 30.2246 32.9998 26.4C32.9998 13.5751 37.5009 12.1144 37.6428 12.0736C38.2225 11.9416 38.5955 11.3707 38.4778 10.7844C38.3601 10.1893 37.7836 9.80216 37.1842 9.92204C36.9642 9.966 36.1667 10.1751 35.2076 10.9967C35.2087 10.8075 35.2241 10.6184 35.2747 10.4302C35.4266 9.86262 35.7906 9.3885 36.2999 9.09485C36.8081 8.8012 37.4021 8.72309 37.9686 8.87481C38.5362 9.02769 39.0114 9.39185 39.3039 9.9C39.9111 10.9505 39.5503 12.2991 38.4998 12.9052C37.973 13.2099 37.7937 13.8831 38.0972 14.4089C38.3008 14.7609 38.6704 14.9578 39.0509 14.9578C39.2379 14.9578 39.427 14.9105 39.5998 14.8104C41.7008 13.596 42.4224 10.8999 41.2102 8.80004C40.6228 7.78259 39.6735 7.05439 38.5384 6.74966C37.401 6.44493 36.2162 6.60232 35.1998 7.18962C34.1824 7.77704 33.4542 8.72631 33.1494 9.86146C32.8646 10.924 32.9998 12.0273 33.5168 13.0316C32.573 14.5673 31.6909 16.8541 31.2002 20.2553C29.5536 18.283 28.5998 15.7706 28.5998 13.1999C28.5998 7.13445 33.5345 2.19991 39.5998 2.19991C45.6651 2.19991 50.5997 7.13457 50.5997 13.1999C50.5997 19.2652 45.6651 24.1998 39.5998 24.1998C38.4052 24.1998 37.2303 24.0096 36.1095 23.6355C35.5342 23.4441 34.9094 23.7543 34.718 24.3296C34.5243 24.906 34.8357 25.5286 35.4121 25.7212C36.7586 26.1711 38.1676 26.3999 39.5998 26.3999C46.8785 26.3999 52.7998 20.4786 52.7998 13.1999C52.7999 5.92131 46.8786 0 39.5999 0C32.3212 0 26.3999 5.92131 26.3999 13.2C26.3999 16.951 28.0841 20.5964 30.9088 23.0923Z" fill="#174782"/>
<path d="M65.6777 32.2224L54.2531 20.7978C53.8241 20.3688 53.1278 20.3688 52.6978 20.7978C52.2688 21.228 52.2688 21.9242 52.6978 22.3532L63.8001 33.4555V37.4002H59.8554L59.4 36.9447V34.1002C59.4 33.493 58.9072 33.0002 58.3 33.0002H57.2001V31.9003C57.2001 31.2931 56.7073 30.8003 56.1001 30.8003H53.2566L52.8001 30.3438V27.5003C52.8001 26.8932 52.3073 26.4003 51.7002 26.4003H48.8555L48.7487 26.2936C48.3197 25.8646 47.6234 25.8646 47.1933 26.2936C46.7643 26.7238 46.7643 27.42 47.1933 27.849L47.6223 28.278C47.8281 28.4848 48.1086 28.6003 48.4 28.6003H50.6001V30.7991C50.6001 31.0906 50.7156 31.3701 50.9213 31.5758L52.0213 32.6779C52.228 32.8847 52.5075 33.0002 52.8001 33.0002H55.0002V34.1002C55.0002 34.7073 55.493 35.2001 56.1001 35.2001H57.2001V37.4002C57.2001 37.6916 57.3156 37.9721 57.5223 38.1779L58.6223 39.2778C58.828 39.4846 59.1085 39.6001 59.4 39.6001H64.9C65.5072 39.6001 66 39.1073 66 38.5001V33.0001C66 32.7086 65.8845 32.4281 65.6777 32.2224Z" fill="#174782"/>
<path d="M6.59985 18.7001C6.59985 19.3072 7.09266 19.8 7.69981 19.8H8.79977V26.4H7.69981C7.09266 26.4 6.59985 26.8928 6.59985 27.5C6.59985 28.1071 7.09266 28.5999 7.69981 28.5999H8.79977V35.1999H7.69981C7.09266 35.1999 6.59985 35.6927 6.59985 36.2999C6.59985 36.907 7.09266 37.3998 7.69981 37.3998H8.79977V43.9998H7.69981C7.09266 43.9998 6.59985 44.4926 6.59985 45.0998C6.59985 45.7069 7.09266 46.1997 7.69981 46.1997H8.79977V52.7997H7.69981C7.09266 52.7997 6.59985 53.2926 6.59985 53.8997C6.59985 54.5069 7.09266 54.9997 7.69981 54.9997H8.79977V60.4997C8.79977 61.1068 9.29258 61.5997 9.89972 61.5997C10.5069 61.5997 10.9997 61.1068 10.9997 60.4997V54.9997H15.3996V60.4997C15.3996 61.1068 15.8924 61.5997 16.4996 61.5997C17.1067 61.5997 17.5996 61.1068 17.5996 60.4997V54.9997H21.9995V60.4997C21.9995 61.1068 22.4923 61.5997 23.0995 61.5997C23.7066 61.5997 24.1994 61.1068 24.1994 60.4997V54.9997H28.5994V60.4997C28.5994 61.1068 29.0922 61.5997 29.6993 61.5997C30.3065 61.5997 30.7993 61.1068 30.7993 60.4997V54.9997H31.8993C32.5064 54.9997 32.9992 54.5069 32.9992 53.8997C32.9992 53.2926 32.5064 52.7997 31.8993 52.7997H30.7993V46.1997H31.8993C32.5064 46.1997 32.9992 45.7069 32.9992 45.0998C32.9992 44.4926 32.5064 43.9998 31.8993 43.9998H30.7993V37.3998C31.4064 37.3998 31.8993 36.907 31.8993 36.2999C31.8993 35.6927 31.4064 35.1999 30.7993 35.1999C30.7993 34.5928 30.3065 34.1 29.6993 34.1C29.0922 34.1 28.5994 34.5928 28.5994 35.1999H24.1994V28.5999H27.4994C28.1066 28.5999 28.5994 28.1071 28.5994 27.5C28.5994 26.8928 28.1066 26.4 27.4994 26.4H24.1994V19.8H24.7499C25.357 19.8 25.8498 19.3072 25.8498 18.7001C25.8498 18.0929 25.357 17.6001 24.7499 17.6001H7.69981C7.09266 17.6 6.59985 18.0928 6.59985 18.7001ZM24.1998 37.4H28.5998V44H24.1998V37.4ZM24.1998 46.2H28.5998V52.8H24.1998V46.2ZM17.5998 19.8H21.9998V26.4H17.5998V19.8ZM17.5998 28.6001H21.9998V35.2H17.5998V28.6001ZM17.5998 37.4H21.9998V44H17.5998V37.4ZM17.5998 46.2H21.9998V52.8H17.5998V46.2ZM10.9998 19.8H15.3998V26.4H10.9998V19.8ZM10.9998 28.6001H15.3998V35.2H10.9998V28.6001ZM10.9998 37.4H15.3998V44H10.9998V37.4ZM10.9998 46.2H15.3998V52.8H10.9998V46.2Z" fill="#174782"/>
<path d="M23.0999 15.4001C23.707 15.4001 24.1998 14.9073 24.1998 14.3002C24.1998 13.693 23.707 13.2002 23.0999 13.2002H16.4999C15.8927 13.2002 15.3999 13.693 15.3999 14.3002C15.3999 14.9073 15.8927 15.4001 16.4999 15.4001H23.0999Z" fill="#174782"/>
<path d="M64.9 63.8001H48.4V59.289C50.9069 58.7775 52.8 56.5566 52.8 53.9001C52.8 53.7571 52.7373 39.6001 47.3 39.6001C41.8626 39.6001 41.7999 53.7571 41.7999 53.9001C41.7999 56.5566 43.693 58.7775 46.1999 59.289V63.8001H37.3998V38.5002C37.3998 37.893 36.907 37.4002 36.2999 37.4002C35.6927 37.4002 35.1999 37.893 35.1999 38.5002V63.8002H4.39996V15.4002H12.0999C12.7071 15.4002 13.1999 14.9074 13.1999 14.3002V11.0002H23.0999C23.707 11.0002 24.1998 10.5074 24.1998 9.90025C24.1998 9.2931 23.707 8.80029 23.0999 8.80029H12.1C11.4929 8.80029 11.0001 9.2931 11.0001 9.90025V13.2003H3.3C2.69285 13.2003 2.20004 13.6931 2.20004 14.3002V63.8002H1.09996C0.492809 63.8002 0 64.293 0 64.9002C0 65.5073 0.492809 66.0001 1.09996 66.0001H64.8999C65.5071 66.0001 65.9999 65.5073 65.9999 64.9002C65.9999 64.293 65.5072 63.8001 64.9 63.8001ZM44 53.9001C44 48.4199 45.4718 41.8 47.3 41.8C49.1281 41.8 50.5999 48.4199 50.5999 53.9001C50.5999 55.7195 49.1193 57.2001 47.3 57.2001C45.4806 57.2001 44 55.7195 44 53.9001Z" fill="#174782"/>
</svg>
