<svg width="42" height="42" viewBox="0 0 42 42" fill="none" xmlns="http://www.w3.org/2000/svg">
<g clip-path="url(#clip0)">
<path d="M30.8684 0.180469C30.7535 0.065625 30.5952 0 30.4336 0H14.8477C14.6852 0 14.5269 0.065625 14.4129 0.180469C14.298 0.294492 14.2324 0.45273 14.2324 0.615234V3.39117C14.2324 3.73078 14.508 4.00723 14.8477 4.00723C15.1864 4.00723 15.4629 3.73078 15.4629 3.39117V1.23047H29.8184V13.1258H22.2305C22.1525 13.1258 22.0738 13.1414 22.0024 13.1701L18.7441 14.472V13.7411C18.7441 13.5795 18.6785 13.4211 18.5637 13.3063C18.4496 13.1914 18.2905 13.1258 18.1289 13.1258H15.4629V5.85211C15.4629 5.51332 15.1864 5.2377 14.8477 5.2377C14.508 5.2377 14.2324 5.51332 14.2324 5.85211V13.7411C14.2324 13.9035 14.298 14.0618 14.4129 14.1766C14.5268 14.2907 14.6852 14.3563 14.8476 14.3563H17.5136V15.3809C17.5136 15.5851 17.6145 15.7754 17.7835 15.8903C17.886 15.9592 18.005 15.9961 18.1288 15.9961C18.2076 15.9961 18.2847 15.9812 18.3569 15.9518L22.3485 14.3563H30.4336C30.5952 14.3563 30.7534 14.2907 30.8684 14.1766C30.9832 14.0619 31.0488 13.9036 31.0488 13.7411V0.615234C31.0488 0.45273 30.9832 0.294492 30.8684 0.180469Z" fill="#174782"/>
<path d="M37.8163 35.0275H35.9709L35.9716 33.6654C37.4782 32.349 38.4316 30.415 38.4316 28.2623V25.9019C38.9123 23.4838 38.6918 21.6906 37.7751 20.5725C37.1974 19.8677 36.4813 19.5991 35.9706 19.4986V16.7756C35.9706 16.4358 35.6952 16.1604 35.3554 16.1604C35.1219 16.1604 34.8827 16.1591 34.6393 16.1579C34.3847 16.1565 34.1254 16.1552 33.8632 16.1552C30.8951 16.1552 27.5629 16.3429 25.5835 18.5851C24.1597 20.1979 23.6667 22.5798 24.076 25.8666V28.2624C24.076 30.4156 25.0299 32.3502 26.5371 33.6665V35.0277H24.6914C22.9952 35.0277 21.6152 36.4076 21.6152 38.1038V41.3848C21.6152 41.7246 21.8906 42 22.2305 42H24.6914H28.793H40.2773C40.6171 42 40.8925 41.7246 40.8925 41.3848V38.1069C40.8925 38.1057 40.8926 38.1048 40.8926 38.1037C40.8926 36.4074 39.5126 35.0275 37.8163 35.0275ZM26.5061 19.3993C28.1465 17.5411 31.1638 17.3855 33.8633 17.3855C34.1234 17.3855 34.3804 17.3869 34.6329 17.3882C34.6688 17.3883 34.7046 17.3885 34.7403 17.3887V20.0568C34.7403 20.2266 34.8075 20.3891 34.9313 20.5054C35.0552 20.6218 35.2186 20.682 35.388 20.6711C35.444 20.6679 36.2551 20.6591 36.8237 21.3526C37.2437 21.8649 37.4532 22.6509 37.4485 23.67L37.1811 23.1353C37.0456 22.8642 36.7327 22.732 36.444 22.8242C36.4074 22.8359 32.7621 23.9895 30.6593 23.9895C28.6424 23.9895 26.8173 22.896 26.7999 22.8854C26.5294 22.7199 26.1773 22.7875 25.9869 23.0412L25.175 24.1238C25.1254 22.0436 25.571 20.4584 26.5061 19.3993ZM25.3066 28.2622V25.9991L26.6536 24.2032C27.4122 24.5804 28.9508 25.22 30.6593 25.22C32.4816 25.22 35.1945 24.4799 36.3129 24.1502L37.2012 25.9269V28.2622C37.2012 31.5403 34.5333 34.2072 31.2539 34.2072C27.9745 34.2072 25.3066 31.5403 25.3066 28.2622ZM34.7407 34.532L34.7403 35.3133L32.8511 36.5731L31.8691 36.0826V35.411C32.904 35.3227 33.8769 35.014 34.7407 34.532ZM30.6387 35.4111V36.0465L29.308 36.5787L27.7677 35.3469V34.5324C28.6313 35.0142 29.6039 35.3228 30.6387 35.4111ZM28.1777 40.7695H25.3067V39.5391H28.1777V40.7695ZM39.662 38.1037V40.7695H29.4082V38.9238C29.4082 38.584 29.1328 38.3086 28.793 38.3086H24.6916C24.3517 38.3086 24.0763 38.584 24.0763 38.9238V40.7695H22.8459V38.1037C22.8459 37.086 23.6739 36.258 24.6916 36.258H26.9368L28.8195 37.7635C28.825 37.7678 28.8311 37.7707 28.8366 37.7749C28.854 37.7878 28.8718 37.7998 28.8903 37.8107C28.9014 37.8174 28.9125 37.8239 28.9238 37.8297C28.9414 37.8386 28.9596 37.8463 28.9778 37.8536C28.99 37.8584 29.0021 37.8637 29.0145 37.8677C29.0347 37.8742 29.0555 37.8789 29.0764 37.8833C29.0868 37.8856 29.097 37.8887 29.1074 37.8904C29.1391 37.8955 29.1713 37.8984 29.2039 37.8984C29.2254 37.8984 29.2468 37.897 29.2684 37.8947C29.2722 37.8943 29.276 37.8935 29.2798 37.893C29.2967 37.891 29.3135 37.8882 29.3304 37.8847C29.3373 37.8832 29.3441 37.8814 29.351 37.8797C29.3642 37.8764 29.3774 37.8728 29.3906 37.8685C29.3991 37.8658 29.4076 37.8628 29.4162 37.8597C29.4214 37.8578 29.4269 37.8564 29.4322 37.8542L31.2259 37.1368L32.6205 37.8334C32.6299 37.8381 32.6397 37.8415 32.6492 37.8457C32.6603 37.8505 32.6712 37.8558 32.6825 37.86C32.6979 37.8656 32.7133 37.87 32.7288 37.8743C32.7363 37.8764 32.7436 37.8792 32.7511 37.8809C32.7729 37.8861 32.7946 37.89 32.8166 37.8929C32.8185 37.893 32.8202 37.8935 32.822 37.8938C32.8463 37.8967 32.8707 37.8984 32.8949 37.8984C32.9238 37.8984 32.9524 37.8962 32.9809 37.8922C32.9933 37.8904 33.0056 37.887 33.018 37.8844C33.0337 37.8812 33.0495 37.8785 33.0648 37.8742C33.0773 37.8705 33.0896 37.8654 33.1019 37.861C33.1172 37.8555 33.1325 37.8503 33.1474 37.8437C33.1582 37.8387 33.1687 37.8327 33.1793 37.8272C33.1953 37.8189 33.2113 37.8104 33.2265 37.8007C33.2298 37.7985 33.2334 37.7971 33.2367 37.7949L35.5417 36.258H37.8164C38.8334 36.258 39.661 37.0848 39.6621 38.1016C39.6621 38.1023 39.662 38.103 39.662 38.1037Z" fill="#174782"/>
<path d="M17.3085 35.0276H14.6428L14.6432 34.2851C16.616 33.005 17.9237 30.7835 17.9237 28.2623V26.9065L18.7422 27.1988C18.8094 27.2228 18.8794 27.2346 18.9491 27.2346C19.0743 27.2346 19.1984 27.1963 19.3035 27.1223C19.4671 27.007 19.5644 26.8195 19.5644 26.6194C19.5644 22.9271 18.8535 20.1853 17.4514 18.4706C16.2996 17.0619 14.7163 16.3477 12.7454 16.3477C10.4482 16.3477 8.29533 17.3346 7.53039 17.7269L6.08861 17.0405C5.90551 16.9533 5.69125 16.9619 5.51594 17.0635C5.2692 17.2063 3.12154 18.6183 3.56828 24.1813V28.2623C3.56828 30.7838 4.87635 33.0055 6.84953 34.2856V35.0276H4.18359C2.48735 35.0276 1.10742 36.4075 1.10742 38.1037V41.3848C1.10742 41.7247 1.38288 42.0001 1.72266 42.0001H19.7694C20.1091 42.0001 20.3846 41.7247 20.3846 41.3848V38.1069C20.3846 38.1058 20.3848 38.1049 20.3848 38.1037C20.3847 36.4075 19.0048 35.0276 17.3085 35.0276ZM5.92438 18.3251L7.28241 18.9717C7.4646 19.0585 7.67821 19.05 7.85326 18.9497C7.87721 18.9359 10.2749 17.5781 12.7455 17.5781C16.2682 17.5781 18.1412 20.3236 18.3199 25.7413L7.67173 21.9384C7.60463 21.9145 7.53465 21.9026 7.46484 21.9026C7.37026 21.9026 7.27601 21.9245 7.18971 21.9676L4.74526 23.1898C4.6556 20.1076 5.50807 18.7838 5.92438 18.3251ZM4.79883 28.2623V24.5386L7.5052 23.1855L16.6934 26.467V28.2623C16.6934 31.5403 14.0255 34.2073 10.7461 34.2073C7.46673 34.2073 4.79883 31.5403 4.79883 28.2623ZM13.4124 34.924L13.412 35.6425V35.6426V35.6427C13.412 37.1128 12.216 38.3087 10.746 38.3087C9.27601 38.3087 8.08 37.1128 8.08 35.6427V34.9242C8.90474 35.2551 9.80446 35.4377 10.746 35.4377C11.6878 35.4377 12.5876 35.255 13.4124 34.924ZM19.1541 38.1037V40.7696H19.1541H2.33789V38.1037C2.33789 37.0861 3.16583 36.258 4.18359 36.258H6.89866C7.19463 38.1151 8.80696 39.5392 10.7461 39.5392C12.6852 39.5392 14.2976 38.1151 14.5935 36.258H17.3086C18.3256 36.258 19.1531 37.0849 19.1542 38.1017C19.1542 38.1023 19.1541 38.1031 19.1541 38.1037Z" fill="#174782"/>
<path d="M24.5256 3.24102C24.0219 2.73817 23.3526 2.4609 22.6406 2.46008C21.9278 2.4609 21.2583 2.73817 20.7555 3.24102C20.2519 3.74469 19.9746 4.41407 19.9746 5.1261C19.9746 5.46571 20.2502 5.74133 20.5898 5.74133C20.9286 5.74133 21.2051 5.46571 21.2051 5.1261V5.1252C21.2059 4.74211 21.3552 4.38281 21.6259 4.11211C21.8966 3.84141 22.2566 3.69129 22.6406 3.69047C23.0237 3.69129 23.3838 3.84141 23.6544 4.11211C23.926 4.38281 24.0754 4.74285 24.0762 5.12602C24.0754 5.50992 23.9261 5.86996 23.6544 6.14066C23.3856 6.40948 23.0286 6.55919 22.6484 6.56197C22.6458 6.56189 22.6432 6.56156 22.6405 6.56156C22.3009 6.56156 22.0253 6.83793 22.0253 7.17762V8.81824C22.0253 9.15703 22.3009 9.43348 22.6405 9.43348C22.9793 9.43348 23.2558 9.15703 23.2558 8.81824V7.7205H23.2559C23.7326 7.60836 24.1704 7.36629 24.5256 7.01118C25.0285 6.50833 25.3058 5.83895 25.3066 5.1261C25.3058 4.41399 25.0285 3.74461 24.5256 3.24102Z" fill="#174782"/>
<path d="M22.6406 9.84375C22.3009 9.84375 22.0254 10.1193 22.0254 10.459V11.2785C22.0254 11.6181 22.3009 11.8937 22.6406 11.8937C22.9794 11.8937 23.2559 11.6181 23.2559 11.2785V10.459C23.2559 10.1193 22.9793 9.84375 22.6406 9.84375Z" fill="#174782"/>
</g>
<defs>
<clipPath id="clip0">
<rect width="42" height="42" fill="white"/>
</clipPath>
</defs>
</svg>
