<svg width="60" height="60" viewBox="0 0 60 60" fill="none" xmlns="http://www.w3.org/2000/svg">
<mask id="path-1-inside-1" fill="white">
<path d="M57.0886 26.0898L52.1796 23.6353C51.919 23.5055 51.632 23.4378 51.3409 23.4375H42.4091L31.5546 18.0103C31.294 17.8805 31.007 17.8128 30.716 17.8125H5.62501C5.1279 17.8131 4.65132 18.0108 4.29981 18.3623C3.9483 18.7138 3.75058 19.1904 3.75001 19.6875V20.2368C3.74934 20.4831 3.79755 20.7271 3.89184 20.9547C3.98614 21.1823 4.12464 21.3888 4.29932 21.5625L5.09 22.3532L2.59828 24.2912C2.37242 24.466 2.18974 24.6904 2.06434 24.947C1.93894 25.2036 1.87416 25.4856 1.87501 25.7712V32.5529C1.87448 32.8928 1.96693 33.2264 2.14234 33.5175L4.54835 37.527C4.71559 37.804 4.95135 38.0333 5.23293 38.1928C5.51451 38.3523 5.83241 38.4366 6.15601 38.4375H6.89066C7.27688 39.5339 7.99381 40.4834 8.94254 41.1551C9.89128 41.8268 11.0251 42.1875 12.1875 42.1875C13.3499 42.1875 14.4837 41.8268 15.4325 41.1551C16.3812 40.4834 17.0981 39.5339 17.4843 38.4375H39.7032C40.0894 39.5339 40.8063 40.4834 41.755 41.1551C42.7038 41.8268 43.8376 42.1875 45 42.1875C46.1624 42.1875 47.2962 41.8268 48.245 41.1551C49.1937 40.4834 49.9106 39.5339 50.2968 38.4375H53.9063C54.1971 38.4368 54.4839 38.3687 54.7441 38.2386C55.0043 38.1086 55.2308 37.92 55.4059 37.6877L57.7496 34.563C57.9925 34.2379 58.1241 33.8431 58.125 33.4373V27.767C58.1262 27.4186 58.0297 27.0767 57.8466 26.7803C57.6634 26.4838 57.4008 26.2446 57.0886 26.0898ZM38.2159 23.4375H25.3125V19.6875H30.716L38.2159 23.4375ZM13.8004 19.6875H23.4375V23.4375H12.5503L13.8004 19.6875ZM11.8247 19.6875L10.5746 23.4375H6.75025L11.5714 19.6875H11.8247ZM5.62501 20.2368V19.6875H8.51722L6.5814 21.1932L5.62501 20.2368ZM6.56251 36.5625H6.15601L3.75001 32.5529V30H5.62501V28.125H3.75001V25.7712L4.33972 25.3125H10.3125V31.2657C9.21722 31.6536 8.2688 32.371 7.5974 33.3193C6.92599 34.2677 6.5645 35.4005 6.56251 36.5625ZM12.1875 40.3125C11.4458 40.3125 10.7208 40.0926 10.1041 39.6805C9.48743 39.2685 9.00679 38.6828 8.72296 37.9976C8.43913 37.3123 8.36487 36.5583 8.50956 35.8309C8.65426 35.1035 9.01141 34.4353 9.53586 33.9109C10.0603 33.3864 10.7285 33.0292 11.4559 32.8846C12.1833 32.7399 12.9373 32.8141 13.6226 33.098C14.3078 33.3818 14.8935 33.8624 15.3055 34.4791C15.7176 35.0958 15.9375 35.8208 15.9375 36.5625C15.9364 37.5567 15.541 38.5099 14.838 39.213C14.135 39.916 13.1817 40.3114 12.1875 40.3125ZM12.1875 30.9375V25.3125H23.4375V28.7787C23.4372 29.1489 23.5468 29.5109 23.7524 29.8187L25.3125 32.1588V36.5625H17.8125C17.8109 35.0712 17.2177 33.6414 16.1632 32.5868C15.1086 31.5323 13.6789 30.9391 12.1875 30.9375ZM39.375 36.5625H27.1875V32.1588C27.1878 31.7886 27.0782 31.4266 26.8726 31.1188L25.3125 28.7787V25.3125H39.375V27.8412C39.3747 28.2114 39.4843 28.5734 39.6899 28.8812L41.25 31.2213V32.3817C40.6607 32.9072 40.189 33.5513 39.8659 34.2718C39.5427 34.9923 39.3755 35.7729 39.375 36.5625ZM45 40.3125C44.2583 40.3125 43.5333 40.0926 42.9166 39.6805C42.2999 39.2685 41.8193 38.6828 41.5355 37.9976C41.2516 37.3123 41.1774 36.5583 41.3221 35.8309C41.4668 35.1035 41.8239 34.4353 42.3484 33.9109C42.8728 33.3864 43.541 33.0292 44.2684 32.8846C44.9958 32.7399 45.7498 32.8141 46.4351 33.098C47.1203 33.3818 47.706 33.8624 48.118 34.4791C48.5301 35.0958 48.75 35.8208 48.75 36.5625C48.7489 37.5567 48.3535 38.5099 47.6505 39.213C46.9475 39.916 45.9942 40.3114 45 40.3125ZM53.9063 36.5625H50.625C50.6275 35.6619 50.4131 34.774 50 33.9737C49.5869 33.1735 48.9872 32.4845 48.2515 31.965C47.5159 31.4455 46.666 31.1107 45.7737 30.989C44.8814 30.8672 43.9729 30.9621 43.125 31.2657V31.2213C43.1253 30.8511 43.0157 30.4891 42.8101 30.1813L41.25 27.8412V25.3125H51.3409L55.0909 27.1875H51.5625V29.0625H56.25V33.4373L53.9063 36.5625Z"/>
</mask>
<path d="M57.0886 26.0898L52.1796 23.6353C51.919 23.5055 51.632 23.4378 51.3409 23.4375H42.4091L31.5546 18.0103C31.294 17.8805 31.007 17.8128 30.716 17.8125H5.62501C5.1279 17.8131 4.65132 18.0108 4.29981 18.3623C3.9483 18.7138 3.75058 19.1904 3.75001 19.6875V20.2368C3.74934 20.4831 3.79755 20.7271 3.89184 20.9547C3.98614 21.1823 4.12464 21.3888 4.29932 21.5625L5.09 22.3532L2.59828 24.2912C2.37242 24.466 2.18974 24.6904 2.06434 24.947C1.93894 25.2036 1.87416 25.4856 1.87501 25.7712V32.5529C1.87448 32.8928 1.96693 33.2264 2.14234 33.5175L4.54835 37.527C4.71559 37.804 4.95135 38.0333 5.23293 38.1928C5.51451 38.3523 5.83241 38.4366 6.15601 38.4375H6.89066C7.27688 39.5339 7.99381 40.4834 8.94254 41.1551C9.89128 41.8268 11.0251 42.1875 12.1875 42.1875C13.3499 42.1875 14.4837 41.8268 15.4325 41.1551C16.3812 40.4834 17.0981 39.5339 17.4843 38.4375H39.7032C40.0894 39.5339 40.8063 40.4834 41.755 41.1551C42.7038 41.8268 43.8376 42.1875 45 42.1875C46.1624 42.1875 47.2962 41.8268 48.245 41.1551C49.1937 40.4834 49.9106 39.5339 50.2968 38.4375H53.9063C54.1971 38.4368 54.4839 38.3687 54.7441 38.2386C55.0043 38.1086 55.2308 37.92 55.4059 37.6877L57.7496 34.563C57.9925 34.2379 58.1241 33.8431 58.125 33.4373V27.767C58.1262 27.4186 58.0297 27.0767 57.8466 26.7803C57.6634 26.4838 57.4008 26.2446 57.0886 26.0898ZM38.2159 23.4375H25.3125V19.6875H30.716L38.2159 23.4375ZM13.8004 19.6875H23.4375V23.4375H12.5503L13.8004 19.6875ZM11.8247 19.6875L10.5746 23.4375H6.75025L11.5714 19.6875H11.8247ZM5.62501 20.2368V19.6875H8.51722L6.5814 21.1932L5.62501 20.2368ZM6.56251 36.5625H6.15601L3.75001 32.5529V30H5.62501V28.125H3.75001V25.7712L4.33972 25.3125H10.3125V31.2657C9.21722 31.6536 8.2688 32.371 7.5974 33.3193C6.92599 34.2677 6.5645 35.4005 6.56251 36.5625ZM12.1875 40.3125C11.4458 40.3125 10.7208 40.0926 10.1041 39.6805C9.48743 39.2685 9.00679 38.6828 8.72296 37.9976C8.43913 37.3123 8.36487 36.5583 8.50956 35.8309C8.65426 35.1035 9.01141 34.4353 9.53586 33.9109C10.0603 33.3864 10.7285 33.0292 11.4559 32.8846C12.1833 32.7399 12.9373 32.8141 13.6226 33.098C14.3078 33.3818 14.8935 33.8624 15.3055 34.4791C15.7176 35.0958 15.9375 35.8208 15.9375 36.5625C15.9364 37.5567 15.541 38.5099 14.838 39.213C14.135 39.916 13.1817 40.3114 12.1875 40.3125ZM12.1875 30.9375V25.3125H23.4375V28.7787C23.4372 29.1489 23.5468 29.5109 23.7524 29.8187L25.3125 32.1588V36.5625H17.8125C17.8109 35.0712 17.2177 33.6414 16.1632 32.5868C15.1086 31.5323 13.6789 30.9391 12.1875 30.9375ZM39.375 36.5625H27.1875V32.1588C27.1878 31.7886 27.0782 31.4266 26.8726 31.1188L25.3125 28.7787V25.3125H39.375V27.8412C39.3747 28.2114 39.4843 28.5734 39.6899 28.8812L41.25 31.2213V32.3817C40.6607 32.9072 40.189 33.5513 39.8659 34.2718C39.5427 34.9923 39.3755 35.7729 39.375 36.5625ZM45 40.3125C44.2583 40.3125 43.5333 40.0926 42.9166 39.6805C42.2999 39.2685 41.8193 38.6828 41.5355 37.9976C41.2516 37.3123 41.1774 36.5583 41.3221 35.8309C41.4668 35.1035 41.8239 34.4353 42.3484 33.9109C42.8728 33.3864 43.541 33.0292 44.2684 32.8846C44.9958 32.7399 45.7498 32.8141 46.4351 33.098C47.1203 33.3818 47.706 33.8624 48.118 34.4791C48.5301 35.0958 48.75 35.8208 48.75 36.5625C48.7489 37.5567 48.3535 38.5099 47.6505 39.213C46.9475 39.916 45.9942 40.3114 45 40.3125ZM53.9063 36.5625H50.625C50.6275 35.6619 50.4131 34.774 50 33.9737C49.5869 33.1735 48.9872 32.4845 48.2515 31.965C47.5159 31.4455 46.666 31.1107 45.7737 30.989C44.8814 30.8672 43.9729 30.9621 43.125 31.2657V31.2213C43.1253 30.8511 43.0157 30.4891 42.8101 30.1813L41.25 27.8412V25.3125H51.3409L55.0909 27.1875H51.5625V29.0625H56.25V33.4373L53.9063 36.5625Z" fill="#174682" stroke="white" stroke-width="0.4" mask="url(#path-1-inside-1)"/>
<path d="M12.1875 37.5C12.7053 37.5 13.125 37.0803 13.125 36.5625C13.125 36.0447 12.7053 35.625 12.1875 35.625C11.6697 35.625 11.25 36.0447 11.25 36.5625C11.25 37.0803 11.6697 37.5 12.1875 37.5Z" fill="#174682"/>
<path d="M45 37.5C45.5178 37.5 45.9375 37.0803 45.9375 36.5625C45.9375 36.0447 45.5178 35.625 45 35.625C44.4822 35.625 44.0625 36.0447 44.0625 36.5625C44.0625 37.0803 44.4822 37.5 45 37.5Z" fill="#174682"/>
<path d="M16.875 28.125H14.0625V30H16.875V28.125Z" fill="#174682"/>
<path d="M31.875 28.125H29.0625V30H31.875V28.125Z" fill="#174682"/>
</svg>
