<svg width="62" height="67" viewBox="0 0 62 67" fill="none" xmlns="http://www.w3.org/2000/svg">
<g clip-path="url(#clip0)">
<path d="M43.3913 38.3534C43.3913 37.7824 42.9312 37.3208 42.3622 37.3208H36.1634C35.5943 37.3208 35.1343 37.7824 35.1343 38.3534C35.1343 38.9244 35.5943 39.3861 36.1634 39.3861H42.3622C42.9312 39.3982 43.3913 38.9244 43.3913 38.3534Z" fill="#174782"/>
<path d="M39.2633 11.4076V6.22014C39.2633 5.64915 38.8032 5.1875 38.2342 5.1875C37.6651 5.1875 37.2051 5.64915 37.2051 6.22014V11.4076C37.2051 14.2626 39.5175 16.5951 42.3748 16.5951H51.673V36.2881C51.673 36.8591 52.133 37.3208 52.702 37.3208C53.2711 37.3208 53.7311 36.8591 53.7311 36.2881V15.5503C53.7311 14.9793 53.2711 14.5177 52.702 14.5177H42.3748C40.6556 14.5177 39.2633 13.1206 39.2633 11.4076Z" fill="#174782"/>
<path d="M42.3621 24.8809H34.0931C33.524 24.8809 33.064 25.3425 33.064 25.9135C33.064 26.4845 33.524 26.9461 34.0931 26.9461H42.3621C42.9312 26.9461 43.3912 26.4845 43.3912 25.9135C43.3912 25.3425 42.9312 24.8809 42.3621 24.8809Z" fill="#174782"/>
<path d="M30.9943 25.9135C30.9943 25.3425 30.5342 24.8809 29.9652 24.8809H23.7664C23.1974 24.8809 22.7373 25.3425 22.7373 25.9135C22.7373 26.4845 23.1974 26.9461 23.7664 26.9461H29.9652C30.5342 26.9583 30.9943 26.4845 30.9943 25.9135Z" fill="#174782"/>
<path d="M23.7664 31.1006C23.1974 31.1006 22.7373 31.5622 22.7373 32.1332C22.7373 32.7042 23.1974 33.1659 23.7664 33.1659H25.8367C26.4057 33.1659 26.8658 32.7042 26.8658 32.1332C26.8658 31.5622 26.4057 31.1006 25.8367 31.1006H23.7664Z" fill="#174782"/>
<path d="M23.7657 20.7377H34.0929C34.662 20.7377 35.122 20.276 35.122 19.705C35.122 19.134 34.662 18.6724 34.0929 18.6724H23.7657C23.1966 18.6724 22.7366 19.134 22.7366 19.705C22.7244 20.2639 23.1966 20.7377 23.7657 20.7377Z" fill="#174782"/>
<path d="M29.9646 33.1781H40.2919C40.861 33.1781 41.321 32.7164 41.321 32.1454C41.321 31.5744 40.861 31.1128 40.2919 31.1128H29.9646C29.3956 31.1128 28.9355 31.5744 28.9355 32.1454C28.9355 32.7164 29.3956 33.1781 29.9646 33.1781Z" fill="#174782"/>
<path d="M36.1634 43.541C35.5943 43.541 35.1343 44.0027 35.1343 44.5737C35.1343 45.1446 35.5943 45.6063 36.1634 45.6063H38.2337C38.8027 45.6063 39.2628 45.1446 39.2628 44.5737C39.2628 44.0027 38.8027 43.541 38.2337 43.541H36.1634Z" fill="#174782"/>
<path d="M32.0228 37.3208H23.7537C23.1847 37.3208 22.7246 37.7825 22.7246 38.3534C22.7246 38.9244 23.1847 39.3861 23.7537 39.3861H32.0228C32.5918 39.3861 33.0519 38.9244 33.0519 38.3534C33.0519 37.7825 32.5918 37.3208 32.0228 37.3208Z" fill="#174782"/>
<path d="M32.0228 43.541H23.7537C23.1847 43.541 22.7246 44.0027 22.7246 44.5737C22.7246 45.1446 23.1847 45.6063 23.7537 45.6063H32.0228C32.5918 45.6063 33.0519 45.1446 33.0519 44.5737C33.0519 44.0027 32.5918 43.541 32.0228 43.541Z" fill="#174782"/>
<path d="M32.023 60.1238H5.16969C3.46261 60.1238 2.0703 58.7267 2.0703 57.0138V5.18749C2.0703 3.47452 3.46261 2.07743 5.16969 2.07743H37.7981L47.8227 12.1365C48.2222 12.5374 48.876 12.5374 49.2876 12.1365C49.6872 11.7356 49.6872 11.0796 49.2876 10.6665L38.9604 0.303717C38.7666 0.109338 38.5003 0 38.2339 0H5.16969C2.31244 0 0 2.3204 0 5.18749V57.0259C0 59.8809 2.31244 62.2013 5.16969 62.2013H32.0352C32.6042 62.2013 33.0642 61.7396 33.0642 61.1686C33.0642 60.5976 32.5921 60.1238 32.023 60.1238Z" fill="#174782"/>
<path d="M32.0228 49.7607H23.7537C23.1847 49.7607 22.7246 50.2224 22.7246 50.7934C22.7246 51.3644 23.1847 51.826 23.7537 51.826H32.0228C32.5918 51.826 33.0519 51.3644 33.0519 50.7934C33.0519 50.2224 32.5918 49.7607 32.0228 49.7607Z" fill="#174782"/>
<path d="M30.11 38.3534C30.11 37.7824 29.6499 37.3208 29.0809 37.3208H22.8821C22.3131 37.3208 21.853 37.7824 21.853 38.3534C21.853 38.9244 22.3131 39.3861 22.8821 39.3861H29.0809C29.6499 39.3982 30.11 38.9244 30.11 38.3534Z" fill="#174782"/>
<path d="M29.0809 24.8809H20.8118C20.2428 24.8809 19.7827 25.3425 19.7827 25.9135C19.7827 26.4845 20.2428 26.9461 20.8118 26.9461H29.0809C29.6499 26.9461 30.11 26.4845 30.11 25.9135C30.11 25.3425 29.6499 24.8809 29.0809 24.8809Z" fill="#174782"/>
<path d="M17.7125 25.9135C17.7125 25.3425 17.2525 24.8809 16.6834 24.8809H10.4847C9.91563 24.8809 9.45557 25.3425 9.45557 25.9135C9.45557 26.4845 9.91563 26.9461 10.4847 26.9461H16.6834C17.2525 26.9583 17.7125 26.4845 17.7125 25.9135Z" fill="#174782"/>
<path d="M10.4847 31.1006C9.91563 31.1006 9.45557 31.5622 9.45557 32.1332C9.45557 32.7042 9.91563 33.1659 10.4847 33.1659H12.555C13.124 33.1659 13.5841 32.7042 13.5841 32.1332C13.5841 31.5622 13.124 31.1006 12.555 31.1006H10.4847Z" fill="#174782"/>
<path d="M10.4847 20.7377H20.8119C21.381 20.7377 21.841 20.276 21.841 19.705C21.841 19.134 21.381 18.6724 20.8119 18.6724H10.4847C9.91563 18.6724 9.45557 19.134 9.45557 19.705C9.45557 20.2639 9.91563 20.7377 10.4847 20.7377Z" fill="#174782"/>
<path d="M16.6839 33.1781H27.0112C27.5802 33.1781 28.0403 32.7164 28.0403 32.1454C28.0403 31.5744 27.5802 31.1128 27.0112 31.1128H16.6839C16.1149 31.1128 15.6548 31.5744 15.6548 32.1454C15.6548 32.7164 16.1149 33.1781 16.6839 33.1781Z" fill="#174782"/>
<path d="M22.8821 43.541C22.3131 43.541 21.853 44.0027 21.853 44.5737C21.853 45.1446 22.3131 45.6063 22.8821 45.6063H24.9524C25.5215 45.6063 25.9815 45.1446 25.9815 44.5737C25.9815 44.0027 25.5215 43.541 24.9524 43.541H22.8821Z" fill="#174782"/>
<path d="M18.7537 37.3208H10.4847C9.91563 37.3208 9.45557 37.7825 9.45557 38.3534C9.45557 38.9244 9.91563 39.3861 10.4847 39.3861H18.7537C19.3228 39.3861 19.7828 38.9244 19.7828 38.3534C19.7828 37.7825 19.3228 37.3208 18.7537 37.3208Z" fill="#174782"/>
<path d="M18.7537 43.541H10.4847C9.91563 43.541 9.45557 44.0027 9.45557 44.5737C9.45557 45.1446 9.91563 45.6063 10.4847 45.6063H18.7537C19.3228 45.6063 19.7828 45.1446 19.7828 44.5737C19.7828 44.0027 19.3228 43.541 18.7537 43.541Z" fill="#174782"/>
<path d="M18.7537 49.7607H10.4847C9.91563 49.7607 9.45557 50.2224 9.45557 50.7934C9.45557 51.3644 9.91563 51.826 10.4847 51.826H18.7537C19.3228 51.826 19.7828 51.3644 19.7828 50.7934C19.7828 50.2224 19.3228 49.7607 18.7537 49.7607Z" fill="#174782"/>
<path d="M48.2709 58.8359C48.4646 59.0303 48.731 59.1396 48.9973 59.1396C49.0336 59.1396 49.0699 59.1396 49.0942 59.1396C49.3968 59.1153 49.6753 58.9452 49.8569 58.678L53.9854 52.4578C54.3002 51.984 54.1791 51.3402 53.6948 51.0243C53.2226 50.7084 52.581 50.8299 52.2662 51.3159L48.8278 56.4791L47.6534 55.3006C47.2539 54.8997 46.6001 54.8997 46.1885 55.3006C45.7768 55.7015 45.789 56.3576 46.1885 56.7706L48.2709 58.8359Z" fill="#174782"/>
<path d="M50.0384 67C43.4401 67 38.0767 61.6181 38.0767 54.9971C38.0767 48.376 43.4401 42.9941 50.0384 42.9941C56.6367 42.9941 62.0001 48.376 62.0001 54.9971C62.0001 61.6181 56.6367 67 50.0384 67ZM50.0384 45.0594C44.5781 45.0594 40.1349 49.518 40.1349 54.9971C40.1349 60.4761 44.5781 64.9347 50.0384 64.9347C55.4986 64.9347 59.9419 60.4761 59.9419 54.9971C59.9419 49.518 55.4986 45.0594 50.0384 45.0594Z" fill="#174782"/>
</g>
<defs>
<clipPath id="clip0">
<rect width="62" height="67" fill="white"/>
</clipPath>
</defs>
</svg>
