<svg width="62" height="62" viewBox="0 0 62 62" fill="none" xmlns="http://www.w3.org/2000/svg">
<g clip-path="url(#clip0)">
<path d="M45.4648 38.2334C45.4648 37.663 45.0019 37.2001 44.4315 37.2001H38.2315C37.6612 37.2001 37.1982 37.663 37.1982 38.2334C37.1982 38.8037 37.6612 39.2667 38.2315 39.2667H44.4315C45.0019 39.2668 45.4648 38.8038 45.4648 38.2334Z" fill="#FF8617"/>
<path d="M41.3312 11.3667V6.20004C41.3312 5.62969 40.8683 5.16675 40.2979 5.16675C39.7276 5.16675 39.2646 5.62969 39.2646 6.20004V11.3667C39.2646 14.2156 41.5824 16.5335 44.4314 16.5335H53.7313V36.1668C53.7313 36.7371 54.1943 37.2 54.7646 37.2C55.335 37.2 55.7979 36.7371 55.7979 36.1668V15.5C55.7979 14.9297 55.335 14.4667 54.7646 14.4667H44.4314C42.7221 14.4667 41.3312 13.0759 41.3312 11.3667Z" fill="#FF8617"/>
<path d="M44.4318 24.7999H36.1651C35.5948 24.7999 35.1318 25.2629 35.1318 25.8332C35.1318 26.4036 35.5948 26.8665 36.1651 26.8665H44.4318C45.0022 26.8665 45.4651 26.4036 45.4651 25.8332C45.4653 25.2629 45.0023 24.7999 44.4318 24.7999Z" fill="#FF8617"/>
<path d="M33.0649 25.8332C33.0649 25.2629 32.602 24.7999 32.0316 24.7999H25.8316C25.2613 24.7999 24.7983 25.2629 24.7983 25.8332C24.7983 26.4036 25.2613 26.8665 25.8316 26.8665H32.0316C32.602 26.8666 33.0649 26.4037 33.0649 25.8332Z" fill="#FF8617"/>
<path d="M25.8316 31C25.2613 31 24.7983 31.4629 24.7983 32.0333C24.7983 32.6036 25.2613 33.0666 25.8316 33.0666H27.8983C28.4687 33.0666 28.9316 32.6036 28.9316 32.0333C28.9316 31.4629 28.4687 31 27.8983 31H25.8316Z" fill="#FF8617"/>
<path d="M25.8316 20.6667H36.1649C36.7353 20.6667 37.1982 20.2037 37.1982 19.6334C37.1982 19.063 36.7353 18.6001 36.1649 18.6001H25.8316C25.2613 18.6001 24.7983 19.063 24.7983 19.6334C24.7983 20.2037 25.2613 20.6667 25.8316 20.6667Z" fill="#FF8617"/>
<path d="M32.0313 33.0667H42.3646C42.935 33.0667 43.3979 32.6038 43.3979 32.0334C43.3979 31.4631 42.935 31.0001 42.3646 31.0001H32.0313C31.461 31.0001 30.998 31.4631 30.998 32.0334C30.998 32.6038 31.461 33.0667 32.0313 33.0667Z" fill="#FF8617"/>
<path d="M38.2315 43.4C37.6612 43.4 37.1982 43.863 37.1982 44.4333C37.1982 45.0037 37.6612 45.4666 38.2315 45.4666H40.2982C40.8686 45.4666 41.3315 45.0037 41.3315 44.4333C41.3315 43.863 40.8686 43.4 40.2982 43.4H38.2315Z" fill="#FF8617"/>
<path d="M34.0983 37.2001H25.8316C25.2613 37.2001 24.7983 37.663 24.7983 38.2334C24.7983 38.8037 25.2613 39.2667 25.8316 39.2667H34.0983C34.6687 39.2667 35.1316 38.8037 35.1316 38.2334C35.1316 37.663 34.6687 37.2001 34.0983 37.2001Z" fill="#FF8617"/>
<path d="M34.0983 43.4H25.8316C25.2613 43.4 24.7983 43.863 24.7983 44.4333C24.7983 45.0037 25.2613 45.4666 25.8316 45.4666H34.0983C34.6687 45.4666 35.1316 45.0037 35.1316 44.4333C35.1316 43.863 34.6687 43.4 34.0983 43.4Z" fill="#FF8617"/>
<path d="M58.7009 42.5641L56.6342 40.4974C55.0459 38.9091 52.6258 38.9123 51.0397 40.4974L37.501 54.0362C37.3077 54.2294 37.1982 54.4929 37.1982 54.7667V60.9667C37.1982 61.5371 37.6612 62 38.2315 62H44.4315C44.7053 62 44.9688 61.8905 45.1621 61.6973L58.7009 48.1585C60.347 46.5124 60.347 44.2112 58.7009 42.5641ZM49.7036 44.7558L51.3425 46.3947L42.3648 55.3723L40.7259 53.7334L49.7036 44.7558ZM39.265 59.9333V55.1944L44.0038 59.9333H39.265ZM45.4649 58.4722L43.8261 56.8333L52.8037 47.8557L54.4426 49.4945L45.4649 58.4722ZM57.2397 46.6974L55.9036 48.0335L51.1647 43.2947L52.5009 41.9585C53.3172 41.1432 54.3526 41.1391 55.173 41.9585L57.2397 44.0252C58.0757 44.8622 58.0757 45.8614 57.2397 46.6974Z" fill="#FF8617"/>
<path d="M34.0982 59.9333H7.23153C5.52241 59.9333 4.13153 58.5424 4.13153 56.8333V5.16671C4.13153 3.45759 5.52241 2.06671 7.23153 2.06671H39.8704L49.901 12.0973C50.3049 12.5014 50.9581 12.5014 51.3621 12.0973C51.7662 11.6933 51.7662 11.0401 51.3621 10.6361L41.0288 0.302734C40.8355 0.1085 40.572 0 40.2982 0H7.23153C4.38268 0 2.06494 2.31773 2.06494 5.16671V56.8334C2.06494 59.6823 4.38268 62.0001 7.23165 62.0001H34.0984C34.6687 62.0001 35.1316 61.5372 35.1316 60.9668C35.1316 60.3965 34.6686 59.9333 34.0982 59.9333Z" fill="#FF8617"/>
<path d="M34.0983 49.6H25.8316C25.2613 49.6 24.7983 50.0629 24.7983 50.6333C24.7983 51.2036 25.2613 51.6666 25.8316 51.6666H34.0983C34.6687 51.6666 35.1316 51.2036 35.1316 50.6333C35.1316 50.0629 34.6687 49.6 34.0983 49.6Z" fill="#FF8617"/>
<path d="M20.665 19.6333C20.665 19.0629 20.2021 18.6 19.6317 18.6H13.4317C12.8614 18.6 12.3984 19.0629 12.3984 19.6333V25.8333C12.3984 26.4036 12.8614 26.8666 13.4317 26.8666H19.6317C20.2021 26.8666 20.665 26.4036 20.665 25.8333V19.6333ZM18.5983 24.8H14.465V20.6667H18.5983V24.8Z" fill="#FF8617"/>
<path d="M13.4317 51.6666H19.6317C20.2021 51.6666 20.665 51.2037 20.665 50.6333V44.4333C20.665 43.863 20.2021 43.4 19.6317 43.4H13.4317C12.8614 43.4 12.3984 43.863 12.3984 44.4333V50.6333C12.3984 51.2037 12.8614 51.6666 13.4317 51.6666ZM14.4651 45.4666H18.5984V49.5999H14.4651V45.4666Z" fill="#FF8617"/>
<path d="M14.7677 38.9639C14.9619 39.1581 15.2254 39.2666 15.4982 39.2666C15.5324 39.2666 15.5654 39.2657 15.6006 39.2614C15.9085 39.2315 16.1864 39.064 16.358 38.8067L20.4913 32.6067C20.8075 32.1314 20.6794 31.4896 20.205 31.1734C19.7286 30.8562 19.089 30.9854 18.7718 31.4597L15.338 36.6109L14.1621 35.4361C13.7581 35.032 13.1049 35.032 12.701 35.4361C12.297 35.8402 12.2969 36.4932 12.701 36.8972L14.7677 38.9639Z" fill="#FF8617"/>
</g>
<defs>
<clipPath id="clip0">
<rect width="62" height="62" fill="white"/>
</clipPath>
</defs>
</svg>
