<?xml version="1.0" encoding="utf-8"?>
<!-- Generator: Adobe Illustrator 23.0.2, SVG Export Plug-In . SVG Version: 6.00 Build 0)  -->
<svg version="1.1" id="Слой_1" xmlns="http://www.w3.org/2000/svg" xmlns:xlink="http://www.w3.org/1999/xlink" x="0px" y="0px"
	 width="107" height="77" viewBox="0 0 564 408.2" style="enable-background:new 0 0 564 408.2;" xml:space="preserve">
<style type="text/css">
	.st0{fill:#174782;stroke:#174782;stroke-width:0.2013;stroke-miterlimit:10;}
</style>
<path class="st0" d="M408.9,404.1c-1,3-3,4.1-6.3,4.1c-132.2-0.1-264.3-0.1-396.5-0.1c-4.1,0-6.1-1.5-6.1-4.5c0-2.9,2.3-4.9,6-5
	c3.1-0.1,6.1,0,9.2,0c2.9,0,5.8,0,9.3,0c0-9.3,0.1-18.3-0.1-27.3c0-0.8-1.8-2-2.9-2.4c-16.3-5.1-25-21.3-19.9-37.6
	c3.9-12.4,17.1-21.5,29.3-20.3c15.6,1.5,26.4,11.8,28,26.8c1.5,13.3-7,26.6-20,30.5c-3.5,1.1-4.5,2.6-4.4,6.1
	c0.3,7.9,0.1,15.9,0.1,24c13.6,0,26.7,0,40.3,0c0-1.8,0-3.5,0-5.2c0-73.2,0-146.4,0-219.6c0-8.3,0.8-9.1,9.2-9.1
	c32.6,0,65.2,0,97.8,0c1.2,0,2.4,0,4.1,0c0-3.5,0-6.7,0-10c0-6.5,0-13,0-19.6c0-6.7,1.3-8,7.8-8.1c0.9,0,1.8,0,3.3,0
	c0.1-1.6,0.2-2.9,0.2-4.3c0-7.9,0-15.7,0-23.6c0-5.2,1.8-7,7-7c37,0,74,0,111,0c5.2,0,7,1.8,7,7c0.1,7.7,0,15.4,0,23.2
	c0,1.4,0,2.9,0,4.5c1.6,0.1,2.7,0.2,3.9,0.2c6,0.1,7.5,1.5,7.5,7.6c0,58.6,0,117.1,0,175.7c0,27.8,0,55.6,0,83.5c0,1.5,0,2.9,0,4.6
	c13.3,0,26.4,0,40.1,0c0-6.8-0.4-13.7,0.1-20.6c0.4-5.5-0.9-8.2-6.7-10.5c-21.1-8.7-24-36.9-5.7-50.5c0.9-0.7,1.9-1.4,3-2.2
	c-10.5-6.9-15.8-16.2-14.9-28.8c1.1-14.5,13.6-26.2,28.9-26.7c14-0.5,27.5,10.8,29.5,24.7c0.1,1,0.5,2,0.7,3.1c0,1.3,0,2.7,0,4
	c-1.7,10-6.1,18.3-15.4,23.6c1.7,1.3,3.1,2.3,4.4,3.4c6.5,5.2,9.4,12.3,11,20.2c0,1.6,0,3.2,0,4.8c-0.2,0.7-0.5,1.5-0.7,2.2
	c-1.8,10.3-7,18.7-16.8,22c-7.1,2.4-7.7,6.2-7.3,12.1c0.4,6.4,0.1,12.9,0.1,19.6c6,0,11.4,0.2,16.8-0.1c3.6-0.2,6.2,0.9,7.9,4.1
	C408.9,403.1,408.9,403.6,408.9,404.1z M225.2,398.4c0-16.7,0-32.9,0-49.1c0-5.5,1.7-7.3,7.1-7.3c18.4-0.1,36.7-0.1,55.1,0
	c5.6,0,7.3,1.8,7.3,7.4c0,14.9,0,29.8,0,44.7c0,1.4,0,2.8,0,4.2c9.9,0,19.1,0,28.5,0c0-87.1,0-174.1,0-260.9c-42.4,0-84.5,0-126.6,0
	c0,87.2,0,174,0,261C206.1,398.4,215.4,398.4,225.2,398.4z M109.3,398.3c0-1.8,0-3.2,0-4.7c0-14.8,0-29.5,0-44.3
	c0-5.7,1.6-7.3,7.4-7.4c11.8,0,23.7,0,35.5,0c6.5,0,8,1.5,8,8c0,14.6,0,29.3,0,43.9c0,1.4,0.1,2.8,0.2,4.3c8.6,0,16.9,0,25.4,0
	c0-74.6,0-148.9,0-223.3c-33.6,0-66.9,0-100.4,0c0,74.6,0,148.9,0,223.3C93.4,398.3,101.1,398.3,109.3,398.3z M311.9,126.6
	c0-8.4,0-16.3,0-24.2c-34.8,0-69.4,0-104,0c0,8.1,0,16,0,24.2C242.7,126.6,277.2,126.6,311.9,126.6z M284.1,398.4
	c0-15.5,0-30.7,0-45.8c-16.4,0-32.4,0-48.4,0c0,15.4,0,30.5,0,45.8C251.9,398.4,267.8,398.4,284.1,398.4z M119.9,352.4
	c0,15.6,0,30.7,0,45.9c10.1,0,19.9,0,29.8,0c0-15.4,0-30.6,0-45.9C139.7,352.4,130,352.4,119.9,352.4z M379.1,359.7
	c10.6,0,19.3-8.7,19.3-19.3c0-10.5-8.8-19.3-19.4-19.3c-10.6,0-19.2,8.7-19.2,19.4C359.9,351.2,368.5,359.7,379.1,359.7z
	 M378.6,307.7c10.6,0.2,19.5-8.2,19.8-18.8c0.3-10.4-8.4-19.5-18.9-19.7c-10.6-0.3-19.4,8.2-19.7,18.9
	C359.5,298.7,367.9,307.5,378.6,307.7z M48.8,340.5c0-10.6-8.6-19.3-19.2-19.4c-10.5,0-19.3,8.7-19.3,19.3
	c0,10.7,8.5,19.3,19.2,19.3C40.2,359.7,48.7,351.2,48.8,340.5z"/>
<path class="st0" d="M408.9,56.7c-1.6,2.3-3.9,4.5-6.6,2.9c-1.8-1-3.3-3.7-3.7-5.9c-1.1-5.9-3.8-10.6-9.2-13.1
	c-3.7-1.7-5.3-4-5.5-8.2c-0.7-11.7-9.5-20.9-20.5-22c-11.8-1.2-22.2,5.9-25.1,17.5c-0.8,3.1-0.5,6.6-0.5,9.9c0,4.9-1.9,6.8-6.8,6.3
	c-12.2-1.4-18.7,3.5-20.5,15.5c-0.6,3.7-2.6,5.5-5.8,5.2c-3-0.4-4.6-2.8-4.3-6.5c1.1-13.6,11.1-23.6,24.7-24.8c0.5,0,1-0.1,1.8-0.3
	c0.2-1,0.4-2,0.5-3c2-16.8,14.4-28.6,31.5-30.1C373.7-1.2,388.2,9,392.9,24c0.4,1.3,0.3,2.7,0.9,3.9c0.9,1.9,1.9,4.1,3.4,5.2
	c6.3,4.5,9.7,10.8,11.6,18C408.9,52.9,408.9,54.8,408.9,56.7z"/>
<path class="st0" d="M26.1,97.5c1.1-13.3,7.2-22.9,18.9-28.9c18.5-9.4,42.6,2.5,46.1,23c0.5,3.1,1.8,5.2,4.5,6.9
	c5.4,3.6,8.3,9.2,10.1,15.5c7.6,0,15,0,22.5,0c1.5,0,2.9,0,4.4,0c3.2,0.1,5.1,1.7,5.3,4.8c0.1,3.4-1.9,5.1-5.2,5.2
	c-3.1,0.1-6.1,0.1-9.2,0.1c-7.1,0-14.1,0-21.2,0c-3.8,0-6-1.7-6.4-5.6c-0.6-6.5-3.7-11.3-9.8-13.9c-3.5-1.5-4.3-4.2-4.5-7.7
	C80.4,79.7,62,69.9,47.3,78.9c-7.2,4.4-10.8,11.1-10.8,19.7c0,0.8,0.1,1.6,0.2,2.4c0.3,6.6-1.7,8.6-8.2,7.4c-5.2-1-9.8,0.3-13.1,4
	c-2.4,2.7-4,6.5-4.9,10.1c-1.2,4.5-2.7,6.7-6.2,6.2c-3.2-0.4-4.6-2.9-4.2-7.3c1.3-12.4,10.5-21.8,23-23.3
	C24.1,97.9,25,97.7,26.1,97.5z"/>
<path class="st0" d="M164.3,46c1.2-12,6.4-21,17.1-26.4c17.4-8.8,39.1,1.4,43.1,20.5c0.6,3.1,1.9,5.1,4.4,7
	c5.9,4.3,8.9,10.4,9.3,17.7c0.2,3.2-0.9,5.7-4.3,6.1c-3.3,0.4-5.3-1.4-5.7-4.7c-0.7-6.4-3.7-11-9.7-13.4c-3.6-1.5-3.3-4.8-3.6-7.8
	c-1-9.6-7.7-16.8-17.2-18.1c-11.9-1.7-22.6,7.3-22.9,19.3c0,0.8,0,1.6,0.1,2.4c0.4,7.5-0.9,8.7-8.3,8.1c-2.1-0.2-4.3-0.1-6.3,0.5
	c-5.2,1.7-8.4,5.4-9.4,10.9c-0.2,1-0.3,2.1-0.5,3.1c-0.6,2.9-2.5,4.4-5.5,4c-3-0.3-4.3-2.2-4.4-5.2c-0.5-11.2,9.1-22.1,20.8-23.7
	C162.1,46.3,163,46.2,164.3,46z"/>
<path class="st0" d="M224.3,237.5c0-2.7-0.1-5.3,0-8c0.1-3.1,1.7-5,4.9-5.2c3-0.1,4.9,1.6,5.1,4.5c0.3,5.9,0.3,11.9,0,17.9
	c-0.1,2.9-2.2,4.6-5.1,4.4c-2.9-0.2-4.6-1.9-4.8-4.9C224.3,243.3,224.4,240.4,224.3,237.5C224.3,237.5,224.3,237.5,224.3,237.5z"/>
<path class="st0" d="M224.3,285.5c0-2.8-0.1-5.6,0-8.3c0.2-2.9,1.8-4.7,4.7-4.9c3-0.2,5,1.6,5.1,4.4c0.3,5.9,0.3,11.9,0,17.8
	c-0.1,2.9-2.2,4.6-5.1,4.5c-3.1-0.1-4.8-2.1-4.9-5.2C224.3,291.1,224.3,288.3,224.3,285.5C224.3,285.5,224.3,285.5,224.3,285.5z"/>
<path class="st0" d="M295.5,285.8c0,2.8,0.1,5.6,0,8.4c-0.1,3-1.9,4.7-4.7,4.9c-2.9,0.2-5-1.5-5.2-4.4c-0.3-5.9-0.3-11.9,0-17.9
	c0.1-2.8,2-4.6,5.1-4.5c3.2,0.1,4.8,2.1,4.9,5.1C295.6,280.2,295.5,283,295.5,285.8C295.5,285.8,295.5,285.8,295.5,285.8z"/>
<path class="st0" d="M234.5,189.8c0,2.7,0.1,5.3,0,8c-0.2,3.1-1.7,5.4-5.2,5.3c-3.3-0.1-4.9-2.2-5-5.5c0-5.3-0.1-10.6,0-15.9
	c0-3.1,1.5-5.1,4.7-5.3c3.4-0.2,5.1,1.9,5.4,5.1C234.7,184.3,234.5,187.1,234.5,189.8C234.5,189.8,234.5,189.8,234.5,189.8z"/>
<path class="st0" d="M295.5,190c0,2.7,0.1,5.3,0,8c-0.1,3.1-1.7,5-4.9,5.2c-2.9,0.1-5-1.6-5.1-4.4c-0.2-5.9-0.2-11.9,0-17.9
	c0.1-2.8,2.1-4.6,5.1-4.4c3.2,0.2,4.8,2.1,4.8,5.2C295.6,184.4,295.5,187.2,295.5,190C295.5,190,295.5,190,295.5,190z"/>
<path class="st0" d="M295.5,238c0,2.8,0.1,5.6,0,8.3c-0.2,3-2,4.7-4.9,4.8c-2.7,0.1-4.8-1.4-5-4.1c-0.3-6.1-0.3-12.2-0.1-18.2
	c0.1-2.8,2.1-4.5,5.2-4.4c3,0.2,4.6,2,4.7,4.9C295.6,232.1,295.5,235.1,295.5,238C295.5,238,295.5,238,295.5,238z"/>
<path class="st0" d="M264.5,285.6c0,2.9,0.1,5.8,0,8.7c-0.2,3-2,4.7-4.9,4.7c-2.9,0.1-4.9-1.6-5-4.6c-0.2-6-0.1-11.9,0.1-17.9
	c0.1-2.7,2-4.3,4.8-4.3c3,0,4.8,1.6,5,4.5C264.6,279.8,264.4,282.7,264.5,285.6C264.4,285.6,264.5,285.6,264.5,285.6z"/>
<path class="st0" d="M264.4,237.6c0,2.9,0.1,5.8,0,8.7c-0.1,3-2,4.7-4.8,4.7c-2.9,0-4.9-1.6-5-4.6c-0.2-5.8-0.2-11.7,0-17.5
	c0.1-2.9,1.9-4.7,4.9-4.7c3.2,0,4.9,1.8,5,4.9C264.6,232.1,264.5,234.8,264.4,237.6C264.5,237.6,264.4,237.6,264.4,237.6z"/>
<path class="st0" d="M264.5,189.8c0,2.8,0.1,5.6,0,8.4c-0.1,3.2-1.9,5-5.1,5c-2.9,0-4.8-1.8-4.8-4.8c-0.1-5.7-0.1-11.4,0-17.2
	c0.1-2.9,1.8-4.7,4.8-4.7c3.2,0,4.9,1.8,5.1,5C264.6,184.2,264.5,187,264.5,189.8z"/>
<path class="st0" d="M157.9,286.7c-0.1,2.6-0.1,5-0.4,7.3c-0.4,2.8-2.2,4.2-5,4.2c-2.9-0.1-4.8-1.8-4.9-4.7c-0.1-4.6-0.1-9.3,0-13.9
	c0.1-2.8,2-4.4,4.6-4.6c2.7-0.2,4.7,1.2,5.1,4C157.8,281.6,157.8,284.3,157.9,286.7z"/>
<path class="st0" d="M147.6,248.6c0-2.1-0.1-4.3,0-6.4c0.1-2.9,1.6-4.8,4.6-5.1c3-0.3,5.1,1.4,5.3,4.2c0.3,4.9,0.3,9.8,0,14.7
	c-0.2,2.9-2.3,4.5-5.2,4.3c-3-0.2-4.5-2.1-4.6-5C147.5,253.2,147.6,250.9,147.6,248.6C147.6,248.6,147.6,248.6,147.6,248.6z"/>
<path class="st0" d="M123.8,286.6c0,2.4,0.2,4.8,0,7.2c-0.2,2.8-2,4.3-4.7,4.4c-2.7,0.1-4.8-1.3-5-4.1c-0.2-5-0.2-10.1,0-15.1
	c0.2-2.8,2.4-4.2,5-4.1c2.6,0.1,4.5,1.7,4.7,4.5C124,281.8,123.8,284.2,123.8,286.6C123.8,286.6,123.8,286.6,123.8,286.6z"/>
<path class="st0" d="M123.8,248.9c0,2.3,0.1,4.5,0,6.8c-0.2,2.9-1.9,4.6-4.9,4.7c-2.8,0.1-4.7-1.5-4.9-4.2c-0.3-4.9-0.3-9.8,0-14.7
	c0.2-2.9,2.2-4.5,5.2-4.3c2.7,0.2,4.4,1.8,4.6,4.6C123.9,244.2,123.8,246.5,123.8,248.9C123.8,248.9,123.8,248.9,123.8,248.9z"/>
<path class="st0" d="M147.6,211c0-2.1-0.1-4.2,0-6.4c0.1-3.1,1.7-5,4.9-5.2c3-0.1,4.9,1.6,5.1,4.5c0.2,4.7,0.2,9.5,0,14.3
	c-0.2,2.9-2.2,4.6-5.1,4.4c-2.9-0.2-4.6-1.9-4.7-4.9C147.6,215.5,147.7,213.2,147.6,211C147.7,211,147.6,211,147.6,211z"/>
<path class="st0" d="M123.8,211.1c0,2.4,0.2,4.8,0,7.2c-0.2,2.8-2.1,4.3-4.8,4.4c-2.7,0.1-4.8-1.4-4.9-4.2c-0.2-5-0.2-10.1,0-15.1
	c0.2-2.8,2.3-4.1,5-4c2.7,0.1,4.4,1.7,4.6,4.5C124,206.3,123.8,208.7,123.8,211.1z"/>
<path class="st0" d="M471,69.4c14.5,0,29.1,4.1,42.1,11.9c8.2,5,15.7,11.2,22,18.5l-21.7-0.7c-2.6-0.1-4.7,1.9-4.8,4.5
	c-0.1,2.6,1.9,4.7,4.5,4.8l30.1,1c1.7,0.7,3.7,0.3,5-1c1.3-1.3,1.7-3.3,1-5l-1-30c-0.1-2.6-2.2-4.6-4.7-4.5
	c-2.6,0.1-4.6,2.2-4.5,4.7c0,0,0,0.1,0,0.1l0.6,17.3c-6.4-6.8-13.6-12.7-21.6-17.5c-14.4-8.7-30.6-13.2-46.8-13.2
	c-25.9,0-49.7,10.7-67.2,30.1c-15.4,17.2-24.7,40.3-24.7,61.8c0,2.6,2.1,4.6,4.6,4.6s4.6-2.1,4.6-4.6c0-19.3,8.3-40.1,22.3-55.6
	C426.4,79,447.8,69.4,471,69.4z"/>
<path class="st0" d="M559.4,147.4c-2.6,0-4.6,2.1-4.6,4.6c0,19.3-8.3,40.1-22.3,55.6c-15.7,17.4-37.1,27-60.3,27
	c-14.5,0-29.1-4.1-42.1-11.9c-8.2-5-15.7-11.2-22-18.5l21.7,0.7c2.6,0.1,4.7-1.9,4.8-4.5s-1.9-4.7-4.5-4.8l-30.1-1
	c-1.7-0.7-3.7-0.3-5,1c-1.3,1.3-1.7,3.3-1,5l1,30c0.1,2.6,2.2,4.6,4.7,4.5c2.6-0.1,4.6-2.2,4.5-4.7c0,0,0-0.1,0-0.1l-0.6-17.3
	c6.4,6.8,13.6,12.7,21.6,17.5c14.4,8.7,30.6,13.2,46.8,13.2c25.9,0,49.7-10.7,67.2-30c15.4-17.2,24.7-40.3,24.7-61.8
	C564,149.5,562,147.4,559.4,147.4z"/>
<g>
	<g>
		<path class="st0" d="M512.8,124.4c-1.9-1.9-4.9-1.9-6.8,0l-42.6,42.6l-22.4-22.4c-1.9-1.9-4.9-1.9-6.8,0c-1.9,1.9-1.9,4.9,0,6.8
			l25.9,25.9c0.9,0.9,2.2,1.4,3.4,1.4c1.2,0,2.5-0.5,3.4-1.4l46.1-46.1C514.7,129.4,514.7,126.3,512.8,124.4z"/>
	</g>
</g>
</svg>
