<svg width="123" height="65" viewBox="0 0 123 65" fill="none" xmlns="http://www.w3.org/2000/svg">
<path d="M21.1503 39.1904H15.5227L17.8266 36.8672C18.2043 36.4482 18.1665 35.8135 17.7637 35.4326C17.386 35.0771 16.7943 35.0771 16.4166 35.4326L12.3879 39.4951C11.9976 39.8887 11.9976 40.5361 12.3879 40.9297C12.5768 41.1201 12.8286 41.2217 13.0929 41.2217H21.1503C21.7042 41.2217 22.1574 40.7646 22.1574 40.2061C22.1574 39.6475 21.7168 39.1904 21.1503 39.1904Z" fill="#174782"/>
<path d="M33.9665 46.592L30.945 43.5452L17.8518 30.342C17.4616 29.9485 16.8195 29.9485 16.4292 30.342L3.33608 43.5452L0.314581 46.592C-0.0882849 46.9856 -0.100874 47.6204 0.289402 48.0266C0.679678 48.4329 1.30916 48.4456 1.71202 48.052C1.72461 48.0393 1.72461 48.0393 1.7372 48.0266L3.02134 46.719V60.9631C3.00875 61.8772 3.32349 62.7532 3.90261 63.4641C4.46914 64.1624 5.32523 64.5686 6.21909 64.5813H28.0494C28.9432 64.5686 29.7867 64.1624 30.3659 63.4641C30.945 62.7659 31.2471 61.8772 31.2345 60.9631V46.719L32.5439 48.0266C32.9467 48.4202 33.5762 48.4075 33.9665 48.0012C34.3316 47.6077 34.3316 46.9856 33.9665 46.592ZM29.2076 60.9631C29.2076 61.3948 29.0691 61.8137 28.8048 62.1438C28.6159 62.385 28.3389 62.5374 28.0368 62.5501H6.21909C5.91694 62.5374 5.62738 62.385 5.45112 62.1438C5.18674 61.8137 5.04826 61.3948 5.04826 60.9631V44.6877L17.1342 32.5002L29.2202 44.6877V60.9631H29.2076Z" fill="#174782"/>
<path d="M29.7745 31.0654H28.654C27.2692 31.0908 26.1613 32.2461 26.1865 33.6553V36.1435C26.1865 36.7021 26.6397 37.1592 27.1936 37.1592C27.7476 37.1592 28.2008 36.7021 28.2008 36.1435V33.6426C28.1756 33.3633 28.377 33.1221 28.654 33.084H29.7745C30.0514 33.1221 30.2403 33.3633 30.2151 33.6426V40.1933C30.2151 40.7519 30.6683 41.209 31.2223 41.209C31.7762 41.209 32.2294 40.7519 32.2294 40.1933V33.6426C32.2546 32.2588 31.1593 31.1035 29.7745 31.0654Z" fill="#174782"/>
<path d="M43.1067 52.6855L40.0852 55.7324C39.6949 56.126 39.6949 56.7734 40.0852 57.167L43.1067 60.2139C43.497 60.6201 44.1264 60.6328 44.5293 60.2393C44.9322 59.8457 44.9448 59.2109 44.5545 58.8047C44.5419 58.792 44.5419 58.792 44.5293 58.7793L43.2326 57.4717H51.869C52.4229 57.4717 52.8762 57.0147 52.8762 56.4561C52.8762 55.8975 52.4229 55.4404 51.869 55.4404H43.22L44.5167 54.1201C44.907 53.7139 44.8944 53.0791 44.4915 52.6855C44.1138 52.3047 43.497 52.3047 43.1067 52.6855Z" fill="#174782"/>
<path d="M48.1427 39.4827C47.7524 39.8762 47.7524 40.5237 48.1427 40.9172L49.4394 42.2376H40.7904C40.2364 42.2376 39.7832 42.6946 39.7832 43.2532C39.7832 43.8118 40.2364 44.2688 40.7904 44.2688H49.4394L48.1427 45.5764C47.7776 45.9954 47.8279 46.6428 48.2434 47.011C48.6211 47.3411 49.1876 47.3411 49.5653 47.011L52.5868 43.9641C52.9771 43.5706 52.9771 42.9231 52.5868 42.5295L49.5653 39.4827C49.175 39.0891 48.5329 39.0891 48.1427 39.4827Z" fill="#174782"/>
<path d="M81.9201 15.5264C82.6125 15.5264 83.1791 14.9551 83.1791 14.2568V8.59473C83.1791 7.89648 82.6125 7.3252 81.9201 7.3252C81.2277 7.3252 80.6611 7.89648 80.6611 8.59473V14.2695C80.6611 14.9678 81.2277 15.5264 81.9201 15.5264Z" fill="#174782"/>
<path d="M90.7956 15.5264C91.488 15.5264 92.0545 14.9551 92.0545 14.2568V8.59473C92.0545 7.89648 91.488 7.3252 90.7956 7.3252C90.1032 7.3252 89.5366 7.89648 89.5366 8.59473V14.2695C89.5366 14.9678 90.1032 15.5264 90.7956 15.5264Z" fill="#174782"/>
<path d="M99.6589 15.5264C100.351 15.5264 100.918 14.9551 100.918 14.2568V8.59473C100.918 7.89648 100.351 7.3252 99.6589 7.3252C98.9664 7.3252 98.3999 7.89648 98.3999 8.59473V14.2695C98.3999 14.9678 98.9664 15.5264 99.6589 15.5264Z" fill="#174782"/>
<path d="M9.4043 53.6631C9.4043 54.3613 9.97083 54.9326 10.6633 54.9326C11.3557 54.9326 11.9222 54.3613 11.9222 53.6631V47.9883C11.9222 47.29 11.3557 46.7188 10.6633 46.7188C9.97083 46.7188 9.4043 47.29 9.4043 47.9883V53.6631Z" fill="#174782"/>
<path d="M15.5732 53.6631C15.5732 54.3613 16.1398 54.9326 16.8322 54.9326C17.5246 54.9326 18.0912 54.3613 18.0912 53.6631V47.9883C18.0912 47.29 17.5246 46.7188 16.8322 46.7188C16.1398 46.7188 15.5732 47.29 15.5732 47.9883V53.6631Z" fill="#174782"/>
<path d="M22.1577 53.6631C22.1577 54.3613 22.7242 54.9326 23.4167 54.9326C24.1091 54.9326 24.6756 54.3613 24.6756 53.6631V47.9883C24.6756 47.29 24.1091 46.7188 23.4167 46.7188C22.7242 46.7188 22.1577 47.29 22.1577 47.9883V53.6631Z" fill="#174782"/>
<path d="M89.5366 27.3711C89.5366 28.0693 90.1032 28.6406 90.7956 28.6406C91.488 28.6406 92.0545 28.0693 92.0545 27.3711V21.6963C92.0545 20.998 91.488 20.4268 90.7956 20.4268C90.1032 20.4268 89.5366 20.998 89.5366 21.6963V27.3711Z" fill="#174782"/>
<path d="M98.3999 27.3711C98.3999 28.0693 98.9664 28.6406 99.6589 28.6406C100.351 28.6406 100.918 28.0693 100.918 27.3711V21.6963C100.918 20.998 100.351 20.4268 99.6589 20.4268C98.9664 20.4268 98.3999 20.998 98.3999 21.6963V27.3711Z" fill="#174782"/>
<path d="M80.6611 40.4727C80.6611 41.1709 81.2277 41.7422 81.9201 41.7422C82.6125 41.7422 83.1791 41.1709 83.1791 40.4727V34.7979C83.1791 34.0996 82.6125 33.5283 81.9201 33.5283C81.2277 33.5283 80.6611 34.0996 80.6611 34.7979V40.4727Z" fill="#174782"/>
<path d="M89.5366 40.4727C89.5366 41.1709 90.1032 41.7422 90.7956 41.7422C91.488 41.7422 92.0545 41.1709 92.0545 40.4727V34.7979C92.0545 34.0996 91.488 33.5283 90.7956 33.5283C90.1032 33.5283 89.5366 34.0996 89.5366 34.7979V40.4727Z" fill="#174782"/>
<path d="M98.3999 40.4727C98.3999 41.1709 98.9664 41.7422 99.6589 41.7422C100.351 41.7422 100.918 41.1709 100.918 40.4727V34.7979C100.918 34.0996 100.351 33.5283 99.6589 33.5283C98.9664 33.5283 98.3999 34.0996 98.3999 34.7979V40.4727Z" fill="#174782"/>
<path d="M67.4801 33.541C66.7877 33.541 66.2212 34.1123 66.2212 34.8105V40.4853C66.2212 41.1836 66.7877 41.7549 67.4801 41.7549C68.1726 41.7549 68.7391 41.1836 68.7391 40.4853V34.8105C68.7391 34.0996 68.1852 33.541 67.4801 33.541Z" fill="#174782"/>
<path d="M67.4801 46.6426C66.7877 46.6426 66.2212 47.2139 66.2212 47.9121V53.5869C66.2212 54.2852 66.7877 54.8564 67.4801 54.8564C68.1726 54.8564 68.7391 54.2852 68.7391 53.5869V47.9121C68.7391 47.2139 68.1852 46.6426 67.4801 46.6426Z" fill="#174782"/>
<path d="M80.6611 53.5869C80.6611 54.2852 81.2277 54.8564 81.9201 54.8564C82.6125 54.8564 83.1791 54.2852 83.1791 53.5869V47.9121C83.1791 47.2139 82.6125 46.6426 81.9201 46.6426C81.2277 46.6426 80.6611 47.2139 80.6611 47.9121V53.5869Z" fill="#174782"/>
<path d="M89.5366 53.5869C89.5366 54.2852 90.1032 54.8564 90.7956 54.8564C91.488 54.8564 92.0545 54.2852 92.0545 53.5869V47.9121C92.0545 47.2139 91.488 46.6426 90.7956 46.6426C90.1032 46.6426 89.5366 47.2139 89.5366 47.9121V53.5869Z" fill="#174782"/>
<path d="M113.18 33.7949C113.507 33.7949 113.835 33.6553 114.074 33.4268C114.313 33.1855 114.439 32.8682 114.439 32.5254C114.439 32.1953 114.3 31.8652 114.074 31.624C113.835 31.3828 113.52 31.2559 113.18 31.2559C112.853 31.2559 112.525 31.3955 112.286 31.624C112.047 31.8652 111.921 32.1826 111.921 32.5254C111.921 32.8555 112.059 33.1855 112.286 33.4268C112.525 33.6553 112.853 33.7949 113.18 33.7949Z" fill="#174782"/>
<path d="M123 42.6182V28.6152C123 23.1562 118.594 18.7129 113.18 18.7129C111.128 18.7129 109.214 19.3477 107.641 20.4395V2.53906H109.34C110.033 2.53906 110.599 1.96777 110.599 1.26953C110.599 0.571289 110.033 0 109.34 0H106.382H75.1597H72.2012C71.5088 0 70.9422 0.571289 70.9422 1.26953C70.9422 1.96777 71.5088 2.53906 72.2012 2.53906H73.9008V9.17871C73.9008 9.87695 74.4673 10.4482 75.1597 10.4482C75.8521 10.4482 76.4187 9.87695 76.4187 9.17871V2.53906H105.123V22.7246C105.123 22.8008 105.135 22.8643 105.148 22.9404C104.028 24.5527 103.36 26.5078 103.36 28.6152V42.6182C103.36 44.7129 104.015 46.668 105.123 48.2676V52.165C104.393 51.9238 103.625 51.7969 102.844 51.7969C102.177 51.7969 101.535 51.8857 100.918 52.0508V47.9121C100.918 47.2139 100.351 46.6426 99.659 46.6426C98.9666 46.6426 98.4001 47.2139 98.4001 47.9121V53.2949C97.5817 53.917 96.8893 54.7168 96.3857 55.6562C95.9325 55.542 95.4667 55.4785 94.9883 55.4785C91.9668 55.4785 89.5118 57.9541 89.5118 61.001C89.5118 61.4961 89.5748 61.9912 89.7133 62.4609H76.4187V19.335C76.4187 18.6367 75.8521 18.0654 75.1597 18.0654C74.4673 18.0654 73.9008 18.6367 73.9008 19.335V24.8828H59.8005C59.108 24.8828 58.5415 25.4541 58.5415 26.1523V63.7305C58.5415 64.4287 59.108 65 59.8005 65H121.741C122.434 65 123 64.4287 123 63.7305C123 63.0322 122.434 62.4609 121.741 62.4609H114.439V52.4316C119.261 51.8096 123 47.6455 123 42.6182ZM61.0594 27.4219H73.9008V62.4609H61.0594V27.4219ZM113.18 21.252C117.209 21.252 120.482 24.5527 120.482 28.6152V42.6182C120.482 46.249 117.864 49.2705 114.439 49.8672V37.6035C114.439 36.9053 113.873 36.334 113.18 36.334C112.488 36.334 111.921 36.9053 111.921 37.6035V49.8672C108.497 49.2578 105.878 46.249 105.878 42.6182V28.6152C105.878 24.5527 109.164 21.252 113.18 21.252ZM107.641 50.7812C108.887 51.6445 110.348 52.2285 111.921 52.4316V56.5449C111.153 55.9736 110.222 55.5928 109.214 55.5039C108.799 54.7676 108.258 54.1328 107.641 53.5869V50.7812ZM106.382 62.4609H92.4074C92.1556 62.0166 92.0297 61.5088 92.0297 61.001C92.0297 59.3506 93.3516 58.0176 94.9883 58.0176C95.4919 58.0176 95.9954 58.1445 96.4361 58.3984C96.7634 58.5889 97.1537 58.6143 97.5062 58.4746C97.8587 58.335 98.1231 58.0557 98.249 57.6875C98.9036 55.6816 100.754 54.3359 102.844 54.3359C104.77 54.3359 106.508 55.4912 107.288 57.2686C107.502 57.751 107.993 58.0557 108.522 58.0303C108.585 58.0303 108.635 58.0303 108.698 58.0303C110.335 58.0303 111.657 59.3633 111.657 61.0137C111.657 61.5215 111.518 62.0293 111.279 62.4736H106.382V62.4609Z" fill="#174782"/>
<path d="M75.0212 15.5264C75.3485 15.5264 75.6758 15.3867 75.915 15.1582C76.1542 14.917 76.2801 14.5996 76.2801 14.2568C76.2801 13.9141 76.1416 13.5967 75.915 13.3555C75.6758 13.1143 75.3611 12.9873 75.0212 12.9873C74.6812 12.9873 74.3665 13.127 74.1273 13.3555C73.8881 13.584 73.7622 13.9141 73.7622 14.2568C73.7622 14.5996 73.9007 14.917 74.1273 15.1582C74.3665 15.3994 74.6938 15.5264 75.0212 15.5264Z" fill="#174782"/>
</svg>
