<svg width="68" height="68" viewBox="0 0 68 68" fill="none" xmlns="http://www.w3.org/2000/svg">
<path d="M34.8335 65.8036L34.8335 65.8036C35.0619 66.0319 35.1935 66.3491 35.1935 66.6719C35.1935 66.9946 35.0618 67.3118 34.8335 67.5401L34.8335 67.5402C34.6053 67.7685 34.2881 67.9 33.9653 67.9C33.6424 67.9 33.3252 67.7684 33.0971 67.5402L33.097 67.5401C32.8686 67.3119 32.7372 66.9946 32.7372 66.6719C32.7372 66.3491 32.8688 66.0319 33.0971 65.8036L33.0971 65.8036C33.3252 65.5753 33.6424 65.4438 33.9653 65.4438C34.2881 65.4438 34.6053 65.5753 34.8335 65.8036Z" fill="#FF8617" stroke="white" stroke-width="0.2"/>
<mask id="path-2-inside-1" fill="white">
<path d="M60.9025 43.4392L56.4721 42.3808V40.6234C58.9313 39.0691 60.5691 36.328 60.5691 33.2101V28.2606C60.5691 23.4271 56.6368 19.4949 51.8032 19.4949C49.1959 19.4949 46.8521 20.6406 45.245 22.4533C43.8374 17.5787 39.3355 14.0034 34.0138 14.0034H34.0137C28.6834 14.0034 24.1753 17.59 22.7756 22.4766C21.1681 20.6504 18.8157 19.4949 16.1971 19.4949C11.3636 19.4949 7.43126 23.4273 7.43126 28.2606V33.2101C7.43126 36.3281 9.0691 39.0692 11.5283 40.6234V42.3808L7.0979 43.4392C2.91869 44.4374 0 48.1353 0 52.4316V61.3594C0 62.0929 0.594734 62.6875 1.32812 62.6875H11.9482V66.6719C11.9482 67.4054 12.5429 68 13.2763 68H27.8464C28.5798 68 29.1745 67.4054 29.1745 66.6719C29.1745 65.9384 28.5798 65.3438 27.8464 65.3438H21.9172V59.4985C21.9172 58.7649 21.3225 58.1703 20.5891 58.1703C19.8557 58.1703 19.261 58.7649 19.261 59.4985V65.3438H14.6043V59.3516C14.6043 54.8474 17.6635 50.9686 22.0438 49.919L28.5759 48.3536L32.7789 57.9156C32.9909 58.3978 33.4678 58.7093 33.9946 58.7093H33.9947C34.5214 58.7093 34.9985 58.398 35.2105 57.9157L39.4092 48.3677L45.9223 49.9236C50.3066 50.9708 53.3684 54.8504 53.3684 59.3578V60.8399C53.3006 60.9995 53.2629 61.1749 53.2629 61.3593C53.2629 61.5436 53.3006 61.7192 53.3684 61.8787V65.3438H48.739V59.4985C48.739 58.7649 48.1443 58.1703 47.4109 58.1703C46.6775 58.1703 46.0828 58.7649 46.0828 59.4985V65.3438H39.5783C38.8449 65.3438 38.2501 65.9384 38.2501 66.6719C38.2501 67.4054 38.8449 68 39.5783 68H54.6966C55.43 68 56.0247 67.4054 56.0247 66.6719V62.6875H66.6719C67.4053 62.6875 68 62.0929 68 61.3594V52.4316C68 48.1353 65.0813 44.4374 60.9025 43.4392ZM51.8031 22.1512C55.1719 22.1512 57.9128 24.8919 57.9128 28.2606V28.5894V28.7229H54.1139C51.2444 28.7229 48.4246 27.9694 45.9396 26.5413C46.6841 24.007 49.0309 22.1512 51.8031 22.1512ZM45.6935 32.9933C45.6981 32.8577 45.7014 29.4223 45.7014 29.4223C48.3124 30.7063 51.1908 31.3793 54.1141 31.3793H57.9129V33.2102C57.9128 36.5789 55.1719 39.3195 51.8031 39.3195C48.4343 39.3195 45.6935 36.5787 45.6935 33.2101V32.9933ZM24.982 25.691C24.982 20.7111 29.0336 16.6598 34.0137 16.6598C38.9936 16.6598 43.0452 20.7112 43.0452 25.691V25.8642L38.1159 22.9683C37.5566 22.6395 36.8418 22.7632 36.4252 23.2603C34.51 25.5458 31.7013 26.8566 28.7192 26.8566H24.982V25.691ZM10.0872 28.5895V28.2606C10.0872 24.8918 12.8281 22.1512 16.1969 22.1512C18.9691 22.1512 21.3159 24.007 22.0603 26.5414C19.5752 27.9694 16.7556 28.723 13.8859 28.723H10.0872V28.5895ZM10.0872 33.2101V31.3791H13.8861C16.8122 31.3791 19.6936 30.705 22.3065 29.4184V33.2101C22.3065 36.5789 19.5657 39.3195 16.1969 39.3195C12.8281 39.3195 10.0872 36.5787 10.0872 33.2101ZM11.9482 59.3516V60.0313H7.96875V54.1306C7.96875 53.3971 7.37402 52.8025 6.64062 52.8025C5.90723 52.8025 5.3125 53.3971 5.3125 54.1306V60.0313H2.65625V52.4316C2.65625 49.3696 4.73636 46.7342 7.71468 46.0228L11.9246 45.017L14.6722 51.5985C12.9537 53.7333 11.9482 56.4393 11.9482 59.3516ZM16.1971 48.3563L14.1801 43.5247C14.1824 43.493 14.1842 43.4612 14.1842 43.4291V41.74C14.8309 41.8924 15.5043 41.9757 16.1969 41.9757C16.8864 41.9757 17.5566 41.8931 18.2008 41.742V43.345C18.1993 43.37 18.1986 43.3949 18.1986 43.4199C18.1986 43.4618 18.2026 43.5033 18.2066 43.5449L16.1971 48.3563ZM21.4249 47.3359C20.6407 47.5238 19.8912 47.7853 19.1796 48.1078L20.4732 45.0103L24.6837 46.0193C25.0103 46.0975 25.3285 46.201 25.6365 46.3267L21.4249 47.3359ZM28.0172 44.5677C27.1834 44.0505 26.2686 43.6676 25.3028 43.4363L20.857 42.371V40.6291C21.9627 39.9323 22.9018 38.9957 23.6018 37.8923C24.6031 39.8485 26.1399 41.4866 28.0172 42.6133V44.5677ZM37.3114 46.5393L33.995 54.0812L30.6734 46.5245V43.7854C31.7322 44.1018 32.8533 44.2724 34.0135 44.2724C35.1584 44.2724 36.2651 44.1062 37.3114 43.7979V46.5393ZM34.0137 41.6163C29.0335 41.6162 24.982 37.5647 24.982 32.5849V29.513H28.7191C32.109 29.513 35.3219 28.1732 37.6955 25.8021L43.0374 28.9403V32.8967C42.8721 37.7325 38.8892 41.6163 34.0137 41.6163ZM39.9677 42.6383H39.9678C41.8567 41.5154 43.4042 39.8761 44.4132 37.9156C45.1118 39.0088 46.0453 39.937 47.143 40.6291V42.371L42.6972 43.4363C41.7256 43.6691 40.8056 44.0554 39.9677 44.5774V42.6383ZM46.5394 47.3403L42.3392 46.3367C42.6547 46.2066 42.981 46.0997 43.3163 46.0193L47.5166 45.0129L48.8155 48.1241C48.0947 47.7958 47.3349 47.5303 46.5394 47.3403ZM49.7906 43.5647C49.7959 43.5165 49.7998 43.468 49.7998 43.4194C49.7998 43.407 49.7996 43.3945 49.7992 43.3822V41.742C50.4434 41.8932 51.1136 41.9757 51.8031 41.9757C52.4957 41.9757 53.1691 41.8924 53.8158 41.7398V43.4289C53.8158 43.4531 53.8175 43.4769 53.8188 43.5008L51.791 48.3563L49.7906 43.5647ZM65.3438 60.0313H62.6875V54.1306C62.6875 53.3971 62.0928 52.8025 61.3594 52.8025C60.626 52.8025 60.0312 53.3971 60.0312 54.1306V60.0313H56.0247V59.3579C56.0247 56.4495 55.0225 53.7473 53.3089 51.6143L56.0652 45.0146L60.2853 46.0228C63.2636 46.7342 65.3438 49.3696 65.3438 52.4316V60.0313Z"/>
</mask>
<path d="M60.9025 43.4392L56.4721 42.3808V40.6234C58.9313 39.0691 60.5691 36.328 60.5691 33.2101V28.2606C60.5691 23.4271 56.6368 19.4949 51.8032 19.4949C49.1959 19.4949 46.8521 20.6406 45.245 22.4533C43.8374 17.5787 39.3355 14.0034 34.0138 14.0034H34.0137C28.6834 14.0034 24.1753 17.59 22.7756 22.4766C21.1681 20.6504 18.8157 19.4949 16.1971 19.4949C11.3636 19.4949 7.43126 23.4273 7.43126 28.2606V33.2101C7.43126 36.3281 9.0691 39.0692 11.5283 40.6234V42.3808L7.0979 43.4392C2.91869 44.4374 0 48.1353 0 52.4316V61.3594C0 62.0929 0.594734 62.6875 1.32812 62.6875H11.9482V66.6719C11.9482 67.4054 12.5429 68 13.2763 68H27.8464C28.5798 68 29.1745 67.4054 29.1745 66.6719C29.1745 65.9384 28.5798 65.3438 27.8464 65.3438H21.9172V59.4985C21.9172 58.7649 21.3225 58.1703 20.5891 58.1703C19.8557 58.1703 19.261 58.7649 19.261 59.4985V65.3438H14.6043V59.3516C14.6043 54.8474 17.6635 50.9686 22.0438 49.919L28.5759 48.3536L32.7789 57.9156C32.9909 58.3978 33.4678 58.7093 33.9946 58.7093H33.9947C34.5214 58.7093 34.9985 58.398 35.2105 57.9157L39.4092 48.3677L45.9223 49.9236C50.3066 50.9708 53.3684 54.8504 53.3684 59.3578V60.8399C53.3006 60.9995 53.2629 61.1749 53.2629 61.3593C53.2629 61.5436 53.3006 61.7192 53.3684 61.8787V65.3438H48.739V59.4985C48.739 58.7649 48.1443 58.1703 47.4109 58.1703C46.6775 58.1703 46.0828 58.7649 46.0828 59.4985V65.3438H39.5783C38.8449 65.3438 38.2501 65.9384 38.2501 66.6719C38.2501 67.4054 38.8449 68 39.5783 68H54.6966C55.43 68 56.0247 67.4054 56.0247 66.6719V62.6875H66.6719C67.4053 62.6875 68 62.0929 68 61.3594V52.4316C68 48.1353 65.0813 44.4374 60.9025 43.4392ZM51.8031 22.1512C55.1719 22.1512 57.9128 24.8919 57.9128 28.2606V28.5894V28.7229H54.1139C51.2444 28.7229 48.4246 27.9694 45.9396 26.5413C46.6841 24.007 49.0309 22.1512 51.8031 22.1512ZM45.6935 32.9933C45.6981 32.8577 45.7014 29.4223 45.7014 29.4223C48.3124 30.7063 51.1908 31.3793 54.1141 31.3793H57.9129V33.2102C57.9128 36.5789 55.1719 39.3195 51.8031 39.3195C48.4343 39.3195 45.6935 36.5787 45.6935 33.2101V32.9933ZM24.982 25.691C24.982 20.7111 29.0336 16.6598 34.0137 16.6598C38.9936 16.6598 43.0452 20.7112 43.0452 25.691V25.8642L38.1159 22.9683C37.5566 22.6395 36.8418 22.7632 36.4252 23.2603C34.51 25.5458 31.7013 26.8566 28.7192 26.8566H24.982V25.691ZM10.0872 28.5895V28.2606C10.0872 24.8918 12.8281 22.1512 16.1969 22.1512C18.9691 22.1512 21.3159 24.007 22.0603 26.5414C19.5752 27.9694 16.7556 28.723 13.8859 28.723H10.0872V28.5895ZM10.0872 33.2101V31.3791H13.8861C16.8122 31.3791 19.6936 30.705 22.3065 29.4184V33.2101C22.3065 36.5789 19.5657 39.3195 16.1969 39.3195C12.8281 39.3195 10.0872 36.5787 10.0872 33.2101ZM11.9482 59.3516V60.0313H7.96875V54.1306C7.96875 53.3971 7.37402 52.8025 6.64062 52.8025C5.90723 52.8025 5.3125 53.3971 5.3125 54.1306V60.0313H2.65625V52.4316C2.65625 49.3696 4.73636 46.7342 7.71468 46.0228L11.9246 45.017L14.6722 51.5985C12.9537 53.7333 11.9482 56.4393 11.9482 59.3516ZM16.1971 48.3563L14.1801 43.5247C14.1824 43.493 14.1842 43.4612 14.1842 43.4291V41.74C14.8309 41.8924 15.5043 41.9757 16.1969 41.9757C16.8864 41.9757 17.5566 41.8931 18.2008 41.742V43.345C18.1993 43.37 18.1986 43.3949 18.1986 43.4199C18.1986 43.4618 18.2026 43.5033 18.2066 43.5449L16.1971 48.3563ZM21.4249 47.3359C20.6407 47.5238 19.8912 47.7853 19.1796 48.1078L20.4732 45.0103L24.6837 46.0193C25.0103 46.0975 25.3285 46.201 25.6365 46.3267L21.4249 47.3359ZM28.0172 44.5677C27.1834 44.0505 26.2686 43.6676 25.3028 43.4363L20.857 42.371V40.6291C21.9627 39.9323 22.9018 38.9957 23.6018 37.8923C24.6031 39.8485 26.1399 41.4866 28.0172 42.6133V44.5677ZM37.3114 46.5393L33.995 54.0812L30.6734 46.5245V43.7854C31.7322 44.1018 32.8533 44.2724 34.0135 44.2724C35.1584 44.2724 36.2651 44.1062 37.3114 43.7979V46.5393ZM34.0137 41.6163C29.0335 41.6162 24.982 37.5647 24.982 32.5849V29.513H28.7191C32.109 29.513 35.3219 28.1732 37.6955 25.8021L43.0374 28.9403V32.8967C42.8721 37.7325 38.8892 41.6163 34.0137 41.6163ZM39.9677 42.6383H39.9678C41.8567 41.5154 43.4042 39.8761 44.4132 37.9156C45.1118 39.0088 46.0453 39.937 47.143 40.6291V42.371L42.6972 43.4363C41.7256 43.6691 40.8056 44.0554 39.9677 44.5774V42.6383ZM46.5394 47.3403L42.3392 46.3367C42.6547 46.2066 42.981 46.0997 43.3163 46.0193L47.5166 45.0129L48.8155 48.1241C48.0947 47.7958 47.3349 47.5303 46.5394 47.3403ZM49.7906 43.5647C49.7959 43.5165 49.7998 43.468 49.7998 43.4194C49.7998 43.407 49.7996 43.3945 49.7992 43.3822V41.742C50.4434 41.8932 51.1136 41.9757 51.8031 41.9757C52.4957 41.9757 53.1691 41.8924 53.8158 41.7398V43.4289C53.8158 43.4531 53.8175 43.4769 53.8188 43.5008L51.791 48.3563L49.7906 43.5647ZM65.3438 60.0313H62.6875V54.1306C62.6875 53.3971 62.0928 52.8025 61.3594 52.8025C60.626 52.8025 60.0312 53.3971 60.0312 54.1306V60.0313H56.0247V59.3579C56.0247 56.4495 55.0225 53.7473 53.3089 51.6143L56.0652 45.0146L60.2853 46.0228C63.2636 46.7342 65.3438 49.3696 65.3438 52.4316V60.0313Z" fill="#FF8617" stroke="white" stroke-width="0.4" mask="url(#path-2-inside-1)"/>
<path d="M30.4135 31.1727L30.4137 31.1729C30.643 31.401 30.7735 31.7181 30.7735 32.041C30.7735 32.364 30.643 32.681 30.4137 32.9091L30.4135 32.9093C30.1853 33.1376 29.8694 33.2691 29.5454 33.2691C29.2227 33.2691 28.9056 33.1376 28.6771 32.9093C28.4487 32.681 28.3173 32.3638 28.3173 32.041C28.3173 31.7183 28.4488 31.401 28.6771 31.1727C28.9054 30.9444 29.2227 30.8129 29.5454 30.8129C29.8682 30.8129 30.1854 30.9444 30.4135 31.1727Z" fill="#FF8617" stroke="white" stroke-width="0.2"/>
<path d="M39.2949 31.1727L39.2951 31.1729C39.5244 31.401 39.6549 31.7181 39.6549 32.041C39.6549 32.364 39.5244 32.681 39.2951 32.9091L39.2949 32.9093C39.0667 33.1376 38.7495 33.2691 38.4268 33.2691C38.104 33.2691 37.7869 33.1376 37.5585 32.9093C37.3301 32.681 37.1986 32.3638 37.1986 32.041C37.1986 31.7183 37.3302 31.401 37.5585 31.1727C37.7868 30.9444 38.104 30.8129 38.4268 30.8129C38.7495 30.8129 39.0667 30.9444 39.2949 31.1727Z" fill="#FF8617" stroke="white" stroke-width="0.2"/>
<path d="M34.7488 35.6433C34.7488 35.6433 34.7488 35.6433 34.7488 35.6433C35.2287 35.1637 36.006 35.1637 36.4858 35.6433C36.9653 36.1229 36.9653 36.9005 36.4856 37.3802C35.7909 38.0749 34.8787 38.4222 33.9658 38.4222C33.053 38.4222 32.1407 38.0748 31.446 37.3802C30.9664 36.9005 30.9664 36.1229 31.446 35.6433C31.446 35.6433 31.446 35.6433 31.446 35.6433M34.7488 35.6433L31.446 35.6433M34.7488 35.6433C34.317 36.0751 33.6147 36.0751 33.183 35.6433C32.7033 35.1637 31.9259 35.1637 31.446 35.6433M34.7488 35.6433L31.446 35.6433" fill="#FF8617" stroke="white" stroke-width="0.2"/>
<path d="M54.0044 7.27188H54.9154C55.5935 7.27188 56.1435 7.82171 56.1435 8.5C56.1435 9.17829 55.5935 9.72813 54.9154 9.72813H54.0044C53.3262 9.72813 52.7763 9.17829 52.7763 8.5C52.7763 7.82171 53.3262 7.27188 54.0044 7.27188Z" fill="#FF8617" stroke="white" stroke-width="0.2"/>
<path d="M60.4482 7.27188H61.3592C62.0374 7.27188 62.5873 7.82171 62.5873 8.5C62.5873 9.17829 62.0374 9.72813 61.3592 9.72813H60.4482C59.7699 9.72813 59.2201 9.1783 59.2201 8.5C59.2201 7.82171 59.7701 7.27188 60.4482 7.27188Z" fill="#FF8617" stroke="white" stroke-width="0.2"/>
<path d="M56.454 11.2666C56.454 10.5883 57.004 10.0385 57.6821 10.0385C58.3603 10.0385 58.9103 10.5883 58.9103 11.2666V12.1776C58.9103 12.8558 58.3603 13.4057 57.6821 13.4057C57.0038 13.4057 56.454 12.8559 56.454 12.1776V11.2666Z" fill="#FF8617" stroke="white" stroke-width="0.2"/>
<path d="M56.454 4.82251C56.454 4.14422 57.004 3.59438 57.6821 3.59438C58.3603 3.59438 58.9103 4.14422 58.9103 4.82251V5.73347C58.9103 6.41176 58.3603 6.9616 57.6821 6.9616C57.0038 6.9616 56.454 6.41177 56.454 5.73347V4.82251Z" fill="#FF8617" stroke="white" stroke-width="0.2"/>
<path d="M6.5669 7.27188H7.47772C8.15589 7.27188 8.70585 7.82171 8.70585 8.5C8.70585 9.17829 8.15589 9.72813 7.47772 9.72813H6.5669C5.88873 9.72813 5.33877 9.17829 5.33877 8.5C5.33877 7.82171 5.88873 7.27188 6.5669 7.27188Z" fill="#FF8617" stroke="white" stroke-width="0.2"/>
<path d="M13.0112 7.27188H13.9221C14.6002 7.27188 15.1502 7.82171 15.1502 8.5C15.1502 9.17829 14.6002 9.72813 13.9221 9.72813H13.0112C12.3329 9.72813 11.7831 9.17829 11.7831 8.5C11.7831 7.82171 12.3331 7.27188 13.0112 7.27188Z" fill="#FF8617" stroke="white" stroke-width="0.2"/>
<path d="M9.0165 11.2666C9.0165 10.5883 9.56646 10.0385 10.2446 10.0385C10.9228 10.0385 11.4728 10.5883 11.4728 11.2666V12.1776C11.4728 12.8558 10.9228 13.4057 10.2446 13.4057C9.56633 13.4057 9.0165 12.8559 9.0165 12.1776V11.2666Z" fill="#FF8617" stroke="white" stroke-width="0.2"/>
<path d="M9.0165 4.82251C9.0165 4.14422 9.56646 3.59438 10.2446 3.59438C10.9228 3.59438 11.4728 4.14422 11.4728 4.82251V5.73347C11.4728 6.41176 10.9228 6.9616 10.2446 6.9616C9.56633 6.9616 9.0165 6.41177 9.0165 5.73347V4.82251Z" fill="#FF8617" stroke="white" stroke-width="0.2"/>
<path d="M32.7719 6.38647C32.7719 5.70819 33.3218 5.15835 34 5.15835C34.6782 5.15835 35.2281 5.70819 35.2281 6.38647V9.88077C35.2281 10.5591 34.6782 11.1089 34 11.1089C33.3218 11.1089 32.7719 10.5591 32.7719 9.88077V6.38647Z" fill="#FF8617" stroke="white" stroke-width="0.2"/>
<path d="M34.8681 0.459832L34.8682 0.45987C35.0966 0.688167 35.2281 1.00539 35.2281 1.32812C35.2281 1.65086 35.0966 1.96808 34.8682 2.19638L34.8681 2.19642C34.64 2.4247 34.3227 2.55625 34 2.55625C33.6773 2.55625 33.3602 2.42471 33.1317 2.19638C32.9033 1.9681 32.7719 1.65089 32.7719 1.32812C32.7719 1.00536 32.9033 0.688149 33.1317 0.45987L33.1317 0.459851C33.36 0.231548 33.6773 0.1 34 0.1C34.3227 0.1 34.64 0.231551 34.8681 0.459832Z" fill="#FF8617" stroke="white" stroke-width="0.2"/>
<path d="M27.3314 3.45554L29.275 5.3991C29.275 5.39911 29.275 5.39911 29.275 5.39911M27.3314 3.45554L29.275 5.39911M27.3314 3.45554C27.3314 3.45554 27.3314 3.45554 27.3314 3.45553C26.8517 2.97596 26.0743 2.97595 25.5945 3.45553L27.3314 3.45554ZM29.275 5.39911C29.7546 5.87883 29.7546 6.65649 29.275 7.13606C29.0351 7.37593 28.721 7.49578 28.4066 7.49578C28.0921 7.49578 27.778 7.37593 27.5382 7.13606L27.4675 7.20677L27.5382 7.13606L25.5945 5.19249C25.5945 5.19249 25.5945 5.19248 25.5944 5.19248C25.1149 4.71276 25.1149 3.93513 25.5944 3.45555L29.275 5.39911Z" fill="#FF8617" stroke="white" stroke-width="0.2"/>
<path d="M40.6684 3.38229C40.6684 3.3823 40.6684 3.3823 40.6684 3.38231L38.6599 5.39082C38.1803 5.87038 38.1803 6.64802 38.6599 7.12774C38.6599 7.12775 38.6599 7.12776 38.6599 7.12777M40.6684 3.38229L42.4761 3.31158C42.9947 3.83035 42.9947 4.67132 42.4761 5.18995L40.4675 7.19847C40.2082 7.45786 39.8684 7.58748 39.5284 7.58748C39.1884 7.58748 38.8487 7.45786 38.5892 7.19847L38.6599 7.12777M40.6684 3.38229C41.1483 2.90271 41.9256 2.90272 42.4053 3.38228M40.6684 3.38229L42.4053 3.38228M38.6599 7.12777C38.8999 7.36765 39.2139 7.48748 39.5284 7.48748C39.843 7.48748 40.1569 7.36764 40.3968 7.12776L42.4053 5.11924C42.8849 4.63966 42.8849 3.862 42.4053 3.38228M38.6599 7.12777L42.4053 3.38228" fill="#FF8617" stroke="white" stroke-width="0.2"/>
</svg>
