<svg width="42" height="42" viewBox="0 0 42 42" fill="none" xmlns="http://www.w3.org/2000/svg">
<g clip-path="url(#clip0)">
<path d="M41.3 8.40002H28.7C28.3134 8.40002 28 8.71345 28 9.10002V25.2H12.6V23.1C12.6 22.7135 12.2866 22.4 11.9 22.4H9.8V23.8H11.2V25.2H8.4V22.4H7V25.2H4.2V23.8H5.6V22.4H3.5C3.11343 22.4 2.8 22.7135 2.8 23.1V25.2H0.7C0.313428 25.2 0 25.5135 0 25.9V41.3C0 41.6866 0.313428 42 0.7 42H41.3C41.6866 42 42 41.6866 42 41.3V9.10002C42 8.71345 41.6866 8.40002 41.3 8.40002ZM29.4 9.80002H40.6V18.2H29.4V9.80002ZM28 29.4H15.4V26.6H28V29.4ZM1.4 26.6H14V29.4H1.4V26.6ZM1.4 30.8H14V40.6H1.4V30.8ZM15.4 30.8H21V40.6H15.4V30.8ZM22.4 30.8H28V40.6H22.4V30.8ZM29.4 40.6V19.6H40.6V40.6H29.4Z" fill="#174782"/>
<path d="M30.8 12.6H32.2001V15.4H30.8V12.6Z" fill="#174782"/>
<path d="M30.8 22.4H32.2001V25.2H30.8V22.4Z" fill="#174782"/>
<path d="M4.20005 27.9999C4.20005 28.3865 3.88662 28.6999 3.50005 28.6999C3.11348 28.6999 2.80005 28.3865 2.80005 27.9999C2.80005 27.6134 3.11348 27.2999 3.50005 27.2999C3.88662 27.2999 4.20005 27.6134 4.20005 27.9999Z" fill="#174782"/>
<path d="M6.99986 27.9999C6.99986 28.3865 6.68643 28.6999 6.29985 28.6999C5.91328 28.6999 5.59985 28.3865 5.59985 27.9999C5.59985 27.6134 5.91328 27.2999 6.29985 27.2999C6.68643 27.2999 6.99986 27.6134 6.99986 27.9999Z" fill="#174782"/>
<path d="M9.80015 27.9999C9.80015 28.3865 9.48672 28.6999 9.10015 28.6999C8.71357 28.6999 8.40015 28.3865 8.40015 27.9999C8.40015 27.6134 8.71357 27.2999 9.10015 27.2999C9.48672 27.2999 9.80015 27.6134 9.80015 27.9999Z" fill="#174782"/>
<path d="M12.6 27.9999C12.6 28.3865 12.2865 28.6999 11.9 28.6999C11.5134 28.6999 11.2 28.3865 11.2 27.9999C11.2 27.6134 11.5134 27.2999 11.9 27.2999C12.2865 27.2999 12.6 27.6134 12.6 27.9999Z" fill="#174782"/>
<path d="M0.7 13.3H14.7C15.0866 13.3 15.4 12.9866 15.4 12.6V10.5C15.4 10.3144 15.3262 10.1363 15.1949 10.0051L12.3949 7.20508C12.2637 7.07383 12.0856 7 11.9 7H11.2V0.7C11.2 0.313428 10.8866 0 10.5 0H4.9C4.51343 0 4.2 0.313428 4.2 0.7V7H3.5C3.3144 7 3.13633 7.07383 3.00508 7.20508L0.205078 10.0051C0.0738281 10.1363 0 10.3144 0 10.5V12.6C0 12.9866 0.313428 13.3 0.7 13.3ZM5.6 1.4H9.8V7H5.6V1.4ZM1.4 10.7898L3.78984 8.4H11.6102L14 10.7898V11.9H1.4V10.7898Z" fill="#174782"/>
<path d="M11.9001 32.2001H3.50005C3.11348 32.2001 2.80005 32.5135 2.80005 32.9001V38.5001C2.80005 38.8867 3.11348 39.2001 3.50005 39.2001H11.9001C12.2866 39.2001 12.6 38.8867 12.6 38.5001V32.9001C12.6 32.5135 12.2866 32.2001 11.9001 32.2001ZM11.2001 37.8001H4.20005V33.6001H11.2001V37.8001Z" fill="#174782"/>
<path d="M20.3 27.2999H23.1001V28.6999H20.3V27.2999Z" fill="#174782"/>
<path d="M18.2 34.2999H19.6V37.0999H18.2V34.2999Z" fill="#174782"/>
<path d="M23.8 34.2999H25.2001V37.0999H23.8V34.2999Z" fill="#174782"/>
<path d="M16.7999 17.5H20.9999C21.3864 17.5 21.6999 17.1866 21.6999 16.8V16.1C21.6951 14.8271 20.8324 13.7177 19.5999 13.3995V0H18.1999V13.3995C16.9673 13.7177 16.1046 14.8271 16.0999 16.1V16.8C16.0999 17.1866 16.4133 17.5 16.7999 17.5ZM18.8999 14.7C19.673 14.7 20.2999 15.3269 20.2999 16.1H17.4999C17.4999 15.3269 18.1267 14.7 18.8999 14.7Z" fill="#174782"/>
<path d="M21.7 11.9H25.9C26.2866 11.9 26.6 11.5866 26.6 11.2V10.5C26.5952 9.22715 25.7325 8.11768 24.5 7.79946V0H23.1V7.79946C21.8675 8.11768 21.0048 9.22715 21 10.5V11.2C21 11.5866 21.3134 11.9 21.7 11.9ZM23.8 9.1C24.5731 9.1 25.2 9.72686 25.2 10.5H22.4C22.4 9.72686 23.0269 9.1 23.8 9.1Z" fill="#174782"/>
</g>
<defs>
<clipPath id="clip0">
<rect width="42" height="42" fill="white"/>
</clipPath>
</defs>
</svg>
