<svg width="42" height="42" viewBox="0 0 42 42" fill="none" xmlns="http://www.w3.org/2000/svg">
<path d="M41.6236 0.888972C41.3902 0.747416 41.0993 0.741194 40.859 0.867972L28 7.67586L15.1418 0.867972C15.1317 0.862527 15.12 0.860972 15.1099 0.856305C15.0726 0.838416 15.0344 0.825194 14.9956 0.813527C14.9738 0.807305 14.9528 0.800305 14.931 0.795638C14.8882 0.787083 14.8447 0.783972 14.8003 0.782416C14.7809 0.781639 14.7614 0.779305 14.7412 0.780083C14.6992 0.782416 14.658 0.790194 14.6168 0.799527C14.5934 0.804194 14.5701 0.807305 14.5476 0.814305C14.5421 0.815861 14.5367 0.815861 14.532 0.817416L0.532 5.48408C0.213889 5.58986 0 5.88697 0 6.22219V39.6666C0 39.9163 0.119778 40.1512 0.323556 40.2982C0.457333 40.3939 0.616778 40.4444 0.777778 40.4444C0.860222 40.4444 0.943444 40.4312 1.02356 40.404L14.7482 35.8291L27.7037 41.1639C27.7146 41.1685 27.727 41.167 27.7379 41.1709C27.8234 41.2012 27.9106 41.2222 28 41.2222C28.07 41.2222 28.1392 41.2105 28.2069 41.1919C28.2287 41.1856 28.2489 41.1755 28.2707 41.1677C28.3018 41.1561 28.3344 41.1475 28.364 41.132L41.5862 34.132C41.8406 33.9974 42 33.7322 42 33.4444V1.55553C42 1.28253 41.8569 1.02975 41.6236 0.888972ZM1.55556 6.78297L14 2.63508V23.6289C13.6656 23.6895 13.3358 23.758 13.0169 23.842C12.6016 23.9524 12.3542 24.3779 12.4647 24.7932C12.5572 25.1416 12.8714 25.3719 13.216 25.3719C13.2813 25.3719 13.349 25.3633 13.4159 25.3462C13.6026 25.2964 13.8063 25.2715 14 25.2311V34.44L1.55556 38.5871V6.78297ZM15.5556 25.0133C15.8052 24.9939 16.0471 24.962 16.303 24.9565C16.7323 24.9472 17.073 24.5917 17.0644 24.1624C17.0551 23.7385 16.709 23.401 16.2867 23.401C16.2812 23.401 16.275 23.401 16.2696 23.401C16.0284 23.4064 15.7912 23.4196 15.5556 23.436V2.84742L27.2222 9.02375V25.508C26.6669 25.4839 26.1022 25.4185 25.5103 25.3042C25.0872 25.221 24.6804 25.4979 24.5988 25.9194C24.5171 26.341 24.7932 26.7493 25.2148 26.831C25.9039 26.9647 26.5728 27.0301 27.223 27.0557V39.2832L15.5556 34.4789V25.0133ZM40.4444 32.9754L28.7778 39.1517V26.9717C29.0671 26.8403 29.26 26.5447 29.2343 26.2095C29.2118 25.9186 29.0251 25.6853 28.7778 25.571V9.02375L40.4444 2.84742V32.9754Z" fill="#174782"/>
<path d="M8.55564 7C6.4113 7 4.66675 8.74456 4.66675 10.8889C4.66675 12.7672 6.0053 14.3376 7.77786 14.6992V16.3333C7.77786 16.7634 8.1263 17.1111 8.55564 17.1111C8.98497 17.1111 9.33341 16.7634 9.33341 16.3333V14.6992C11.106 14.3376 12.4445 12.7672 12.4445 10.8889C12.4445 8.74456 10.7 7 8.55564 7ZM8.55564 13.2222C7.26919 13.2222 6.2223 12.1753 6.2223 10.8889C6.2223 9.60244 7.26919 8.55556 8.55564 8.55556C9.84208 8.55556 10.889 9.60244 10.889 10.8889C10.889 12.1753 9.84208 13.2222 8.55564 13.2222Z" fill="#174782"/>
<path d="M35.0544 21.5235C35.1478 21.56 35.2434 21.5763 35.3375 21.5763C35.6487 21.5763 35.9419 21.3889 36.0624 21.0817C36.428 20.1491 36.7212 19.096 36.9359 17.9519C37.0152 17.5303 36.7368 17.1243 36.3144 17.0442C35.8898 16.9742 35.4861 17.2441 35.4068 17.6665C35.2108 18.7149 34.944 19.6731 34.6142 20.5155C34.4579 20.9145 34.6547 21.3663 35.0544 21.5235Z" fill="#174782"/>
<path d="M9.95945 25.1549C9.02067 25.7437 8.17445 26.481 7.44334 27.3483C7.16645 27.6765 7.20845 28.1673 7.53667 28.4441C7.68289 28.567 7.861 28.6269 8.03756 28.6269C8.25922 28.6269 8.47856 28.5328 8.63256 28.3508C9.25945 27.6073 9.98356 26.9749 10.7854 26.4733C11.1494 26.2446 11.2591 25.7647 11.0312 25.4007C10.8033 25.0367 10.3227 24.9263 9.95945 25.1549Z" fill="#174782"/>
<path d="M6.70979 29.7702C6.31935 29.5913 5.85735 29.7601 5.67768 30.1505C4.87968 31.8819 4.68213 33.2795 4.67357 33.3386C4.61524 33.7641 4.91235 34.1553 5.33779 34.2136C5.37357 34.2191 5.41013 34.2214 5.44513 34.2214C5.82701 34.2214 6.1599 33.9399 6.21513 33.5518C6.21668 33.5393 6.39479 32.3096 7.09013 30.8031C7.26979 30.4119 7.09946 29.9506 6.70979 29.7702Z" fill="#174782"/>
<path d="M31.4401 26.2336C31.5591 26.2336 31.6804 26.2064 31.7932 26.1489C32.7981 25.6348 33.684 24.9052 34.4252 23.982C34.6943 23.6468 34.6407 23.1568 34.3054 22.8884C33.971 22.6216 33.481 22.6738 33.2119 23.0082C32.6083 23.7603 31.8928 24.3506 31.0847 24.7636C30.702 24.9596 30.5503 25.4279 30.7463 25.8105C30.8848 26.0789 31.1578 26.2336 31.4401 26.2336Z" fill="#174782"/>
<path d="M22.6877 24.4471C22.3447 24.3032 22.1441 24.2036 22.1309 24.1966C22.0803 24.171 22.0266 24.15 21.9714 24.136C21.1291 23.9198 20.2992 23.7486 19.5035 23.6273C19.0796 23.5604 18.6822 23.8536 18.6169 24.2783C18.5523 24.703 18.844 25.1004 19.2686 25.165C19.9889 25.2754 20.741 25.4294 21.5063 25.6239C21.6105 25.6736 21.8096 25.7678 22.0881 25.8836C22.1861 25.9249 22.288 25.9435 22.3875 25.9435C22.6916 25.9435 22.981 25.7646 23.1054 25.466C23.2711 25.0678 23.0844 24.612 22.6877 24.4471Z" fill="#174782"/>
<path d="M36.4956 15.5019C36.5127 15.5027 36.5291 15.5034 36.5462 15.5034C36.953 15.5034 37.2952 15.1877 37.3216 14.7747C37.3698 14.0272 37.394 13.2362 37.394 12.4258C37.394 12.1559 37.3916 11.8821 37.3862 11.6029C37.3784 11.1728 37.0051 10.8461 36.5944 10.8391C36.1651 10.8469 35.8228 11.2016 35.8306 11.6309C35.8353 11.9008 35.8384 12.166 35.8384 12.4258C35.8384 13.2036 35.8151 13.9603 35.7692 14.6759C35.7419 15.1044 36.0671 15.4739 36.4956 15.5019Z" fill="#174782"/>
<path d="M6.45001 22.3276C6.60167 22.4793 6.80078 22.5555 6.9999 22.5555C7.19901 22.5555 7.39812 22.4793 7.54978 22.3276L8.55545 21.322L9.56112 22.3276C9.71279 22.4793 9.9119 22.5555 10.111 22.5555C10.3101 22.5555 10.5092 22.4793 10.6609 22.3276C10.965 22.0235 10.965 21.532 10.6609 21.2279L9.65523 20.2222L10.6609 19.2165C10.965 18.9124 10.965 18.4209 10.6609 18.1168C10.3568 17.8126 9.86523 17.8126 9.56112 18.1168L8.55545 19.1224L7.54978 18.1168C7.24567 17.8126 6.75412 17.8126 6.45001 18.1168C6.1459 18.4209 6.1459 18.9124 6.45001 19.2165L7.45567 20.2222L6.45001 21.2279C6.1459 21.5312 6.1459 22.0235 6.45001 22.3276Z" fill="#174782"/>
</svg>
