<svg width="62" height="62" viewBox="0 0 62 62" fill="none" xmlns="http://www.w3.org/2000/svg">
<path d="M41.4082 39.7622C39.9392 39.7622 38.7441 38.7278 38.7441 37.4564C38.7441 36.1849 39.9392 35.1506 41.4082 35.1506C42.8772 35.1506 44.0722 36.1849 44.0722 37.4564C44.0722 38.1251 44.6145 38.6674 45.2832 38.6674C45.9519 38.6674 46.4941 38.1251 46.4941 37.4564C46.4941 35.2374 44.8407 33.3716 42.6191 32.8652V32.2353C42.6191 31.5667 42.0769 31.0244 41.4082 31.0244C40.7395 31.0244 40.1973 31.5667 40.1973 32.2353V32.8652C37.9757 33.3716 36.3223 35.2374 36.3223 37.4564C36.3223 40.0632 38.6038 42.184 41.4082 42.184C42.8772 42.184 44.0722 43.2184 44.0722 44.4899C44.0722 45.7614 42.8772 46.7958 41.4082 46.7958C39.9392 46.7958 38.7441 45.7614 38.7441 44.4899C38.7441 43.8212 38.2019 43.279 37.5332 43.279C36.8645 43.279 36.3223 43.8212 36.3223 44.4899C36.3223 46.7089 37.9757 48.5747 40.1973 49.0812V49.6043C40.1973 50.273 40.7395 50.8152 41.4082 50.8152C42.0769 50.8152 42.6191 50.273 42.6191 49.6043V49.0812C44.8407 48.5747 46.4941 46.7089 46.4941 44.4899C46.4941 41.883 44.2126 39.7622 41.4082 39.7622Z" fill="#FF8617"/>
<path d="M54.6715 32.5594C53.0897 30.0945 50.8611 28.1221 48.2267 26.8557C47.6238 26.5659 46.9002 26.8197 46.6106 27.4225C46.3208 28.0253 46.5745 28.7487 47.1773 29.0385C51.7681 31.2453 54.7343 35.9605 54.7343 41.0511C54.7343 43.2293 54.1973 45.3895 53.1817 47.2984C52.8676 47.8887 53.0915 48.6221 53.682 48.9362C53.8631 49.0326 54.0578 49.0784 54.2496 49.0784C54.6829 49.0784 55.102 48.8451 55.3197 48.436C56.5211 46.1783 57.1561 43.6245 57.1561 41.0511C57.1561 38.0286 56.297 35.0922 54.6715 32.5594Z" fill="#FF8617"/>
<path d="M43.312 25.3087L43.2305 25.3086C42.5618 25.3086 42.0195 25.8507 42.0195 26.5195C42.0195 27.1883 42.5618 27.7305 43.2305 27.7305L43.3006 27.7306C43.3025 27.7306 43.3043 27.7306 43.3064 27.7306C43.9725 27.7306 44.5141 27.1922 44.5172 26.5253C44.5202 25.8565 43.9806 25.3119 43.312 25.3087Z" fill="#FF8617"/>
<path d="M35.6506 53.0633C31.0599 50.8564 28.0937 46.1411 28.0937 41.0507C28.0937 38.8725 28.6307 36.7123 29.6463 34.8034C29.9604 34.213 29.7365 33.4797 29.146 33.1656C28.5558 32.8515 27.8223 33.0754 27.5083 33.6658C26.3069 35.9236 25.6719 38.4772 25.6719 41.0507C25.6719 44.0732 26.531 47.0095 28.1565 49.5424C29.7383 52.0072 31.9669 53.9796 34.6013 55.2461C34.7705 55.3275 34.9492 55.3659 35.1252 55.3659C35.5761 55.3659 36.0089 55.1129 36.2174 54.6794C36.507 54.0766 36.2534 53.3531 35.6506 53.0633Z" fill="#FF8617"/>
<path d="M39.598 54.3713L39.5279 54.3711C38.8561 54.3699 38.3146 54.9074 38.3115 55.5763C38.3084 56.2451 38.8482 56.7898 39.5169 56.793L39.598 56.7932C40.2667 56.7932 40.809 56.251 40.809 55.5823C40.809 54.9136 40.2667 54.3713 39.598 54.3713Z" fill="#FF8617"/>
<path d="M46.9127 21.2117C46.7653 20.8605 46.5848 20.5296 46.3747 20.2226H49.5272C52.5987 20.2226 55.0975 17.7237 55.0975 14.6523C55.0975 11.5809 52.5987 9.08202 49.5272 9.08202H39.8301C40.4466 8.18568 40.8085 7.10129 40.8085 5.93358C40.8085 2.86217 38.3096 0.363281 35.2382 0.363281H5.5703C2.49889 0.363281 0 2.86217 0 5.93358C0 9.005 2.49889 11.5039 5.5703 11.5039H15.2675C14.651 12.4002 14.289 13.4846 14.289 14.6523C14.289 15.82 14.6509 16.9044 15.2675 17.8007H12.1094C9.03794 17.8007 6.53905 20.2996 6.53905 23.371C6.53905 25.135 7.36418 26.7091 8.64789 27.7304C7.36418 28.7517 6.53905 30.3258 6.53905 32.0898C6.53905 33.8538 7.36418 35.4278 8.64789 36.4492C7.36418 37.4705 6.53905 39.0445 6.53905 40.8085C6.53905 42.5725 7.36418 44.1466 8.64789 45.1679C7.36418 46.1892 6.53905 47.7633 6.53905 49.5272C6.53905 52.5987 9.03794 55.0976 12.1094 55.0976H26.3802C30.1397 59.1187 35.4879 61.6367 41.4141 61.6367C52.7652 61.6367 62 52.4019 62 41.0508C62 31.6035 55.6026 23.6233 46.9127 21.2117ZM49.5272 11.5039C51.2634 11.5039 52.6757 12.9163 52.6757 14.6523C52.6757 16.3883 51.2634 17.8007 49.5272 17.8007H41.7773H19.8593C18.1232 17.8007 16.7109 16.3883 16.7109 14.6523C16.7109 12.9163 18.1232 11.5039 19.8593 11.5039H49.5272ZM5.5703 9.08202C3.83418 9.08202 2.42187 7.66958 2.42187 5.93358C2.42187 4.19759 3.83418 2.78515 5.5703 2.78515H35.2382C36.9743 2.78515 38.3866 4.19759 38.3866 5.93358C38.3866 7.66958 36.9743 9.08202 35.2382 9.08202H5.5703ZM12.1094 20.2226H41.7773C42.265 20.2226 42.7321 20.336 43.1511 20.5389C42.5783 20.4908 41.9992 20.4649 41.4141 20.4649C35.7294 20.4649 30.5756 22.7813 26.8467 26.5195H12.1094C10.3734 26.5195 8.96092 25.107 8.96092 23.371C8.96092 21.6351 10.3734 20.2226 12.1094 20.2226ZM12.1094 28.9414H24.7776C23.4029 30.8247 22.3401 32.9489 21.6651 35.2382H12.1094C10.3732 35.2382 8.96092 33.8259 8.96092 32.0898C8.96092 30.3538 10.3732 28.9414 12.1094 28.9414ZM12.1094 37.6601H21.109C20.9253 38.7636 20.8282 39.896 20.8282 41.0508C20.8282 42.0373 20.8995 43.0072 21.0343 43.9569H12.1094C10.3732 43.9569 8.96092 42.5446 8.96092 40.8085C8.96092 39.0724 10.3732 37.6601 12.1094 37.6601ZM12.1094 52.6757C10.3732 52.6757 8.96092 51.2634 8.96092 49.5272C8.96092 47.7911 10.3732 46.3788 12.1094 46.3788H21.5287C22.1398 48.657 23.1324 50.7801 24.4341 52.6757H12.1094ZM41.4141 59.2149C31.3985 59.2149 23.2501 51.0665 23.2501 41.0508C23.2501 31.0352 31.3985 22.8868 41.4141 22.8868C51.4297 22.8868 59.5781 31.0352 59.5781 41.0508C59.5781 51.0665 51.4297 59.2149 41.4141 59.2149Z" fill="#FF8617"/>
</svg>
