<svg width="62" height="62" viewBox="0 0 62 62" fill="none" xmlns="http://www.w3.org/2000/svg">
<g clip-path="url(#clip0)">
<path d="M54.1461 30.274C54.3619 30.4346 54.6159 30.5134 54.8686 30.5134C55.1808 30.5134 55.4914 30.393 55.726 30.1579L61.6459 24.226C61.8944 23.977 62.0223 23.6325 61.9965 23.2817C61.9707 22.931 61.7938 22.6088 61.5117 22.3989L55.4606 17.8979V5.81347C55.4606 5.14467 54.9184 4.60253 54.2497 4.60253H46.4997C45.831 4.60253 45.2888 5.14467 45.2888 5.81347V10.3316L31.7225 0.240379C31.2935 -0.0788241 30.7059 -0.0788241 30.2769 0.240379L19.6734 8.12793C19.1368 8.52705 19.0253 9.2857 19.4245 9.82227C19.8238 10.359 20.5824 10.4704 21.1189 10.0711L30.9997 2.72122L58.9424 23.5063L54.7515 27.7059L31.7225 10.5758C31.2935 10.2566 30.7059 10.2566 30.2769 10.5758L7.24807 27.7059L3.05715 23.5063L13.916 15.429C14.4525 15.0299 14.5641 14.2712 14.1648 13.7347C13.7656 13.198 13.007 13.0867 12.4705 13.4858L0.487907 22.3989C0.205759 22.6088 0.0288414 22.931 0.00304846 23.2817C-0.0228656 23.6324 0.10513 23.977 0.353614 24.226L6.27351 30.1579C6.69819 30.5834 7.37086 30.6329 7.85342 30.274L8.71851 29.6304V39.2353H2.42165C1.08623 39.2353 -0.000221063 40.3217 -0.000221063 41.6572V59.579C-0.000221063 60.9144 1.08623 62.0009 2.42165 62.0009H10.656C11.8656 62.0009 12.868 61.1085 13.0466 59.9482L18.6786 61.9321C18.8078 61.9776 18.9438 62.0009 19.0808 62.0009H36.372C38.3726 62.0009 40.3152 61.2892 41.8422 59.9969L54.9409 48.9116C55.9785 48.0335 56.5933 46.8024 56.6715 45.4452C56.7499 44.088 56.281 42.7943 55.3514 41.8026C54.7636 41.1756 54.0477 40.7372 53.2809 40.4896V29.6304L54.1461 30.274ZM53.0387 16.0964L47.7106 12.1331V7.0244H53.0387V16.0964ZM10.656 59.579H2.42165V41.6572H5.32789V50.6181C5.32789 51.2869 5.87015 51.829 6.53883 51.829C7.20751 51.829 7.74976 51.2869 7.74976 50.6181V41.6572H10.656V42.6242C10.656 42.6248 10.656 42.6253 10.656 42.6259C10.656 42.6265 10.656 42.627 10.656 42.6276L10.6573 58.1941C10.656 58.222 10.6567 58.2499 10.6573 58.2776L10.6576 59.579C10.6576 59.579 10.6571 59.579 10.656 59.579ZM53.5843 43.4588C54.0557 43.9616 54.2933 44.6174 54.2537 45.3055C54.214 45.9935 53.9024 46.6176 53.3762 47.0629L40.2775 58.1482C39.1873 59.0709 37.8003 59.579 36.3719 59.579H19.2879L13.0779 57.3915V43.8368H21.9607C23.1583 43.8368 24.3179 44.1879 25.3143 44.8522L33.4153 50.2529C33.7769 50.494 34.018 50.8623 34.0941 51.2903C34.1703 51.7182 34.0713 52.1473 33.815 52.4983C33.367 53.1121 32.5439 53.3204 31.8583 52.9925L24.9277 49.682C24.324 49.3937 23.6013 49.6492 23.3131 50.2527C23.0247 50.8562 23.2802 51.5791 23.8838 51.8673L30.8143 55.1777C31.367 55.4418 31.9548 55.5685 32.5362 55.5685C33.7818 55.5685 34.9975 54.9862 35.7714 53.9258C36.4203 53.0364 36.6715 51.9496 36.4786 50.8656C36.2856 49.7817 35.6748 48.8484 34.7587 48.2376L26.6577 42.837C25.2622 41.9067 23.638 41.415 21.9608 41.415H13.0656C12.9598 40.3546 12.1674 39.4935 11.1405 39.2841V27.8289L30.9998 13.0566L50.8592 27.8289V40.3352H50.8591C50.0538 40.4861 49.2761 40.8393 48.6068 41.4018L38.9673 49.5044C38.4553 49.9346 38.3892 50.6985 38.8195 51.2105C39.2499 51.7225 40.0137 51.7885 40.5257 51.3582L50.1652 43.2556C51.1779 42.4044 52.6798 42.4937 53.5843 43.4588Z" fill="#FF8617"/>
<path d="M17.7581 10.8416C17.533 10.6164 17.2206 10.4868 16.9021 10.4868C16.5823 10.4868 16.2699 10.6164 16.0448 10.8416C15.8195 11.0669 15.6912 11.3793 15.6912 11.6978C15.6912 12.0162 15.8195 12.3286 16.0448 12.5539C16.2712 12.7791 16.5824 12.9087 16.9021 12.9087C17.2206 12.9087 17.5317 12.7791 17.7581 12.5539C17.9833 12.3286 18.113 12.0162 18.113 11.6978C18.113 11.3793 17.9835 11.0669 17.7581 10.8416Z" fill="#FF8617"/>
<path d="M35.6306 23.4009C35.0482 23.072 34.3096 23.2775 33.9808 23.8601L25.9225 38.1342C25.5938 38.7165 25.7993 39.4552 26.3817 39.784C26.5699 39.8902 26.7742 39.9407 26.9759 39.9407C27.3984 39.9407 27.8089 39.7191 28.0315 39.3248L36.0898 25.0507C36.4185 24.4683 36.213 23.7296 35.6306 23.4009Z" fill="#FF8617"/>
<path d="M36.3337 32.563C34.0635 32.563 32.2166 34.4099 32.2166 36.6802C32.2166 38.9504 34.0635 40.7973 36.3337 40.7973C38.604 40.7973 40.4509 38.9504 40.4509 36.6802C40.4509 34.4099 38.604 32.563 36.3337 32.563ZM36.3337 38.3755C35.3989 38.3755 34.6384 37.615 34.6384 36.6802C34.6384 35.7453 35.3989 34.9849 36.3337 34.9849C37.2686 34.9849 38.029 35.7453 38.029 36.6802C38.029 37.615 37.2686 38.3755 36.3337 38.3755Z" fill="#FF8617"/>
<path d="M25.6782 20.8296C23.408 20.8296 21.561 22.6765 21.561 24.9468C21.561 27.217 23.408 29.0639 25.6782 29.0639C27.9485 29.0639 29.7954 27.217 29.7954 24.9468C29.7954 22.6765 27.9485 20.8296 25.6782 20.8296ZM25.6782 26.6421C24.7434 26.6421 23.9829 25.8816 23.9829 24.9468C23.9829 24.0119 24.7434 23.2515 25.6782 23.2515C26.6131 23.2515 27.3735 24.0119 27.3735 24.9468C27.3735 25.8816 26.6131 26.6421 25.6782 26.6421Z" fill="#FF8617"/>
<path d="M7.45562 54.5443C7.2305 54.319 6.91808 54.1895 6.59961 54.1895C6.28113 54.1895 5.96871 54.319 5.74348 54.5443C5.51703 54.7695 5.38867 55.0819 5.38867 55.4004C5.38867 55.7189 5.51703 56.0313 5.74348 56.2565C5.96871 56.4818 6.28113 56.6113 6.59961 56.6113C6.91808 56.6113 7.2305 56.4818 7.45562 56.2565C7.68085 56.0313 7.81054 55.7189 7.81054 55.4004C7.81054 55.0819 7.68097 54.7695 7.45562 54.5443Z" fill="#FF8617"/>
</g>
<defs>
<clipPath id="clip0">
<rect width="62" height="62" fill="white"/>
</clipPath>
</defs>
</svg>
