<svg width="45" height="45" viewBox="0 0 45 45" fill="none" xmlns="http://www.w3.org/2000/svg">
<path d="M26.2504 33.75H18.7505C18.3365 33.75 18.0005 34.0852 18.0005 34.5V39.7499C18.0005 40.1647 18.3365 40.4999 18.7505 40.4999H26.2504C26.6652 40.4999 27.0004 40.1647 27.0004 39.7499V34.5C27.0004 34.0852 26.6652 33.75 26.2504 33.75ZM25.5004 39H19.5003V35.2499H25.5004V39Z" fill="#174782"/>
<path d="M23.25 34.5H21.75V39.75H23.25V34.5Z" fill="#174782"/>
<path d="M29.9999 4.5H15C14.586 4.5 14.25 4.83601 14.25 5.24997V39.7499C14.25 40.1647 14.586 40.4999 15 40.4999H30C30.4148 40.4999 30.75 40.1647 30.75 39.7499V5.24997C30.75 4.83601 30.4147 4.5 29.9999 4.5ZM29.2499 39H15.7499V6.00003H29.2499V39Z" fill="#174782"/>
<path d="M15 7.5H8.99997C8.58601 7.5 8.25 7.83601 8.25 8.24997V39.75C8.25 40.1647 8.58601 40.4999 8.99997 40.4999H15C15.414 40.4999 15.75 40.1647 15.75 39.75V8.24997C15.75 7.83601 15.414 7.5 15 7.5ZM14.2499 39H9.74994V9.00003H14.2499V39Z" fill="#174782"/>
<path d="M9 7.5H6.75V9.00003H9V7.5Z" fill="#174782"/>
<path d="M32.25 4.5H12.75V6.00003H32.25V4.5Z" fill="#174782"/>
<path d="M18.75 30H17.25V32.25H18.75V30Z" fill="#174782"/>
<path d="M21.75 30H20.25V32.25H21.75V30Z" fill="#174782"/>
<path d="M24.75 30H23.25V32.25H24.75V30Z" fill="#174782"/>
<path d="M27.75 30H26.25V32.25H27.75V30Z" fill="#174782"/>
<path d="M18.75 26.25H17.25V28.5H18.75V26.25Z" fill="#174782"/>
<path d="M21.75 26.25H20.25V28.5H21.75V26.25Z" fill="#174782"/>
<path d="M24.75 26.25H23.25V28.5H24.75V26.25Z" fill="#174782"/>
<path d="M27.75 26.25H26.25V28.5H27.75V26.25Z" fill="#174782"/>
<path d="M18.75 22.5H17.25V24.75H18.75V22.5Z" fill="#174782"/>
<path d="M21.75 22.5H20.25V24.75H21.75V22.5Z" fill="#174782"/>
<path d="M24.75 22.5H23.25V24.75H24.75V22.5Z" fill="#174782"/>
<path d="M27.75 22.5H26.25V24.75H27.75V22.5Z" fill="#174782"/>
<path d="M18.75 18.75H17.25V21H18.75V18.75Z" fill="#174782"/>
<path d="M21.75 18.75H20.25V21H21.75V18.75Z" fill="#174782"/>
<path d="M24.75 18.75H23.25V21H24.75V18.75Z" fill="#174782"/>
<path d="M27.75 18.75H26.25V21H27.75V18.75Z" fill="#174782"/>
<path d="M18.75 15H17.25V17.25H18.75V15Z" fill="#174782"/>
<path d="M21.75 15H20.25V17.25H21.75V15Z" fill="#174782"/>
<path d="M24.75 15H23.25V17.25H24.75V15Z" fill="#174782"/>
<path d="M27.75 15H26.25V17.25H27.75V15Z" fill="#174782"/>
<path d="M18.75 11.25H17.25V13.5H18.75V11.25Z" fill="#174782"/>
<path d="M21.75 11.25H20.25V13.5H21.75V11.25Z" fill="#174782"/>
<path d="M24.75 11.25H23.25V13.5H24.75V11.25Z" fill="#174782"/>
<path d="M27.75 11.25H26.25V13.5H27.75V11.25Z" fill="#174782"/>
<path d="M18.75 7.5H17.25V9.75H18.75V7.5Z" fill="#174782"/>
<path d="M21.75 7.5H20.25V9.75H21.75V7.5Z" fill="#174782"/>
<path d="M24.75 7.5H23.25V9.75H24.75V7.5Z" fill="#174782"/>
<path d="M27.75 7.5H26.25V9.75H27.75V7.5Z" fill="#174782"/>
<path d="M12.75 33.75H11.25V36H12.75V33.75Z" fill="#174782"/>
<path d="M12.75 30H11.25V32.25H12.75V30Z" fill="#174782"/>
<path d="M12.75 26.25H11.25V28.5H12.75V26.25Z" fill="#174782"/>
<path d="M12.75 22.5H11.25V24.75H12.75V22.5Z" fill="#174782"/>
<path d="M12.75 18.75H11.25V21H12.75V18.75Z" fill="#174782"/>
<path d="M12.75 15H11.25V17.25H12.75V15Z" fill="#174782"/>
<path d="M12.75 11.25H11.25V13.5H12.75V11.25Z" fill="#174782"/>
<path d="M36 7.5H30C29.5852 7.5 29.25 7.83601 29.25 8.24997V39.75C29.25 40.1647 29.5852 40.4999 30 40.4999H36C36.4148 40.4999 36.75 40.1647 36.75 39.75V8.24997C36.75 7.83601 36.4148 7.5 36 7.5ZM35.25 39H30.75V9.00003H35.25V39Z" fill="#174782"/>
<path d="M38.25 7.5H36V9.00003H38.25V7.5Z" fill="#174782"/>
<path d="M33.75 33.75H32.25V36H33.75V33.75Z" fill="#174782"/>
<path d="M33.75 30H32.25V32.25H33.75V30Z" fill="#174782"/>
<path d="M33.75 26.25H32.25V28.5H33.75V26.25Z" fill="#174782"/>
<path d="M33.75 22.5H32.25V24.75H33.75V22.5Z" fill="#174782"/>
<path d="M33.75 18.75H32.25V21H33.75V18.75Z" fill="#174782"/>
<path d="M33.75 15H32.25V17.25H33.75V15Z" fill="#174782"/>
<path d="M33.75 11.25H32.25V13.5H33.75V11.25Z" fill="#174782"/>
<path d="M9 39H0V40.5H9V39Z" fill="#174782"/>
<path d="M45 39H36V40.5H45V39Z" fill="#174782"/>
<path d="M4.50003 24H3V39.75H4.50003V24Z" fill="#174782"/>
<path d="M1.19982 24.9001L0.299805 26.1001L6.29978 30.6001L7.1998 29.4001L1.19982 24.9001Z" fill="#174782"/>
<path d="M6.29785 24.9003L0.29834 29.402L1.19866 30.6019L7.19817 26.1002L6.29785 24.9003Z" fill="#174782"/>
<path d="M42 24H40.5V39.75H42V24Z" fill="#174782"/>
<path d="M38.6993 24.9007L37.7998 26.1001L43.7998 30.6001L44.6993 29.4007L38.6993 24.9007Z" fill="#174782"/>
<path d="M43.7964 24.9044L37.7959 29.4027L38.6951 30.6022L44.6956 26.1039L43.7964 24.9044Z" fill="#174782"/>
</svg>
