<svg width="62" height="62" viewBox="0 0 62 62" fill="none" xmlns="http://www.w3.org/2000/svg">
<path d="M44.3155 24.4116H42.0967C41.5222 24.4116 41.0564 24.8773 41.0564 25.4519C41.0564 26.0264 41.5221 26.4923 42.0967 26.4923H44.3155C44.89 26.4923 45.3558 26.0265 45.3558 25.4519C45.3557 24.8773 44.89 24.4116 44.3155 24.4116Z" fill="#FF8617"/>
<path d="M44.5888 33.006C44.1786 32.4806 43.5609 32.1792 42.8942 32.1792H19.1057C18.4391 32.1792 17.8215 32.4806 17.4112 33.006C17.0009 33.5316 16.8582 34.2038 17.02 34.8505L17.5749 37.0699C17.8146 38.0286 18.6723 38.6983 19.6606 38.6983H42.3395C43.3278 38.6983 44.1854 38.0286 44.4252 37.0698L44.9801 34.8505C45.1418 34.2036 44.9991 33.5315 44.5888 33.006ZM42.9616 34.3461L42.4067 36.5652C42.399 36.5963 42.3714 36.6178 42.3395 36.6178H19.6606C19.6287 36.6178 19.6009 36.5961 19.5933 36.5653L19.0384 34.3461C19.0359 34.3362 19.0302 34.3132 19.051 34.2866C19.0718 34.26 19.0956 34.26 19.1056 34.26H42.8942C42.9044 34.26 42.928 34.26 42.9489 34.2866C42.9697 34.3132 42.9641 34.3361 42.9616 34.3461Z" fill="#FF8617"/>
<path d="M58.7405 26.492C60.5378 26.492 62 25.0298 62 23.2325C62 21.4353 60.5378 19.9731 58.7405 19.9731H57.6309C56.0103 19.9731 54.6626 21.1622 54.4131 22.7135L51.638 15.0818C51.0126 13.3615 49.3624 12.2057 47.532 12.2057H39.6201L39.0345 9.27806C38.731 7.75967 37.3866 6.65771 35.8383 6.65771H26.1615C24.6132 6.65771 23.269 7.75967 22.9653 9.27806L22.3798 12.2057H14.4679C12.6375 12.2057 10.9873 13.3616 10.3619 15.0817L7.58689 22.7134C7.33755 21.1622 5.98978 19.9731 4.36918 19.9731H3.2596C1.46221 19.9731 0 21.4353 0 23.2325C0 25.0298 1.46221 26.492 3.25948 26.492H4.36906C4.88141 26.492 5.36627 26.3729 5.79809 26.1613L3.41981 29.1343C2.64553 30.1021 2.21916 31.3175 2.21916 32.5568V53.1922C2.21916 54.3777 3.18355 55.3421 4.36906 55.3421H7.69793C8.88344 55.3421 9.84783 54.3777 9.84783 53.1922V48.6844H52.1521V53.1922C52.1521 54.3777 53.1164 55.3421 54.3019 55.3421H57.6308C58.8163 55.3421 59.7807 54.3777 59.7807 53.1922V32.5568C59.7807 31.3175 59.3543 30.1019 58.5801 29.1343L56.2018 26.1613C56.6336 26.3729 57.1185 26.492 57.6308 26.492H58.7405ZM4.36918 24.4115H3.2596C2.60945 24.4115 2.08063 23.8827 2.08063 23.2325C2.08063 22.5824 2.60945 22.0536 3.2596 22.0536H4.36918C5.01934 22.0536 5.54815 22.5824 5.54815 23.2325C5.54815 23.8826 5.01922 24.4115 4.36918 24.4115ZM25.0055 9.68591C25.1153 9.13675 25.6015 8.73811 26.1615 8.73811H35.8383C36.3984 8.73811 36.8846 9.13675 36.9943 9.68591L37.4983 12.2057H24.5015L25.0055 9.68591ZM7.76732 53.1922C7.76732 53.2305 7.7362 53.2616 7.69793 53.2616H4.36906C4.3308 53.2616 4.29968 53.2305 4.29968 53.1922V48.0351C4.96569 48.4463 5.74965 48.6844 6.58823 48.6844H7.7672V53.1922H7.76732ZM43.2752 46.6039H18.7248V44.3153C18.7248 44.2771 18.756 44.2459 18.7942 44.2459H43.2059C43.2442 44.2459 43.2753 44.2771 43.2753 44.3153V46.6039H43.2752ZM57.7002 53.1922C57.7002 53.2305 57.6691 53.2616 57.6308 53.2616H54.3019C54.2637 53.2616 54.2326 53.2305 54.2326 53.1922V48.6844H55.4115C56.2501 48.6844 57.0341 48.4463 57.7001 48.0351V53.1922H57.7002ZM56.9557 30.434C57.4357 31.0342 57.7003 31.7882 57.7003 32.5569V44.3153C57.7003 45.5772 56.6737 46.6039 55.4118 46.6039H45.3557V44.3153C45.3557 43.1298 44.3913 42.1654 43.2058 42.1654H18.7942C17.6087 42.1654 16.6443 43.1298 16.6443 44.3153V46.6039H6.58835C5.32643 46.6039 4.2998 45.5772 4.2998 44.3153V32.5569C4.2998 31.7882 4.56427 31.0342 5.04452 30.434L8.19793 26.492H37.6577C38.2322 26.492 38.6981 26.0263 38.6981 25.4517C38.6981 24.8772 38.2323 24.4114 37.6577 24.4114H9.18327L12.3174 15.7925C12.645 14.8915 13.5093 14.2861 14.4682 14.2861H47.5321C48.4909 14.2861 49.3551 14.8916 49.6828 15.7925L52.817 24.4114H48.7542C48.1797 24.4114 47.7138 24.8771 47.7138 25.4517C47.7138 26.0262 48.1796 26.492 48.7542 26.492H53.8023L56.9557 30.434ZM56.4519 23.2325C56.4519 22.5824 56.9807 22.0536 57.6308 22.0536H58.7404C59.3906 22.0536 59.9194 22.5824 59.9194 23.2325C59.9194 23.8827 59.3906 24.4115 58.7404 24.4115H57.6308C56.9808 24.4115 56.4519 23.8826 56.4519 23.2325Z" fill="#FF8617"/>
<path d="M11.0269 39.9463C9.84134 39.9463 8.87695 40.9107 8.87695 42.0962C8.87695 43.2817 9.84134 44.2461 11.0269 44.2461C12.2124 44.2461 13.1767 43.2817 13.1767 42.0962C13.1767 40.9107 12.2124 39.9463 11.0269 39.9463Z" fill="#FF8617"/>
<path d="M50.9731 39.9463C49.7876 39.9463 48.8232 40.9107 48.8232 42.0962C48.8232 43.2817 49.7876 44.2461 50.9731 44.2461C52.1586 44.2461 53.123 43.2817 53.123 42.0962C53.123 40.9107 52.1585 39.9463 50.9731 39.9463Z" fill="#FF8617"/>
<path d="M10.472 31.0693C8.36877 31.0693 6.65771 32.7804 6.65771 34.8837C6.65771 36.9869 8.36877 38.698 10.472 38.698C12.5753 38.698 14.2864 36.9869 14.2864 34.8837C14.2864 32.7804 12.5753 31.0693 10.472 31.0693ZM10.472 36.6174C9.51601 36.6174 8.73823 35.8397 8.73823 34.8836C8.73823 33.9274 9.51589 33.1497 10.472 33.1497C11.4282 33.1497 12.2059 33.9274 12.2059 34.8836C12.2059 35.8397 11.4281 36.6174 10.472 36.6174Z" fill="#FF8617"/>
<path d="M51.528 31.0693C49.4247 31.0693 47.7136 32.7804 47.7136 34.8837C47.7136 36.9869 49.4247 38.698 51.528 38.698C53.6312 38.698 55.3423 36.9869 55.3423 34.8837C55.3423 32.7804 53.6312 31.0693 51.528 31.0693ZM51.528 36.6174C50.5719 36.6174 49.7941 35.8397 49.7941 34.8836C49.7941 33.9274 50.5718 33.1497 51.528 33.1497C52.484 33.1497 53.2618 33.9274 53.2618 34.8836C53.2618 35.8397 52.4841 36.6174 51.528 36.6174Z" fill="#FF8617"/>
</svg>
