<svg width="55" height="55" viewBox="0 0 55 55" fill="none" xmlns="http://www.w3.org/2000/svg">
<g clip-path="url(#clip0)">
<path d="M34.3789 40.3657H2.90582C2.20591 40.3657 1.63499 39.7859 1.63499 39.0713V15.9288C1.63499 15.2142 2.20591 14.6344 2.90582 14.6344H9.55001C10.0161 14.6344 10.3925 14.2501 10.3925 13.7777C10.3925 13.3053 10.0161 12.9211 9.55001 12.9211H2.90582C1.27505 12.9211 -0.05 14.2712 -0.05 15.9288V39.0714C-0.05 40.729 1.27505 42.0791 2.90582 42.0791H34.3789C34.8451 42.0791 35.2214 41.6949 35.2214 41.2225C35.2214 40.7501 34.8451 40.3657 34.3789 40.3657Z" fill="#174682" stroke="#174682" stroke-width="0.1"/>
<path d="M51.129 12.9211H12.7197C12.2536 12.9211 11.8772 13.3053 11.8772 13.7777C11.8772 14.2501 12.2536 14.6344 12.7197 14.6344H41.9835V14.8532C41.9835 15.3256 42.3599 15.7099 42.826 15.7099C43.2921 15.7099 43.6685 15.3256 43.6685 14.8532V14.6344H51.129C51.8289 14.6344 52.3999 15.2142 52.3999 15.9288V39.0714C52.3999 39.786 51.8289 40.3658 51.129 40.3658H43.6685V40.1282C43.6685 39.6559 43.2921 39.2716 42.826 39.2716C42.3599 39.2716 41.9835 39.6559 41.9835 40.1282V40.3658H37.5487C37.0826 40.3658 36.7062 40.7501 36.7062 41.2225C36.7062 41.6949 37.0826 42.0791 37.5487 42.0791H51.129C52.7598 42.0791 54.0848 40.729 54.0848 39.0714V15.9288C54.0848 14.2712 52.7598 12.9211 51.129 12.9211Z" fill="#174682" stroke="#174682" stroke-width="0.1"/>
<path d="M41.9837 37.4394C41.9837 37.9118 42.3601 38.2961 42.8262 38.2961C43.2923 38.2961 43.6687 37.9118 43.6687 37.4394V36.3639C43.6687 35.8915 43.2923 35.5073 42.8262 35.5073C42.3601 35.5073 41.9837 35.8915 41.9837 36.3639V37.4394Z" fill="#174682" stroke="#174682" stroke-width="0.1"/>
<path d="M41.9837 29.9108C41.9837 30.3831 42.3601 30.7674 42.8262 30.7674C43.2923 30.7674 43.6687 30.3831 43.6687 29.9108V28.8352C43.6687 28.3628 43.2923 27.9786 42.8262 27.9786C42.3601 27.9786 41.9837 28.3628 41.9837 28.8352V29.9108Z" fill="#174682" stroke="#174682" stroke-width="0.1"/>
<path d="M41.9837 26.1463C41.9837 26.6187 42.3601 27.003 42.8262 27.003C43.2923 27.003 43.6687 26.6187 43.6687 26.1463V25.0708C43.6687 24.5984 43.2923 24.2142 42.8262 24.2142C42.3601 24.2142 41.9837 24.5984 41.9837 25.0708V26.1463Z" fill="#174682" stroke="#174682" stroke-width="0.1"/>
<path d="M41.9837 33.675C41.9837 34.1474 42.3601 34.5317 42.8262 34.5317C43.2923 34.5317 43.6687 34.1474 43.6687 33.675V32.5995C43.6687 32.1271 43.2923 31.7428 42.8262 31.7428C42.3601 31.7428 41.9837 32.1271 41.9837 32.5995V33.675Z" fill="#174682" stroke="#174682" stroke-width="0.1"/>
<path d="M41.9837 22.3819C41.9837 22.8543 42.3601 23.2386 42.8262 23.2386C43.2923 23.2386 43.6687 22.8543 43.6687 22.3819V21.3064C43.6687 20.834 43.2923 20.4498 42.8262 20.4498C42.3601 20.4498 41.9837 20.834 41.9837 21.3064V22.3819Z" fill="#174682" stroke="#174682" stroke-width="0.1"/>
<path d="M42.8262 19.4743C43.2923 19.4743 43.6687 19.09 43.6687 18.6177V17.5421C43.6687 17.0698 43.2923 16.6855 42.8262 16.6855C42.3601 16.6855 41.9837 17.0698 41.9837 17.5421V18.6177C41.9837 19.0899 42.3601 19.4743 42.8262 19.4743Z" fill="#174682" stroke="#174682" stroke-width="0.1"/>
<path d="M31.3168 24.8174H28.3313L23.4339 18.9314C22.3818 17.6668 20.8446 16.9415 19.2165 16.9415H18.3276C17.7732 16.9415 17.3831 17.5341 17.5952 18.0565L20.3429 24.8173H16.3251L14.4703 21.9638C13.7635 20.8767 12.5768 20.2275 11.2961 20.2275H9.77414C9.22489 20.2275 8.83467 20.8101 9.03723 21.331L11.5157 27.7048L9.03723 34.0787C8.83467 34.5996 9.22479 35.1822 9.77414 35.1822H11.2962C12.577 35.1822 13.7637 34.5331 14.4704 33.4458L16.3252 30.5924H20.3431L19.7853 31.9649C19.618 32.3766 19.8102 32.8483 20.2146 33.0187C20.6141 33.1868 21.0848 32.9877 21.2498 32.5817L22.0582 30.5925H26.2542L22.2244 35.4358C21.5392 36.2593 20.5657 36.7622 19.5177 36.8434L20.0387 35.5617C20.206 35.15 20.0137 34.6782 19.6094 34.5079C19.205 34.3375 18.7415 34.5331 18.5741 34.9449L17.5952 37.3533C17.3831 37.8757 17.7732 38.4683 18.3276 38.4683H19.2165C20.8446 38.4683 22.3818 37.7431 23.4339 36.4783L28.3312 30.5924H31.3166C33.2235 30.5924 35.0011 29.7238 36.1937 28.2093C36.4258 27.9145 36.4258 27.4951 36.1937 27.2003C35.0011 25.6859 33.2235 24.8174 31.3168 24.8174ZM19.5178 18.5666C20.5658 18.6478 21.5393 19.1507 22.2245 19.974L26.2543 24.8174H22.0583L19.5178 18.5666ZM31.3168 28.9791H21.5272C21.5246 28.9791 21.522 28.9791 21.5194 28.9791H15.8993C15.6333 28.9791 15.3851 29.1149 15.2384 29.3406L13.1485 32.5556C12.7361 33.19 12.0435 33.5689 11.2962 33.5689H10.9402L13.1051 28.0017C13.1792 27.8111 13.1792 27.5986 13.1051 27.408L10.9402 21.8408H11.2962C12.0436 21.8408 12.7361 22.2195 13.1485 22.854L15.2384 26.0691C15.3851 26.2949 15.6333 26.4306 15.8993 26.4306H21.526C21.527 26.4306 21.5279 26.4308 21.5288 26.4308C21.5303 26.4308 21.5316 26.4306 21.533 26.4306H31.3166C32.5124 26.4306 33.64 26.8882 34.4979 27.7048C33.6401 28.5216 32.5125 28.9791 31.3168 28.9791Z" fill="#174682"/>
</g>
<defs>
<clipPath id="clip0">
<rect width="55" height="55" fill="white"/>
</clipPath>
</defs>
</svg>
