<svg width="50" height="50" viewBox="0 0 50 50" fill="none" xmlns="http://www.w3.org/2000/svg">
<path d="M49.1936 8.06458H45.9678C45.5224 8.06458 45.1614 8.42564 45.1614 8.87101C45.1614 9.31639 45.5224 9.67745 45.9678 9.67745H48.3871V40.3226H1.61294V9.67751H42.7419C43.1873 9.67751 43.5484 9.31645 43.5484 8.87108C43.5484 8.4257 43.1873 8.06464 42.7419 8.06464H0.806437C0.361062 8.06458 0 8.4257 0 8.87108V41.1291C0 41.5745 0.361062 41.9356 0.806437 41.9356H49.1935C49.6389 41.9356 49.9999 41.5745 49.9999 41.1291V8.87108C50 8.4257 49.6389 8.06458 49.1936 8.06458Z" fill="#FF8617"/>
<path d="M36.4569 21.7017C36.2605 21.4314 35.9177 21.3101 35.5953 21.3969L32.848 22.1352L31.0593 19.9231C30.8494 19.6633 30.501 19.5599 30.183 19.6632C29.8653 19.7665 29.6442 20.055 29.627 20.3886L29.4802 23.2296L26.8236 24.2471C26.5117 24.3665 26.3057 24.6661 26.3057 25.0002C26.3057 25.3343 26.5117 25.6339 26.8236 25.7533L29.4802 26.7707L29.627 29.6117C29.6442 29.9453 29.8654 30.2338 30.183 30.337C30.265 30.3637 30.349 30.3766 30.4322 30.3766C30.6714 30.3766 30.9035 30.2699 31.0593 30.0771L32.848 27.8651L35.5953 28.6034C35.9176 28.6901 36.2606 28.5689 36.4569 28.2986C36.6533 28.0282 36.6626 27.6649 36.4805 27.3848L34.9294 25.0001L36.4804 22.6155C36.6627 22.3354 36.6533 21.9721 36.4569 21.7017ZM33.2913 24.5604C33.1175 24.8277 33.1175 25.1724 33.2913 25.4399L33.9805 26.4992L32.76 26.1712C32.4521 26.0886 32.1241 26.1951 31.9236 26.4431L31.129 27.4257L31.0638 26.1637C31.0473 25.8452 30.8448 25.5663 30.5469 25.4522L29.3668 25.0001L30.547 24.5481C30.8448 24.434 31.0474 24.1551 31.0638 23.8366L31.129 22.5745L31.9236 23.5572C32.1242 23.8051 32.4524 23.9114 32.76 23.8289L33.9805 23.5009L33.2913 24.5604Z" fill="#FF8617"/>
<path d="M26.6215 30.069C26.3031 29.8135 25.8442 29.8361 25.5526 30.1218C24.204 31.4426 22.4229 32.17 20.5376 32.17C17.1487 32.17 14.1951 29.7647 13.5146 26.4508C13.4278 26.028 13.0248 25.7522 12.6027 25.8169C12.5893 25.819 12.5758 25.8203 12.5624 25.823C12.1261 25.9126 11.8451 26.339 11.9346 26.7752C12.7685 30.8357 16.3866 33.7827 20.5376 33.7827C21.0067 33.7827 21.4706 33.7459 21.9258 33.6738C20.4364 34.5318 18.7259 35 16.9354 35C11.4214 35 6.93538 30.514 6.93538 25C6.93538 19.486 11.4214 15 16.9354 15C18.7259 15 20.4365 15.4682 21.9258 16.3263C21.4706 16.2541 21.0067 16.2173 20.5376 16.2173C16.3866 16.2173 12.7685 19.1644 11.9346 23.2248C11.8451 23.6611 12.1261 24.0874 12.5624 24.177C12.5758 24.1798 12.5893 24.181 12.6027 24.1832C13.0242 24.2478 13.4278 23.9721 13.5146 23.5492C14.1951 20.2353 17.1487 17.8301 20.5376 17.8301C22.4229 17.8301 24.204 18.5574 25.5526 19.8781C25.8442 20.1636 26.3031 20.1863 26.6215 19.9311C26.9398 19.6757 27.0173 19.2227 26.8016 18.8761C24.6641 15.4391 20.9758 13.3872 16.9354 13.3872C10.5321 13.3872 5.32251 18.5968 5.32251 25.0001C5.32251 31.4035 10.5321 36.6131 16.9354 36.6131C20.9758 36.6131 24.664 34.561 26.8016 31.124C27.0173 30.7773 26.9399 30.3243 26.6215 30.069Z" fill="#FF8617"/>
</svg>
