<svg width="47" height="47" viewBox="0 0 47 47" fill="none" xmlns="http://www.w3.org/2000/svg">
<g clip-path="url(#clip0)">
<path d="M46.9136 11.1448C46.7518 10.5433 46.3572 10.0305 45.8172 9.71955C45.2768 9.40711 44.6344 9.3226 44.0317 9.48436C43.4297 9.64651 42.9169 10.0408 42.606 10.5808L42.2144 11.2622C41.8423 11.0485 41.3669 11.1743 41.1493 11.5445L39.16 14.9354L38.4785 14.5438C38.298 14.4394 38.0831 14.4111 37.8819 14.4654C37.6804 14.5201 37.5091 14.6524 37.4054 14.8337C37.1932 15.2081 37.3224 15.6838 37.6953 15.8987L38.3768 16.2903L36.0272 20.4102V2.35717C36.0272 1.05961 34.9751 0.00756836 33.6776 0.00756836H2.3496C1.05204 0.00756836 0 1.05961 0 2.35717V44.65C0 45.9479 1.05204 46.9996 2.3496 46.9996H33.6776C34.9751 46.9996 36.0272 45.9479 36.0272 44.65V32.3696L37.1003 31.0618L37.1549 30.991L43.8592 19.4231L44.5407 19.8147C44.7223 19.9187 44.8546 20.0905 44.9085 20.2928C44.9628 20.4935 44.9346 20.7077 44.8305 20.8878L41.6977 26.3155C41.5796 26.4937 41.5394 26.7125 41.5868 26.9213C41.6343 27.1297 41.7647 27.3098 41.9482 27.4196C42.1287 27.5243 42.3436 27.5527 42.5448 27.4983C42.7463 27.4437 42.9177 27.3113 43.0213 27.1301L46.1541 21.7024C46.4665 21.162 46.551 20.5195 46.3889 19.9168C46.2268 19.3149 45.8325 18.8021 45.2925 18.4912L44.611 18.0996L46.569 14.7082C46.7828 14.3362 46.657 13.8612 46.2872 13.6432L46.6788 12.9617C46.9996 12.413 47.0845 11.7575 46.9136 11.1448ZM43.9609 11.364C44.0645 11.1827 44.2366 11.05 44.4389 10.9961C44.6401 10.9464 44.8527 10.9743 45.034 11.0745C45.2156 11.1781 45.3479 11.3502 45.4023 11.5521C45.452 11.7533 45.424 11.9659 45.3239 12.1472L44.9323 12.8286L43.5693 12.0454L43.9609 11.364ZM34.4608 44.65C34.4608 45.0829 34.1101 45.4332 33.6776 45.4332H2.3496C1.91708 45.4332 1.5664 45.0829 1.5664 44.65V2.35717C1.5664 1.92465 1.91708 1.57397 2.3496 1.57397H33.6776C34.1101 1.57397 34.4608 1.92465 34.4608 2.35717V23.1276L31.7509 27.8268V27.8896V27.9446L30.1061 32.3383L29.2916 33.6852C28.8365 34.481 28.8855 35.4684 29.417 36.2153L27.6548 38.3844L27.1615 37.1472C26.9332 36.6111 26.4261 36.2459 25.8456 36.1996C25.2452 36.1556 24.6727 36.4604 24.3733 36.9828L24.091 37.4604L23.8249 34.3276C23.7637 33.5865 23.1901 32.9903 22.4516 32.9012C21.7135 32.8121 21.0141 33.2542 20.7781 33.9594L18.8515 39.7397C18.7172 40.1481 18.9375 40.5886 19.3452 40.7263C19.4224 40.7428 19.502 40.7454 19.58 40.734C19.9165 40.7351 20.2163 40.5206 20.3242 40.2016L22.2428 34.4217L22.517 37.6012C22.5736 38.2796 23.0612 38.8437 23.7243 38.9974C24.3874 39.1511 25.0735 38.859 25.4226 38.275L25.7125 37.797L26.1982 39.0268C26.4043 39.545 26.8705 39.9148 27.4223 39.997C27.9741 40.0793 28.5279 39.8617 28.8767 39.4261L30.7016 37.0765C30.9031 37.1319 31.1112 37.161 31.3203 37.1629C32.1533 37.1759 32.9311 36.7468 33.3644 36.0348L34.1476 34.7269L34.4921 34.312L34.4608 44.65ZM33.286 33.2312L32.8944 33.0041L31.7353 32.3302L32.8473 29.3542L35.3144 30.7795L33.286 33.2312ZM30.6779 35.2516C30.5379 35.0095 30.5379 34.7108 30.6779 34.4684L31.0695 33.7873L32.4324 34.5705L32.0408 35.2439C31.8794 35.5158 31.5704 35.6642 31.2576 35.6198L30.6779 35.2516ZM36.27 29.5344L33.5602 27.968L39.8258 17.1129L42.5356 18.6793L36.27 29.5344ZM43.3188 17.3244L40.609 15.758L42.1754 13.0482L44.8852 14.6146L43.3188 17.3244Z" fill="#FF8617"/>
<path d="M12.3587 35.1031L9.5865 37.868L7.92603 36.2075C7.62047 35.9039 7.12715 35.9039 6.82159 36.2075C6.67321 36.3548 6.58984 36.5548 6.58984 36.7636C6.58984 36.9724 6.67321 37.1728 6.82159 37.3196L8.48207 38.9801C8.77577 39.2715 9.17272 39.4348 9.5865 39.4344C10.0026 39.4367 10.403 39.2734 10.6986 38.9801L13.4631 36.2075C13.7293 35.8966 13.7113 35.4335 13.4222 35.1444C13.1327 34.8549 12.6696 34.8369 12.3587 35.1031Z" fill="#FF8617"/>
<path d="M9.79001 30.5527C6.11341 30.5527 3.13281 33.5333 3.13281 37.2099C3.13281 40.8869 6.11341 43.8671 9.79001 43.8671C13.4666 43.8671 16.4472 40.8869 16.4472 37.2099C16.443 33.5352 13.4647 30.5573 9.79001 30.5527ZM9.79001 42.3007C6.97845 42.3007 4.69921 40.0215 4.69921 37.2099C4.69921 34.3984 6.97845 32.1191 9.79001 32.1191C12.6016 32.1191 14.8808 34.3984 14.8808 37.2099C14.8766 40.02 12.5997 42.2965 9.79001 42.3007Z" fill="#FF8617"/>
<path d="M7.83203 9.40647H28.1952C28.6277 9.40647 28.9784 9.05617 28.9784 8.62327V5.49047C28.9784 5.05796 28.6277 4.70728 28.1952 4.70728H7.83203C7.39951 4.70728 7.04883 5.05796 7.04883 5.49047V8.62327C7.04883 9.05617 7.39951 9.40647 7.83203 9.40647ZM8.61523 6.27367H27.412V7.84007H8.61523V6.27367Z" fill="#FF8617"/>
<path d="M26.6288 11.7559C26.6288 11.3233 26.2782 10.9727 25.8456 10.9727H10.1816C9.74912 10.9727 9.39844 11.3233 9.39844 11.7559C9.39844 12.1888 9.74912 12.5391 10.1816 12.5391H25.8456C26.2782 12.5391 26.6288 12.1888 26.6288 11.7559Z" fill="#FF8617"/>
<path d="M12.5312 17.2383C12.5312 17.6712 12.8819 18.0215 13.3144 18.0215H30.5448C30.9774 18.0215 31.328 17.6712 31.328 17.2383C31.328 16.8058 30.9774 16.4551 30.5448 16.4551H13.3144C12.8819 16.4551 12.5312 16.8058 12.5312 17.2383Z" fill="#FF8617"/>
<path d="M6.26562 22.7207H21.9296C22.3621 22.7207 22.7128 22.3704 22.7128 21.9375C22.7128 21.505 22.3621 21.1543 21.9296 21.1543H6.26562C5.8331 21.1543 5.48242 21.505 5.48242 21.9375C5.48242 22.3704 5.8331 22.7207 6.26562 22.7207Z" fill="#FF8617"/>
<path d="M30.5446 21.1543H25.0623C24.6297 21.1543 24.2791 21.505 24.2791 21.9375C24.2791 22.3704 24.6297 22.7207 25.0623 22.7207H30.5446C30.9772 22.7207 31.3278 22.3704 31.3278 21.9375C31.3278 21.505 30.9772 21.1543 30.5446 21.1543Z" fill="#FF8617"/>
<path d="M6.26562 26.6367H14.0976C14.5301 26.6367 14.8808 26.2864 14.8808 25.8535C14.8808 25.421 14.5301 25.0703 14.0976 25.0703H6.26562C5.8331 25.0703 5.48242 25.421 5.48242 25.8535C5.48242 26.2864 5.8331 26.6367 6.26562 26.6367Z" fill="#FF8617"/>
<path d="M23.4961 25.8535C23.4961 25.421 23.1454 25.0703 22.7129 25.0703H17.2305C16.7979 25.0703 16.4473 25.421 16.4473 25.8535C16.4473 26.2864 16.7979 26.6367 17.2305 26.6367H22.7129C23.1454 26.6367 23.4961 26.2864 23.4961 25.8535Z" fill="#FF8617"/>
</g>
<defs>
<clipPath id="clip0">
<rect width="47" height="47" fill="white"/>
</clipPath>
</defs>
</svg>
