<svg width="45" height="45" viewBox="0 0 45 45" fill="none" xmlns="http://www.w3.org/2000/svg">
<rect width="45" height="45" fill="white"/>
<path d="M34.5 33C34.0858 33 33.75 32.6642 33.75 32.25V31.5C33.75 31.0858 34.0858 30.75 34.5 30.75C34.9142 30.75 35.25 31.0858 35.25 31.5V32.25C35.25 32.6642 34.9142 33 34.5 33Z" fill="#195C85"/>
<path d="M12.0002 28.5C11.6969 28.5 11.4234 28.3173 11.3073 28.0372C11.1912 27.757 11.2557 27.4344 11.4699 27.2198L13.7199 24.9698C14.0143 24.6856 14.482 24.6896 14.7713 24.9789C15.0606 25.2682 15.0646 25.7359 14.7804 26.0303L12.5304 28.2803C12.3898 28.4209 12.199 28.5 12.0002 28.5Z" fill="white"/>
<path d="M12.7502 31.5001C12.4469 31.5001 12.1734 31.3173 12.0573 31.0372C11.9412 30.757 12.0057 30.4344 12.2199 30.2198L15.9699 26.4698C16.2643 26.1856 16.732 26.1896 17.0213 26.4789C17.3106 26.7682 17.3146 27.2359 17.0304 27.5303L13.2804 31.2803C13.1398 31.421 12.949 31.5001 12.7502 31.5001Z" fill="white"/>
<path d="M44.25 13.5H43.5V5.25C43.5 4.83582 43.1642 4.5 42.75 4.5H30V0.75C30 0.335815 29.6642 0 29.25 0H15.75C15.3358 0 15 0.335815 15 0.75V4.5H2.25C1.83582 4.5 1.5 4.83582 1.5 5.25V13.5H0.75C0.335815 13.5 0 13.8358 0 14.25V17.25C0 17.6642 0.335815 18 0.75 18H1.5V44.25C1.5 44.6642 1.83582 45 2.25 45H42.75C43.1642 45 43.5 44.6642 43.5 44.25V18H44.25C44.6642 18 45 17.6642 45 17.25V14.25C45 13.8358 44.6642 13.5 44.25 13.5ZM30 6H42V13.5H30V6ZM16.5 1.5H28.5V13.5H16.5V1.5ZM3 6H15V13.5H3V6ZM36.75 43.5H27V37.5H36.75V43.5ZM36.75 36H27V28.5H36.75V36ZM36.75 27H27V23.25H36.75V27ZM42 43.5H38.25V22.5C38.25 22.0858 37.9142 21.75 37.5 21.75H26.25C25.8358 21.75 25.5 22.0858 25.5 22.5V43.5H3V18H42V43.5ZM43.5 16.5H1.5V15H43.5V16.5Z" fill="#FF8617"/>
<path d="M7.5 38.25H21C21.4142 38.25 21.75 37.9142 21.75 37.5V33.75C21.75 33.3358 21.4142 33 21 33H20.25V22.5C20.25 22.0858 19.9142 21.75 19.5 21.75H9C8.58581 21.75 8.25 22.0858 8.25 22.5V33H7.5C7.08582 33 6.75 33.3358 6.75 33.75V37.5C6.75 37.9142 7.08582 38.25 7.5 38.25ZM9.75 23.25H18.75V33H9.75V23.25ZM8.25 34.5H20.25V36.75H8.25V34.5Z" fill="#FF8617"/>
<path d="M34.5 33C34.9142 33 35.25 32.6642 35.25 32.25V31.5C35.25 31.0858 34.9142 30.75 34.5 30.75C34.0858 30.75 33.75 31.0858 33.75 31.5V32.25C33.75 32.6642 34.0858 33 34.5 33Z" fill="#FF8617"/>
<path d="M26.25 5.25H24.75V3.75C24.75 3.33582 24.4142 3 24 3H21C20.5858 3 20.25 3.33582 20.25 3.75V5.25H18.75C18.3358 5.25 18 5.58582 18 6V9C18 9.41418 18.3358 9.75 18.75 9.75H20.25V11.25C20.25 11.6642 20.5858 12 21 12H24C24.4142 12 24.75 11.6642 24.75 11.25V9.75H26.25C26.6642 9.75 27 9.41418 27 9V6C27 5.58582 26.6642 5.25 26.25 5.25ZM25.5 8.25H24C23.5858 8.25 23.25 8.58582 23.25 9V10.5H21.75V9C21.75 8.58582 21.4142 8.25 21 8.25H19.5V6.75H21C21.4142 6.75 21.75 6.41418 21.75 6V4.5H23.25V6C23.25 6.41418 23.5858 6.75 24 6.75H25.5V8.25Z" fill="#FF8617"/>
<path d="M12.5304 28.2803L14.7804 26.0303C15.0646 25.7359 15.0606 25.2682 14.7713 24.9789C14.482 24.6896 14.0143 24.6856 13.7199 24.9698L11.4699 27.2198C11.275 27.408 11.1967 27.6871 11.2655 27.9493C11.334 28.2115 11.5387 28.4162 11.8009 28.4847C12.0631 28.5535 12.3422 28.4752 12.5304 28.2803Z" fill="#FF8617"/>
<path d="M15.9699 26.4698L12.2199 30.2198C12.025 30.408 11.9467 30.6871 12.0155 30.9493C12.084 31.2115 12.2887 31.4162 12.5509 31.4847C12.8131 31.5535 13.0922 31.4752 13.2804 31.2803L17.0304 27.5303C17.3146 27.2359 17.3106 26.7682 17.0213 26.4789C16.732 26.1896 16.2643 26.1856 15.9699 26.4698Z" fill="#FF8617"/>
</svg>
