<svg width="52" height="52" viewBox="0 0 52 52" fill="none" xmlns="http://www.w3.org/2000/svg">
<g clip-path="url(#clip0)">
<path d="M31.7815 5.16335C31.4843 4.8658 31.0019 4.8658 30.7043 5.16335L25.2918 10.5759C24.9942 10.8731 24.9942 11.3555 25.2918 11.653C25.5893 11.9506 26.0717 11.9506 26.3689 11.653L31.7815 6.24046C32.079 5.94292 32.079 5.46089 31.7815 5.16335Z" fill="#FF8617"/>
<path d="M26.6013 5.71094C26.6013 6.13147 26.2601 6.47266 25.8396 6.47266C25.4187 6.47266 25.0779 6.13147 25.0779 5.71094C25.0779 5.29041 25.4187 4.94922 25.8396 4.94922C26.2601 4.94922 26.6013 5.29041 26.6013 5.71094Z" fill="#FF8617"/>
<path d="M31.9958 11.1057C31.9958 11.5262 31.6547 11.867 31.2341 11.867C30.8132 11.867 30.4724 11.5262 30.4724 11.1057C30.4724 10.6848 30.8132 10.344 31.2341 10.344C31.6547 10.344 31.9958 10.6848 31.9958 11.1057Z" fill="#FF8617"/>
<path d="M45.4485 29.5416C44.5078 28.326 42.8662 27.8916 41.4566 28.4534C40.6187 26.3372 38.2653 26.0865 36.8327 26.9505L27.704 32.4575C27.026 32.352 26.3329 32.2441 25.6727 32.1413C26.9899 31.4483 27.9341 30.4025 28.48 29.0314C28.8478 28.1078 28.651 27.085 27.9666 26.3622C27.2886 25.6457 26.2881 25.3954 25.3554 25.7088C23.868 26.2087 22.1677 26.5641 20.3018 26.7661C17.5716 27.0608 15.1626 28.5672 13.6935 30.8984L6.53972 41.6081C5.95455 42.4436 5.75261 43.4922 5.9847 44.4852C6.21718 45.4782 6.86385 46.3284 7.75887 46.8175L16.2191 51.4398C16.9126 51.8187 17.6632 52 18.4047 52C19.8512 52 21.2627 51.3097 22.1431 50.0453L24.94 46.0292C26.0286 44.1527 25.2832 42.7507 25.1824 42.5511C25.1824 42.5511 34.0588 40.3235 34.1159 40.2917L44.3837 34.6574C46.9921 33.1601 46.0646 30.3378 45.4485 29.5416ZM37.6194 28.255C38.3736 27.8003 39.5289 27.7805 40.0835 29.1179L33.8715 32.1806C32.681 32.7678 31.3646 32.9868 30.0522 32.8202L37.6194 28.255ZM43.6509 33.3216L33.4693 38.9091L24.0454 41.2649C23.8883 41.1598 16.6297 37.8745 16.6297 37.8745C16.2461 37.7019 15.795 37.8729 15.6224 38.2565C15.4498 38.6398 15.6208 39.0908 16.0045 39.2634L22.921 42.377C23.4312 42.6067 23.8093 43.0478 23.9585 43.5874C24.1077 44.1265 24.0097 44.6994 23.6899 45.1584L20.893 49.1745C20.0067 50.4476 18.3111 50.8467 16.9495 50.1029L8.48924 45.4806C7.22209 44.6455 7.17012 43.4009 7.78743 42.4821L11.4703 37.2227L12.887 37.8606C13.2706 38.0332 13.7217 37.8622 13.8943 37.4785C14.0669 37.0949 13.8959 36.6438 13.5122 36.4712L12.3197 35.9345L14.9821 31.7105C16.202 29.7753 18.2004 28.5252 20.4657 28.2808C22.4406 28.0673 24.2489 27.6877 25.8406 27.1529C26.2095 27.0287 26.5908 27.1247 26.8602 27.4096C27.1363 27.7008 27.2125 28.0967 27.0645 28.468C26.6463 29.5182 25.9132 30.314 24.8848 30.8337C24.2993 31.1297 23.9874 31.7407 24.0902 32.3897C24.1918 33.032 24.6912 33.5307 25.3331 33.6307C26.1937 33.7644 29.1294 34.2214 29.6257 34.2988C31.3126 34.5622 33.0138 34.3019 34.5452 33.547L41.8843 29.9284C42.6968 29.5277 43.689 29.757 44.2436 30.4739C44.5864 30.917 45.1636 32.4274 43.6509 33.3216Z" fill="#FF8617"/>
<path d="M18.7328 17.9881L25.595 23.749C26.4472 24.4647 27.4922 24.8221 28.5368 24.8221C29.5817 24.8221 30.6263 24.4647 31.4785 23.749L33.4026 22.1339C33.7248 21.8633 33.7668 21.3829 33.4963 21.0607C33.2257 20.7386 32.7453 20.6969 32.4231 20.9671L30.499 22.5826C29.362 23.5367 27.7116 23.5367 26.5745 22.5826L19.7123 16.8213C19.3926 16.5531 19.4854 16.2087 19.5215 16.1096C19.5576 16.0104 19.708 15.687 20.1253 15.687H21.9261C22.347 15.687 22.6878 15.3463 22.6878 14.9253V3.26071C22.6878 2.30261 23.4674 1.52344 24.4251 1.52344H32.6485C33.6066 1.52344 34.3857 2.30261 34.3857 3.26071V14.9253C34.3857 15.3463 34.7269 15.687 35.1475 15.687H36.9486C37.3656 15.687 37.5159 16.0104 37.552 16.1096C37.5881 16.2087 37.681 16.5531 37.3616 16.8213L34.9884 18.8137C34.6662 19.0838 34.6242 19.5647 34.8947 19.8868C35.1653 20.209 35.6457 20.2506 35.9679 19.9804L38.3407 17.9881C39.0465 17.3958 39.2984 16.4539 38.9834 15.5883C38.6684 14.723 37.8694 14.1636 36.9486 14.1636H35.9092V3.26071C35.9092 1.46274 34.4464 0 32.6485 0H24.4251C22.6271 0 21.1644 1.46274 21.1644 3.26071V14.1636H20.1249C19.2037 14.1636 18.4051 14.723 18.0901 15.5883C17.7751 16.4539 18.027 17.3958 18.7328 17.9881Z" fill="#FF8617"/>
</g>
<defs>
<clipPath id="clip0">
<rect width="52" height="52" fill="white"/>
</clipPath>
</defs>
</svg>
