<svg width="53" height="53" viewBox="0 0 53 53" fill="none" xmlns="http://www.w3.org/2000/svg">
<g clip-path="url(#clip0)">
<path d="M3.1001 31.7C2.8001 31.7 2.6001 31.8 2.4001 32C2.2001 32.2 2.1001 32.5 2.1001 32.7C2.1001 33 2.2001 33.2 2.4001 33.4C2.6001 33.6 2.9001 33.7 3.1001 33.7C3.4001 33.7 3.6001 33.6 3.8001 33.4C4.0001 33.2 4.1001 32.9 4.1001 32.7C4.1001 32.4 4.0001 32.2 3.8001 32C3.6001 31.9 3.4001 31.7 3.1001 31.7Z" fill="#FF8617" stroke="white" stroke-width="0.2835" stroke-miterlimit="10"/>
<path d="M2.1 28.6C2.1 29.2 2.6 29.6 3.1 29.6C3.6 29.6 4.1 29.1 4.1 28.6V9.09998L4.4 9.39998C4.6 9.59998 4.9 9.69998 5.1 9.69998C5.4 9.69998 5.6 9.59998 5.8 9.39998C6.3 8.99997 6.3 8.39998 5.9 7.99998L3.8 5.89998C3.4 5.49998 2.7 5.49998 2.3 5.89998L0.3 7.99998C-0.1 8.39998 -0.1 9.09998 0.3 9.49998C0.7 9.89998 1.4 9.89998 1.8 9.49998L2.1 9.19998V28.6Z" fill="#FF8617" stroke="white" stroke-width="0.2835" stroke-miterlimit="10"/>
<path d="M52.7001 43.5999L50.6001 41.5C50.2001 41.1 49.5001 41.1 49.1001 41.5C48.7001 41.9 48.7001 42.6 49.1001 43L49.4001 43.2999H45.7001V28.7C45.7001 28.1 45.2001 27.7 44.7001 27.7C44.1001 27.7 43.7001 28.2 43.7001 28.7V43.2H32.5001V36.5999C32.5001 35.9999 32.0001 35.5999 31.5001 35.5999C31.0001 35.5999 30.5001 36.0999 30.5001 36.5999V43.2H21.9001V26.7C21.9001 26.1 21.4001 25.7 20.9001 25.7C20.4001 25.7 19.9001 26.2 19.9001 26.7V43.2999H11.6001V36.7999C11.6001 36.1999 11.1001 35.7999 10.6001 35.7999C10.0001 35.7999 9.6001 36.2999 9.6001 36.7999V43.2999H4.1001V37.2999C4.1001 36.6999 3.6001 36.2999 3.1001 36.2999C2.5001 36.2999 2.1001 36.7999 2.1001 37.2999V44.2999C2.1001 44.9 2.6001 45.2999 3.1001 45.2999H49.5001L49.2001 45.5999C48.8001 45.9999 48.8001 46.6999 49.2001 47.0999C49.4001 47.2999 49.7001 47.4 49.9001 47.4C50.1001 47.4 50.4001 47.2999 50.6001 47.0999L52.7001 45C53.1001 44.6 53.1001 43.9999 52.7001 43.5999Z" fill="#FF8617" stroke="white" stroke-width="0.2835" stroke-miterlimit="10"/>
<path d="M10.4001 34.0999C12.5001 34.0999 14.1001 32.3999 14.1001 30.3999C14.1001 29.6999 13.9001 29.0999 13.6001 28.5999L18.9001 23.2999C19.4001 23.5999 20.1001 23.7999 20.8001 23.7999C21.6001 23.7999 22.3001 23.5999 22.8001 23.1999L28.2001 28.5999C27.9001 29.0999 27.7001 29.7999 27.7001 30.3999C27.7001 32.4999 29.4001 34.0999 31.4001 34.0999C33.4001 34.0999 35.1001 32.3999 35.1001 30.3999C35.1001 29.7999 34.9001 29.0999 34.6001 28.5999L42.6001 20.5999C43.2001 20.9999 43.8001 21.1999 44.6001 21.1999C46.7001 21.1999 48.3001 19.4999 48.3001 17.4999C48.3001 15.4999 46.6001 13.7999 44.6001 13.7999C42.5001 13.7999 40.9001 15.4999 40.9001 17.4999C40.9001 18.0999 41.0001 18.6999 41.3001 19.0999L33.2001 27.1999C32.7001 26.8999 32.0001 26.6999 31.4001 26.6999C30.8001 26.6999 30.1001 26.8999 29.6001 27.1999L24.1001 21.6999C24.3001 21.1999 24.4001 20.6999 24.4001 20.1999C24.4001 18.0999 22.7001 16.4999 20.7001 16.4999C18.7001 16.2999 17.0001 17.9999 17.0001 19.9999C17.0001 20.5999 17.2001 21.1999 17.4001 21.7999L12.1001 27.0999C11.6001 26.7999 11.0001 26.5999 10.3001 26.5999C8.2001 26.5999 6.6001 28.2999 6.6001 30.2999C6.6001 32.2999 8.3001 34.0999 10.4001 34.0999ZM44.7001 15.6999C45.6001 15.6999 46.4001 16.3999 46.4001 17.3999C46.4001 18.2999 45.7001 19.0999 44.7001 19.0999C43.8001 19.0999 43.0001 18.3999 43.0001 17.3999C43.0001 16.3999 43.8001 15.6999 44.7001 15.6999ZM33.1001 30.3999C33.1001 31.2999 32.4001 32.0999 31.4001 32.0999C30.5001 32.0999 29.7001 31.3999 29.7001 30.3999C29.7001 29.4999 30.4001 28.6999 31.4001 28.6999C32.3001 28.6999 33.1001 29.3999 33.1001 30.3999ZM20.8001 18.3999C21.7001 18.3999 22.5001 19.0999 22.5001 20.0999C22.5001 20.9999 21.8001 21.7999 20.8001 21.7999C19.9001 21.7999 19.1001 21.0999 19.1001 20.0999C19.1001 19.0999 19.8001 18.3999 20.8001 18.3999ZM10.4001 28.6999C10.9001 28.6999 11.3001 28.8999 11.6001 29.1999C11.9001 29.4999 12.1001 29.8999 12.1001 30.3999C12.1001 31.2999 11.4001 32.0999 10.4001 32.0999C9.5001 32.0999 8.7001 31.3999 8.7001 30.3999C8.7001 29.3999 9.5001 28.6999 10.4001 28.6999Z" fill="#FF8617" stroke="white" stroke-width="0.2835" stroke-miterlimit="10"/>
<path d="M44 23.7C43.8 23.9 43.7 24.2 43.7 24.4C43.7 24.7 43.8 24.9 44 25.1C44.2 25.3 44.5 25.4 44.7 25.4C45 25.4 45.2 25.3 45.4 25.1C45.6 24.9 45.7 24.6 45.7 24.4C45.7 24.1 45.6 23.9 45.4 23.7C45.2 23.5 44.9 23.4 44.7 23.4C44.4 23.4 44.2 23.5 44 23.7Z" fill="#FF8617" stroke="white" stroke-width="0.2835" stroke-miterlimit="10"/>
</g>
<defs>
<clipPath id="clip0">
<rect width="53" height="53" fill="white"/>
</clipPath>
</defs>
</svg>
