<svg width="45" height="45" viewBox="0 0 45 45" fill="none" xmlns="http://www.w3.org/2000/svg">
<path d="M40.4561 14.7162H36.6318C36.2679 14.7162 35.9727 15.0114 35.9727 15.3754C35.9727 15.7393 36.2679 16.0345 36.6318 16.0345H40.4561C40.82 16.0345 41.1153 15.7393 41.1153 15.3754C41.1153 15.0114 40.82 14.7162 40.4561 14.7162Z" fill="#FF8617"/>
<path d="M36.6318 10.6921H38.368C38.7319 10.6921 39.0272 10.3969 39.0272 10.033C39.0272 9.66869 38.7319 9.37378 38.368 9.37378H36.6318C36.2679 9.37378 35.9727 9.66869 35.9727 10.033C35.9727 10.3969 36.2679 10.6921 36.6318 10.6921Z" fill="#FF8617"/>
<path d="M36.6318 5.34924H38.9833C39.3475 5.34924 39.6424 5.05433 39.6424 4.69006C39.6424 4.32614 39.3475 4.03088 38.9833 4.03088H36.6318C36.2679 4.03088 35.9727 4.32614 35.9727 4.69006C35.9727 5.05433 36.2679 5.34924 36.6318 5.34924Z" fill="#FF8617"/>
<path d="M38.9836 25.4015H36.6318C36.2679 25.4015 35.9727 25.6964 35.9727 26.0607C35.9727 26.4246 36.2679 26.7198 36.6318 26.7198H38.9836C39.3475 26.7198 39.6428 26.4246 39.6428 26.0607C39.6428 25.6964 39.3475 25.4015 38.9836 25.4015Z" fill="#FF8617"/>
<path d="M36.6318 21.377H38.368C38.7319 21.377 39.0272 21.082 39.0272 20.7178C39.0272 20.3539 38.7319 20.0586 38.368 20.0586H36.6318C36.2679 20.0586 35.9727 20.3539 35.9727 20.7178C35.9727 21.082 36.2679 21.377 36.6318 21.377Z" fill="#FF8617"/>
<path d="M33.77 27.2289V5.96249C33.77 2.67483 31.0955 0 27.8075 0C24.5202 0 21.8454 2.67483 21.8454 5.96249V27.2289C19.3824 29.0945 17.9219 32.0162 17.9219 35.1144C17.9219 40.5653 22.3566 45 27.8075 45C33.2588 45 37.6935 40.5653 37.6935 35.1144C37.6935 32.0162 36.2333 29.0945 33.77 27.2289ZM27.8075 43.6816C23.0837 43.6816 19.2402 39.8385 19.2402 35.1144C19.2402 32.3293 20.6025 29.7081 22.8839 28.103C23.0594 27.9794 23.1637 27.7782 23.1637 27.5637V5.96249C23.1637 3.40164 25.247 1.31836 27.8075 1.31836C30.3684 1.31836 32.4516 3.40164 32.4516 5.96249V27.5637C32.4516 27.7782 32.556 27.9794 32.7314 28.103C35.0128 29.7084 36.3751 32.3293 36.3751 35.1144C36.3751 39.8385 32.5316 43.6816 27.8075 43.6816Z" fill="#FF8617"/>
<path d="M30.693 28.5353V5.96253C30.693 4.37123 29.3987 3.0769 27.8074 3.0769C26.2164 3.0769 24.9221 4.37123 24.9221 5.96253V22.8918C24.9221 23.256 25.2173 23.551 25.5813 23.551C25.9452 23.551 26.2405 23.256 26.2405 22.8918V10.6921H29.3746V28.9765C29.3746 29.2518 29.5456 29.4983 29.8035 29.5945C32.0268 30.4226 33.5203 32.5735 33.5203 34.9469C33.5203 38.0972 30.9577 40.6598 27.8074 40.6598C24.6574 40.6598 22.0945 38.0972 22.0945 34.9469C22.0945 32.5735 23.5883 30.4226 25.8113 29.5945C26.0695 29.498 26.2405 29.2518 26.2405 28.9765V25.5292C26.2405 25.1653 25.9452 24.87 25.5813 24.87C25.2173 24.87 24.9221 25.1653 24.9221 25.5292V28.5353C22.4244 29.6607 20.7761 32.1814 20.7761 34.9469C20.7761 38.824 23.9306 41.9781 27.8074 41.9781C31.6845 41.9781 34.8386 38.824 34.8386 34.9469C34.8386 32.1814 33.1907 29.6611 30.693 28.5353ZM26.2405 9.37379V5.96253C26.2405 5.09839 26.9436 4.39526 27.8077 4.39526C28.6715 4.39526 29.3746 5.09839 29.3746 5.96253V9.37379H26.2405Z" fill="#FF8617"/>
<path d="M18.09 14.0774C19.0739 14.1677 19.4986 12.8582 18.6503 12.3539C17.6186 11.7407 17.6169 10.2469 18.6503 9.63271C19.4993 9.12768 19.0729 7.81859 18.09 7.90889C16.8938 8.01978 16.0163 6.81025 16.4904 5.7075C16.8808 4.8001 15.766 3.99123 15.0244 4.64217C14.1225 5.43387 12.7008 4.97382 12.4361 3.80137C12.2185 2.83767 10.8414 2.8387 10.6241 3.80137C10.3597 4.97176 8.93938 5.4349 8.03576 4.64217C7.29384 3.99054 6.17975 4.80044 6.56977 5.7075C7.04458 6.81128 6.16533 8.01944 4.97023 7.90889C3.98661 7.81928 3.56157 9.12803 4.41027 9.63271C5.44333 10.2469 5.44127 11.7411 4.40992 12.3539C3.56192 12.8582 3.98626 14.1673 4.97023 14.0774C6.16499 13.9665 7.04458 15.175 6.56977 16.2788C6.17941 17.1862 7.29418 17.995 8.03576 17.3441C8.93766 16.5524 10.3594 17.0128 10.6241 18.1849C10.8417 19.1486 12.2188 19.1476 12.4361 18.1849C12.7005 17.0145 14.1212 16.551 15.0244 17.3441C15.7667 17.9954 16.8808 17.1855 16.4904 16.2788C16.0166 15.1774 16.8931 13.9668 18.09 14.0774ZM17.219 12.8414C15.8889 13.1806 14.9565 14.4461 15.0461 15.8321C13.7706 15.3247 12.2727 15.8005 11.5304 16.9747C10.7957 15.8125 9.30365 15.3192 8.01447 15.8321C8.10339 14.4591 7.185 13.184 5.84158 12.8414C6.71843 11.7853 6.72873 10.2136 5.84158 9.14485C7.17779 8.80427 8.10373 7.53467 8.01447 6.15416C9.29266 6.66263 10.7895 6.18369 11.5304 5.01193C12.2672 6.17751 13.7607 6.66537 15.0461 6.15416C14.9571 7.52711 15.8755 8.80221 17.219 9.14485C16.3376 10.2064 16.3356 11.7778 17.219 12.8414Z" fill="#FF8617"/>
<path d="M11.5301 7.35876C9.52609 7.35876 7.896 8.98921 7.896 10.9932C7.896 12.9972 9.52609 14.6276 11.5301 14.6276C13.534 14.6276 15.1645 12.9972 15.1645 10.9932C15.1645 8.98921 13.534 7.35876 11.5301 7.35876ZM11.5301 13.3089C10.2533 13.3089 9.21436 12.27 9.21436 10.9932C9.21436 9.71602 10.2533 8.67712 11.5301 8.67712C12.8072 8.67712 13.8461 9.71602 13.8461 10.9932C13.8461 12.27 12.8072 13.3089 11.5301 13.3089Z" fill="#FF8617"/>
</svg>
