<svg width="1540" height="1231" viewBox="0 0 1540 1231" fill="none" xmlns="http://www.w3.org/2000/svg">
<path d="M-116.995 759.428C-116.995 759.428 -48.7322 785.523 -5.73217 807.428C20.2678 820.674 199.005 896.428 344.005 861.429C506.005 812.429 619.005 840.428 619.005 840.428C619.005 840.428 921.857 892.284 1093 797.428C1269.03 699.865 1196.99 472.928 1442.99 371.928L1182.01 366.428L886 353.428C836 383.428 785 419.428 723 489.428C658.162 562.632 573.211 728.428 286 728.428C166 728.428 108 694.579 -78 638.428C-150.575 687.101 -275.342 645.763 -331 589.428L-227.993 723.917C-218.665 730.336 -209.856 737.857 -201.837 746.579C-128.24 823.948 -116.995 759.428 -116.995 759.428Z" fill="white"/>
</svg>
