<svg width="115" height="40" viewBox="0 0 115 40" fill="none" xmlns="http://www.w3.org/2000/svg">
<g opacity="0.6">
<path opacity="0.6" d="M19.2067 0C8.60064 0 0 8.52643 0 19.041C0 29.5555 8.60064 38.0819 19.2067 38.0819C29.8127 38.0819 38.4134 29.5555 38.4134 19.041C38.4134 8.52643 29.8127 0 19.2067 0ZM19.3055 27.7634C14.4474 27.7634 10.5072 23.8572 10.5072 19.041C10.5072 14.2247 14.4474 10.3185 19.3055 10.3185C24.1637 10.3185 28.1039 14.2247 28.1039 19.041C28.1039 23.8572 24.1637 27.7634 19.3055 27.7634Z" fill="url(#paint0_linear)"/>
</g>
<g opacity="0.6">
<path opacity="0.6" d="M24.4319 5.22266C16.7351 5.22266 10.4929 11.411 10.4929 19.0413C10.4929 14.2251 14.4331 10.3189 19.2913 10.3189C24.1494 10.3189 28.0896 14.2251 28.0896 19.0413C28.0896 23.8576 24.1494 27.7638 19.2913 27.7638C14.4331 27.7638 10.4929 23.8576 10.4929 19.0413C10.4929 26.6717 16.7351 32.86 24.4319 32.86C32.1287 32.86 38.3708 26.6717 38.3708 19.0413C38.3708 11.411 32.1287 5.22266 24.4319 5.22266Z" fill="url(#paint1_linear)"/>
</g>
<path d="M48.0027 18.6497H44.7686L44.1472 21.1278H41.2239L44.1049 11.4393C44.1614 11.2153 44.2744 11.0333 44.4438 10.9073C44.6274 10.7673 44.8251 10.6973 45.0652 10.6973H47.7202C47.9603 10.6973 48.158 10.7673 48.3416 10.9073C48.5252 11.0473 48.6382 11.2293 48.6947 11.4393L51.5616 21.1278H48.6382L48.0027 18.6497ZM47.466 16.5916L46.7882 13.9174C46.6752 13.3994 46.6046 13.0354 46.5904 12.8254H46.1809C46.1103 13.2034 46.0397 13.5674 45.9691 13.9174L45.2912 16.5916H47.466Z" fill="#C5C5C5"/>
<path d="M61.2496 21.1275H58.2415L57.493 17.9773C57.4224 17.6693 57.3094 17.4733 57.1682 17.3613C57.0269 17.2493 56.801 17.1933 56.5044 17.1933H55.2051V21.1275H52.3806V10.697C53.3833 10.599 54.7956 10.543 56.6315 10.543C58.1426 10.543 59.2301 10.767 59.8656 11.229C60.5011 11.691 60.8259 12.5031 60.8259 13.6791C60.8259 15.2052 60.1339 16.0592 58.7499 16.1993V16.2833C59.6396 16.4233 60.1763 16.9553 60.3599 17.8793L61.2496 21.1275ZM55.2051 15.1352H56.575C57.1117 15.1352 57.4789 15.0512 57.6625 14.8832C57.8461 14.7152 57.9449 14.3792 57.9449 13.8891C57.9449 13.3991 57.8461 13.0631 57.6625 12.8951C57.4789 12.7271 57.1117 12.6431 56.575 12.6431H55.2051V15.1352Z" fill="#C5C5C5"/>
<path d="M70.5988 12.8954H67.5624V21.1418H64.6956V12.8954H61.6733V10.6973H70.5988V12.8954Z" fill="#C5C5C5"/>
<path d="M78.6627 17.417L76.5584 16.591C75.7393 16.2549 75.1461 15.8489 74.8072 15.3729C74.4683 14.8969 74.2847 14.2668 74.2847 13.4968C74.2847 12.3207 74.5812 11.5367 75.1885 11.1307C75.7817 10.7247 76.855 10.5146 78.3943 10.5146C79.8631 10.5146 81.0917 10.6687 82.0521 10.9767L81.8685 12.8388C80.0749 12.8108 78.9028 12.7968 78.3661 12.7968C77.8718 12.7968 77.547 12.8388 77.3775 12.9228C77.208 13.0068 77.1233 13.1748 77.1233 13.4548C77.1233 13.6928 77.1939 13.8608 77.3351 13.9868C77.4764 14.1128 77.7447 14.2388 78.126 14.3788L80.0608 15.1209C80.9082 15.4569 81.5013 15.8629 81.8402 16.3389C82.1792 16.829 82.3628 17.459 82.3628 18.243C82.3628 19.4191 82.0662 20.2311 81.4731 20.6792C80.8799 21.1272 79.8066 21.3512 78.2531 21.3512C76.9115 21.3512 75.6263 21.1972 74.3976 20.9032L74.5671 18.8871C76.6573 18.9431 77.8718 18.9571 78.239 18.9571C78.7474 18.9571 79.0863 18.9151 79.2558 18.8311C79.4253 18.7471 79.51 18.565 79.51 18.313C79.51 18.075 79.4535 17.893 79.3405 17.781C79.2134 17.655 78.9875 17.529 78.6627 17.417Z" fill="#C5C5C5"/>
<path d="M86.6138 21.1278H83.7751V10.6973H86.6138V21.1278Z" fill="#C5C5C5"/>
<path d="M96.683 12.8954H93.6467V21.1418H90.7798V12.8954H87.7576V10.6973H96.683V12.8954Z" fill="#C5C5C5"/>
<path d="M105.213 18.9717L105.354 21.0158C104.352 21.1278 102.615 21.1838 100.143 21.1838C99.4228 21.1838 98.8438 20.9738 98.406 20.5678C97.9682 20.1617 97.7563 19.6157 97.7563 18.9437V12.8954C97.7563 12.2234 97.9823 11.6773 98.4201 11.2713C98.8579 10.8653 99.4369 10.6553 100.157 10.6553C102.643 10.6553 104.38 10.7113 105.368 10.8233L105.227 12.8674H101.273C100.835 12.8674 100.623 13.0774 100.623 13.5114V14.7855H104.648V16.7316H100.609V18.3137C100.609 18.7477 100.821 18.9577 101.259 18.9577H105.213V18.9717Z" fill="#C5C5C5"/>
<path d="M110.778 17.417L108.673 16.591C107.854 16.2549 107.261 15.8489 106.922 15.3729C106.583 14.8969 106.4 14.2668 106.4 13.4968C106.4 12.3207 106.696 11.5367 107.303 11.1307C107.897 10.7247 108.97 10.5146 110.509 10.5146C111.978 10.5146 113.207 10.6687 114.167 10.9767L113.983 12.8388C112.19 12.8108 111.018 12.7968 110.481 12.7968C109.987 12.7968 109.662 12.8388 109.492 12.9228C109.323 13.0068 109.238 13.1748 109.238 13.4548C109.238 13.6928 109.309 13.8608 109.45 13.9868C109.591 14.1128 109.86 14.2388 110.241 14.3788L112.176 15.1209C113.023 15.4569 113.616 15.8629 113.955 16.3389C114.294 16.829 114.478 17.459 114.478 18.243C114.478 19.4191 114.181 20.2311 113.588 20.6792C112.995 21.1272 111.922 21.3512 110.368 21.3512C109.026 21.3512 107.741 21.1972 106.513 20.9032L106.682 18.8871C108.772 18.9431 109.987 18.9571 110.354 18.9571C110.862 18.9571 111.201 18.9151 111.371 18.8311C111.54 18.7471 111.625 18.565 111.625 18.313C111.625 18.075 111.569 17.893 111.456 17.781C111.314 17.655 111.102 17.529 110.778 17.417Z" fill="#C5C5C5"/>
<path d="M47.946 25.999L46.7315 29.7092C46.7032 29.8072 46.6326 29.8632 46.5196 29.8632H46.0395C45.9265 29.8632 45.8559 29.8072 45.8276 29.6952L45.0509 26.9231C45.0226 26.8531 45.0085 26.7551 44.9661 26.6291C44.9379 26.503 44.9097 26.391 44.8955 26.321H44.8108L44.6555 26.9231L43.8928 29.6952C43.8646 29.8072 43.794 29.8632 43.681 29.8632H43.215C43.102 29.8632 43.0314 29.8072 43.0031 29.7092L41.7886 25.999H42.3252L43.2432 28.9532C43.2714 29.0372 43.3279 29.2332 43.3985 29.5132H43.4974L43.6528 28.9532L44.4295 26.153C44.4577 26.041 44.5283 25.999 44.6272 25.999H45.0933C45.2062 25.999 45.2627 26.055 45.291 26.167L46.0677 28.9532L46.2089 29.5132H46.3219C46.4066 29.2052 46.449 29.0232 46.4631 28.9532L47.3952 25.999H47.946Z" fill="#C5C5C5"/>
<path d="M51.1094 28.1832H49.1605C49.1887 28.6872 49.3158 29.0512 49.5135 29.2332C49.7113 29.4292 50.0502 29.5272 50.5162 29.5272C50.9258 29.5272 51.3636 29.4992 51.8579 29.4292L51.9144 29.7792C51.5754 29.9052 51.0953 29.9752 50.4456 29.9752C49.796 29.9752 49.3299 29.8212 49.0475 29.5132C48.765 29.2052 48.6379 28.6732 48.6379 27.9311C48.6379 27.1891 48.765 26.6571 49.0475 26.3631C49.3158 26.069 49.7677 25.915 50.3891 25.915C50.9399 25.915 51.3495 26.013 51.6178 26.2091C51.8861 26.4051 52.0132 26.7131 52.0274 27.1191C52.0132 27.8191 51.7167 28.1832 51.1094 28.1832ZM49.1605 27.7911H50.9823C51.3212 27.7911 51.4907 27.5671 51.4766 27.1191C51.4766 26.8531 51.3777 26.6571 51.2082 26.5311C51.0388 26.4051 50.7563 26.3491 50.3891 26.3491C49.9372 26.3491 49.6124 26.4611 49.4288 26.6711C49.2593 26.8671 49.1746 27.2451 49.1605 27.7911Z" fill="#C5C5C5"/>
<path d="M53.6234 24.2773V25.8314C53.6234 26.2094 53.6093 26.4755 53.5669 26.6575C54.0894 26.1534 54.5979 25.9014 55.1063 25.9014C55.6006 25.9014 55.9677 26.0554 56.1937 26.3774C56.4197 26.6855 56.5326 27.2035 56.5326 27.9315C56.5326 28.6456 56.4055 29.1496 56.1513 29.4856C55.8971 29.8076 55.4735 29.9756 54.8521 29.9756C54.2589 29.9756 53.6799 29.8916 53.115 29.7096V24.2913H53.6234V24.2773ZM53.6234 27.0075V29.3736C54.0188 29.4856 54.4284 29.5416 54.8521 29.5276C55.2757 29.5276 55.5723 29.4016 55.7418 29.1636C55.9113 28.9256 56.0101 28.5056 56.0101 27.9315C56.0101 27.3435 55.9395 26.9235 55.7841 26.6995C55.6429 26.4615 55.3605 26.3494 54.9792 26.3494C54.7673 26.3494 54.5696 26.4055 54.3719 26.5035C54.1601 26.6015 53.92 26.7695 53.6234 27.0075Z" fill="#C5C5C5"/>
<path d="M60.0913 28.0571H57.6199V27.665H60.0913V28.0571Z" fill="#C5C5C5"/>
<path d="M63.2125 28.2258L62.0262 28.0018C61.7155 27.9458 61.5037 27.8338 61.3625 27.6658C61.2212 27.4978 61.1506 27.2598 61.1506 26.9377C61.1506 26.5037 61.2636 26.2097 61.4896 26.0837C61.7155 25.9437 62.0968 25.8877 62.6476 25.8877C63.2408 25.9017 63.7633 25.9437 64.2435 26.0137L64.2011 26.3777C63.5515 26.3497 63.0572 26.3357 62.7182 26.3357C62.2946 26.3357 61.998 26.3637 61.8709 26.4337C61.7297 26.5037 61.659 26.6717 61.659 26.9517C61.659 27.1758 61.7014 27.3158 61.8003 27.3998C61.885 27.4838 62.0404 27.5538 62.2522 27.5958L63.4526 27.8198C63.7633 27.8898 63.9893 27.9878 64.1305 28.1558C64.2717 28.3098 64.3423 28.5478 64.3423 28.8558C64.3423 29.3039 64.2152 29.5979 63.9751 29.7379C63.7351 29.8779 63.3114 29.9479 62.7182 29.9479C62.1816 29.9479 61.6873 29.9199 61.2354 29.8499L61.2777 29.4719C61.7014 29.5139 62.1533 29.5279 62.6335 29.5139C63.1137 29.5139 63.4385 29.4579 63.5938 29.3879C63.7633 29.3039 63.8339 29.1219 63.8339 28.8558C63.8339 28.6458 63.7774 28.5058 63.6786 28.4218C63.5797 28.3378 63.4385 28.2818 63.2125 28.2258Z" fill="#C5C5C5"/>
<path d="M67.4352 29.4715L67.5059 29.8495C67.2375 29.9055 66.9692 29.9335 66.6867 29.9335C66.0371 29.9335 65.7264 29.6115 65.7264 28.9674V26.4053H65.0203V26.0413L65.7264 25.9993V24.8232H66.2348V25.9993H67.5482V26.3913H66.2348V28.8974C66.2348 29.2755 66.4184 29.4575 66.7997 29.4575H67.4352V29.4715Z" fill="#C5C5C5"/>
<path d="M71.6296 25.999V29.8632H71.2341L71.1918 29.2612C70.5845 29.7232 70.0196 29.9612 69.4547 29.9612C68.7486 29.9612 68.3955 29.6112 68.3955 28.9112V26.013H68.9039V28.7852C68.9039 29.0512 68.9604 29.2472 69.0734 29.3592C69.1864 29.4712 69.37 29.5412 69.6242 29.5412C69.8501 29.5412 70.062 29.4852 70.2879 29.3872C70.5139 29.2892 70.7822 29.1212 71.1212 28.8972V26.013H71.6296V25.999Z" fill="#C5C5C5"/>
<path d="M75.8237 29.8636L75.7673 29.2616C75.2306 29.7236 74.7222 29.9616 74.1997 29.9616C73.7054 29.9616 73.3523 29.7936 73.1263 29.4716C72.9145 29.1496 72.8015 28.6316 72.8015 27.9175C72.8015 27.1895 72.9145 26.6575 73.1546 26.3494C73.3805 26.0414 73.7619 25.8874 74.2703 25.8874C74.7646 25.8874 75.2588 26.0134 75.739 26.2654C75.7108 26.0834 75.7108 25.8314 75.7108 25.5094V24.2773H76.2192V29.8636H75.8237ZM75.7108 28.8976V26.6295C75.16 26.4475 74.7081 26.3494 74.3691 26.3494C73.9878 26.3494 73.7195 26.4615 73.5641 26.6855C73.4088 26.9095 73.3382 27.3295 73.3382 27.9175C73.3382 28.5196 73.4088 28.9396 73.5641 29.1636C73.7195 29.4016 73.9737 29.5136 74.3409 29.5136C74.5668 29.5136 74.7645 29.4716 74.9623 29.3736C75.16 29.2756 75.4001 29.1356 75.7108 28.8976Z" fill="#C5C5C5"/>
<path d="M77.7447 24.375H77.9848C78.0977 24.375 78.1542 24.431 78.1542 24.543V25.005C78.1542 25.117 78.0977 25.173 77.9848 25.173H77.7447C77.6317 25.173 77.5752 25.117 77.5752 25.005V24.543C77.5752 24.431 77.6317 24.375 77.7447 24.375ZM78.1119 29.8633H77.6034V25.9991H78.1119V29.8633Z" fill="#C5C5C5"/>
<path d="M79.7077 26.3634C79.976 26.0554 80.442 25.9014 81.0917 25.9014C81.7413 25.9014 82.2073 26.0554 82.4757 26.3634C82.744 26.6714 82.8852 27.1894 82.8852 27.9455C82.8852 28.6875 82.744 29.2195 82.4757 29.5135C82.2073 29.8076 81.7413 29.9616 81.0917 29.9616C80.442 29.9616 79.976 29.8076 79.7077 29.4995C79.4393 29.1915 79.2981 28.6735 79.2981 27.9315C79.2981 27.1894 79.4252 26.6714 79.7077 26.3634ZM82.0802 26.6854C81.8966 26.4614 81.5718 26.3354 81.0917 26.3354C80.6115 26.3354 80.2867 26.4474 80.1031 26.6854C79.9195 26.9234 79.8348 27.3294 79.8348 27.9315C79.8348 28.5335 79.9195 28.9535 80.1031 29.1775C80.2867 29.4015 80.6115 29.5275 81.0917 29.5275C81.5718 29.5275 81.8966 29.4155 82.0802 29.1775C82.2638 28.9535 82.3486 28.5335 82.3486 27.9315C82.3486 27.3294 82.2497 26.9094 82.0802 26.6854Z" fill="#C5C5C5"/>
<defs>
<linearGradient id="paint0_linear" x1="36.8907" y1="26.4826" x2="1.61685" y2="11.3794" gradientUnits="userSpaceOnUse">
<stop stop-color="#192475"/>
<stop offset="0.1745" stop-color="#1B2878"/>
<stop offset="0.3391" stop-color="#203382"/>
<stop offset="0.4998" stop-color="#284693"/>
<stop offset="0.658" stop-color="#3461AB"/>
<stop offset="0.8145" stop-color="#4384CA"/>
<stop offset="0.9677" stop-color="#56ADEF"/>
<stop offset="1" stop-color="#5AB7F8"/>
</linearGradient>
<linearGradient id="paint1_linear" x1="18.7612" y1="6.41462" x2="29.9395" y2="31.7401" gradientUnits="userSpaceOnUse">
<stop stop-color="#030EA1"/>
<stop offset="0.1038" stop-color="#0715A3"/>
<stop offset="0.2492" stop-color="#1327AA"/>
<stop offset="0.4192" stop-color="#2745B4"/>
<stop offset="0.6079" stop-color="#436EC3"/>
<stop offset="0.8093" stop-color="#65A3D6"/>
<stop offset="1" stop-color="#8BDCEA"/>
</linearGradient>
</defs>
</svg>
