<svg width="1920" height="705" viewBox="0 0 1920 705" fill="none" xmlns="http://www.w3.org/2000/svg">
<path opacity="0.5" d="M682.725 48.8C496.455 91.744 305.296 153.72 119.516 96.624C55.4702 78.08 2.66933 43.432 -43.7758 0H-166C-67.2429 142.496 53.0257 271.328 219.251 334.768C348.319 382.592 486.677 367.952 620.146 344.528C845.038 306.952 1023.97 178.12 1242.51 119.072V50.752C1179.44 47.336 1116.86 44.896 1054.77 39.528C930.595 24.888 806.904 24.888 682.725 48.8Z" fill="url(#paint0_linear)"/>
<path opacity="0.6" d="M1327.89 376.4C1502.39 420.752 1681.47 484.76 1855.52 425.792C1915.52 406.64 1964.98 370.856 2008.5 326H2123C2030.48 473.168 1917.81 606.224 1762.08 671.744C1641.17 721.136 1511.55 706.016 1386.51 681.824C1175.82 643.016 1008.19 509.96 803.458 448.976V378.416C862.542 374.888 921.168 372.368 979.336 366.824C1095.67 351.704 1211.55 351.704 1327.89 376.4Z" fill="url(#paint1_linear)"/>
<defs>
<linearGradient id="paint0_linear" x1="-166" y1="183.112" x2="1242.91" y2="183.112" gradientUnits="userSpaceOnUse">
<stop stop-color="#C7E2F8"/>
<stop offset="1" stop-color="white" stop-opacity="0"/>
</linearGradient>
<linearGradient id="paint1_linear" x1="2123" y1="515.116" x2="803.08" y2="515.116" gradientUnits="userSpaceOnUse">
<stop stop-color="#C7E2F8"/>
<stop offset="1" stop-color="white" stop-opacity="0"/>
</linearGradient>
</defs>
</svg>
