<svg width="24" height="25" viewBox="0 0 24 25" fill="none" xmlns="http://www.w3.org/2000/svg">
<g clip-path="url(#clip0)">
<path d="M12.035 11.2057C13.1019 11.2057 13.9669 10.3407 13.9669 9.27374C13.9669 8.20676 13.1019 7.3418 12.035 7.3418C10.968 7.3418 10.103 8.20676 10.103 9.27374C10.103 10.3407 10.968 11.2057 12.035 11.2057Z" fill="#FD8624"/>
<path d="M12.0007 0.427734C5.37351 0.427734 0.000976562 5.80043 0.000976562 12.4276C0.000976562 19.0546 5.37351 24.4277 12.0007 24.4277C18.6279 24.4277 24.0008 19.0546 24.0008 12.4276C24.0008 5.80043 18.6279 0.427734 12.0007 0.427734ZM11.9758 5.92203C11.9843 5.92203 11.9926 5.92163 12.0009 5.92123C12.0093 5.92163 12.0175 5.92203 12.0261 5.92203C14.048 5.95395 15.6928 7.62509 15.6928 9.64751C15.6928 12.1202 13.0509 14.624 12.0009 15.5211C11.9308 15.4611 11.853 15.3935 11.7698 15.3194C11.7684 15.3181 11.7671 15.3171 11.7659 15.3159C10.604 14.2834 8.30914 11.9522 8.30914 9.64751C8.30906 7.62509 9.95403 5.95403 11.9758 5.92203ZM12.053 19.0079C9.83995 19.0079 7.59945 18.373 7.59945 17.1601C7.59945 16.3088 8.70266 15.7427 10.125 15.4804C10.4001 15.757 10.6605 16.0008 10.889 16.2044C9.33971 16.3774 8.42946 16.8679 8.42946 17.1598C8.42946 17.5185 9.80507 18.1778 12.053 18.1778C14.301 18.1778 15.6768 17.5185 15.6768 17.1598C15.6768 16.8619 14.7282 16.3591 13.1226 16.1957C13.3531 15.9898 13.6156 15.7437 13.8928 15.4643C15.3578 15.7193 16.5067 16.2911 16.5067 17.1601C16.5067 18.373 14.2662 19.0079 12.053 19.0079Z" fill="#FD8624"/>
</g>
<defs>
<clipPath id="clip0">
<rect width="24" height="24" fill="white" transform="translate(0 0.427734)"/>
</clipPath>
</defs>
</svg>
