<svg width="24" height="25" viewBox="0 0 24 25" fill="none" xmlns="http://www.w3.org/2000/svg">
<g clip-path="url(#clip0)">
<path d="M12.0009 0.427734C5.37402 0.427734 0.000976562 5.80079 0.000976562 12.4277C0.000976562 19.0546 5.37402 24.4277 12.0009 24.4277C18.6279 24.4277 24.0008 19.0545 24.0008 12.4277C24.0009 5.80079 18.6279 0.427734 12.0009 0.427734ZM18.3377 17.9371L17.3769 18.8981C17.2054 19.0694 16.7031 19.1763 16.687 19.1763C13.6474 19.2028 10.7207 18.0088 8.57036 15.8583C6.41413 13.7008 5.21881 10.7637 5.25091 7.71387C5.25091 7.71248 5.36091 7.22458 5.5323 7.05483L6.49307 6.09391C6.84465 5.74069 7.52001 5.58108 7.99313 5.73936L8.19523 5.80678C8.66696 5.96491 9.16223 6.4865 9.29256 6.96703L9.77586 8.74087C9.9062 9.22278 9.73041 9.90839 9.37893 10.26L8.73739 10.9016C9.36725 13.2334 11.1968 15.0633 13.529 15.6947L14.1703 15.0529C14.5235 14.6997 15.2089 14.5241 15.6897 14.6542L17.4633 15.1392C17.944 15.2713 18.4654 15.7635 18.6235 16.235L18.6909 16.4401C18.8476 16.9118 18.6893 17.5871 18.3377 17.9371Z" fill="#FD8624"/>
</g>
<defs>
<clipPath id="clip0">
<rect width="24" height="24" fill="white" transform="translate(0 0.427734)"/>
</clipPath>
</defs>
</svg>
