<svg width="23" height="24" viewBox="0 0 23 24" fill="none" xmlns="http://www.w3.org/2000/svg">
<g clip-path="url(#clip0)">
<path d="M11.5007 0C5.14964 0 0.000976562 5.37268 0.000976562 11.9997C0.000976562 18.6267 5.14964 24 11.5007 24C17.8517 24 23.0007 18.6269 23.0007 11.9997C23.0007 5.37244 17.8518 0 11.5007 0ZM12.2949 13.4671C12.2943 13.4986 12.2897 13.5301 12.2855 13.5617C12.2825 13.5854 12.2811 13.6096 12.276 13.6329C12.2709 13.6571 12.2621 13.6811 12.2545 13.7053C12.2456 13.7346 12.2372 13.7638 12.2255 13.7914C12.2233 13.7962 12.2225 13.8013 12.2205 13.8061C12.2032 13.8447 12.1831 13.8808 12.1611 13.9151C12.1597 13.9171 12.1579 13.9192 12.1565 13.9213C12.1314 13.9597 12.1028 13.9946 12.0728 14.0273C12.0644 14.0363 12.0559 14.0443 12.0471 14.0528C12.0206 14.0791 11.9928 14.1032 11.9632 14.1252C11.9541 14.1321 11.9453 14.1393 11.9358 14.1459C11.8978 14.1719 11.858 14.1947 11.8166 14.2134C11.8076 14.2175 11.7983 14.22 11.7892 14.2238C11.7542 14.2379 11.7188 14.2495 11.6822 14.2584C11.6691 14.2617 11.6562 14.2647 11.6428 14.2671C11.5959 14.2761 11.5484 14.2823 11.5002 14.2823C11.4905 14.2823 11.4805 14.2791 11.4708 14.2787C11.4246 14.2769 11.3789 14.2731 11.335 14.2634C11.3213 14.2603 11.3078 14.254 11.2941 14.2501C11.2531 14.2385 11.2131 14.2256 11.1749 14.2078C11.1705 14.2055 11.1659 14.2051 11.1616 14.203L6.75206 12.0326C6.35477 11.8372 6.18457 11.3426 6.37187 10.928C6.55916 10.5137 7.0332 10.3358 7.43049 10.5313L10.7054 12.1428V4.97995C10.7054 4.52163 11.0615 4.15003 11.5007 4.15003C11.94 4.15003 12.2961 4.52163 12.2961 4.97995V13.4521H12.2962C12.2962 13.457 12.2949 13.462 12.2949 13.4671Z" fill="#FD8624"/>
</g>
<defs>
<clipPath id="clip0">
<rect width="23" height="24" fill="white"/>
</clipPath>
</defs>
</svg>
