<svg width="24" height="25" viewBox="0 0 24 25" fill="none" xmlns="http://www.w3.org/2000/svg">
<g clip-path="url(#clip0)">
<path d="M12.0007 0.427734C5.37351 0.427734 0.000976562 5.80043 0.000976562 12.4276C0.000976562 19.0546 5.37351 24.4277 12.0007 24.4277C18.6279 24.4277 24.0008 19.0546 24.0008 12.4276C24.0008 5.80043 18.6279 0.427734 12.0007 0.427734ZM12.0009 4.64266L19.102 9.0707H4.89983L12.0009 4.64266ZM19.1905 16.1417H19.1898C19.1898 16.852 18.6142 17.4275 17.904 17.4275H6.09784C5.38759 17.4275 4.81206 16.8519 4.81206 16.1417V9.35246C4.81206 9.27734 4.81974 9.2043 4.83222 9.13254L11.6169 13.3632C11.6253 13.3684 11.6341 13.3719 11.6427 13.3767C11.6517 13.3817 11.6608 13.3865 11.6699 13.3911C11.7178 13.4158 11.7672 13.4357 11.8177 13.4487C11.8229 13.4502 11.8281 13.4508 11.8333 13.452C11.8886 13.4651 11.9447 13.4732 12.0007 13.4732H12.0011C12.0015 13.4732 12.0019 13.4732 12.0019 13.4732C12.0579 13.4732 12.114 13.4653 12.1693 13.452C12.1745 13.4507 12.1797 13.4502 12.1849 13.4487C12.2353 13.4357 12.2845 13.4158 12.3327 13.3911C12.3418 13.3865 12.3509 13.3817 12.3599 13.3767C12.3684 13.3719 12.3773 13.3684 12.3857 13.3632L19.1704 9.13254C19.1828 9.2043 19.1905 9.27718 19.1905 9.35246V16.1417Z" fill="#FD8624"/>
</g>
<defs>
<clipPath id="clip0">
<rect width="24" height="24" fill="white" transform="translate(0 0.427734)"/>
</clipPath>
</defs>
</svg>
