<svg width="36" height="36" viewBox="0 0 42 42" fill="none" xmlns="http://www.w3.org/2000/svg">
<path d="M35.8485 6.15152C31.8801 2.18308 26.6124 0 21 0C15.3876 0 10.1199 2.18308 6.15152 6.15152C2.18308 10.1199 0 15.3876 0 21C0 26.6124 2.18308 31.8801 6.15152 35.8485C10.1199 39.8169 15.3876 42 21 42C26.6124 42 31.8801 39.8169 35.8485 35.8485C39.8169 31.8801 42 26.6124 42 21C42 15.3876 39.8169 10.1199 35.8485 6.15152ZM34.1604 34.1604C30.6427 37.678 25.9672 39.6136 21 39.6136C16.0328 39.6136 11.3573 37.678 7.83965 34.1604C0.583333 26.904 0.583333 15.096 7.83965 7.83965C11.3573 4.32197 16.0328 2.38636 21 2.38636C25.9672 2.38636 30.6427 4.32197 34.1604 7.83965C41.4167 15.096 41.4167 26.904 34.1604 34.1604Z" fill="#174682"/>
<path d="M30.2544 11.7462C29.786 11.2778 29.0347 11.2778 28.5663 11.7462L21.0006 19.3118L13.435 11.7462C12.9665 11.2778 12.2153 11.2778 11.7468 11.7462C11.2784 12.2146 11.2784 12.9659 11.7468 13.4343L19.3125 21L11.7468 28.5656C11.2784 29.0341 11.2784 29.7853 11.7468 30.2538C11.9766 30.4836 12.286 30.6073 12.5865 30.6073C12.887 30.6073 13.1963 30.4924 13.4261 30.2538L20.9918 22.6881L28.5575 30.2538C28.7873 30.4836 29.0966 30.6073 29.3971 30.6073C29.7065 30.6073 30.007 30.4924 30.2368 30.2538C30.7052 29.7853 30.7052 29.0341 30.2368 28.5656L22.6888 21L30.2544 13.4343C30.7229 12.9659 30.7229 12.2146 30.2544 11.7462Z" fill="#174682"/>
</svg>
