<svg width="22" height="22" viewBox="0 0 22 22" fill="none" xmlns="http://www.w3.org/2000/svg">
<circle cx="11" cy="11" r="11" fill="#D1202A"/>
<path fill-rule="evenodd" clip-rule="evenodd" d="M10.8535 20H11.1256C16.0442 19.9372 20 15.9186 20 11C20 6.03953 15.9814 2 11 2C6.03953 2 2 6.03953 2 11C2 15.9186 5.95581 19.9372 10.8535 20Z" fill="#D1202A"/>
<path fill-rule="evenodd" clip-rule="evenodd" d="M8.21631 6.5C10.707 6.5 12.7163 8.5093 12.7163 11C12.7163 13.4907 10.707 15.5 8.21631 15.5C5.72561 15.5 3.71631 13.4907 3.71631 11C3.71631 8.5093 5.72561 6.5 8.21631 6.5Z" fill="white"/>
<path fill-rule="evenodd" clip-rule="evenodd" d="M8.342 6.5C10.8327 6.5 12.842 8.5093 12.842 11C12.842 13.4907 10.8327 15.5 8.342 15.5C7.81874 15.5 7.29549 15.4163 6.83502 15.2279C6.14432 13.9721 5.76758 12.5279 5.76758 11C5.76758 9.47209 6.14432 8.02791 6.83502 6.75116C7.29549 6.60465 7.81874 6.5 8.342 6.5Z" fill="white"/>
<path fill-rule="evenodd" clip-rule="evenodd" d="M9.47207 7.39999C11.4604 7.39999 13.0721 9.01162 13.0721 11C13.0721 12.9884 11.4604 14.6 9.47207 14.6C7.4837 14.6 5.87207 12.9884 5.87207 11C5.87207 9.01162 7.4837 7.39999 9.47207 7.39999Z" fill="#D1202A"/>
<path fill-rule="evenodd" clip-rule="evenodd" d="M10.686 10.9581L12.8 11.7116L13.1767 10.6442L10.686 10.9581Z" fill="white"/>
<path fill-rule="evenodd" clip-rule="evenodd" d="M10.686 10.9581L12.8419 10.3093L13.1558 11.3977L10.686 10.9581Z" fill="white"/>
<path fill-rule="evenodd" clip-rule="evenodd" d="M12.2767 8.84418L12.2349 11.1046L13.3651 11.1256L12.2767 8.84418Z" fill="white"/>
<path fill-rule="evenodd" clip-rule="evenodd" d="M12.2769 8.84418L13.5536 10.707L12.6327 11.3349L12.2769 8.84418Z" fill="white"/>
<path fill-rule="evenodd" clip-rule="evenodd" d="M12.1931 13.1349L13.5536 11.3349L12.6536 10.6651L12.1931 13.1349Z" fill="white"/>
<path fill-rule="evenodd" clip-rule="evenodd" d="M12.1931 13.1349L12.235 10.8744L13.3652 10.9163L12.1931 13.1349Z" fill="white"/>
<path fill-rule="evenodd" clip-rule="evenodd" d="M14.7884 9.72327L12.6326 10.3721L12.9465 11.4605L14.7884 9.72327Z" fill="white"/>
<path fill-rule="evenodd" clip-rule="evenodd" d="M14.7883 9.72327L13.4069 11.5233L12.5278 10.8326L14.7883 9.72327Z" fill="white"/>
<path fill-rule="evenodd" clip-rule="evenodd" d="M14.7257 12.3814L13.428 10.5186L12.5071 11.1674L14.7257 12.3814Z" fill="white"/>
<path fill-rule="evenodd" clip-rule="evenodd" d="M14.7257 12.3814L12.5908 11.6279L12.9676 10.5605L14.7257 12.3814Z" fill="white"/>
</svg>
