<svg width="22" height="22" viewBox="0 0 22 22" fill="none" xmlns="http://www.w3.org/2000/svg">
<g clip-path="url(#clip0)">
<path d="M11 22.0355C17.0751 22.0355 22 17.1106 22 11.0355C22 4.96036 17.0751 0.0354919 11 0.0354919C4.92487 0.0354919 0 4.96036 0 11.0355C0 17.1106 4.92487 22.0355 11 22.0355Z" fill="#00AFCA"/>
<path d="M13.8165 5.63748C14.0072 5.68627 14.1048 5.5399 14.1536 5.39797C14.2023 5.20724 14.1048 4.19595 14.1048 4.19595C14.1048 4.19595 13.6257 5.10966 13.5769 5.30039C13.5725 5.44232 13.6213 5.58869 13.8165 5.63748Z" fill="#FEC50C"/>
<path d="M14.5838 5.87701C14.7745 5.97459 14.8721 5.87701 14.9697 5.73064C15.0673 5.53992 15.1604 4.52863 15.1604 4.52863C15.1604 4.52863 14.535 5.29596 14.4374 5.49113C14.3443 5.6375 14.3931 5.77943 14.5838 5.87701Z" fill="#FEC50C"/>
<path d="M15.2579 6.21409C15.4486 6.31167 15.5462 6.26288 15.6438 6.11651C15.7414 5.92579 16.0785 4.96329 16.0785 4.96329C16.0785 4.96329 15.3111 5.63748 15.2136 5.77942C15.0628 5.97458 15.0628 6.11651 15.2579 6.21409Z" fill="#FEC50C"/>
<path d="M15.8346 6.69314C15.9809 6.83951 16.1229 6.79072 16.2205 6.69314C16.3668 6.54677 16.8459 5.68185 16.8459 5.68185C16.8459 5.68185 15.9765 6.16532 15.8346 6.30726C15.737 6.40484 15.6882 6.55121 15.8346 6.69314Z" fill="#FEC50C"/>
<path d="M16.3137 7.31851C16.4113 7.46488 16.5532 7.46488 16.6996 7.41609C16.8903 7.31851 17.5157 6.55118 17.5157 6.55118C17.5157 6.55118 16.5532 6.83948 16.3625 6.98585C16.2649 6.98142 16.2206 7.12779 16.3137 7.31851Z" fill="#FEC50C"/>
<path d="M16.6994 7.99273C16.797 8.18345 16.939 8.18345 17.0853 8.1391C17.276 8.04152 18.0478 7.41611 18.0478 7.41611C18.0478 7.41611 17.0365 7.51369 16.8458 7.60683C16.6994 7.65563 16.6019 7.79756 16.6994 7.99273Z" fill="#FEC50C"/>
<path d="M17.134 8.37862C16.9877 8.42741 16.8945 8.52499 16.8945 8.71572C16.9433 8.90644 17.0853 8.95523 17.2316 8.95523C17.4224 8.90644 18.3361 8.42741 18.3361 8.42741C18.3361 8.42741 17.3248 8.32983 17.134 8.37862Z" fill="#FEC50C"/>
<path d="M17.2761 9.19473C17.1297 9.19473 16.9878 9.29231 16.9878 9.48304C16.9878 9.67376 17.1342 9.77135 17.2761 9.77135C17.4668 9.77135 18.4293 9.48304 18.4293 9.48304C18.4293 9.48304 17.4668 9.19473 17.2761 9.19473Z" fill="#FEC50C"/>
<path d="M17.2273 10.0109C17.0809 9.96207 16.939 10.0109 16.8902 10.2504C16.8414 10.4411 16.9878 10.5387 17.1297 10.5875C17.3204 10.6363 18.3317 10.5387 18.3317 10.5387C18.3317 10.5387 17.4224 10.0596 17.2273 10.0109Z" fill="#FEC50C"/>
<path d="M17.0365 10.827C16.8901 10.7782 16.7482 10.7782 16.6506 10.9734C16.553 11.1641 16.6506 11.2617 16.797 11.3593C16.9877 11.4568 17.999 11.55 17.999 11.55C17.999 11.55 17.2272 10.8758 17.0365 10.827Z" fill="#FEC50C"/>
<path d="M16.6996 11.55C16.5532 11.4524 16.4113 11.4524 16.3137 11.6476C16.2161 11.8383 16.2649 11.9359 16.4113 12.0335C16.602 12.131 17.5645 12.4681 17.5645 12.4681C17.5645 12.4681 16.8903 11.6964 16.6996 11.55Z" fill="#FEC50C"/>
<path d="M16.2205 12.2242C16.1229 12.1266 15.9809 12.0778 15.8346 12.2242C15.6882 12.3706 15.737 12.5125 15.8346 12.6101C15.9809 12.7564 16.8459 13.2355 16.8459 13.2355C16.8459 13.2355 16.3624 12.3661 16.2205 12.2242Z" fill="#FEC50C"/>
<path d="M16.0741 13.9052C16.0741 13.9052 15.7858 12.9427 15.6394 12.752C15.5418 12.6056 15.3999 12.5613 15.2535 12.6544C15.0628 12.752 15.1072 12.8939 15.1559 13.0403C15.258 13.2798 16.0741 13.9052 16.0741 13.9052Z" fill="#FEC50C"/>
<path d="M15.1117 14.433C15.1117 14.433 15.0141 13.4217 14.9209 13.231C14.8721 13.0847 14.7302 12.9915 14.535 13.0847C14.3443 13.1822 14.3443 13.3242 14.3887 13.4705C14.4862 13.6169 15.1117 14.433 15.1117 14.433Z" fill="#FEC50C"/>
<path d="M10.9777 13.0891C11.0753 12.9427 11.0753 12.8008 10.8801 12.7032C10.685 12.6057 10.5918 12.6544 10.4942 12.8008C10.3967 12.9915 10.0596 13.954 10.0596 13.954C10.0596 13.954 10.8801 13.2798 10.9777 13.0891Z" fill="#FEC50C"/>
<path d="M10.3035 12.2242C10.1572 12.0778 10.0152 12.1266 9.91764 12.2242C9.77127 12.3706 9.29224 13.2355 9.29224 13.2355C9.29224 13.2355 10.1572 12.7564 10.3035 12.6101C10.4011 12.5125 10.4499 12.3661 10.3035 12.2242Z" fill="#FEC50C"/>
<path d="M9.82433 11.6476C9.72675 11.5012 9.58481 11.5012 9.43844 11.55C9.24772 11.6476 8.62231 12.4149 8.62231 12.4149C8.62231 12.4149 9.58481 12.1266 9.77554 11.9802C9.87312 11.9359 9.92191 11.7895 9.82433 11.6476Z" fill="#FEC50C"/>
<path d="M9.4873 10.9734C9.38972 10.7827 9.24779 10.7827 9.10142 10.827C8.91069 10.9246 8.13892 11.55 8.13892 11.55C8.13892 11.55 9.15021 11.4524 9.34093 11.3593C9.43851 11.2617 9.53609 11.1641 9.4873 10.9734Z" fill="#FEC50C"/>
<path d="M9.24793 10.2504C9.19914 10.0597 9.05721 10.0109 8.91083 10.0109C8.72011 10.0597 7.8064 10.4899 7.8064 10.4899C7.8064 10.4899 8.81769 10.5875 9.00842 10.5387C9.15035 10.5387 9.29672 10.4456 9.24793 10.2504Z" fill="#FEC50C"/>
<path d="M9.15027 9.48307C9.15027 9.29234 9.0039 9.19476 8.86197 9.19476C8.67124 9.19476 7.70874 9.48307 7.70874 9.48307C7.70874 9.48307 8.67124 9.77138 8.86197 9.77138C9.05269 9.77138 9.15027 9.6738 9.15027 9.48307Z" fill="#FEC50C"/>
<path d="M9.24793 8.71129C9.29672 8.52057 9.19914 8.42299 9.00841 8.3742C8.81769 8.32541 7.8064 8.42299 7.8064 8.42299C7.8064 8.42299 8.72011 8.90202 8.91083 8.95081C9.05277 8.95525 9.19914 8.90646 9.24793 8.71129Z" fill="#FEC50C"/>
<path d="M9.48731 7.99276C9.58489 7.80203 9.48731 7.70445 9.34094 7.60687C9.15021 7.50928 8.13892 7.41614 8.13892 7.41614C8.13892 7.41614 8.90626 8.04155 9.10142 8.13913C9.24779 8.18348 9.38973 8.18348 9.48731 7.99276Z" fill="#FEC50C"/>
<path d="M9.43865 7.36734C9.58502 7.46492 9.72695 7.46492 9.82453 7.26976C9.92211 7.07903 9.87332 6.98145 9.72695 6.88387C9.53623 6.78629 8.57373 6.44919 8.57373 6.44919C8.57373 6.44919 9.24792 7.26976 9.43865 7.36734Z" fill="#FEC50C"/>
<path d="M10.3035 6.69314C10.4499 6.54677 10.4011 6.40484 10.3035 6.30726C10.1572 6.16088 9.29224 5.68185 9.29224 5.68185C9.29224 5.68185 9.77127 6.54677 9.91764 6.69314C10.0152 6.79072 10.1616 6.83951 10.3035 6.69314Z" fill="#FEC50C"/>
<path d="M13.0447 12.8984C14.9309 12.8984 16.46 11.3693 16.46 9.48308C16.46 7.59684 14.9309 6.06775 13.0447 6.06775C11.1585 6.06775 9.62939 7.59684 9.62939 9.48308C9.62939 11.3693 11.1585 12.8984 13.0447 12.8984Z" fill="#FEC50C"/>
<path d="M13.0935 5.58872C13.2842 5.58872 13.3818 5.44235 13.3818 5.30041C13.3818 5.10969 13.0935 4.14719 13.0935 4.14719C13.0935 4.14719 12.8052 5.10969 12.8052 5.30041C12.8052 5.44235 12.854 5.58872 13.0935 5.58872Z" fill="#FEC50C"/>
<path d="M13.8164 13.2798C13.6257 13.3286 13.5769 13.4706 13.5769 13.6169C13.6257 13.8077 14.1047 14.7214 14.1047 14.7214C14.1047 14.7214 14.2023 13.7101 14.1535 13.5194C14.1491 13.3774 14.0559 13.2311 13.8164 13.2798Z" fill="#FEC50C"/>
<path d="M12.8052 13.6657C12.8052 13.8564 13.0935 14.8189 13.0935 14.8189C13.0935 14.8189 13.3818 13.8564 13.3818 13.6657C13.3818 13.5193 13.2842 13.3774 13.0935 13.3774C12.854 13.3774 12.8052 13.5193 12.8052 13.6657Z" fill="#FEC50C"/>
<path d="M11.989 13.5194C11.9402 13.7101 12.0378 14.7214 12.0378 14.7214C12.0378 14.7214 12.5168 13.8077 12.5656 13.6169C12.6144 13.4706 12.5656 13.3286 12.3261 13.2798C12.1309 13.2311 11.989 13.3774 11.989 13.5194Z" fill="#FEC50C"/>
<path d="M11.6032 13.0891C11.4125 12.9915 11.3149 13.0891 11.2173 13.2355C11.1198 13.4262 11.0266 14.4375 11.0266 14.4375C11.0266 14.4375 11.652 13.6702 11.7496 13.475C11.7939 13.2798 11.7452 13.1379 11.6032 13.0891Z" fill="#FEC50C"/>
<path d="M10.8804 6.2141C11.0711 6.11652 11.0267 5.97459 10.978 5.82822C10.8804 5.63749 10.113 5.01208 10.113 5.01208C10.113 5.01208 10.4013 5.97459 10.5477 6.16531C10.5921 6.26289 10.7384 6.35604 10.8804 6.2141Z" fill="#FEC50C"/>
<path d="M11.6032 5.87702C11.794 5.77944 11.794 5.6375 11.7496 5.49113C11.652 5.3004 11.0266 4.52863 11.0266 4.52863C11.0266 4.52863 11.1242 5.53992 11.2173 5.73064C11.2661 5.82823 11.4125 5.92581 11.6032 5.87702Z" fill="#FEC50C"/>
<path d="M12.3263 5.63749C12.5171 5.5887 12.5659 5.44676 12.5659 5.30039C12.5171 5.10967 12.038 4.19595 12.038 4.19595C12.038 4.19595 11.9405 5.20725 11.9892 5.39797C11.9892 5.5887 12.1312 5.68628 12.3263 5.63749Z" fill="#FEC50C"/>
<path d="M10.5919 15.2536V15.3024H10.6407L10.6895 15.3468H10.7383L10.8314 15.3956H10.929H11.1242L11.3149 15.4444H11.5056H11.7008H11.7939L11.8915 15.4932H11.9891L12.0822 15.5419H12.131L12.2286 15.5907L12.2774 15.6351L12.3705 15.6839L12.4193 15.6351V15.5907L12.4681 15.4932L12.5169 15.3956L12.5657 15.3024L12.3705 15.2536H12.1798H11.9891L11.7451 15.2048L11.5544 15.1561L11.3637 15.1073L11.1685 15.0585L10.9778 15.0141L10.7871 14.9165L10.5919 14.8678L10.4012 14.7702L10.2104 14.677L10.0641 14.6282L9.9665 14.5307L9.82456 14.4819L9.72698 14.3887L9.53626 14.2911L9.38989 14.1448L9.24795 14.0028L9.05279 13.8565L8.91085 13.7145L8.76448 13.5682L8.62255 13.4262L8.52497 13.2311L8.42739 13.1379L8.38303 13.0403L8.28545 12.9428L8.23666 12.8496L8.18787 12.752L8.09473 12.6544L8.04594 12.5125L7.99715 12.4149L7.89957 12.273L7.85078 12.1266L7.80642 11.9359L7.75763 11.7895L7.70884 11.6476L7.66005 11.5012L7.61126 11.3105L7.56247 11.1153H7.51368H7.46932H7.42053H7.37174V11.1641L7.32295 11.2129V11.2617V11.3105V11.4081V11.5012V11.5988L7.37174 11.7407V11.8383V11.9847L7.42053 12.1754L7.37174 12.0778L7.32295 11.9847L7.27416 11.9359V11.8383L7.18102 11.6476L7.13223 11.4524L7.08344 11.2617L7.03465 11.071L6.98586 10.8758L6.93707 10.7339V10.6851H6.89271H6.84392H6.79513H6.74634V10.7339H6.69755V10.7827V10.827V10.8758V10.9246V10.9734V11.071V11.2129V11.3105L6.74634 11.4524L6.79513 11.55L6.84392 11.6964L6.89271 11.7895L6.93707 11.9359L6.98586 12.029L7.03465 12.1754L7.13223 12.3661L7.22537 12.5613L7.13223 12.5125L7.08344 12.4149L6.98586 12.3173L6.93707 12.273L6.79513 12.0778L6.69755 11.8871L6.60441 11.7407L6.50683 11.5988L6.45804 11.55H6.40925L6.36045 11.5012H6.31166H6.26731H6.21852H6.16973L6.12094 11.55V11.5988V11.6476L6.16973 11.7407L6.21852 11.8383L6.26731 11.9359L6.31166 12.029L6.40925 12.1266L6.45804 12.273L6.55562 12.4149L6.64876 12.5125L6.84392 12.752L6.98586 12.9428L7.03465 13.0403L7.13223 13.0891L7.18102 13.1379L7.22537 13.1867L7.13223 13.1379L7.08344 13.0891H7.03465L6.93707 13.0403L6.84392 12.8984L6.69755 12.8008L6.55562 12.6544L6.45804 12.5613L6.31166 12.4149L6.21852 12.3173L6.16973 12.273H6.12094H6.07215H6.02336V12.3173H5.979V12.3661V12.4149L6.07215 12.5125L6.12094 12.6101L6.16973 12.7032L6.26731 12.8008L6.40925 12.9428L6.60441 13.1379L6.74634 13.2798L6.93707 13.475L7.08344 13.5682L7.22537 13.6657L7.18102 13.7145H7.13223L7.08344 13.6657H7.03465H6.98586L6.93707 13.6169H6.89271L6.84392 13.5682L6.74634 13.5194L6.64876 13.475H6.60441L6.55562 13.4262H6.50683H6.45804V13.475L6.50683 13.5194V13.5682L6.55562 13.6169V13.6657H6.60441L6.64876 13.7145L6.69755 13.8121L6.79513 13.8565L6.89271 13.9053L6.98586 14.0028L7.08344 14.0516L7.18102 14.1004L7.32295 14.1448L7.42053 14.1936L7.56247 14.2911L7.70884 14.3399H7.66005H7.61126H7.46932H7.32295H7.22537H7.13223H7.08344H7.03465V14.3887L7.08344 14.4331L7.13223 14.4819H7.22537L7.27416 14.5307H7.32295H7.37174L7.46932 14.5794H7.56247H7.70884L7.75763 14.6282H7.80642H7.85078H7.89957V14.677H7.85078L7.80642 14.7258H7.70884H7.61126L7.56247 14.7702H7.46932H7.42053V14.819H7.46932L7.51368 14.8678H7.61126L7.80642 14.9165L8.09473 14.9653L7.99715 15.0141L7.85078 15.0585H7.80642H7.75763L7.70884 15.1073L7.75763 15.1561H7.80642L7.89957 15.2048L8.04594 15.2536H8.23666L8.42739 15.3024L8.33424 15.3468H8.23666L8.18787 15.3956H8.13908H8.09473V15.4444H8.18787L8.28545 15.4932L8.42739 15.5419L8.52497 15.5907L8.81327 15.7327L9.05279 15.8303L9.19916 15.879L9.3411 15.9278L9.48747 15.9722L9.6294 16.021L9.82456 16.0698H9.9665L10.1617 16.1186H10.3036H10.2104L10.1129 16.0698H10.0153L9.92214 16.021L9.6294 15.9278L9.3411 15.8303L9.10158 15.7327L8.86206 15.6351L8.71569 15.5907L8.67134 15.5419L8.57376 15.4932L8.52497 15.4444L8.57376 15.3956L8.67134 15.3468L8.71569 15.3024L8.81327 15.2536H8.71569H8.67134H8.57376L8.47618 15.2048L8.42739 15.1561H8.33424L8.28545 15.1073L8.23666 15.0585L8.42739 14.9165H8.38303L8.33424 14.8678H8.28545H8.23666L8.13908 14.819L8.04594 14.7702V14.7258V14.677H8.09473V14.6282H8.13908V14.5794L8.09473 14.5307H8.04594H7.99715V14.4819H7.94836V14.4331V14.3887L7.99715 14.3399V14.2911H7.94836H7.89957L7.85078 14.2423H7.75763L7.70884 14.1936L7.61126 14.1448L7.56247 14.1004L7.46932 14.0516L7.42053 14.0028L7.37174 13.954H7.42053H7.51368H7.61126H7.66005L7.61126 13.9053L7.56247 13.8565L7.46932 13.7633L7.42053 13.7145L7.37174 13.6657L7.32295 13.6169L7.27416 13.5194L7.22537 13.475H7.46932H7.51368V13.4262V13.3774L7.46932 13.3286V13.2311L7.42053 13.1379L7.37174 13.0403L7.32295 12.9915L7.27416 12.8984L7.22537 12.8496H7.27416H7.32295H7.37174H7.42053H7.46932V12.8984H7.51368L7.56247 12.8496V12.8008V12.752H7.61126L7.70884 12.8008L7.75763 12.8496L7.85078 12.9428L7.89957 12.9915L8.04594 13.1379L8.13908 13.2311L8.38303 13.5194L8.57376 13.7633L8.67134 13.9053L8.76448 14.0028L8.81327 14.0516L8.86206 14.1448L8.95964 14.1936L9.00844 14.2423L9.05279 14.2911H9.15037L9.19916 14.3399L9.29674 14.3887L9.3411 14.4331H9.43868L9.53626 14.4819H9.6294L9.67819 14.5307H9.72698L9.77577 14.5794L9.82456 14.6282L9.92214 14.7258L10.0641 14.819L10.2104 14.9653L10.3036 15.1073L10.4012 15.1561L10.45 15.2048L10.4988 15.2536H10.5919Z" fill="#FEC50C"/>
<path d="M11.794 17.3206H12.1798H12.5657H12.9028H13.1911H13.2887H13.3863H13.3375H13.2399H12.7609H12.6145H12.5169H12.4681H12.4194H12.3706L12.3218 17.2718L12.273 17.3206H12.2242H12.1754H11.9359H11.8871H11.8427H11.794L11.8427 17.2718L11.8915 17.223L11.9403 17.1742L11.9891 17.1254H11.8915H11.794L11.8427 17.0766L11.9403 17.0278L12.0379 16.979L12.0867 16.9302H11.9891H11.8915L11.794 16.979H11.6964L11.5988 17.0278L11.5012 17.0766H11.4036H11.306C11.306 17.1254 11.306 17.1742 11.306 17.223C11.306 17.223 11.306 17.2718 11.2573 17.2718C11.2573 17.2718 11.2573 17.223 11.2085 17.223C11.1597 17.223 11.1597 17.223 11.1597 17.2718C11.1109 17.3206 11.0133 17.3206 10.9202 17.2718C10.8714 17.2718 10.8226 17.2718 10.7738 17.2718C10.725 17.2718 10.6762 17.223 10.6274 17.223L10.5298 17.2718L10.4323 17.3206L10.3835 17.3693L10.3347 17.4181L10.2859 17.4669V17.5157V17.5645V17.6133V17.6621V17.7109V17.7597V17.8085V17.8573V17.906V17.8573V17.8085L10.3347 17.7597H10.3835H10.4323H10.4811H10.5298H10.5786L10.725 17.4226V17.4714H10.7738H10.8226H10.8714H10.9202L10.969 17.4226H11.1153H11.2617H11.4081H11.5988L11.794 17.3206Z" fill="#FEC50C"/>
<path d="M20.6428 11.7895L20.594 11.7407H20.5452V11.6964H20.452V11.7407H20.4032H20.3545L20.2569 11.8871L20.1149 12.029L19.9686 12.1754L19.8266 12.3173L19.6315 12.4637L19.4895 12.6101L19.392 12.6544L19.3432 12.7032L19.25 12.752H19.2012L19.25 12.7032L19.2944 12.6544L19.392 12.6101L19.4407 12.5125L19.6315 12.273L19.871 11.9847L19.9686 11.8383L20.0661 11.6964L20.1637 11.55L20.2569 11.4081L20.3545 11.2617L20.4032 11.1641L20.452 11.071L20.4964 10.9734V10.9246V10.8758L20.452 10.827V10.7827H20.4032H20.3545H20.2569H20.2081H20.1637V10.827L20.1149 10.8758L20.0661 10.9246L19.9198 11.071L19.8266 11.2617L19.6803 11.4524L19.5383 11.6964L19.4407 11.7895L19.3432 11.8871L19.25 11.9847L19.1524 12.029L19.2944 11.8383L19.392 11.55L19.4895 11.4524L19.5383 11.3105L19.5827 11.1641L19.6315 11.0222L19.6803 10.8758L19.7291 10.7339L19.7778 10.5875V10.4456L19.8266 10.2992V10.1573V10.1085V10.0109L19.7778 9.9621V9.91331V9.86895H19.7291V9.82016H19.6803H19.6315H19.5827H19.5383L19.4895 9.86895L19.4407 10.0597L19.392 10.2992L19.3432 10.5387L19.25 10.7339L19.2012 10.9734L19.1037 11.1641V11.2617L19.0549 11.3593L19.0061 11.4524L18.9129 11.55L18.9573 11.3593L19.0061 11.2129V11.0222L19.0549 10.8758V10.7827V10.6363V10.5875V10.4944L19.0061 10.4456V10.348H18.9573V10.2992H18.9129H18.8641H18.8153L18.7666 10.348L18.7178 10.5387L18.669 10.7827L18.6246 10.9246L18.5758 11.1153L18.4782 11.3105L18.4295 11.5012L18.3363 11.6964L18.2387 11.8871L18.1899 12.029L18.1411 12.1266L18.048 12.273L17.9992 12.3661L17.9016 12.5125L17.8041 12.6101L17.7109 12.752L17.6621 12.8496L17.467 13.0403L17.325 13.231L17.1343 13.4262L16.9879 13.6169L16.7972 13.7633L16.602 13.9052L16.4113 14.1004L16.2206 14.2423L16.0742 14.2911L15.9323 14.3887L15.7859 14.4819L15.644 14.5794L15.4 14.677L15.1605 14.7702L14.921 14.8677L14.6815 14.9653L14.4863 15.0141L14.2956 15.0585L14.1049 15.1073L13.8609 15.156L13.6702 15.2048H13.4795L13.2843 15.2536H13.0448L12.996 15.3024L12.9472 15.3468L12.854 15.3956L12.7565 15.4931L12.6589 15.5907L12.5657 15.7327L12.4194 15.879L12.2774 16.021L12.2286 16.0698L12.1311 16.1673L12.0335 16.2161L11.9891 16.2605L11.8915 16.3093L11.8428 16.3581L11.7452 16.4069L11.7008 16.4556L11.5544 16.5044L11.3637 16.5488L11.2174 16.5976L11.0754 16.6952H11.0266L10.9778 16.7439H10.929L10.8803 16.7927L10.8315 16.8371H10.7871V16.8859V16.9347V16.9835L10.929 17.081V17.0323L11.0266 16.9835L11.0754 16.9347H11.1242L11.3149 16.8371L11.5057 16.7439H11.5544L11.652 16.6952L11.7008 16.6464L11.794 16.5976L11.9403 16.5044L12.0823 16.4069L12.2286 16.3093L12.3706 16.2161L12.4682 16.1673L12.517 16.0698L12.6145 16.021L12.7077 15.9278L12.7565 15.879H12.8053L12.854 15.8302L12.9028 15.7814L12.996 15.7327H13.0936L13.2355 15.6839L13.4307 15.6351L13.5726 15.5907H13.7678L14.0073 15.5419L14.2468 15.4931H14.4863L14.7303 15.4444H14.7746L14.8722 15.3956H14.9698L15.0186 15.3468L15.1117 15.2536L15.2093 15.1073L15.3069 15.0585L15.4 14.9653L15.5464 14.8677L15.644 14.7702L15.8347 14.677L16.0742 14.5794L16.2649 14.4331L16.5089 14.3399L16.6996 14.2423L16.8903 14.1448L17.0367 14.1004L17.1343 14.0028L17.1786 13.9052L17.2274 13.8121L17.2762 13.7145L17.3738 13.6169L17.4226 13.5194L17.5157 13.4262L17.6621 13.2798L17.7553 13.1867L17.9016 13.0403L17.9992 12.9427L18.0924 12.8984L18.1411 12.8496L18.2387 12.8008H18.2875L18.3807 12.752L18.4295 12.7032H18.527H18.5758L18.669 12.6544H18.7178H18.8153L18.9129 12.7032L18.8641 12.752V12.8496L18.8153 12.9427V12.9915L18.7666 13.0891L18.7178 13.1867L18.6246 13.2798L18.527 13.3774H18.6246L18.669 13.3286H18.7178H18.7666L18.8153 13.2798H18.8641H18.9129H18.9573V13.3286V13.3774V13.4262V13.475L18.9129 13.5194L18.8641 13.5681V13.6169L18.7178 13.7145L18.5758 13.8564H18.669L18.7178 13.9052H18.8153H18.9129L18.8153 14.0028L18.7178 14.0516L18.6246 14.1004L18.527 14.1448L18.4295 14.2423L18.2875 14.2911L18.1899 14.3399L18.0924 14.4331H18.1411L18.1899 14.4819H18.2387H18.2875L18.1899 14.5794L17.9992 14.6282L17.9504 14.677L17.8528 14.7258H17.8041V14.7702V14.8189V14.8677H17.8528V14.9165H17.8041V14.9653H17.7553L17.7109 15.0141L17.6621 15.0585H17.5645L17.467 15.1073H17.4226L17.3738 15.156L17.5157 15.2536L17.467 15.3024L17.4226 15.3468H17.3738L17.325 15.3956H17.2762H17.1343V15.4444L17.1786 15.5419V15.5907V15.6351L17.0855 15.7327L16.9391 15.8302L16.7972 15.9278L16.602 16.021L16.5089 16.0698L16.4113 16.1185L16.3137 16.1673L16.2206 16.2161L16.0742 16.2605H15.9766L15.8347 16.3093H15.6883H15.9323H16.123H16.3625H16.5089L16.6996 16.2605L16.846 16.2161L16.9879 16.1673L17.1343 16.1185L17.2762 16.021L17.467 15.9278L17.6621 15.8302L17.8041 15.7327L17.7109 15.6839L17.6133 15.6351L17.5645 15.5907H17.5157L17.467 15.5419H17.3738L17.4226 15.4931L17.5157 15.4444H17.5645L17.6621 15.3956H17.8041L17.9992 15.3468H18.1411H18.2387L18.2875 15.3024H18.3363H18.3807V15.2536H18.3363V15.2048H18.2387H18.1411H18.0924H17.9992L17.9016 15.156H17.8528L18.048 15.1073L18.1899 15.0585L18.3807 15.0141H18.4782L18.6246 14.9653L18.7178 14.9165H18.7666V14.8677H18.8153L18.8641 14.8189H18.8153H18.7666H18.669H18.5758L18.4782 14.7702H18.3807H18.2875H18.2387L18.2875 14.7258H18.3363L18.4782 14.677L18.6246 14.6282H18.7666L18.8641 14.5794L19.0061 14.5306L19.1037 14.4819L19.2012 14.4331L19.25 14.3887V14.3399H19.2944V14.2911H19.25H19.0549H18.9573H18.8641H18.8153L18.7666 14.2423L19.0549 14.1004L19.2944 13.9052L19.4895 13.8121L19.6803 13.6657L19.7778 13.5681L19.8266 13.5194L19.9198 13.475L19.9686 13.3774L20.0174 13.3286V13.231L20.0661 13.1867V13.0891H20.0174H19.9686H19.9198L19.871 13.1379L19.7291 13.1867L19.6315 13.2798H19.5827L19.5383 13.3286H19.4407L19.392 13.3774H19.3432H19.2944H19.25H19.2012L19.3432 13.231L19.5383 13.0891L19.7291 12.9427L19.9198 12.7032L20.1149 12.5125L20.3057 12.3173L20.4032 12.1754L20.4964 12.0778L20.5452 11.9847L20.6428 11.8871V11.8383V11.7895Z" fill="#FEC50C"/>
<path d="M20.6428 11.7895L20.594 11.7407H20.5452V11.6964H20.4521V11.7407H20.4033H20.3545L20.2569 11.8871L20.115 12.029L19.9686 12.1754L19.8267 12.3173L19.6315 12.4637L19.4896 12.6101L19.392 12.6544L19.3432 12.7032L19.2501 12.752H19.2013L19.2501 12.7032L19.2944 12.6544L19.392 12.6101L19.4408 12.5125L19.6315 12.273L19.871 11.9847L19.9686 11.8383L20.0662 11.6964L20.1638 11.55L20.2569 11.4081L20.3545 11.2617L20.4033 11.1641L20.4521 11.071L20.4964 10.9734V10.9246V10.8758L20.4521 10.827V10.7827H20.4033H20.3545H20.2569H20.2081H20.1638V10.827L20.115 10.8758L20.0662 10.9246L19.9198 11.071L19.8267 11.2617L19.6803 11.4524L19.5384 11.6964L19.4408 11.7895L19.3432 11.8871L19.2501 11.9847L19.1525 12.029L19.2944 11.8383L19.392 11.55L19.4896 11.4524L19.5384 11.3105L19.5827 11.1641L19.6315 11.0222L19.6803 10.8758L19.7291 10.7339L19.7779 10.5875V10.4456L19.8267 10.2992V10.1573V10.1085V10.0109L19.7779 9.9621V9.91331V9.86895H19.7291V9.82016H19.6803H19.6315H19.5827H19.5384L19.4896 9.86895L19.4408 10.0597L19.392 10.2992L19.3432 10.5387L19.2501 10.7339L19.2013 10.9734L19.1037 11.1641V11.2617L19.0549 11.3593L19.0061 11.4524L18.913 11.55L18.9573 11.3593L19.0061 11.2129V11.0222L19.0549 10.8758V10.7827V10.6363V10.5875V10.4944L19.0061 10.4456V10.348H18.9573V10.2992H18.913H18.8642H18.8154L18.7666 10.348L18.7178 10.5387L18.669 10.7827L18.6247 10.9246L18.5759 11.1153L18.4783 11.3105L18.4295 11.5012L18.3364 11.6964L18.2388 11.8871L18.19 12.029L18.1412 12.1266L18.0481 12.273L17.9993 12.3661L17.9017 12.5125L17.8041 12.6101L17.711 12.752L17.6622 12.8496L17.467 13.0403L17.3251 13.231L17.1344 13.4262L16.988 13.6169L16.7973 13.7633L16.6021 13.9052L16.4114 14.1004L16.2206 14.2423L16.0743 14.2911L15.9323 14.3887L15.786 14.4819L15.644 14.5794L15.4001 14.677L15.1606 14.7702L14.921 14.8677L14.6815 14.9653L14.5352 15.0141L14.9698 15.3956L15.0186 15.3468L15.1118 15.2536L15.2093 15.1073L15.3069 15.0585L15.4001 14.9653L15.5464 14.8677L15.644 14.7702L15.8348 14.677L16.0743 14.5794L16.265 14.4331L16.5089 14.3399L16.6997 14.2423L16.8904 14.1448L17.0368 14.1004L17.1344 14.0028L17.1787 13.9052L17.2275 13.8121L17.2763 13.7145L17.3739 13.6169L17.4227 13.5194L17.5158 13.4262L17.6622 13.2798L17.7553 13.1867L17.9017 13.0403L17.9993 12.9427L18.0924 12.8984L18.1412 12.8496L18.2388 12.8008H18.2876L18.3807 12.752L18.4295 12.7032H18.5271H18.5759L18.669 12.6544H18.7178H18.8154L18.913 12.7032L18.8642 12.752V12.8496L18.8154 12.9427V12.9915L18.7666 13.0891L18.7178 13.1867L18.6247 13.2798L18.5271 13.3774H18.6247L18.669 13.3286H18.7178H18.7666L18.8154 13.2798H18.8642H18.913H18.9573V13.3286V13.3774V13.4262V13.475L18.913 13.5194L18.8642 13.5681V13.6169L18.7178 13.7145L18.5759 13.8565H18.669L18.7178 13.9052H18.8154H18.913L18.8154 14.0028L18.7178 14.0516L18.6247 14.1004L18.5271 14.1448L18.4295 14.2423L18.2876 14.2911L18.19 14.3399L18.0924 14.4331H18.1412L18.19 14.4819H18.2388H18.2876L18.19 14.5794L17.9993 14.6282L17.9505 14.677L17.8529 14.7258H17.8041V14.7702V14.819V14.8677H17.8529V14.9165H17.8041V14.9653H17.7553L17.711 15.0141L17.6622 15.0585H17.5646L17.467 15.1073H17.4227L17.3739 15.156L17.5158 15.2536L17.467 15.3024L17.4227 15.3468H17.3739L17.3251 15.3956H17.2763H17.1344V15.4444L17.1787 15.5419V15.5907V15.6351L17.0856 15.7327L16.9392 15.8302L16.7973 15.9278L16.6021 16.021L16.5089 16.0698L16.4114 16.1185L16.3138 16.1673L16.2206 16.2161L16.0743 16.2605H16.0255L16.0743 16.3093H16.1231H16.3626H16.5089L16.6997 16.2605L16.846 16.2161L16.988 16.1673L17.1344 16.1185L17.2763 16.021L17.467 15.9278L17.6622 15.8302L17.8041 15.7327L17.711 15.6839L17.6134 15.6351L17.5646 15.5907H17.5158L17.467 15.5419H17.3739L17.4227 15.4931L17.5158 15.4444H17.5646L17.6622 15.3956H17.8041L17.9993 15.3468H18.1412H18.2388L18.2876 15.3024H18.3364H18.3807V15.2536H18.3364V15.2048H18.2388H18.1412H18.0924H17.9993L17.9017 15.156H17.8529L18.0481 15.1073L18.19 15.0585L18.3807 15.0141H18.4783L18.6247 14.9653L18.7178 14.9165H18.7666V14.8677H18.8154L18.8642 14.819H18.8154H18.7666H18.669H18.5759L18.4783 14.7702H18.3807H18.2876H18.2388L18.2876 14.7258H18.3364L18.4783 14.677L18.6247 14.6282H18.7666L18.8642 14.5794L19.0061 14.5306L19.1037 14.4819L19.2013 14.4331L19.2501 14.3887V14.3399H19.2944V14.2911H19.2501H19.0549H18.9573H18.8642H18.8154L18.7666 14.2423L19.0549 14.1004L19.2944 13.9052L19.4896 13.8121L19.6803 13.6657L19.7779 13.5681L19.8267 13.5194L19.9198 13.475L19.9686 13.3774L20.0174 13.3286V13.231L20.0662 13.1867V13.0891H20.0174H19.9686H19.9198L19.871 13.1379L19.7291 13.1867L19.6315 13.2798H19.5827L19.5384 13.3286H19.4408L19.392 13.3774H19.3432H19.2944H19.2501H19.2013L19.3432 13.231L19.5384 13.0891L19.7291 12.9427L19.9198 12.7032L20.115 12.5125L20.3057 12.3173L20.4033 12.1754L20.4964 12.0778L20.5452 11.9847L20.6428 11.8871V11.8383V11.7895Z" fill="#FEC50C"/>
<path d="M16.5089 16.8371H16.2206L15.9323 16.7927H15.644L15.4 16.744H15.2581L15.1117 16.7927H15.0186H14.921V16.8371V16.8859V16.9347H14.8722V16.9835H14.8234V17.0323H14.7303H14.6815L14.6327 17.0811L14.7303 17.1742L14.6327 17.2718L14.5839 17.3206L14.4863 17.3694L14.4419 17.4182L14.3444 17.4625H14.2468L14.1492 17.5113H14.0073H13.9097H13.7677L13.6702 17.5601H13.5282H13.0448H12.8053H12.5657H12.4194L12.3262 17.6089H12.2286L12.1311 17.6577H12.0335L11.9403 17.7065L11.8427 17.7508L11.7452 17.7996V17.8484L11.7008 17.8972V17.946H11.652L11.6032 17.9948V18.0391V18.0879L11.5544 18.1367L11.6032 18.1855H11.652H11.7008L11.7452 18.1367H11.794H11.8427L11.8915 18.0879H11.9403L12.1311 17.946L12.3262 17.8484L12.2774 18.0879L12.3262 18.1367V18.1855V18.2343H12.3706H12.4194L12.4682 18.1855H12.5169V18.1367L12.6145 18.0391L12.7077 17.946L12.7565 17.8972L12.8053 17.7996L12.854 17.8484V17.8972V17.946V17.9948V18.0879L12.8053 18.1367V18.1855H12.854V18.2343H12.9028H12.9472L12.996 18.1855H13.0448L13.0936 18.1367L13.1423 18.0879L13.1911 17.9948L13.2843 17.946L13.3331 17.8972V17.8484H13.3819L13.4307 17.7996L13.3819 18.1367L13.4307 18.1855H13.4794H13.5282H13.5726H13.6214L13.6702 18.1367H13.719L13.9097 17.8484L13.9585 17.8972V17.946V17.9948L14.0073 18.0391V18.0879H14.0561V18.1367H14.1048H14.1492L14.198 18.0879L14.2468 18.0391H14.2956V17.9948L14.3932 17.8972L14.4419 17.7996L14.5351 17.8972L14.5839 17.9948H14.6327L14.6815 18.0391V17.9948H14.7303H14.7746L14.8234 17.946L14.8722 17.8972L14.921 17.8484L14.9698 17.7996L15.0186 17.7065L15.0629 17.6577H15.1117V17.7065V17.7508V17.7996H15.1605V17.8484H15.2093L15.2581 17.8972L15.3069 17.8484L15.3512 17.7996H15.4V17.7508L15.4976 17.6089L15.5464 17.4625H15.5952L15.644 17.5113L15.7371 17.5601L15.7859 17.6089H15.8347L15.8835 17.6577H15.9323H15.9766H16.0254L16.0742 17.6089V17.5601H16.123V17.5113V17.4625L16.1718 17.4182V17.2718V17.1298L16.2206 17.1742L16.2649 17.223L16.3625 17.2718L16.4113 17.3206H16.5089H16.5532H16.602H16.6996H16.7484L16.846 17.2718L16.8903 17.223L16.9391 17.1742L16.9879 17.1298V17.0811L17.0367 17.0323V16.9835V16.8859H16.7484L16.5089 16.8371Z" fill="#FEC50C"/>
<path d="M1.60107 16.7484C1.62325 16.7839 1.64543 16.8193 1.66761 16.8548L1.67204 16.8593C1.76962 17.0145 1.87164 17.1698 1.97809 17.325C2.04019 17.0988 1.89825 16.846 1.60107 16.7484Z" fill="#FEC50C"/>
<path d="M3.83663 7.02579C3.82776 7.03466 3.82332 7.0391 3.81445 7.04797C3.82776 7.05241 3.83663 7.04797 3.83663 7.02579Z" fill="#FEC50C"/>
<path d="M3.65047 2.85202C3.65491 2.89637 3.6416 2.94073 3.6416 2.94073C3.69039 2.94073 3.73918 2.84315 3.73918 2.79436C3.78797 2.79436 3.83676 2.74557 3.88555 2.69678C3.87668 2.68791 3.86338 2.67904 3.85451 2.67017C3.78354 2.73226 3.71701 2.79436 3.65047 2.85202Z" fill="#FEC50C"/>
<path d="M3.88549 2.70121C3.88549 2.94072 3.73911 3.0383 3.64597 3.0383C3.575 3.0383 3.52621 3.025 3.4996 2.99839C3.46855 3.025 3.4375 3.05605 3.41089 3.08266C3.48629 3.16693 3.61492 3.21129 3.79234 3.18468C3.69476 3.23347 3.69476 3.28226 3.69476 3.3754C3.74355 3.3754 3.79234 3.32661 3.79234 3.32661C3.74355 3.3754 3.69476 3.42419 3.69476 3.56613C3.74355 3.51734 3.79234 3.46855 3.88549 3.51734C3.7879 3.75685 3.93428 4.04516 4.27137 4.14274C4.125 3.99637 4.08065 3.80564 4.08065 3.66371C4.08065 3.13588 4.22702 3.0383 4.22702 2.65242C4.22702 2.58145 4.20484 2.50161 4.16492 2.42621C4.07178 2.50161 3.97863 2.57701 3.88549 2.65685C3.88105 2.67016 3.88549 2.68347 3.88549 2.70121Z" fill="#FEC50C"/>
<path d="M2.00922 5.58429C2.01365 5.57986 2.01809 5.57542 2.02252 5.57099C1.98704 5.56211 1.97817 5.55324 2.00922 5.58429Z" fill="#FEC50C"/>
<path d="M3.646 19.1923C3.646 19.2012 3.646 19.2056 3.65043 19.2145C3.68592 19.2455 3.72584 19.281 3.76132 19.3121C3.75688 19.2633 3.71253 19.2278 3.646 19.1923Z" fill="#FEC50C"/>
<path d="M2.01807 17.3827C2.04468 17.4226 2.07573 17.4625 2.10678 17.5024C2.13339 17.4625 2.15557 17.4093 2.15557 17.3161C2.11565 17.3561 2.08016 17.3915 2.01807 17.3827Z" fill="#FEC50C"/>
<path d="M4.31567 5.63305C4.31567 5.44232 4.26688 5.29595 4.1693 5.10522C4.1693 5.10522 3.59713 3.88547 3.2689 3.21127C3.20237 3.27337 3.14027 3.3399 3.07817 3.40643C3.32213 3.91652 3.82777 4.9899 4.02737 5.39353C4.07616 5.49111 4.07616 5.58426 4.07616 5.68184C4.07616 5.97014 3.83664 6.06772 3.69027 6.06772C3.49954 6.06772 3.35317 5.92135 3.35317 5.77942C3.35317 5.68184 3.40196 5.63305 3.49955 5.63305C3.69027 5.63305 3.69027 5.77942 3.64592 5.92135C3.79229 5.87256 3.83664 5.77498 3.83664 5.68184C3.88543 5.68184 3.98301 5.63305 4.02737 5.58426C3.97858 5.53547 3.92979 5.48668 3.83664 5.48668C3.88543 5.34031 3.78785 5.24716 3.64592 5.24716C3.69471 5.34474 3.69471 5.48668 3.49955 5.48668C3.35317 5.48668 3.26003 5.53547 3.16245 5.58426C3.16245 5.43789 3.16245 4.95885 3.16245 4.95885C3.16245 4.76813 3.40196 4.76813 3.59713 4.81248C3.54834 4.62176 3.4064 4.47539 3.11809 4.52418C3.16688 4.47539 3.26446 4.4266 3.26446 4.28466C3.26446 4.09393 3.11809 3.89877 3.02495 3.84998C2.92737 3.89877 2.78543 4.0895 2.78543 4.28466C2.78543 4.43103 2.88301 4.47539 2.9318 4.52418C2.6435 4.47539 2.49713 4.62176 2.45277 4.81248C2.59914 4.76369 2.88745 4.76369 2.88745 4.95885C2.88745 4.95885 2.88745 5.43789 2.88745 5.58426C2.83866 5.48668 2.69672 5.48668 2.55035 5.48668C2.35963 5.48668 2.35963 5.34031 2.40398 5.24716C2.3064 5.29595 2.21326 5.34474 2.21326 5.48668C2.12455 5.48668 2.07576 5.5266 2.0314 5.57095C2.05358 5.57539 2.08019 5.58426 2.11568 5.58426C2.11568 5.68184 2.16447 5.77498 2.3064 5.82377C2.25761 5.72619 2.20882 5.58426 2.40398 5.58426C2.50156 5.58426 2.55035 5.63305 2.55035 5.73063C2.55035 5.877 2.35963 6.01893 2.21326 6.01893C2.06688 6.06772 1.82737 5.97014 1.82737 5.68184C1.82737 5.58426 1.87616 5.49111 1.92495 5.39353C2.04027 5.13184 2.33745 4.49313 2.59471 3.96087C2.21326 4.41329 1.86729 4.89676 1.56124 5.41127C1.54793 5.47337 1.53906 5.54434 1.53906 5.63748C1.53906 5.97458 1.77858 6.2141 2.16447 6.26289C1.72979 6.26289 1.53906 6.55119 1.53906 6.88829C1.53906 7.07902 1.58785 7.22539 1.68543 7.41611C1.68543 7.41611 2.40842 8.95522 2.69672 9.53184C2.74551 9.62942 2.74551 9.67821 2.74551 9.82014C2.74551 10.0109 2.55479 10.1572 2.35963 10.1572C2.1689 10.1572 1.97374 10.0109 1.97374 9.82014C1.97374 9.58063 2.12011 9.48305 2.21326 9.48305C2.35963 9.48305 2.40398 9.53184 2.40398 9.67377C2.40398 9.77135 2.35519 9.77135 2.3064 9.77135C2.16003 9.77135 2.20882 9.58063 2.20882 9.58063C2.16003 9.58063 2.11124 9.67821 2.11124 9.727C2.06245 9.727 2.01366 9.77579 1.96487 9.82458C2.01366 9.87337 2.06245 9.87337 2.11124 9.87337C2.06245 9.97095 2.11124 10.0197 2.20882 10.0641C2.20882 10.0153 2.20882 9.96651 2.20882 9.96651C2.35519 10.0153 2.54592 9.96651 2.54592 9.727C2.54592 9.48748 2.39955 9.29232 2.06688 9.34111C2.16447 9.29232 2.16447 9.24353 2.16447 9.15039C2.11567 9.15039 2.06688 9.19918 2.06688 9.19918C2.11567 9.15039 2.16447 9.1016 2.16447 8.95966C2.11567 9.00845 2.06688 9.05724 1.97374 9.00845C2.07132 8.76893 1.92495 8.48063 1.58785 8.38305C1.73422 8.52942 1.77858 8.72014 1.77858 8.86208C1.77858 9.3899 1.63221 9.48748 1.63221 9.87337C1.63221 10.0197 1.72979 10.2105 1.87172 10.308C1.77414 10.3568 1.681 10.4056 1.681 10.4544C1.72979 10.5032 1.77858 10.6008 1.87172 10.6008C1.72535 10.6984 1.63221 10.8891 1.63221 11.0355C1.63221 11.4214 1.77858 11.5145 1.77858 12.0468C1.77858 12.1931 1.72979 12.3839 1.58785 12.5258C1.97374 12.4282 2.06688 12.1399 1.97374 11.9004C2.07132 11.8516 2.12011 11.9004 2.16447 11.9492C2.16447 11.8028 2.11567 11.7585 2.06688 11.7097C2.06688 11.7097 2.11567 11.7097 2.16447 11.7585C2.16447 11.6609 2.11567 11.6121 2.06688 11.5677C2.35519 11.6165 2.54592 11.4214 2.54592 11.1818C2.54592 10.9423 2.35519 10.8935 2.20882 10.9423C2.20882 10.8935 2.20882 10.8935 2.20882 10.8447C2.11124 10.8447 2.06245 10.8935 2.11124 11.0355C2.06245 11.0355 2.01366 11.0843 1.96487 11.0843C2.01366 11.133 2.06245 11.133 2.11124 11.1818C2.06245 11.2794 2.11124 11.3282 2.20882 11.3282C2.20882 11.3282 2.16003 11.1375 2.3064 11.1375C2.35519 11.1375 2.40398 11.1863 2.40398 11.2351C2.40398 11.3326 2.35519 11.4258 2.21326 11.4258C2.07132 11.4258 1.97374 11.3282 1.97374 11.0887C1.97374 10.898 2.16447 10.7516 2.35963 10.7516C2.55035 10.7516 2.74551 10.898 2.74551 11.0887C2.74551 11.2351 2.74551 11.2794 2.69672 11.377C2.40842 11.9536 1.68543 13.4927 1.68543 13.4927C1.58785 13.6835 1.53906 13.781 1.53906 14.0205C1.53906 14.3576 1.77858 14.5972 2.16447 14.646C1.72979 14.646 1.53906 14.9343 1.53906 15.2714C1.53906 15.4621 1.58785 15.6085 1.68543 15.7992C1.68543 15.7992 2.40842 17.3383 2.69672 17.9149C2.74551 18.0125 2.74551 18.0613 2.74551 18.2032C2.74551 18.2343 2.74108 18.2609 2.73221 18.2919C2.76326 18.3274 2.7943 18.3585 2.82092 18.3939C2.85196 18.3629 2.87414 18.3274 2.88745 18.3008C2.98503 18.3984 3.12696 18.5403 3.32213 18.5891H3.37092C3.27777 18.6113 3.18463 18.6468 3.10035 18.6955C3.22455 18.8242 3.35317 18.9484 3.4818 19.0726C3.49067 19.0726 3.50398 19.0726 3.51285 19.0726C3.75237 19.0726 3.89874 19.1701 3.89874 19.4097C3.89874 19.423 3.89874 19.4363 3.89874 19.4451C4.00075 19.5339 4.10721 19.6181 4.21366 19.7024C4.22696 19.627 4.23584 19.5516 4.23584 19.454C4.23584 19.2145 4.08946 19.0681 3.94753 18.975C4.0939 18.975 4.13825 18.9262 4.18704 18.8286C4.13825 18.7798 4.08946 18.6822 3.99632 18.6822C4.14269 18.5847 4.23584 18.3939 4.23584 18.2476C4.23584 17.8617 4.08946 17.7685 4.08946 17.2363C4.08946 17.0899 4.13825 16.8992 4.28019 16.7572C3.8943 16.8548 3.80116 17.1431 3.8943 17.3826C3.79672 17.4314 3.74793 17.3826 3.70358 17.3339C3.70358 17.4802 3.75237 17.5246 3.80116 17.5734C3.80116 17.5734 3.75237 17.5734 3.70358 17.5246C3.70358 17.6222 3.75237 17.6709 3.80116 17.7153C3.51285 17.6665 3.32213 17.8617 3.32213 18.1012C3.32213 18.3407 3.51285 18.3895 3.65922 18.3407C3.65922 18.3895 3.65922 18.3895 3.65922 18.4383C3.7568 18.4383 3.80559 18.3895 3.7568 18.2476C3.80559 18.2476 3.85438 18.1988 3.90317 18.1988C3.85438 18.15 3.80559 18.15 3.7568 18.1012C3.80559 18.0036 3.7568 17.9548 3.65922 17.9548C3.65922 17.9548 3.70801 18.1455 3.56164 18.1455C3.51285 18.1455 3.46406 18.0968 3.46406 18.048C3.46406 17.9504 3.51285 17.8572 3.65479 17.8572C3.80116 17.8572 3.8943 17.9548 3.8943 18.1943C3.8943 18.3851 3.70358 18.5314 3.50842 18.5314C3.31769 18.5314 3.12253 18.3851 3.12253 18.1943C3.12253 18.048 3.12253 18.0036 3.17132 17.906C3.45963 17.3294 4.18261 15.7903 4.18261 15.7903C4.28019 15.5996 4.32898 15.502 4.32898 15.2625C4.32898 14.9254 4.08946 14.6859 3.70358 14.6371C4.13825 14.6371 4.32898 14.3488 4.32898 14.0117C4.32898 13.821 4.28019 13.6746 4.18261 13.4839C4.18261 13.4839 3.45963 11.9447 3.17132 11.3681C3.12253 11.2705 3.12253 11.2218 3.12253 11.0798C3.12253 10.8891 3.31325 10.7427 3.50842 10.7427C3.69914 10.7427 3.8943 10.8891 3.8943 11.0798C3.8943 11.3193 3.74793 11.4169 3.65479 11.4169C3.50842 11.4169 3.46406 11.3681 3.46406 11.2262C3.46406 11.1286 3.51285 11.1286 3.56164 11.1286C3.70801 11.1286 3.65922 11.3193 3.65922 11.3193C3.70801 11.3193 3.7568 11.2218 3.7568 11.173C3.80559 11.173 3.85438 11.1242 3.90317 11.0754C3.85438 11.0266 3.80559 11.0266 3.7568 11.0266C3.80559 10.929 3.7568 10.8802 3.65922 10.8359C3.65922 10.8847 3.65922 10.9335 3.65922 10.9335C3.51285 10.8847 3.32213 10.9822 3.32213 11.173C3.32213 11.4125 3.4685 11.6076 3.80116 11.5589C3.70358 11.6076 3.70358 11.6564 3.70358 11.7496C3.75237 11.7496 3.80116 11.7008 3.80116 11.7008C3.75237 11.7496 3.70358 11.7984 3.70358 11.9403C3.75237 11.8915 3.80116 11.8427 3.8943 11.8915C3.79672 12.131 3.94309 12.4193 4.28019 12.5169C4.13382 12.3705 4.08946 12.1798 4.08946 12.0379C4.08946 11.5101 4.23584 11.4125 4.23584 11.0266C4.23584 10.8802 4.13825 10.6895 3.99632 10.5919C4.0939 10.5431 4.18704 10.4943 4.18704 10.4455C4.13825 10.3968 4.08946 10.2992 3.99632 10.2992C4.14269 10.2016 4.23584 10.0109 4.23584 9.8645C4.23584 9.47861 4.08946 9.38547 4.08946 8.85321C4.08946 8.70684 4.13825 8.51611 4.28019 8.37418C3.8943 8.47176 3.80116 8.76006 3.8943 8.99958C3.79672 9.04837 3.74793 8.99958 3.70358 8.95079C3.70358 9.09716 3.75237 9.14151 3.80116 9.1903C3.80116 9.1903 3.75237 9.19031 3.70358 9.14152C3.70358 9.2391 3.75237 9.28789 3.80116 9.33224C3.51285 9.28345 3.32213 9.47861 3.32213 9.71813C3.32213 9.95764 3.51285 10.0064 3.65922 9.95764C3.65922 10.0064 3.65922 10.0064 3.65922 10.0552C3.7568 10.0552 3.80559 10.0064 3.7568 9.8645C3.80559 9.8645 3.85438 9.81571 3.90317 9.81571C3.85438 9.76692 3.80559 9.76692 3.7568 9.71813C3.80559 9.62055 3.7568 9.57176 3.65922 9.57176C3.65922 9.57176 3.70801 9.76248 3.56164 9.76248C3.51285 9.76248 3.46406 9.71369 3.46406 9.6649C3.46406 9.56732 3.51285 9.47418 3.65479 9.47418C3.80116 9.47418 3.8943 9.57176 3.8943 9.81127C3.8943 10.002 3.70358 10.1484 3.50842 10.1484C3.31769 10.1484 3.12253 10.002 3.12253 9.81127C3.12253 9.6649 3.12253 9.62055 3.17132 9.52297C3.45963 8.94635 4.18261 7.40724 4.18261 7.40724C4.28019 7.21652 4.32898 7.11893 4.32898 6.87942C4.32898 6.54232 4.08946 6.30281 3.70358 6.25401C4.12495 6.25845 4.31567 5.97014 4.31567 5.63305ZM2.92293 5.82377C3.02051 6.11208 3.30882 6.25845 3.54834 6.30281C3.30882 6.3516 3.02051 6.49353 2.92293 6.78184C2.82535 6.49353 2.53705 6.34716 2.29753 6.30281C2.53705 6.25845 2.82535 6.11208 2.92293 5.82377ZM4.02737 15.1072C4.02737 15.2048 3.97858 15.298 3.97858 15.3955C3.78785 15.8302 3.06487 17.2718 2.92293 17.6089C2.77656 17.3205 2.1068 15.879 1.86729 15.3955C1.8185 15.298 1.76971 15.2048 1.76971 15.1072C1.76971 14.8189 2.00922 14.7214 2.15559 14.7214C2.34632 14.7214 2.49269 14.8677 2.49269 15.0097C2.49269 15.1072 2.4439 15.156 2.34632 15.156C2.15559 15.156 2.15559 15.0097 2.19995 14.8677C2.05358 14.9165 2.00922 15.0141 2.00922 15.1072C1.96043 15.1072 1.86285 15.156 1.8185 15.2048C1.86729 15.2536 1.91608 15.3024 2.00922 15.3024C1.96043 15.4488 2.05801 15.5419 2.19995 15.5419C2.15116 15.4443 2.15116 15.3024 2.34632 15.3024C2.49269 15.3024 2.58584 15.2536 2.68342 15.2048C2.68342 15.3512 2.68342 15.8302 2.68342 15.8302C2.68342 16.021 2.4439 16.021 2.24874 15.9766C2.29753 16.1673 2.43947 16.3137 2.72777 16.2649C2.67898 16.3137 2.5814 16.3625 2.5814 16.5044C2.5814 16.6951 2.72777 16.8903 2.82092 16.9391C2.9185 16.8903 3.06043 16.6996 3.06043 16.5044C3.06043 16.358 2.96285 16.3137 2.91406 16.2649C3.20237 16.3137 3.34874 16.1673 3.39309 15.9766C3.24672 16.0254 2.95842 16.0254 2.95842 15.8302C2.95842 15.8302 2.95842 15.3512 2.95842 15.2048C3.00721 15.3024 3.14914 15.3024 3.29551 15.3024C3.48624 15.3024 3.48624 15.4488 3.44188 15.5419C3.53946 15.4931 3.63261 15.4443 3.63261 15.3024C3.71688 15.3024 3.76124 15.2669 3.80559 15.227C3.78785 15.2226 3.7568 15.2048 3.73019 15.2048C3.73019 15.1072 3.6814 15.0141 3.53946 14.9653C3.58825 15.0629 3.58825 15.2536 3.39309 15.2536C3.29551 15.2536 3.24672 15.2048 3.24672 15.1072C3.24672 14.9609 3.43745 14.8189 3.58382 14.8189C3.73906 14.7214 4.02737 14.8189 4.02737 15.1072ZM2.29753 14.4818C2.53705 14.433 2.82535 14.2911 2.92293 14.0028C3.02051 14.2911 3.30882 14.4375 3.54834 14.4818C3.30882 14.5306 3.02051 14.6726 2.92293 14.9609C2.82535 14.6726 2.53705 14.5262 2.29753 14.4818ZM3.93422 13.5193C3.98301 13.6169 3.98301 13.7101 3.98301 13.8076C3.98301 14.096 3.7435 14.1935 3.59713 14.1935C3.4064 14.1935 3.26003 14.0472 3.26003 13.9052C3.26003 13.8076 3.30882 13.7589 3.4064 13.7589C3.59713 13.7589 3.59713 13.9052 3.55277 14.0472C3.69914 13.9984 3.7435 13.9008 3.7435 13.8076C3.79229 13.8076 3.88987 13.7589 3.93422 13.7101C3.88543 13.6613 3.83664 13.6125 3.7435 13.6125C3.79229 13.4661 3.69471 13.373 3.55277 13.373C3.60156 13.4705 3.60156 13.6125 3.4064 13.6125C3.26003 13.6125 3.16688 13.6613 3.0693 13.7101C3.0693 13.5637 3.0693 13.0847 3.0693 13.0847C3.0693 12.8939 3.30882 12.8939 3.50398 12.9383C3.45519 12.7476 3.31325 12.6012 3.02495 12.65C3.07374 12.6012 3.17132 12.5524 3.17132 12.4105C3.17132 12.2197 3.02495 12.0246 2.9318 11.9758C2.83422 12.0246 2.69229 12.2153 2.69229 12.4105C2.69229 12.5568 2.78987 12.6012 2.83866 12.65C2.55035 12.6012 2.40398 12.7476 2.35963 12.9383C2.506 12.8895 2.7943 12.8895 2.7943 13.0847C2.7943 13.0847 2.7943 13.5637 2.7943 13.7101C2.74551 13.6125 2.60358 13.6125 2.45721 13.6125C2.26648 13.6125 2.26648 13.4661 2.31084 13.373C2.21326 13.4218 2.12011 13.4705 2.12011 13.6125C2.02253 13.6125 1.97374 13.6613 1.92938 13.7101C1.97818 13.7101 2.02697 13.7589 2.12011 13.7589C2.12011 13.8564 2.1689 13.9496 2.31084 13.9984C2.26205 13.9008 2.21326 13.7589 2.40842 13.7589C2.506 13.7589 2.55479 13.8076 2.55479 13.9052C2.55479 14.0516 2.36406 14.1935 2.21769 14.1935C2.07132 14.1935 1.8318 14.096 1.8318 13.8076C1.8318 13.7101 1.88059 13.6169 1.92938 13.5193C2.12011 13.0847 2.7943 11.6431 2.98503 11.306C3.0693 11.6431 3.73906 13.0847 3.93422 13.5193ZM3.30882 10.3923C3.0693 10.4411 2.92293 10.583 2.87414 10.6806C2.82535 10.583 2.68342 10.4411 2.43947 10.3923C2.67898 10.3435 2.82535 10.2016 2.87414 10.104C2.97172 10.2016 3.11366 10.3435 3.30882 10.3923ZM3.98301 7.02579C3.98301 7.12337 3.93422 7.21651 3.93422 7.3141C3.7435 7.69998 3.0693 9.14152 2.92293 9.42982C2.77656 9.14152 2.1068 7.69998 1.86729 7.21651C1.8185 7.11893 1.76971 7.02579 1.76971 6.92821C1.76971 6.6399 2.00922 6.54232 2.15559 6.54232C2.34632 6.54232 2.49269 6.68869 2.49269 6.83063C2.49269 6.92821 2.4439 6.977 2.34632 6.977C2.15559 6.977 2.15559 6.83063 2.19995 6.68869C2.05358 6.73748 2.00922 6.83506 2.00922 6.92821C1.96043 6.92821 1.86285 6.977 1.8185 7.02579C1.86729 7.07458 1.91608 7.12337 2.00922 7.12337C1.96043 7.26974 2.05801 7.36289 2.19995 7.36289C2.15116 7.26531 2.15116 7.12337 2.34632 7.12337C2.49269 7.12337 2.58584 7.07458 2.68342 7.02579C2.68342 7.17216 2.68342 7.65119 2.68342 7.65119C2.68342 7.84192 2.4439 7.84192 2.24874 7.79756C2.29753 7.98829 2.43947 8.13466 2.72777 8.08587C2.67898 8.13466 2.5814 8.18345 2.5814 8.32539C2.5814 8.51611 2.72777 8.71127 2.82092 8.76006C2.9185 8.71127 3.06043 8.52055 3.06043 8.32539C3.06043 8.17901 2.96285 8.13466 2.91406 8.08587C3.20237 8.13466 3.34874 7.98829 3.39309 7.79756C3.24672 7.84635 2.95842 7.84635 2.95842 7.65119C2.95842 7.65119 2.95842 7.17216 2.95842 7.02579C3.00721 7.12337 3.14914 7.12337 3.29551 7.12337C3.48624 7.12337 3.48624 7.26974 3.44188 7.36289C3.53946 7.3141 3.63261 7.26531 3.63261 7.12337C3.71688 7.12337 3.76124 7.08789 3.80559 7.04797C3.78785 7.04353 3.7568 7.02579 3.73019 7.02579C3.73019 6.92821 3.6814 6.83506 3.53946 6.78627C3.58825 6.88385 3.58825 7.07458 3.39309 7.07458C3.29551 7.07458 3.24672 7.02579 3.24672 6.92821C3.24672 6.78184 3.43745 6.6399 3.58382 6.6399C3.73019 6.6399 3.98301 6.73748 3.98301 7.02579Z" fill="#FEC50C"/>
<path d="M2.25317 17.702C2.34632 17.8218 2.43946 17.9415 2.53704 18.0569C2.52817 17.8839 2.43946 17.7419 2.25317 17.702Z" fill="#FEC50C"/>
<path d="M2.11572 17.5202C2.12903 17.5379 2.14234 17.5556 2.15121 17.569C2.15121 17.5512 2.15121 17.5335 2.15121 17.5113C2.14234 17.5113 2.12903 17.5113 2.11572 17.5202Z" fill="#FEC50C"/>
<path d="M3.83663 15.2004C3.82776 15.2093 3.82332 15.2137 3.81445 15.2226C3.82776 15.2226 3.83663 15.2226 3.83663 15.2004Z" fill="#FEC50C"/>
</g>
<defs>
<clipPath id="clip0">
<rect width="22" height="22" fill="white"/>
</clipPath>
</defs>
</svg>
