<svg width="22" height="22" viewBox="0 0 22 22" fill="none" xmlns="http://www.w3.org/2000/svg">
<g clip-path="url(#clip0)">
<path d="M0.322752 8.35621C1.78236 2.46206 7.74894 -1.13683 13.6431 0.322782C19.5428 1.78239 23.1361 7.74339 21.6765 13.6431C20.2169 19.5373 14.2559 23.1362 8.35618 21.6765C2.46203 20.2169 -1.13686 14.2559 0.322752 8.35621Z" fill="#D55855"/>
<path d="M0.640625 7.30379H21.3593C20.1615 3.9556 17.3593 1.24251 13.6434 0.32329C8.10581 -1.04718 2.51249 2.03917 0.640625 7.30379Z" fill="#FDFEFE"/>
<path d="M21.7663 13.2646C21.7719 13.2423 21.7775 13.2201 21.783 13.1922C21.7886 13.1532 21.7998 13.1086 21.8053 13.0696C21.8109 13.0474 21.8165 13.0195 21.8165 12.9972C21.822 12.9526 21.8332 12.9137 21.8388 12.8691C21.8443 12.8468 21.8443 12.8245 21.8499 12.8078C21.861 12.7577 21.8666 12.702 21.8778 12.6518C21.8778 12.6407 21.8833 12.6295 21.8833 12.6184C21.8945 12.5571 21.9 12.4903 21.9112 12.429C21.9112 12.4123 21.9168 12.3955 21.9168 12.3788C21.9223 12.3343 21.9279 12.2841 21.9335 12.2396C21.9335 12.2173 21.939 12.195 21.939 12.1727C21.9446 12.1337 21.9502 12.0891 21.9502 12.0501C21.9502 12.0279 21.9557 12.0056 21.9557 11.9833C21.9613 11.9387 21.9613 11.8997 21.9669 11.8552C21.9669 11.8329 21.9725 11.8106 21.9725 11.7883C21.978 11.7382 21.978 11.6936 21.9836 11.6435C21.9836 11.6267 21.9836 11.6156 21.9892 11.5989C21.9947 11.5376 21.9947 11.4708 22.0003 11.4095C22.0003 11.3983 22.0003 11.3872 22.0003 11.376C22.0003 11.3259 22.0059 11.2702 22.0059 11.2201C22.0059 11.1978 22.0059 11.1811 22.0059 11.1588C22.0059 11.1142 22.0059 11.0696 22.0059 11.0306C22.0059 11.0084 22.0059 10.9861 22.0059 10.9638C22.0059 10.9192 22.0059 10.8802 22.0059 10.8357C22.0059 10.8134 22.0059 10.7911 22.0059 10.7744C22.0059 10.7298 22.0059 10.6797 22.0003 10.6351C22.0003 10.6184 22.0003 10.6017 22.0003 10.585C21.9947 10.4568 21.9892 10.3343 21.978 10.2061C21.978 10.1894 21.978 10.1727 21.9725 10.156C21.9669 10.1114 21.9669 10.0669 21.9613 10.0167C21.9613 9.99443 21.9557 9.97772 21.9557 9.95543C21.9502 9.91087 21.9446 9.87187 21.9446 9.8273C21.9446 9.80502 21.939 9.7883 21.939 9.76602C21.9335 9.72145 21.9279 9.67688 21.9223 9.62674C21.9223 9.61003 21.9168 9.59332 21.9168 9.5766C21.9 9.45404 21.8833 9.32591 21.861 9.20334C21.861 9.1922 21.8555 9.18106 21.8555 9.16992C21.8499 9.11978 21.8388 9.06964 21.8276 9.0195C21.822 9.00279 21.822 8.98607 21.8165 8.96936C21.8109 8.92479 21.7998 8.88023 21.7886 8.83566C21.783 8.81894 21.783 8.80223 21.7775 8.77995C21.7663 8.73538 21.7608 8.69081 21.7496 8.64067C21.744 8.62396 21.744 8.61282 21.7385 8.5961C21.7273 8.54039 21.7106 8.48468 21.6995 8.42897L21.6939 8.41783C21.6772 8.36212 21.6661 8.30084 21.6493 8.24513C21.5658 7.92201 21.4711 7.60446 21.3596 7.29248H0.640986C0.518424 7.63231 0.412574 7.98329 0.323438 8.34541C-0.0442503 9.82173 -0.0888186 11.3036 0.134023 12.7131C0.134023 12.7187 0.134023 12.7242 0.139594 12.7298C0.150736 12.7799 0.156307 12.8357 0.167449 12.8858C0.167449 12.8969 0.17302 12.9081 0.17302 12.9192C0.184162 12.9694 0.189733 13.0139 0.200875 13.0641C0.200875 13.0808 0.206446 13.0919 0.212017 13.1086C0.223159 13.1532 0.22873 13.1978 0.239872 13.2423C0.245443 13.2591 0.245443 13.2758 0.251014 13.2925C0.262156 13.3371 0.267727 13.376 0.278869 13.4206C0.28444 13.4429 0.290011 13.4596 0.295582 13.4819C0.306725 13.5209 0.312296 13.5599 0.323438 13.6045C0.329009 13.6323 0.340151 13.6657 0.345722 13.6936C0.356864 13.7382 0.368006 13.7827 0.379148 13.8273C0.39029 13.8719 0.401432 13.9164 0.418145 13.961C0.423716 13.9833 0.429287 14 0.434858 14.0167C0.446 14.0613 0.457142 14.1003 0.473855 14.1448C0.479426 14.1671 0.484997 14.1838 0.490569 14.2061C0.501711 14.2451 0.518424 14.2897 0.529566 14.3287C0.535137 14.3454 0.540708 14.3677 0.546279 14.3844C0.557421 14.4234 0.574134 14.468 0.585276 14.507C0.590847 14.5237 0.596418 14.546 0.601989 14.5627C0.618702 14.6072 0.629844 14.6462 0.646557 14.6908C0.652128 14.702 0.652128 14.7131 0.657699 14.7187C0.668841 14.7465 0.674413 14.7688 0.685555 14.7967H21.3207C21.3318 14.7688 21.3374 14.7465 21.3485 14.7187C21.3708 14.6518 21.3931 14.5905 21.4154 14.5237C21.4154 14.5181 21.4209 14.5125 21.4209 14.507C21.4488 14.4234 21.4766 14.3343 21.5045 14.2507C21.5101 14.2396 21.5101 14.2284 21.5156 14.2173C21.5379 14.1393 21.5658 14.0557 21.5881 13.9721C21.5936 13.9554 21.5992 13.9387 21.6048 13.922C21.6326 13.8273 21.6549 13.727 21.6828 13.6323C21.6995 13.571 21.7162 13.5042 21.7273 13.4429C21.7329 13.4206 21.7385 13.4039 21.7385 13.3816C21.744 13.3482 21.7552 13.3036 21.7663 13.2646Z" fill="#4B6797"/>
</g>
<defs>
<clipPath id="clip0">
<rect width="22" height="22" fill="white"/>
</clipPath>
</defs>
</svg>
