<svg width="50" height="50" viewBox="0 0 50 50" fill="none" xmlns="http://www.w3.org/2000/svg">
<g clip-path="url(#clip0)">
<path d="M5.04161 13.948L24.6562 5.21883C24.8749 5.12508 25.1249 5.12508 25.3437 5.21883L45 13.948C45.3229 14.0938 45.6666 14.1667 46.0208 14.1667C47.0104 14.1667 47.9062 13.5834 48.302 12.6876C48.5833 12.0834 48.6041 11.3855 48.3645 10.7501C48.125 10.1251 47.6458 9.61467 47.0312 9.35425L26.6666 0.354248C25.5937 -0.124919 24.3645 -0.124919 23.2812 0.354248L3.01036 9.3855C2.39578 9.65633 1.91661 10.1563 1.67703 10.7813C1.43745 11.4063 1.45828 12.1042 1.73953 12.7188C2.31245 13.9688 3.79161 14.5209 5.04161 13.948ZM3.23953 11.3647C3.32286 11.1563 3.47911 10.9897 3.67703 10.9063L23.9791 1.8855C24.6249 1.59383 25.3645 1.59383 26.0104 1.8855L46.3125 10.9063C46.5104 10.9897 46.677 11.1563 46.75 11.3647C46.8333 11.5626 46.8333 11.7917 46.75 12.0001C46.6562 12.198 46.4895 12.3647 46.2916 12.4376C46.0833 12.5209 45.8541 12.5105 45.6562 12.4272L26.0208 3.70842C25.3749 3.41675 24.6354 3.41675 23.9895 3.70842L4.35411 12.4272C3.93745 12.6147 3.44786 12.4272 3.24995 12.0105C3.17703 11.8022 3.16661 11.573 3.23953 11.3647Z" fill="#FF8617"/>
<path d="M12.625 39.875C13.6042 40.8542 15.1875 40.8542 16.1563 39.875L37.375 18.6563C38.0417 18.0313 38.3229 17.0938 38.0938 16.2084C37.8646 15.3229 37.1771 14.6354 36.2917 14.4063C35.4063 14.1771 34.4688 14.4584 33.8438 15.125L12.625 36.3438C11.6458 37.3229 11.6458 38.8959 12.625 39.875ZM13.8021 37.5L35 16.3125C35.3333 15.9792 35.8646 15.9792 36.1979 16.3125C36.5313 16.6459 36.5313 17.1771 36.1979 17.5104L15 38.6875C14.6667 39.0209 14.1354 39.0209 13.8021 38.6875C13.4688 38.3646 13.4688 37.8334 13.8021 37.5Z" fill="#FF8617"/>
<path d="M32.5003 40.8334C35.7191 40.8334 38.3337 38.2188 38.3337 35.0001C38.3337 31.7813 35.7191 29.1667 32.5003 29.1667C29.2816 29.1667 26.667 31.7813 26.667 35.0001C26.667 38.2188 29.2816 40.8334 32.5003 40.8334ZM32.5003 30.8334C34.8024 30.8334 36.667 32.698 36.667 35.0001C36.667 37.3022 34.8024 39.1668 32.5003 39.1668C30.1982 39.1668 28.3337 37.3022 28.3337 35.0001C28.3337 32.698 30.1982 30.8334 32.5003 30.8334Z" fill="#FF8617"/>
<path d="M32.5 37.5C33.8854 37.5 35 36.3854 35 35C35 33.6146 33.8854 32.5 32.5 32.5C31.1146 32.5 30 33.6146 30 35C30 36.3854 31.1146 37.5 32.5 37.5ZM32.5 34.1667C32.9583 34.1667 33.3333 34.5417 33.3333 35C33.3333 35.4583 32.9583 35.8333 32.5 35.8333C32.0417 35.8333 31.6667 35.4583 31.6667 35C31.6667 34.5417 32.0417 34.1667 32.5 34.1667Z" fill="#FF8617"/>
<path d="M18.3333 24.9999C21.5521 24.9999 24.1667 22.3853 24.1667 19.1666C24.1667 15.9478 21.5521 13.3333 18.3333 13.3333C15.1146 13.3333 12.5 15.9478 12.5 19.1666C12.5 22.3853 15.1146 24.9999 18.3333 24.9999ZM18.3333 14.9999C20.6354 14.9999 22.5 16.8645 22.5 19.1666C22.5 21.4687 20.6354 23.3333 18.3333 23.3333C16.0312 23.3333 14.1667 21.4687 14.1667 19.1666C14.1667 16.8645 16.0312 14.9999 18.3333 14.9999Z" fill="#FF8617"/>
<path d="M18.333 21.6667C19.7184 21.6667 20.833 20.5522 20.833 19.1667C20.833 17.7813 19.7184 16.6667 18.333 16.6667C16.9476 16.6667 15.833 17.7813 15.833 19.1667C15.833 20.5522 16.9476 21.6667 18.333 21.6667ZM18.333 18.3334C18.7913 18.3334 19.1663 18.7084 19.1663 19.1667C19.1663 19.6251 18.7913 20.0001 18.333 20.0001C17.8747 20.0001 17.4997 19.6251 17.4997 19.1667C17.4997 18.7084 17.8747 18.3334 18.333 18.3334Z" fill="#FF8617"/>
<path d="M44.1667 34.1668C44.3855 34.1668 44.6042 34.0731 44.7605 33.9168L49.7605 28.9168C50.0001 28.6772 50.0626 28.3231 49.9376 28.0106C49.8126 27.6981 49.5105 27.5002 49.1667 27.4897H48.3334V20.8231C48.3334 20.3647 47.9584 19.9897 47.5001 19.9897C47.0417 19.9897 46.6667 20.3647 46.6667 20.8231V28.3231C46.6667 28.6668 46.8855 28.9793 47.2084 29.1043L44.1667 32.1564L41.1251 29.1147C41.448 28.9897 41.6667 28.6772 41.6667 28.3335V25.0002C41.6667 24.5418 41.2917 24.1668 40.8334 24.1668C40.3751 24.1668 40.0001 24.5418 40.0001 25.0002V27.5002H39.1667C38.8334 27.5002 38.5313 27.7085 38.3959 28.021C38.2709 28.3335 38.3334 28.6877 38.573 28.9272L43.573 33.9273C43.7292 34.0731 43.948 34.1668 44.1667 34.1668Z" fill="#FF8617"/>
<path d="M44.1663 28.3333C44.6247 28.3333 44.9997 27.9583 44.9997 27.5V23.3333C44.9997 22.875 44.6247 22.5 44.1663 22.5C43.708 22.5 43.333 22.875 43.333 23.3333V27.5C43.333 27.9583 43.708 28.3333 44.1663 28.3333Z" fill="#FF8617"/>
<path d="M44.1667 17.5V15.6458C44.1667 15.1875 43.7917 14.8125 43.3333 14.8125C42.875 14.8125 42.5 15.1875 42.5 15.6458V17.5C42.5 17.9583 42.875 18.3333 43.3333 18.3333C43.7917 18.3333 44.1667 17.9583 44.1667 17.5Z" fill="#FF8617"/>
<path d="M49.1667 48.3333H1.66667V47.5C1.66667 46.5833 2.41667 45.8333 3.33333 45.8333H46.6667C47.125 45.8333 47.5 45.4583 47.5 45C47.5 44.5417 47.125 44.1667 46.6667 44.1667H44.1667V35.8333C44.1667 35.375 43.7917 35 43.3333 35C42.875 35 42.5 35.375 42.5 35.8333V44.1667H7.5V15.6458C7.5 15.1875 7.125 14.8125 6.66667 14.8125C6.20833 14.8125 5.83333 15.1875 5.83333 15.6458V44.1667H3.33333C1.48958 44.1667 0 45.6562 0 47.5V49.1667C0 49.625 0.375 50 0.833333 50H49.1667C49.625 50 50 49.625 50 49.1667C50 48.7083 49.625 48.3333 49.1667 48.3333Z" fill="#FF8617"/>
</g>
<defs>
<clipPath id="clip0">
<rect width="50" height="50" fill="white"/>
</clipPath>
</defs>
</svg>
