<svg width="19" height="19" viewBox="0 0 19 19" fill="none" xmlns="http://www.w3.org/2000/svg">
<path d="M12.9556 10.4283C13.0618 10.8483 11.899 10.7151 11.615 11.1083C11.3309 11.5013 10.6365 11.2372 10.4756 11.1617C10.3146 11.0861 9.69795 11.3379 9.75185 10.9099C9.80543 10.4817 10.1805 10.4565 10.5828 10.2803C10.9849 10.1042 11.565 9.51876 11.28 9.44226C9.93811 9.08233 9.48034 7.82181 9.48034 7.82181C9.39984 7.80667 9.42004 6.93071 9.07165 6.90557C8.72293 6.8803 8.53515 7.00627 8.02595 6.90557C7.51643 6.80487 7.62385 6.4775 7.54335 5.77234C7.46304 5.06719 7.75805 5.29386 7.9174 5.06732C7.93133 5.04743 7.94944 5.0297 7.96718 5.01196C6.1015 5.65074 4.75586 7.42085 4.75586 9.50021C4.75586 9.5035 4.75605 9.50679 4.75605 9.51009C5.1028 9.53244 5.73423 9.60566 5.76394 9.84354C5.80498 10.172 5.76394 10.5827 6.05141 10.7059C6.33888 10.8291 6.42102 10.2131 6.66739 10.3774C6.91375 10.5417 7.57084 10.6998 7.57084 10.9902C7.57084 11.2806 7.44765 11.7325 7.57084 11.8147C7.69402 11.8968 8.1865 12.4717 8.18663 12.5538C8.18682 12.636 8.36022 13.0536 8.30848 13.2133C8.2656 13.3457 8.04926 13.7567 7.8395 13.9436C8.35642 14.1373 8.91559 14.2439 9.49934 14.2439C12.115 14.2439 14.243 12.1159 14.243 9.50021C14.243 8.72558 14.0551 7.99427 13.7244 7.34776C13.7562 7.83017 13.7348 8.26977 13.8404 8.41379C14.3027 9.04326 12.7143 9.47627 12.9556 10.4283Z" fill="#FF8617"/>
<path d="M9.49962 0C4.25315 0 0 4.25353 0 9.49981C0 14.7461 4.25315 19 9.49962 19C14.7461 19 18.9996 14.7463 18.9996 9.49981C18.9996 4.25328 14.7462 0 9.49962 0ZM9.49981 15.2293C6.34074 15.2293 3.77055 12.6593 3.77055 9.5C3.77055 6.34074 6.34074 3.77074 9.49981 3.77074C12.6589 3.77074 15.2291 6.34074 15.2291 9.5C15.2291 12.6593 12.6589 15.2293 9.49981 15.2293Z" fill="#FF8617"/>
</svg>
