<svg width="19" height="19" viewBox="0 0 19 19" fill="none" xmlns="http://www.w3.org/2000/svg">
<path d="M9.5 19C14.7467 19 19 14.7467 19 9.5C19 4.25329 14.7467 0 9.5 0C4.25329 0 0 4.25329 0 9.5C0 14.7467 4.25329 19 9.5 19Z" fill="#75B73B"/>
<path d="M9.23442 4.02441C6.33881 4.16216 4.0538 6.57368 4.06252 9.47247C4.0652 10.3554 4.27835 11.1887 4.65442 11.9252L4.07711 14.7275C4.0459 14.8791 4.18261 15.0119 4.3332 14.9762L7.07911 14.3256C7.7846 14.6771 8.57699 14.88 9.41559 14.8928C12.3752 14.9381 14.8429 12.5881 14.9352 9.62963C15.034 6.45834 12.4167 3.87282 9.23442 4.02441ZM12.5109 12.4664C11.7068 13.2705 10.6375 13.7134 9.50024 13.7134C8.83435 13.7134 8.19673 13.564 7.60521 13.2694L7.22291 13.0788L5.53926 13.4777L5.89361 11.7574L5.70528 11.3884C5.39817 10.787 5.24245 10.1368 5.24245 9.45563C5.24245 8.3183 5.68535 7.24914 6.48948 6.44494C7.28644 5.64791 8.37311 5.19792 9.50031 5.19792C10.6375 5.19792 11.7068 5.64082 12.5109 6.44494C13.315 7.24907 13.7579 8.31834 13.7579 9.45551C13.758 10.5827 13.3079 11.6694 12.5109 12.4664Z" fill="white"/>
<path d="M12.1395 10.635L11.0861 10.3326C10.9478 10.2929 10.7986 10.3322 10.6977 10.435L10.4401 10.6973C10.3315 10.8081 10.1667 10.8436 10.023 10.7854C9.52469 10.5838 8.47654 9.65183 8.20902 9.18581C8.13168 9.05132 8.14448 8.88329 8.23934 8.76046L8.46414 8.46956C8.55224 8.35563 8.5708 8.20248 8.51257 8.07074L8.06945 7.06849C7.96332 6.82847 7.65657 6.75855 7.45614 6.92807C7.1622 7.17674 6.81341 7.55448 6.77107 7.97307C6.69629 8.71106 7.01283 9.64129 8.2095 10.7583C9.59208 12.0489 10.6993 12.2193 11.4203 12.0447C11.8292 11.9457 12.156 11.5487 12.3621 11.2236C12.5028 11.0018 12.3916 10.7074 12.1395 10.635Z" fill="white"/>
</svg>
