<svg width="19" height="19" viewBox="0 0 19 19" fill="none" xmlns="http://www.w3.org/2000/svg">
<path d="M9.5 19C14.7467 19 19 14.7467 19 9.5C19 4.25329 14.7467 0 9.5 0C4.25329 0 0 4.25329 0 9.5C0 14.7467 4.25329 19 9.5 19Z" fill="#7AA5DA"/>
<path d="M14.2398 4.95481C14.6186 4.80704 15.0101 5.13843 14.9269 5.53632L13.2284 13.6551C13.1491 14.0358 12.7019 14.2072 12.3884 13.9769L9.82441 12.0948L8.51746 13.4293C8.28779 13.6635 7.89179 13.5682 7.79327 13.256L6.85032 10.2626L4.32272 9.51607C3.99071 9.41818 3.97152 8.95631 4.2933 8.83029L14.2398 4.95481ZM12.993 6.75629C13.1037 6.65839 12.9751 6.48568 12.8497 6.56372L7.39405 9.94725C7.29808 10.0067 7.25396 10.1238 7.28784 10.2319L8.03184 13.499C8.04658 13.5489 8.1182 13.5419 8.12462 13.4901L8.29094 11.0003C8.29733 10.9388 8.32675 10.8825 8.37284 10.8416L12.993 6.75629Z" fill="white"/>
<path d="M12.8495 6.56387C12.9749 6.48583 13.1035 6.65853 12.9928 6.75643L8.37271 10.8418C8.32665 10.8827 8.29723 10.939 8.29081 11.0004L8.12448 13.4902C8.1181 13.542 8.04644 13.5491 8.03171 13.4992L7.2877 10.2321C7.25379 10.124 7.29795 10.0069 7.39391 9.94739L12.8495 6.56387Z" fill="#9EC2E5"/>
<path d="M8.05875 13.5329C7.93848 13.49 7.83676 13.3941 7.79327 13.2559L6.85032 10.2626L4.32272 9.516C3.99071 9.41811 3.97152 8.95624 4.2933 8.83022L14.2398 4.95477C14.4842 4.85944 14.7343 4.96372 14.8578 5.15695C14.8347 5.12177 14.8072 5.08915 14.7765 5.06035L8.02865 10.5691V10.8102L7.99154 10.7834L8.02865 12.3021V13.5201C8.03826 13.5246 8.04847 13.5285 8.05871 13.5316V13.5329H8.05875Z" fill="white"/>
<path d="M8.48342 13.4607C8.47192 13.4703 8.46038 13.4792 8.44824 13.4876V13.4869C8.46041 13.4786 8.47192 13.4703 8.48342 13.4607Z" fill="#DADDE0"/>
<path d="M8.4498 13.4868V13.4884C8.4498 13.4884 8.4498 13.4868 8.44824 13.4884C8.44824 13.4884 8.44824 13.4884 8.4498 13.4868Z" fill="#DADDE0"/>
<path d="M8.37207 13.5278C8.39831 13.517 8.42324 13.5035 8.44755 13.4875C8.42324 13.5035 8.39764 13.5169 8.37207 13.5278Z" fill="#DADDE0"/>
<path d="M8.16406 13.5566C8.22036 13.5624 8.27728 13.5579 8.33295 13.5413C8.29265 13.5541 8.25105 13.5598 8.20948 13.5598C8.19668 13.5598 8.18388 13.5592 8.17174 13.5579C8.16918 13.5579 8.16662 13.5579 8.16406 13.5566Z" fill="#DADDE0"/>
<path d="M8.20864 13.56C8.19584 13.56 8.18303 13.5594 8.1709 13.5581C8.18303 13.5594 8.19584 13.56 8.20864 13.56Z" fill="white"/>
<path d="M8.1635 13.5568C8.16606 13.5581 8.16862 13.5581 8.17118 13.5581C8.15775 13.5575 8.14558 13.5555 8.13281 13.553C8.14302 13.5549 8.15326 13.5562 8.1635 13.5568Z" fill="white"/>
<path d="M8.16361 13.5567C8.15337 13.556 8.14312 13.5547 8.13292 13.5529C8.12843 13.5522 8.12398 13.5516 8.12012 13.5503C8.13418 13.5529 8.14888 13.5554 8.16361 13.5567Z" fill="#DADDE0"/>
<path d="M8.07227 13.5369C8.08633 13.5414 8.10043 13.5452 8.1145 13.549C8.10874 13.5478 8.10299 13.5465 8.09724 13.5452C8.09468 13.5446 8.09212 13.544 8.09019 13.5427C8.0844 13.5414 8.07802 13.5394 8.07227 13.5369Z" fill="#DADDE0"/>
<path d="M8.09766 13.5452C8.10341 13.5464 8.10916 13.5477 8.11491 13.549C8.10916 13.5484 8.10341 13.5471 8.09766 13.5452Z" fill="white"/>
<path d="M8.0724 13.5369C8.07815 13.5394 8.08457 13.5414 8.09032 13.5426C8.08071 13.5407 8.07114 13.5375 8.06152 13.5337C8.06535 13.535 8.06854 13.5363 8.0724 13.5369Z" fill="white"/>
<path d="M8.07203 13.5368C8.06821 13.5362 8.06498 13.5349 8.06115 13.5336C8.06052 13.5343 8.05922 13.5336 8.05859 13.533V13.5317C8.06305 13.5343 8.06754 13.5355 8.07203 13.5368Z" fill="#DADDE0"/>
<path d="M8.02832 12.302L8.05838 13.5315C8.04814 13.5284 8.03789 13.5245 8.02832 13.52V12.302Z" fill="#D1D1D1"/>
<path d="M8.02832 10.8103V12.3022L7.99121 10.7834L8.02832 10.8103Z" fill="#DADDE0"/>
<path d="M12.9928 6.75641L8.37271 10.8417C8.32665 10.8827 8.29723 10.939 8.29081 11.0004L8.12478 13.4904C8.1184 13.5422 8.04674 13.5493 8.03137 13.4994L7.2877 10.2321C7.25379 10.124 7.29795 10.0069 7.39391 9.9474L12.8495 6.56388C12.9749 6.4858 13.1035 6.65855 12.9928 6.75641Z" fill="#ADBCC9"/>
</svg>
