<svg width="19" height="19" viewBox="0 0 19 19" fill="none" xmlns="http://www.w3.org/2000/svg">
<path d="M19 9.5C19 14.7468 14.7468 19 9.5 19C4.25323 19 0 14.7468 0 9.5C0 4.25323 4.25323 0 9.5 0C14.7468 0 19 4.25323 19 9.5Z" fill="#9330B2"/>
<path d="M10.7693 3.25317H8.23136C5.68705 3.25317 3.61719 5.32304 3.61719 7.86735V9.63106C3.61719 10.8468 4.11005 12.0184 4.96081 12.8781V15.2082C4.96081 15.4375 5.08315 15.6493 5.2816 15.7641C5.38104 15.8215 5.49194 15.8502 5.60283 15.8502C5.71358 15.8502 5.82433 15.8217 5.92348 15.7644L8.55868 14.2452H10.7693C13.3136 14.2452 15.3835 12.1754 15.3835 9.63106V7.86735C15.3835 5.32304 13.3136 3.25317 10.7693 3.25317ZM14.4009 9.70325C14.4009 11.639 12.8171 13.223 10.8812 13.223H8.81337L5.57079 15.2082V12.1232C4.97023 11.491 4.59972 10.6387 4.59972 9.70339V7.79501C4.59972 5.85924 6.18353 4.27542 8.11931 4.27542H10.8812C12.817 4.27542 14.4009 5.85924 14.4009 7.79501V9.70325Z" fill="white"/>
<path d="M8.82873 6.09787C8.81611 6.0854 8.80539 6.07062 8.79698 6.0538C8.75552 5.97045 8.78944 5.86927 8.87279 5.82767C9.76588 5.38279 10.948 5.63038 11.7473 6.42968C12.5463 7.22869 12.7941 8.41025 12.3496 9.30305C12.3082 9.3864 12.207 9.42032 12.1235 9.37886C12.0401 9.3374 12.0062 9.23622 12.0477 9.15287C12.4285 8.38792 12.2068 7.36611 11.5089 6.66799C10.8106 5.96973 9.78835 5.74838 9.02312 6.12962C8.95658 6.16267 8.87859 6.14774 8.82873 6.09787Z" fill="white"/>
<path d="M9.21159 6.83994C9.19811 6.82631 9.18666 6.81037 9.17811 6.7921C9.13853 6.70774 9.17492 6.60743 9.25928 6.568C9.87318 6.28083 10.648 6.45015 11.1872 6.98939C11.7263 7.52864 11.8959 8.30286 11.6092 8.91632C11.5696 9.00069 11.4693 9.03707 11.385 8.99764C11.3007 8.95822 11.2643 8.85776 11.3036 8.77354C11.5306 8.28822 11.388 7.66707 10.9488 7.22785C10.5096 6.78862 9.88811 6.64613 9.40221 6.87342C9.33611 6.9043 9.2603 6.88864 9.21159 6.83994Z" fill="white"/>
<path d="M9.59031 7.58107C9.57393 7.56483 9.56074 7.54483 9.55204 7.52178C9.51899 7.43481 9.56277 7.33739 9.64974 7.30434C9.97358 7.18142 10.3579 7.27695 10.6288 7.54787C10.8997 7.8188 10.9955 8.20294 10.8728 8.52635C10.8399 8.61347 10.7424 8.65724 10.6555 8.62419C10.5683 8.59114 10.5246 8.49387 10.5576 8.40675C10.6321 8.21019 10.5649 7.96086 10.3903 7.78633C10.2159 7.6118 9.96633 7.54483 9.76948 7.61963C9.70541 7.64384 9.63583 7.62659 9.59031 7.58107Z" fill="white"/>
<path d="M8.37345 7.28536L7.20306 6.11496C7.05433 5.96638 6.84429 5.93145 6.73615 6.03944L6.62308 6.15265C6.07166 6.70393 5.96961 7.50772 6.41753 8.05393C6.97344 8.73146 7.59198 9.41799 8.1866 9.98985C8.75846 10.5845 9.44499 11.203 10.1225 11.7589C10.6687 12.2068 11.4725 12.1048 12.0238 11.5535L12.137 11.4403C12.245 11.3323 12.2101 11.1221 12.0613 10.9735L10.8909 9.80314C10.6132 9.52526 10.43 9.56367 10.3218 9.67167C10.3218 9.67167 10.1743 9.8217 10.1473 9.85272V9.85228C10.0421 9.95767 9.77549 9.98115 9.53472 9.83039C9.31554 9.69297 9.08868 9.49351 8.88487 9.29158C8.68294 9.08777 8.48348 8.86091 8.34606 8.64173C8.1953 8.40096 8.21878 8.13438 8.32417 8.02914H8.32373C8.35475 8.00218 8.50479 7.85461 8.50479 7.85461C8.61293 7.74647 8.65119 7.56324 8.37345 7.28536Z" fill="white"/>
</svg>
