<svg width="63" height="46" viewBox="0 0 63 46" fill="none" xmlns="http://www.w3.org/2000/svg">
<g clip-path="url(#clip0)">
<path d="M50.1 45.6C50.1 45.6 62.3 45.9 62.3 32.3C62.3 19.7 47.2 4.80001 39.7 0.800013C32.2 -3.19999 40.8 8.50001 43.1 11.5C45.1 14 47.5 17.1 47.5 17.1C47.5 17.1 35 22.5 36.1 32.8C37.5 45.9 50.1 45.6 50.1 45.6Z" fill="#FC8524"/>
</g>
<g clip-path="url(#clip1)">
<path d="M14.1 45.6C14.1 45.6 26.3 45.9 26.3 32.3C26.3 19.7 11.2 4.80001 3.70004 0.800013C-3.79996 -3.19999 4.80005 8.50001 7.10005 11.5C9.10005 14 11.5 17.1 11.5 17.1C11.5 17.1 -0.999954 22.5 0.100047 32.8C1.50005 45.9 14.1 45.6 14.1 45.6Z" fill="#FC8524"/>
</g>
<defs>
<clipPath id="clip0">
<rect width="26.3" height="45.6" fill="white" transform="translate(62.3 45.6001) rotate(180)"/>
</clipPath>
<clipPath id="clip1">
<rect width="26.3" height="45.6" fill="white" transform="translate(26.3 45.6001) rotate(180)"/>
</clipPath>
</defs>
</svg>
