<svg width="71" height="71" viewBox="0 0 71 71" fill="none" xmlns="http://www.w3.org/2000/svg">
<path d="M40.3676 13.1607V27.2359L26.3063 27.2498C25.4326 27.2498 24.7393 27.9432 24.7393 28.8168C24.7254 29.2467 24.9057 29.635 25.1969 29.9262C25.4742 30.2035 25.8764 30.3838 26.3063 30.3838H40.3815V44.459C40.3676 44.8889 40.5479 45.291 40.8391 45.5684C41.1164 45.8457 41.5186 46.026 41.9485 46.026C42.8221 46.026 43.5154 45.3326 43.5154 44.459V30.3838H57.5906C58.4643 30.3838 59.1576 29.6904 59.1576 28.8168C59.1576 27.9432 58.4643 27.2498 57.5906 27.2498H43.5016V13.1607C43.5016 12.2871 42.8082 11.5938 41.9346 11.5938C41.061 11.5937 40.3676 12.2871 40.3676 13.1607Z" fill="white"/>
<path d="M41.9346 46.608C41.366 46.608 40.8114 46.3861 40.4092 45.984C40.0071 45.5818 39.7713 45.0133 39.7852 44.4447V30.9658H26.3063C25.7377 30.9658 25.183 30.7439 24.7809 30.3418C24.3649 29.9258 24.143 29.385 24.1569 28.8025C24.1569 27.6238 25.1276 26.6531 26.3201 26.6531L39.7852 26.6393V13.1604C39.7852 11.9678 40.7559 10.9971 41.9485 10.9971C42.5309 10.9971 43.0717 11.2189 43.4739 11.635C43.876 12.051 44.1117 12.5918 44.0979 13.1604V26.6393H57.5768C58.7694 26.6393 59.7401 27.61 59.7401 28.8025C59.7401 29.9951 58.7694 30.9658 57.5768 30.9658H44.0979V44.4447C44.0979 45.6373 43.1272 46.608 41.9346 46.608ZM41.9346 12.1758C41.3799 12.1758 40.95 12.6057 40.95 13.1604V27.818L26.3063 27.8318C25.7516 27.8318 25.3217 28.2617 25.3217 28.8164C25.3217 29.1492 25.4742 29.385 25.5991 29.5098C25.7793 29.69 26.0289 29.7871 26.2924 29.7871H40.95V44.4447C40.95 44.7082 41.0471 44.9578 41.2274 45.1381C41.4076 45.3184 41.6573 45.4154 41.9207 45.4154C42.4754 45.4154 42.9053 44.9855 42.9053 44.4309V29.7871H57.5629C58.1176 29.7871 58.5475 29.3572 58.5475 28.8025C58.5475 28.2478 58.1176 27.818 57.5629 27.818H42.9192V13.1604C42.9192 12.8969 42.8221 12.6473 42.628 12.467C42.4477 12.2729 42.1981 12.1758 41.9346 12.1758Z" fill="white"/>
<path d="M71 29.1211C71 34.1826 69.6826 39.1609 67.1865 43.5291C66.4239 44.8604 64.7321 45.318 63.4008 44.5691C62.0696 43.8064 61.6119 42.1147 62.3608 40.7834C64.3715 37.2473 65.4393 33.2119 65.4393 29.1211C65.4393 16.1275 54.8586 5.54688 41.8651 5.54688C28.8715 5.54688 18.2909 16.1275 18.2909 29.1211C18.2909 42.1146 28.8715 52.6953 41.8651 52.6953C45.9143 52.6953 49.8942 51.6553 53.4026 49.6861C54.7338 48.9373 56.4256 49.4088 57.1744 50.74C57.9233 52.0713 57.4518 53.7631 56.1205 54.5119C51.8078 56.9525 46.8711 58.2422 41.8789 58.2422C34.876 58.2422 28.4555 55.76 23.4217 51.6275L4.72874 70.1957C4.18792 70.7365 3.4807 71 2.77347 71C2.06624 71 1.34515 70.7227 0.80433 70.1818C-0.27731 69.1002 -0.263443 67.3391 0.818197 66.2574L19.4834 47.717C15.2817 42.6693 12.7578 36.1795 12.7578 29.1211C12.7578 13.0629 25.8207 0 41.8789 0C57.9371 0 71 13.0629 71 29.1211Z" fill="white"/>
</svg>
