<svg width="145" height="95" viewBox="0 0 145 95" fill="none" xmlns="http://www.w3.org/2000/svg">
<path d="M6.11227 7.26899L125.267 7.19148C127.974 7.19358 130.3 9.07319 130.923 11.6763L143.5 66.6295C144.329 70.2986 141.438 73.7377 137.69 73.6805L43.161 72.4854C42.4196 72.4884 41.7741 72.8947 41.5144 73.5773L33.9027 91.8899C33.2474 93.4852 30.9371 93.2759 30.5492 91.5885L27.5566 78.0834C26.9257 75.3322 24.4104 73.3885 21.6005 73.5405L19.0125 73.6805C16.2026 73.8326 13.6893 71.9259 13.0584 69.1747L0.452521 14.3716C-0.374344 10.7396 2.36811 7.28587 6.11227 7.26899Z" fill="#F3F3F3"/>
</svg>
