<svg width="40" height="40" viewBox="0 0 40 40" fill="none" xmlns="http://www.w3.org/2000/svg">
<g clip-path="url(#clip0)">
<path d="M4.56634 8.40485C4.51569 8.40485 4.46411 8.39966 4.41406 8.38928C4.36401 8.37921 4.31488 8.36426 4.26788 8.34473C4.22028 8.3252 4.17511 8.30109 4.133 8.27301C4.08997 8.24493 4.04999 8.21198 4.01398 8.17596C3.97827 8.13995 3.94531 8.10028 3.91632 8.05725C3.88824 8.01514 3.86475 7.96997 3.84521 7.92206C3.82568 7.87537 3.81012 7.82623 3.80096 7.77618C3.79059 7.72614 3.7854 7.67456 3.7854 7.6236C3.7854 7.57294 3.79059 7.52136 3.80096 7.47131C3.81012 7.42127 3.82568 7.37213 3.84521 7.32452C3.86475 7.27753 3.88824 7.23236 3.91632 7.19025C3.94531 7.14722 3.97827 7.10724 4.01398 7.07153C4.04999 7.03552 4.08997 7.00256 4.133 6.97449C4.17511 6.9455 4.22028 6.9223 4.26788 6.90277C4.31488 6.88324 4.36401 6.86737 4.41406 6.85822C4.51477 6.83777 4.61792 6.83716 4.71863 6.85822C4.76868 6.86737 4.81811 6.88324 4.86481 6.90277C4.91241 6.9223 4.95788 6.9455 5 6.97449C5.04303 7.00256 5.0827 7.03552 5.11871 7.07153C5.15472 7.10724 5.18738 7.14722 5.21545 7.19025C5.24383 7.23236 5.26794 7.27753 5.28747 7.32452C5.307 7.37213 5.32257 7.42127 5.33203 7.47131C5.3421 7.52136 5.34759 7.57294 5.34759 7.6236C5.34759 7.67456 5.3421 7.72614 5.33203 7.77618C5.32257 7.82623 5.307 7.87537 5.28747 7.92206C5.26794 7.96997 5.24383 8.01514 5.21545 8.05725C5.18738 8.10028 5.15472 8.13995 5.11871 8.17596C5.0827 8.21198 5.04303 8.24493 5 8.27301C4.95788 8.30109 4.91241 8.3252 4.86481 8.34473C4.81781 8.36426 4.76868 8.37921 4.71863 8.38928C4.66858 8.39966 4.61731 8.40485 4.56634 8.40485Z" fill="#FF8617"/>
<path d="M24.8032 12.6175C24.7526 12.6175 24.7007 12.6129 24.6509 12.6025C24.6009 12.5925 24.5515 12.5775 24.5048 12.558C24.4572 12.5384 24.4117 12.5143 24.3696 12.4863C24.3265 12.4573 24.2869 12.4246 24.2509 12.3886C24.2148 12.3526 24.1822 12.3129 24.1541 12.2699C24.126 12.2278 24.1016 12.1823 24.0821 12.1353C24.0626 12.0877 24.0479 12.0395 24.0375 11.9894C24.0275 11.9385 24.022 11.8878 24.022 11.8362C24.022 11.6309 24.1056 11.4291 24.2509 11.2839C24.2869 11.2479 24.3268 11.2152 24.3699 11.1871C24.412 11.1588 24.4572 11.1346 24.5048 11.1151C24.5518 11.0956 24.6009 11.0806 24.6509 11.0706C24.7517 11.0504 24.8557 11.0504 24.9564 11.0706C25.0056 11.0806 25.055 11.0956 25.1026 11.1151C25.1493 11.1346 25.1948 11.1588 25.2369 11.1871C25.2799 11.2152 25.3196 11.2479 25.3556 11.2839C25.5009 11.4291 25.5845 11.6309 25.5845 11.8362C25.5845 11.8878 25.5799 11.9385 25.5698 11.9894C25.5598 12.0395 25.5448 12.0877 25.5253 12.1353C25.5057 12.1823 25.4816 12.2278 25.4533 12.2699C25.4246 12.3129 25.3916 12.3526 25.3556 12.3886C25.3199 12.4246 25.2799 12.4573 25.2369 12.4863C25.1948 12.5143 25.1496 12.5384 25.1026 12.558C25.055 12.5775 25.0056 12.5925 24.9564 12.6025C24.9055 12.6129 24.8539 12.6175 24.8032 12.6175Z" fill="#FF8617"/>
<path d="M39.1334 4.93195H8.49221C7.71248 3.52936 6.21498 2.57812 4.49959 2.57812C3.28041 2.57812 2.09541 3.07953 1.24885 3.95355C0.409621 4.82056 -0.0328843 5.95673 0.0019058 7.15454V32.5839C-0.000535604 32.6709 -0.000535604 32.7582 0.0019058 32.8461C-0.0218979 34.0418 0.434645 35.1807 1.28822 36.0535C2.16835 36.9534 3.39363 37.4695 4.65035 37.4695H39.2188C39.6504 37.4695 40.0001 37.1198 40.0001 36.6882V5.79865C40.0001 5.32074 39.6113 4.93195 39.1334 4.93195ZM2.37129 5.04059C2.93343 4.46014 3.68904 4.14063 4.49959 4.14063C6.15486 4.14063 7.50161 5.48706 7.50161 7.14264V29.3997C6.90102 28.8742 6.16219 28.5034 5.34767 28.3499V10.7272C5.34767 10.2957 4.99794 9.94599 4.56642 9.94599C4.13521 9.94599 3.78517 10.2957 3.78517 10.7272V28.3283C2.96852 28.4601 2.19582 28.8147 1.56441 29.3509V7.14264C1.56441 7.1341 1.56441 7.12586 1.5641 7.11762C1.53908 6.34155 1.82564 5.60394 2.37129 5.04059ZM38.4376 35.907H4.65035C3.81142 35.907 2.99324 35.5621 2.40547 34.9609C1.84578 34.3887 1.54701 33.6469 1.56441 32.8711C1.56441 32.8626 1.56441 32.854 1.56441 32.8452C1.56441 32.8421 1.56441 32.8388 1.56441 32.8354V32.6123C1.59004 31.9095 1.87233 31.2485 2.37129 30.7333C2.93343 30.1529 3.68904 29.8334 4.49959 29.8334C6.15486 29.8334 7.50161 31.1801 7.50161 32.8354C7.50161 33.2669 7.85134 33.6166 8.28286 33.6166C8.71437 33.6166 9.06411 33.2669 9.06411 32.8354V7.14264C9.06411 6.92261 9.04854 6.70624 9.01833 6.49445H38.4376V35.907Z" fill="#FF8617"/>
<path d="M13.2769 22.6544H24.803C25.2346 22.6544 25.5843 22.3047 25.5843 21.8732C25.5843 21.8356 25.5816 21.7987 25.5764 21.7624C25.5816 21.7261 25.5843 21.6892 25.5843 21.6513V15.1956C25.5843 14.7641 25.2346 14.4144 24.803 14.4144C24.3718 14.4144 24.0218 14.7641 24.0218 15.1956V21.0919H21.0012V18.7964C21.0012 18.3649 20.6514 18.0151 20.2199 18.0151C18.3925 18.0151 16.8706 19.3475 16.5746 21.0919H14.0581V9.84497H19.4387V13.7491H16.2227C15.7912 13.7491 15.4415 14.0991 15.4415 14.5303C15.4415 14.9619 15.7912 15.3116 16.2227 15.3116H20.2199C20.6514 15.3116 21.0012 14.9619 21.0012 14.5303V9.84497H29.6898C30.0066 11.311 31.195 12.4567 32.6836 12.7094V15.0778H28.6049C28.1734 15.0778 27.8237 15.4279 27.8237 15.8591C27.8237 16.2906 28.1734 16.6403 28.6049 16.6403H32.6836V21.0922H28.9956C28.564 21.0922 28.2143 21.442 28.2143 21.8735C28.2143 22.3047 28.564 22.6547 28.9956 22.6547H33.4649C33.8964 22.6547 34.2461 22.3047 34.2461 21.8735V9.06372C34.2461 8.6322 33.8964 8.28247 33.4649 8.28247H13.2769C12.8453 8.28247 12.4956 8.6322 12.4956 9.06372V21.8732C12.4956 22.3047 12.8453 22.6544 13.2769 22.6544ZM19.4387 19.7257V21.0919H18.1768C18.3672 20.4675 18.8362 19.9634 19.4387 19.7257ZM32.6836 9.84497V11.1069C32.0592 10.9167 31.5551 10.4474 31.3173 9.84497H32.6836Z" fill="#FF8617"/>
<path d="M33.4649 29.5639H13.2769C12.8453 29.5639 12.4956 29.2142 12.4956 28.7827V25.7266C12.4956 25.2951 12.8453 24.9454 13.2769 24.9454H33.4649C33.8964 24.9454 34.2461 25.2951 34.2461 25.7266V28.7827C34.2461 29.2142 33.8964 29.5639 33.4649 29.5639ZM14.0581 28.0014H32.6836V26.5079H14.0581V28.0014Z" fill="#FF8617"/>
<path d="M33.4651 33.226C33.4141 33.226 33.3626 33.2214 33.3125 33.2114C33.2625 33.201 33.2133 33.1864 33.1666 33.1668C33.119 33.1473 33.0735 33.1229 33.0314 33.0948C32.9884 33.0658 32.9487 33.0332 32.9127 32.9971C32.7675 32.8519 32.6838 32.6505 32.6838 32.4448C32.6838 32.3941 32.689 32.3425 32.6994 32.2925C32.7095 32.2424 32.7244 32.1933 32.744 32.1463C32.7635 32.0987 32.7876 32.0535 32.8157 32.0111C32.8438 31.9684 32.8767 31.9284 32.9127 31.8924C32.9484 31.8567 32.9884 31.8237 33.0314 31.7957C33.0735 31.7676 33.1187 31.7432 33.1666 31.7236C33.2133 31.7041 33.2625 31.6895 33.3125 31.6791C33.5664 31.6275 33.8359 31.7111 34.0172 31.8924C34.1627 32.0377 34.2463 32.2394 34.2463 32.4448C34.2463 32.6505 34.1627 32.8519 34.0172 32.9971C33.8719 33.1424 33.6705 33.226 33.4651 33.226Z" fill="#FF8617"/>
<path d="M30.1055 33.226H13.2769C12.8453 33.226 12.4956 32.8763 12.4956 32.4448C12.4956 32.0136 12.8453 31.6635 13.2769 31.6635H30.1055C30.537 31.6635 30.8867 32.0136 30.8867 32.4448C30.8867 32.8763 30.537 33.226 30.1055 33.226Z" fill="#FF8617"/>
</g>
<defs>
<clipPath id="clip0">
<rect width="40" height="40" fill="white"/>
</clipPath>
</defs>
</svg>
