<svg width="49" height="49" viewBox="0 0 49 49" fill="none" xmlns="http://www.w3.org/2000/svg">
<path d="M13.1907 5.98002C13.5872 5.98002 13.9084 5.65865 13.9084 5.26225V3.89676C13.9084 3.50036 13.5872 3.17899 13.1907 3.17899C12.7942 3.17899 12.4729 3.50036 12.4729 3.89676V5.26216C12.4729 5.65865 12.7943 5.98002 13.1907 5.98002Z" fill="#FF8617"/>
<path d="M12.4729 16.4524V17.8178C12.4729 18.2142 12.7942 18.5356 13.1907 18.5356C13.5872 18.5356 13.9084 18.2142 13.9084 17.8178V16.4524C13.9084 16.056 13.5872 15.7346 13.1907 15.7346C12.7942 15.7346 12.4729 16.056 12.4729 16.4524Z" fill="#FF8617"/>
<path d="M8.72665 7.40847C9.00668 7.68869 9.46117 7.68888 9.74177 7.40847C10.0221 7.12815 10.0221 6.67366 9.74168 6.39334L8.77613 5.42789C8.49591 5.14748 8.04142 5.14758 7.76101 5.42789C7.48069 5.70821 7.48069 6.1627 7.7611 6.44301L8.72665 7.40847Z" fill="#FF8617"/>
<path d="M17.6547 14.3061C17.3742 14.0258 16.9198 14.0258 16.6394 14.3061C16.3591 14.5864 16.3591 15.0409 16.6394 15.3212L17.605 16.2868C17.8854 16.5671 18.3398 16.5671 18.6202 16.2868C18.9006 16.0065 18.9005 15.552 18.6202 15.2716L17.6547 14.3061Z" fill="#FF8617"/>
<path d="M6.22998 11.5751H7.59547C7.99197 11.5751 8.31325 11.2537 8.31325 10.8573C8.31325 10.4609 7.99197 10.1396 7.59547 10.1396H6.22998C5.83348 10.1396 5.51221 10.4609 5.51221 10.8573C5.51221 11.2537 5.83348 11.5751 6.22998 11.5751Z" fill="#FF8617"/>
<path d="M18.0679 10.8573C18.0679 11.2537 18.3891 11.5751 18.7856 11.5751H20.1511C20.5476 11.5751 20.8689 11.2537 20.8689 10.8573C20.8689 10.4609 20.5476 10.1396 20.1511 10.1396H18.7856C18.3892 10.1396 18.0679 10.4609 18.0679 10.8573Z" fill="#FF8617"/>
<path d="M8.72669 14.3061L7.76114 15.2716C7.30741 15.7254 7.6352 16.497 8.26875 16.497C8.45241 16.497 8.63616 16.427 8.77636 16.2868L9.74191 15.3212C10.0222 15.0409 10.0222 14.5864 9.74191 14.3061C9.4615 14.0258 9.0071 14.0258 8.72669 14.3061Z" fill="#FF8617"/>
<path d="M17.6546 7.40847L18.6202 6.44302C18.9006 6.1627 18.9006 5.7083 18.6203 5.42789C18.34 5.14758 17.8855 5.14748 17.6052 5.42789L16.6395 6.39335C16.3591 6.67366 16.3591 7.12806 16.6394 7.40847C16.9197 7.68878 17.3744 7.68888 17.6546 7.40847Z" fill="#FF8617"/>
<path d="M48.9981 43.4386C48.9452 42.1208 47.7167 41.0475 46.3409 41.273C45.7881 40.216 48.2038 45.0365 38.2807 25.1905L34.8794 18.3879C34.2044 17.0378 32.2786 17.0423 31.6059 18.3879C31.301 18.9978 29.3115 22.9768 28.8991 23.8013L24.829 15.6612C24.2165 14.4356 22.4656 14.4356 21.8529 15.6612L18.5165 22.3342C18.3753 22.6165 17.9712 22.6186 17.8291 22.3342C17.2163 21.1088 15.4656 21.1089 14.8529 22.3342L9.45604 33.1285L9.30981 32.8359C8.85742 31.9313 7.57308 31.9405 7.12539 32.8359V32.8357C7.12539 32.8358 7.12539 32.8357 7.12539 32.8358L1.35047 44.3855H0.717773C0.321275 44.3855 0 44.7069 0 45.1033C0 45.4997 0.321275 45.821 0.717773 45.821C1.49287 45.821 36.0957 45.821 36.8685 45.821C37.265 45.821 37.5863 45.4997 37.5863 45.1033C37.5863 44.7069 37.265 44.3855 36.8685 44.3855H28.9173C28.5966 44.3855 28.3388 44.1236 28.3431 43.8028C28.3476 43.4883 28.6395 43.2012 28.9803 43.2406C29.5272 43.304 30.0179 42.9444 30.1208 42.404C30.2433 41.7631 30.8062 41.2987 31.4584 41.2987C31.9382 41.2987 32.3958 41.5565 32.6421 41.989C32.8783 42.4038 33.3592 42.6154 33.8128 42.5158C33.9171 42.493 34.1573 42.3871 34.4876 42.4936C35.3269 42.7644 35.4872 42.0098 36.2966 42.1706C36.8603 42.2831 37.4028 41.9008 37.4783 41.3357C37.6261 40.2302 38.579 39.3965 39.6949 39.3965C40.5006 39.3965 41.2478 39.8344 41.6445 40.5393C41.8747 40.9484 42.3136 41.1831 42.7609 41.1632C42.8641 41.1586 42.9678 41.1405 43.0695 41.1078C43.9212 40.8346 44.8063 41.2873 45.132 42.0735C45.3498 42.5994 45.9264 42.8742 46.4732 42.7127C47.0118 42.5535 47.5424 42.9649 47.5637 43.496C47.5833 43.9854 47.1941 44.3855 46.7108 44.3855H40.2184C39.8219 44.3855 39.5006 44.7069 39.5006 45.1033C39.5006 45.4997 39.8219 45.821 40.2184 45.821H46.7108C48.01 45.821 49.0502 44.7439 48.9981 43.4386ZM32.8899 19.0298C33.0357 18.7386 33.4503 18.7397 33.5953 19.0298C33.8722 19.5835 35.9644 23.7679 36.7678 25.3748L34.2379 27.9598C34.1765 28.0223 34.0769 28.0265 34.0107 27.9695L32.4774 26.6502C31.7929 26.0609 30.7577 26.1534 30.1884 26.8555L29.3664 27.8694C29.3063 27.9437 29.1959 27.9525 29.1246 27.8867L28.6712 27.4673C31.5167 21.7764 31.4433 21.9232 32.8899 19.0298ZM8.21745 33.8616L10.1767 37.7801L9.13458 38.8449L7.98566 37.8562C7.47336 37.4154 6.75387 37.4216 6.25697 37.7822L8.21745 33.8616ZM2.9556 44.3855L5.05236 40.1919C6.08107 40.4495 6.54208 39.6347 7.08021 38.971L8.22635 39.9572C8.78335 40.4366 9.62171 40.3996 10.1349 39.8755L10.856 39.1387L13.4795 44.3855H2.9556ZM18.6071 44.3855H15.0845L10.2585 34.7334L16.1372 22.9763C16.2217 22.8074 16.4607 22.8073 16.5453 22.9764C17.2161 24.3182 19.1304 24.3167 19.8007 22.9764L23.1372 16.3031C23.2217 16.1342 23.4607 16.1342 23.5452 16.3031L28.0968 25.4063C27.6901 26.2194 19.3918 42.8162 18.6071 44.3855ZM43.4994 39.5935C43.2658 39.5996 43.0347 39.6316 42.8092 39.6894C42.1379 38.6156 40.9581 37.9608 39.695 37.9608C38.0106 37.9608 36.5524 39.1177 36.1396 40.7149C35.6672 40.7043 35.1913 40.825 34.7675 41.0816C34.4348 40.9993 34.0841 40.9896 33.7467 41.0534C33.2261 40.3133 32.3716 39.863 31.4585 39.863C30.2326 39.863 29.1616 40.6618 28.7949 41.805C27.7635 41.8676 26.9227 42.7216 26.9077 43.7824V43.7825C26.9049 43.9794 26.9366 44.201 26.9902 44.3853H20.2123L28.0027 28.8044L28.1499 28.9405C28.1499 28.9405 28.1499 28.9405 28.15 28.9405C28.8286 29.5682 29.8994 29.4918 30.4818 28.7734L31.3038 27.7596C31.3633 27.6863 31.4701 27.6771 31.5413 27.7382L33.0746 29.0577C33.7132 29.607 34.675 29.5658 35.2641 28.9639L37.4472 26.7332L43.8842 39.6071C43.7581 39.5948 43.6274 39.5902 43.4994 39.5935Z" fill="#FF8617"/>
<path d="M13.1906 15.1519C14.7832 15.1519 16.2371 14.2771 16.985 12.869C17.1709 12.5189 17.0378 12.0843 16.6878 11.8983C16.3377 11.7122 15.9032 11.8455 15.717 12.1955C15.2189 13.1335 14.2508 13.7162 13.1906 13.7162C11.6142 13.7162 10.3316 12.4337 10.3316 10.8572C10.3316 9.28082 11.6142 7.9983 13.1906 7.9983C14.2508 7.9983 15.2188 8.58094 15.717 9.51902C15.9029 9.86901 16.3375 10.0022 16.6878 9.81618C17.0378 9.63023 17.171 9.19574 16.985 8.84546C16.2372 7.43729 14.7832 6.56256 13.1906 6.56256C10.8226 6.56256 8.896 8.48906 8.896 10.8571C8.896 13.2252 10.8226 15.1519 13.1906 15.1519Z" fill="#FF8617"/>
</svg>
