<svg width="39" height="39" viewBox="0 0 39 39" fill="none" xmlns="http://www.w3.org/2000/svg">
<g clip-path="url(#clip0)">
<path d="M26.9836 20.689C26.7824 20.689 26.5866 20.6075 26.445 20.4658C26.4099 20.4307 26.3781 20.392 26.3498 20.3501C26.3224 20.3087 26.2989 20.2647 26.2799 20.2183C26.2608 20.1725 26.2462 20.1246 26.2364 20.0758C26.2263 20.027 26.2209 19.9767 26.2209 19.9273C26.2209 19.8779 26.2263 19.8276 26.2364 19.7788C26.2462 19.73 26.2608 19.6821 26.2799 19.6354C26.2989 19.5899 26.3224 19.5455 26.3498 19.5045C26.3781 19.4625 26.4099 19.4238 26.445 19.3887C26.6217 19.212 26.8845 19.1304 27.132 19.1801C27.1808 19.19 27.229 19.2042 27.2746 19.2233C27.321 19.2423 27.3653 19.2661 27.4064 19.2935C27.4483 19.3218 27.487 19.3536 27.5221 19.3887C27.5572 19.4238 27.5891 19.4625 27.6164 19.5045C27.6438 19.5455 27.6676 19.5899 27.6867 19.6354C27.7057 19.6821 27.7203 19.73 27.7301 19.7788C27.7399 19.8276 27.7453 19.8779 27.7453 19.9273C27.7453 20.1275 27.6637 20.3242 27.5221 20.4658C27.487 20.5009 27.448 20.5328 27.4064 20.5611C27.365 20.5875 27.321 20.6113 27.2746 20.6304C27.2287 20.6494 27.1808 20.6646 27.132 20.6738C27.0832 20.6836 27.033 20.689 26.9836 20.689Z" fill="#FF8617"/>
<path d="M19.5386 36.4482C18.2154 36.4482 17.1392 35.3717 17.1392 34.0488C17.1392 32.7259 18.2154 31.6494 19.5386 31.6494C20.8615 31.6494 21.938 32.7259 21.938 34.0488C21.938 35.3717 20.8615 36.4482 19.5386 36.4482ZM19.5386 33.1729C19.0554 33.1729 18.6626 33.5659 18.6626 34.0488C18.6626 34.5317 19.0554 34.9248 19.5386 34.9248C20.0215 34.9248 20.4146 34.5317 20.4146 34.0488C20.4146 33.5659 20.0215 33.1729 19.5386 33.1729Z" fill="#FF8617"/>
<path d="M29.6318 0H9.44531C9.02458 0 8.68359 0.340988 8.68359 0.761719V20.8598C8.68359 22.219 9.78928 23.3247 11.1485 23.3247H13.7832C13.9582 23.3642 14.5762 23.7888 15.34 24.8329C16.0693 25.83 16.3445 26.6024 16.3308 26.7976C16.0928 28.2886 15.7485 29.5651 15.445 30.6913C15.0844 32.0279 14.7732 33.1824 14.7732 34.2348C14.7732 36.8621 16.911 39 19.5387 39C22.1663 39 24.3039 36.8621 24.3039 34.2348C24.3039 33.1845 23.9927 32.0303 23.6326 30.694C23.3285 29.5657 22.9837 28.2871 22.7465 26.7994C22.7311 26.6069 23.0057 25.8327 23.7371 24.8329C24.5009 23.7888 25.1189 23.3642 25.2938 23.3247H27.9286C29.2878 23.3247 30.3935 22.219 30.3935 20.8598V0.761719C30.3935 0.340988 30.0525 0 29.6318 0V0ZM28.87 16.5299H10.207V9.43401C10.4781 9.53874 10.7685 9.59379 11.0678 9.59379C11.3725 9.59379 11.6638 9.53666 11.9319 9.43222V12.2681C11.9319 12.9218 12.1911 13.5321 12.6615 13.9862C13.1108 14.4197 13.6961 14.6556 14.3179 14.6556C14.3471 14.6556 14.3763 14.6551 14.4057 14.6542C15.3632 14.6199 16.1666 14.0246 16.5177 13.1831C16.8536 13.3479 17.23 13.4324 17.6201 13.4265C18.9094 13.4003 19.9582 12.3122 19.9582 11.0009V1.52344H20.9223V7.94717C20.9223 8.3679 21.2633 8.70889 21.684 8.70889C22.1047 8.70889 22.4457 8.3679 22.4457 7.94717V1.52344H23.366V4.95117C23.366 5.3719 23.7073 5.71289 24.1277 5.71289C24.5485 5.71289 24.8895 5.3719 24.8895 4.95117V1.52344H25.9815V7.94717C25.9815 8.3679 26.3224 8.70889 26.7432 8.70889C27.1636 8.70889 27.5049 8.3679 27.5049 7.94717V1.52344H28.87V16.5299ZM10.207 1.52344H18.4348V11.0012C18.4348 11.4892 18.0554 11.8941 17.5892 11.9033C17.2666 11.9102 16.9697 11.7382 16.8129 11.454C16.7426 11.3273 16.7069 11.1877 16.7069 11.0396C16.7069 10.6188 16.3659 10.2778 15.9452 10.2778C15.5245 10.2778 15.1835 10.6188 15.1835 11.0396V12.2292C15.1835 12.7106 14.8104 13.1155 14.3516 13.1316C14.115 13.142 13.8898 13.0543 13.7196 12.89C13.5491 12.7258 13.4553 12.5047 13.4553 12.2681V7.20628C13.4553 6.78584 13.1144 6.44456 12.6936 6.44456C12.2729 6.44456 11.9319 6.78584 11.9319 7.20628C11.9319 7.68295 11.5442 8.07035 11.0678 8.07035C10.8372 8.07035 10.6203 7.98049 10.4576 7.81744C10.2954 7.65468 10.2064 7.43836 10.207 7.20628V1.52344ZM21.2412 27.0339C21.4918 28.6061 21.8476 29.926 22.1616 31.0903C22.5073 32.373 22.7804 33.3862 22.7804 34.2345C22.7804 36.0222 21.326 37.4763 19.5387 37.4766C17.751 37.4763 16.2966 36.0222 16.2966 34.2345C16.2966 33.3841 16.5698 32.371 16.9158 31.0879C17.2297 29.9245 17.5853 28.6055 17.8358 27.0339C18.0117 25.93 16.8224 24.1849 16.0892 23.3247H22.9875C22.2547 24.1849 21.0654 25.93 21.2412 27.0339ZM28.87 20.8598C28.87 21.379 28.4478 21.8012 27.9286 21.8012H11.1485C10.6292 21.8012 10.207 21.379 10.207 20.8598V20.689H24.0129C24.4333 20.689 24.7746 20.348 24.7746 19.9273C24.7746 19.5068 24.4333 19.1656 24.0129 19.1656H10.207V18.0533H28.87V20.8598Z" fill="#FF8617"/>
</g>
<defs>
<clipPath id="clip0">
<rect width="39" height="39" fill="white"/>
</clipPath>
</defs>
</svg>
