<svg width="56" height="57" viewBox="0 0 56 57" fill="none" xmlns="http://www.w3.org/2000/svg">
<g clip-path="url(#clip0)">
<path d="M42.9093 9.7119C42.9337 9.71367 42.958 9.71544 42.9829 9.71544C43.0249 9.71544 43.067 9.7119 43.1082 9.70614C44.2109 9.72873 45.0934 10.628 45.0947 11.7307C45.0947 12.2317 45.5009 12.638 46.002 12.638C46.503 12.638 46.9093 12.2317 46.9093 11.7307C46.907 9.9272 45.6516 8.36692 43.8901 7.97884V7.10699C43.8901 6.60595 43.4839 6.19971 42.9829 6.19971C42.4818 6.19971 42.0756 6.60595 42.0756 7.10699V8.02004C40.2131 8.51798 39.0082 10.3197 39.2593 12.2313C39.5105 14.1429 41.1399 15.572 43.0679 15.572C44.1874 15.572 45.0947 16.4798 45.0947 17.5993C45.0947 18.7183 44.1874 19.626 43.0679 19.626C41.9484 19.626 41.0411 18.7183 41.0411 17.5993C41.0411 17.0982 40.6349 16.692 40.1339 16.692C39.6328 16.692 39.2266 17.0982 39.2266 17.5993C39.2288 19.3376 40.3966 20.8585 42.0756 21.3099V22.304C42.0756 22.8051 42.4818 23.2113 42.9829 23.2113C43.4839 23.2113 43.8901 22.8051 43.8901 22.304V21.3516C45.8062 20.932 47.0984 19.1361 46.8871 17.1859C46.6762 15.2358 45.0296 13.7579 43.0679 13.7584C41.9794 13.7588 41.085 12.8994 41.042 11.8118C40.9995 10.7242 41.8239 9.79651 42.9093 9.7119Z" fill="#FF8617"/>
<path d="M43.1196 2C37.5381 2 32.7749 5.64199 30.9904 10.5187H8.4717C7.97287 10.5187 7.56796 10.9683 7.56442 11.4667L7.35 43.2944H0.93121C0.430164 43.2944 0 43.6572 0 44.1591V48.1981C0.0115182 52.0004 3.00627 55.1241 6.80465 55.296V55.3159H34.8171V55.2894C35.044 55.2978 35.1374 55.3159 35.281 55.3159H35.3005C39.2317 55.3097 42.4157 52.1209 42.4157 48.1897V27.7686C42.6425 27.781 42.8826 27.7877 43.1174 27.7877C50.2202 27.7877 56.0002 21.9966 56.0002 14.8934C56.0002 7.7906 50.2229 2 43.1196 2ZM7.14976 53.5014H7.144C4.20905 53.4974 1.82786 51.1242 1.81457 48.1888V45.109H28.1259V48.1759C28.1272 50.0694 28.8834 51.8844 30.2267 53.2192C30.3219 53.3144 30.4402 53.388 30.5399 53.5014H7.14976ZM40.6011 48.1888C40.6015 51.1189 38.2292 53.4956 35.2996 53.5014H35.2823C32.3407 53.496 29.9551 51.118 29.9405 48.1768V44.1591C29.948 43.927 29.8594 43.7024 29.695 43.5385C29.5307 43.3746 29.3061 43.2864 29.0744 43.2944H9.16457L9.37279 12.3332H30.4867C30.3259 13.1639 30.2426 14.0074 30.2382 14.8531C30.2364 16.6415 30.6094 18.41 31.3333 20.0452H22.7637C22.2622 20.0452 21.8564 20.4514 21.8564 20.9525C21.8564 21.4535 22.2622 21.8597 22.7637 21.8597H32.3177C34.1894 24.8031 37.1815 26.8551 40.6011 27.5418V48.1888ZM43.1196 25.9735C37.0078 25.9735 32.0527 21.0189 32.0532 14.9067C32.0532 8.79446 37.0078 3.83982 43.1201 3.83982C49.2318 3.83982 54.1865 8.7949 54.1865 14.9067C54.1798 21.0158 49.2292 25.9669 43.1196 25.9735Z" fill="#174682"/>
<path d="M16.9398 25.8472C15.3383 25.8472 14.0359 27.1084 14.0359 28.659C14.0359 30.2095 15.3383 31.4708 16.9398 31.4708C18.5413 31.4708 19.8442 30.2095 19.8442 28.659C19.8442 27.1084 18.5413 25.8472 16.9398 25.8472ZM16.9398 29.6562C16.3387 29.6562 15.8505 29.2087 15.8505 28.659C15.8505 28.1087 16.3391 27.6617 16.9398 27.6617C17.5406 27.6617 18.0296 28.1092 18.0296 28.659C18.0296 29.2087 17.5406 29.6562 16.9398 29.6562Z" fill="#FF8617"/>
<path d="M21.8564 28.6549C21.8564 29.1559 22.2622 29.5622 22.7637 29.5622H34.8597C35.3608 29.5622 35.767 29.1559 35.767 28.6549C35.767 28.1538 35.3608 27.7476 34.8597 27.7476H22.7637C22.2622 27.7476 21.8564 28.1538 21.8564 28.6549Z" fill="#174682"/>
<path d="M16.9398 17.9602C15.3383 17.9602 14.0359 19.2219 14.0359 20.7724C14.0359 22.323 15.3383 23.5842 16.9398 23.5842C18.5413 23.5842 19.8442 22.323 19.8442 20.7724C19.8442 19.2219 18.5413 17.9602 16.9398 17.9602ZM16.9398 21.7697C16.3387 21.7697 15.8505 21.3222 15.8505 20.7724C15.8505 20.2227 16.3391 19.7748 16.9398 19.7748C17.5406 19.7748 18.0296 20.2222 18.0296 20.7724C18.0296 21.3222 17.5406 21.7701 16.9398 21.7701V21.7697Z" fill="#FF8617"/>
<path d="M16.9398 33.7334C15.3383 33.7334 14.0359 34.9946 14.0359 36.5452C14.0359 38.0957 15.3383 39.357 16.9398 39.357C18.5413 39.357 19.8442 38.0957 19.8442 36.5452C19.8442 34.9946 18.5413 33.7334 16.9398 33.7334ZM16.9398 37.5424C16.3387 37.5424 15.8505 37.0954 15.8505 36.5452C15.8505 35.9954 16.3391 35.548 16.9398 35.548C17.5406 35.548 18.0296 35.9954 18.0296 36.5452C18.0296 37.095 17.5406 37.5424 16.9398 37.5424Z" fill="#FF8617"/>
<path d="M34.8597 35.6865H22.7637C22.2622 35.6865 21.8564 36.0928 21.8564 36.5938C21.8564 37.0949 22.2622 37.5011 22.7637 37.5011H34.8597C35.3608 37.5011 35.767 37.0949 35.767 36.5938C35.767 36.0928 35.3608 35.6865 34.8597 35.6865Z" fill="#174682"/>
</g>
<defs>
<clipPath id="clip0">
<rect width="56" height="56" fill="white" transform="translate(0 0.427734)"/>
</clipPath>
</defs>
</svg>
