<svg width="56" height="57" viewBox="0 0 56 57" fill="none" xmlns="http://www.w3.org/2000/svg">
<path d="M22.75 5.92773H29.75V7.67773H22.75V5.92773Z" fill="#0B2939"/>
<path d="M31.5 5.92773H36.75V7.67773H31.5V5.92773Z" fill="#0B2939"/>
<path d="M22.75 9.42773H26.25V11.1777H22.75V9.42773Z" fill="#0B2939"/>
<path d="M28 9.42773H36.75V11.1777H28V9.42773Z" fill="#0B2939"/>
<path d="M22.75 12.9277H29.75V14.6777H22.75V12.9277Z" fill="#0B2939"/>
<path d="M31.5 12.9277H36.75V14.6777H31.5V12.9277Z" fill="#0B2939"/>
<path d="M37.625 40.0527C37.3929 40.0527 37.1704 39.9604 37.0063 39.7963L34.3813 37.1713L35.6186 35.9341L37.625 37.9405L41.3813 34.1841L42.6186 35.4213L38.2436 39.7963C38.0795 39.9604 37.857 40.0527 37.625 40.0527Z" fill="#0B2939"/>
<path d="M10.5 45.3027H19.25V47.0527H10.5V45.3027Z" fill="#0B2939"/>
<path d="M10.5 48.8027H15.75V50.5527H10.5V48.8027Z" fill="#0B2939"/>
<path d="M35 45.3027H45.5V47.0527H35V45.3027Z" fill="#0B2939"/>
<path d="M38.5 48.8027H45.5V50.5527H38.5V48.8027Z" fill="#0B2939"/>
<path d="M21 45.3027H33.25V47.0527H21V45.3027Z" fill="#0B2939"/>
<path d="M17.5 48.8027H36.75V50.5527H17.5V48.8027Z" fill="#0B2939"/>
<path d="M10.5 41.8027H30.625V43.5527H10.5V41.8027Z" fill="#0B2939"/>
<path d="M7.875 54.9277H48.125C48.3571 54.9277 48.5796 54.8355 48.7437 54.6715C48.9078 54.5074 49 54.2848 49 54.0527V12.0527C49 11.8207 48.9077 11.5982 48.7436 11.4341L39.9936 2.68411C39.8296 2.52 39.607 2.42778 39.375 2.42773H7.875C7.64294 2.42773 7.42038 2.51992 7.25628 2.68402C7.09219 2.84811 7 3.07067 7 3.30273V54.0527C7 54.2848 7.09219 54.5074 7.25628 54.6715C7.42038 54.8355 7.64294 54.9277 7.875 54.9277ZM40.25 5.41498L46.0127 11.1777H40.25V5.41498ZM8.75 4.17773H38.5V12.0527C38.5 12.2848 38.5922 12.5074 38.7563 12.6715C38.9204 12.8355 39.1429 12.9277 39.375 12.9277H47.25V53.1777H8.75V4.17773Z" fill="#174682"/>
<path d="M21 5.92773H10.5V14.6777H21V5.92773ZM19.25 12.9277H12.25V7.67773H19.25V12.9277Z" fill="#174682"/>
<path d="M22.75 5.92773H29.75V7.67773H22.75V5.92773Z" fill="#174682"/>
<path d="M31.5 5.92773H36.75V7.67773H31.5V5.92773Z" fill="#174682"/>
<path d="M22.75 9.42773H26.25V11.1777H22.75V9.42773Z" fill="#174682"/>
<path d="M28 9.42773H36.75V11.1777H28V9.42773Z" fill="#174682"/>
<path d="M22.75 12.9277H29.75V14.6777H22.75V12.9277Z" fill="#174682"/>
<path d="M31.5 12.9277H36.75V14.6777H31.5V12.9277Z" fill="#174682"/>
<path d="M13.3814 31.0464C13.5455 31.2105 13.768 31.3026 14.0001 31.3026C14.2321 31.3026 14.4546 31.2105 14.6187 31.0464L14.8751 30.79V36.5528C14.8751 36.7849 14.9672 37.0074 15.1313 37.1715C15.2954 37.3356 15.518 37.4278 15.7501 37.4278H28.0001C28.2321 37.4278 28.4547 37.3356 28.6188 37.1715C28.7829 37.0074 28.8751 36.7849 28.8751 36.5528V30.79L29.1314 31.0464C29.2955 31.2105 29.518 31.3026 29.7501 31.3026C29.9821 31.3026 30.2046 31.2105 30.3687 31.0464L32.9937 28.4214C33.1577 28.2573 33.2499 28.0348 33.2499 27.8028C33.2499 27.5708 33.1577 27.3483 32.9937 27.1842L22.4937 16.6842C22.3296 16.5201 22.1071 16.428 21.8751 16.428C21.643 16.428 21.4205 16.5201 21.2564 16.6842L10.7564 27.1842C10.5924 27.3483 10.5002 27.5708 10.5002 27.8028C10.5002 28.0348 10.5924 28.2573 10.7564 28.4214L13.3814 31.0464ZM23.6251 35.6778H20.1251V32.1778C20.1251 31.7137 20.3094 31.2685 20.6376 30.9404C20.9658 30.6122 21.4109 30.4278 21.8751 30.4278C22.3392 30.4278 22.7843 30.6122 23.1125 30.9404C23.4407 31.2685 23.6251 31.7137 23.6251 32.1778V35.6778ZM27.1251 35.6778H25.3751V32.1778C25.3751 31.2495 25.0063 30.3593 24.3499 29.7029C23.6936 29.0465 22.8033 28.6778 21.8751 28.6778C20.9468 28.6778 20.0566 29.0465 19.4002 29.7029C18.7438 30.3593 18.3751 31.2495 18.3751 32.1778V35.6778H16.6251V29.04L21.8751 23.79L27.1251 29.04V35.6778ZM21.8751 18.54L31.1378 27.8028L29.7501 29.1905L22.4937 21.9342C22.3296 21.7701 22.1071 21.678 21.8751 21.678C21.643 21.678 21.4205 21.7701 21.2564 21.9342L14.0001 29.1905L12.6123 27.8028L21.8751 18.54Z" fill="#FF8617"/>
<path d="M33.2797 19.7029C33.2395 19.8541 33.2405 20.0133 33.2826 20.1639C33.3248 20.3146 33.4066 20.4512 33.5195 20.5595L35.7814 22.7278L35.0245 25.8471C34.9841 26.0095 34.9912 26.1801 35.0448 26.3387C35.0984 26.4972 35.1964 26.637 35.3271 26.7415C35.4578 26.8461 35.6157 26.9109 35.7821 26.9284C35.9486 26.9459 36.1165 26.9153 36.2661 26.8403L39.375 25.281L42.4839 26.8403C42.6331 26.9149 42.8006 26.9454 42.9666 26.9279C43.1326 26.9105 43.2902 26.846 43.4207 26.742C43.5512 26.6379 43.6493 26.4987 43.7033 26.3408C43.7573 26.1829 43.765 26.0128 43.7255 25.8506L42.9686 22.7278L45.2305 20.5604C45.3434 20.4522 45.4252 20.3157 45.4675 20.1651C45.5098 20.0145 45.5109 19.8554 45.4708 19.7042C45.4307 19.5531 45.3508 19.4154 45.2394 19.3056C45.1281 19.1958 44.9893 19.1179 44.8376 19.0799L41.7279 18.3029L40.1625 15.1616C40.0816 15.026 39.967 14.9137 39.8297 14.8358C39.6924 14.7578 39.5372 14.7168 39.3794 14.7168C39.2215 14.7168 39.0663 14.7578 38.929 14.8358C38.7918 14.9137 38.6771 15.026 38.5962 15.1616L37.0265 18.302L33.9167 19.079C33.7644 19.1164 33.6249 19.194 33.5128 19.3037C33.4007 19.4135 33.3202 19.5513 33.2797 19.7029ZM37.8376 19.9015C37.9601 19.8709 38.0745 19.8142 38.173 19.7352C38.2714 19.6562 38.3517 19.5568 38.4081 19.4439L39.375 17.5093L40.3375 19.4439C40.3939 19.5568 40.4742 19.6562 40.5726 19.7352C40.6711 19.8142 40.7855 19.8709 40.908 19.9015L42.875 20.3924L41.3945 21.8116C41.2838 21.9177 41.2029 22.0509 41.1599 22.198C41.1169 22.3451 41.1133 22.5009 41.1495 22.6499L41.5809 24.427L39.7661 23.5196C39.6447 23.459 39.5108 23.4274 39.375 23.4274C39.2392 23.4274 39.1053 23.459 38.9839 23.5196L37.1691 24.427L37.6005 22.6499C37.6366 22.5009 37.633 22.3451 37.59 22.198C37.547 22.0509 37.4662 21.9177 37.3555 21.8116L35.875 20.3924L37.8376 19.9015Z" fill="#174682"/>
<path d="M38.5 29.5527C37.1155 29.5527 35.7622 29.9633 34.611 30.7324C33.4599 31.5016 32.5627 32.5949 32.0328 33.874C31.503 35.153 31.3644 36.5605 31.6345 37.9184C31.9046 39.2762 32.5713 40.5235 33.5503 41.5025C34.5292 42.4814 35.7765 43.1481 37.1344 43.4182C38.4922 43.6883 39.8997 43.5497 41.1788 43.0199C42.4579 42.4901 43.5511 41.5929 44.3203 40.4417C45.0895 39.2906 45.5 37.9372 45.5 36.5527C45.4979 34.6969 44.7598 32.9176 43.4475 31.6053C42.1351 30.293 40.3559 29.5548 38.5 29.5527ZM38.5 41.8027C37.4617 41.8027 36.4466 41.4948 35.5833 40.918C34.7199 40.3411 34.047 39.5211 33.6496 38.5618C33.2523 37.6025 33.1483 36.5469 33.3509 35.5285C33.5535 34.5101 34.0535 33.5746 34.7877 32.8404C35.5219 32.1062 36.4574 31.6062 37.4758 31.4036C38.4942 31.201 39.5498 31.305 40.5091 31.7024C41.4684 32.0997 42.2883 32.7726 42.8652 33.636C43.4421 34.4994 43.75 35.5144 43.75 36.5527C43.7486 37.9447 43.195 39.2792 42.2108 40.2635C41.2265 41.2478 39.892 41.8013 38.5 41.8027Z" fill="#174682"/>
<path d="M37.625 37.9405L35.6186 35.9341L34.3813 37.1713L37.0063 39.7963C37.1704 39.9604 37.393 40.0525 37.625 40.0525C37.857 40.0525 38.0795 39.9604 38.2436 39.7963L42.6186 35.4213L41.3813 34.1841L37.625 37.9405Z" fill="#FF8617"/>
<path d="M10.5 45.3027H19.25V47.0527H10.5V45.3027Z" fill="#174682"/>
<path d="M10.5 48.8027H15.75V50.5527H10.5V48.8027Z" fill="#174682"/>
<path d="M35 45.3027H45.5V47.0527H35V45.3027Z" fill="#174682"/>
<path d="M38.5 48.8027H45.5V50.5527H38.5V48.8027Z" fill="#174682"/>
<path d="M21 45.3027H33.25V47.0527H21V45.3027Z" fill="#174682"/>
<path d="M17.5 48.8027H36.75V50.5527H17.5V48.8027Z" fill="#174682"/>
<path d="M10.5 41.8027H30.625V43.5527H10.5V41.8027Z" fill="#174682"/>
</svg>
