<svg width="62" height="63" viewBox="0 0 62 63" fill="none" xmlns="http://www.w3.org/2000/svg">
<g clip-path="url(#clip0)">
<path d="M52.8434 34.0593H48.925V36.1412H53.0889C53.2501 36.1427 53.4097 36.1071 53.5545 36.037L55.6365 34.996C56.1514 34.7388 56.3598 34.1136 56.1026 33.5988L55.8789 33.1525L54.1924 32.1684C53.6994 31.8838 53.1916 31.6251 52.6716 31.3933L53.7741 33.5988L52.8434 34.0593Z" fill="#00BBD6"/>
<path d="M13.5322 31.9773H15.6142V34.0592H13.5322V31.9773Z" fill="#00BBD6"/>
<path d="M17.696 31.9773H19.778V34.0592H17.696V31.9773Z" fill="#00BBD6"/>
<path d="M21.8599 31.9773H23.9418V34.0592H21.8599V31.9773Z" fill="#00BBD6"/>
<path d="M26.0239 31.9773H28.1059V34.0592H26.0239V31.9773Z" fill="#00BBD6"/>
<path d="M30.1877 31.9773H32.2697V34.0592H30.1877V31.9773Z" fill="#00BBD6"/>
<path d="M34.3516 31.9773H36.4335V34.0592H34.3516V31.9773Z" fill="#00BBD6"/>
<path d="M38.5154 31.9773H40.5973V34.0592H38.5154V31.9773Z" fill="#00BBD6"/>
<path d="M2.7062 37.4215L20.1424 39.8267L11.6337 52.207C11.4406 52.4881 11.3974 52.8459 11.5183 53.1646C11.6388 53.4838 11.9077 53.7232 12.2386 53.806L16.4025 54.847C16.7364 54.9309 17.0902 54.8445 17.3474 54.6157L32.174 41.4364L40.4652 42.1897C41.528 42.2868 42.8597 42.3325 44.2346 42.3325C46.2017 42.3432 48.1682 42.241 50.1236 42.0265L52.875 41.6829C54.8044 41.442 56.6907 40.9307 58.4783 40.1642L60.456 39.3169C61.3405 38.9377 61.9362 38.0929 61.9951 37.1322C62.0546 36.1716 61.5672 35.2597 60.7361 34.7753L54.717 31.2641C52.0109 29.6869 48.9347 28.8553 45.8022 28.8543H37.9451L25.8916 15.1672C25.6853 14.9441 25.3955 14.816 25.0911 14.8145L20.8006 14.8917C20.4494 14.8973 20.1251 15.0788 19.9376 15.3756C19.7495 15.6719 19.7236 16.043 19.869 16.3627L25.4586 28.8543H11.0528L6.1417 19.02C5.96431 18.6652 5.60088 18.4421 5.20442 18.4446H1.04055C0.734563 18.4446 0.444332 18.5793 0.246609 18.8126C0.0488858 19.0464 -0.0359978 19.3555 0.0143224 19.6569L1.96919 31.3896L1.73385 31.5076C0.504818 32.1226 -0.181367 33.466 0.0417698 34.8226C0.264907 36.1792 1.3445 37.2324 2.7062 37.4215ZM16.374 52.6924L14.1985 52.148L24.4542 37.2309L32.9049 37.9989L31.465 39.2782L31.3227 39.264L31.3089 39.4144L16.374 52.6924ZM22.4119 16.9432L24.6479 16.9025L35.1709 28.8543H27.7398L22.4119 16.9432ZM4.14922 31.8054L2.27009 20.5266H4.56042L9.47656 30.3604C9.65344 30.7136 10.0143 30.9368 10.4093 30.9362H45.8022C48.4819 30.9388 51.1153 31.6306 53.4503 32.945L53.7741 33.5936L52.8435 34.0592H48.9251V36.1411H53.089C53.2501 36.1426 53.4097 36.107 53.5545 36.0369L55.6365 34.9959C55.8464 34.8856 56.0116 34.7067 56.1046 34.4887L59.687 36.5792C59.8405 36.6672 59.931 36.8344 59.9198 37.0113C59.9091 37.1882 59.7988 37.3432 59.6357 37.4118L57.6579 38.2591C56.0497 38.9483 54.3526 39.4083 52.6168 39.6259L49.8654 39.9695C46.8055 40.2958 43.7228 40.3477 40.6538 40.1245L34.3037 39.5481L36.0807 37.9689C36.3999 37.6949 36.5234 37.2563 36.3933 36.8568C36.2632 36.4567 35.9054 36.1746 35.4865 36.1411L24.0359 35.1001C23.6608 35.0661 23.2973 35.2374 23.0844 35.5474L21.4645 37.9104L2.99237 35.3588C2.53491 35.2953 2.17148 34.941 2.09677 34.4846C2.02154 34.0287 2.2523 33.5768 2.66554 33.3699L3.58808 32.9084C3.99725 32.7041 4.22496 32.2563 4.14922 31.8054Z" fill="#174682"/>
<path d="M15.614 31.9771H13.5321V34.059H15.614V31.9771Z" fill="#FF8617"/>
<path d="M17.696 31.9771H19.778V34.059H17.696V31.9771Z" fill="#FF8617"/>
<path d="M21.8599 31.9771H23.9418V34.059H21.8599V31.9771Z" fill="#FF8617"/>
<path d="M26.0237 31.9771H28.1056V34.059H26.0237V31.9771Z" fill="#FF8617"/>
<path d="M30.1875 31.9771H32.2694V34.059H30.1875V31.9771Z" fill="#FF8617"/>
<path d="M34.3513 31.9771H36.4333V34.059H34.3513V31.9771Z" fill="#FF8617"/>
<path d="M38.5154 31.9771H40.5973V34.059H38.5154V31.9771Z" fill="#FF8617"/>
<path d="M57.1354 10.1737C56.7303 8.51216 55.3503 7.26686 53.6557 7.03457C51.961 6.80229 50.2969 7.62977 49.4593 9.12159C48.3949 8.94318 47.3133 9.32338 46.5946 10.128C44.748 9.99076 43.092 11.261 42.7458 13.0806C42.3997 14.8998 43.4732 16.6889 45.2415 17.2399C45.4087 17.3467 45.6034 17.4036 45.8021 17.4036H58.2938C58.4783 17.4036 58.6587 17.3512 58.8143 17.2526C60.5495 16.7367 61.6434 15.0253 61.3821 13.2341C61.1203 11.4429 59.5838 10.1148 57.7733 10.1168C57.5593 10.1168 57.3458 10.1356 57.1354 10.1737ZM59.3347 13.7602C59.3352 14.5023 58.8127 15.1417 58.0859 15.2901C58.0462 15.2983 58.0076 15.3089 57.969 15.3217H46.128C46.0893 15.3089 46.0497 15.2983 46.0095 15.2901C45.2232 15.1305 44.686 14.4006 44.7668 13.6026C44.8476 12.8041 45.5206 12.1972 46.3226 12.1988C46.4741 12.2018 46.624 12.2282 46.7674 12.2755C47.2533 12.4214 47.7733 12.1957 47.999 11.7413C48.1321 11.48 48.369 11.2864 48.6521 11.2071C48.9347 11.1283 49.2376 11.171 49.4872 11.325C49.7724 11.5095 50.1292 11.5436 50.4438 11.4165C50.7584 11.2894 50.9912 11.0165 51.0675 10.6861C51.345 9.61005 52.4205 8.94318 53.5078 9.17293C54.595 9.40267 55.3086 10.4472 55.1271 11.5436C55.0463 11.9721 55.241 12.4051 55.6146 12.6293C55.9887 12.8539 56.4624 12.8214 56.8025 12.5485C57.267 12.1652 57.912 12.0864 58.4554 12.3462C58.9988 12.6059 59.3419 13.1579 59.3347 13.7602Z" fill="#FF8617"/>
<path d="M36.9537 54.8785C36.7397 54.8785 36.5262 54.8973 36.3158 54.9355C35.9107 53.2739 34.5307 52.0286 32.8361 51.7963C31.1415 51.564 29.4773 52.3915 28.6397 53.8833C27.5753 53.7049 26.4937 54.0851 25.775 54.8897C23.9284 54.7525 22.2724 56.0227 21.9262 57.8423C21.5801 59.6615 22.6536 61.4506 24.4219 62.0016C24.5892 62.1084 24.7838 62.1653 24.9826 62.1653H37.4742C37.6587 62.1653 37.8391 62.1129 37.9947 62.0143C39.7299 61.4984 40.8238 59.787 40.5625 57.9958C40.3008 56.2046 38.7642 54.8765 36.9537 54.8785ZM37.2663 60.0518C37.2266 60.06 37.188 60.0707 37.1494 60.0834H25.3084C25.2697 60.0707 25.2301 60.06 25.1899 60.0518C24.4036 59.8922 23.8664 59.1624 23.9472 58.3643C24.028 57.5658 24.701 56.9589 25.5031 56.9605C25.6545 56.9635 25.8045 56.9899 25.9478 57.0372C26.4337 57.1831 26.9537 56.9574 27.1794 56.503C27.3125 56.2417 27.5494 56.0476 27.832 55.9683C28.1151 55.8895 28.4181 55.9322 28.6676 56.0867C28.9528 56.2712 29.3096 56.3053 29.6242 56.1782C29.9389 56.0511 30.1716 55.7782 30.2479 55.4478C30.5254 54.3718 31.6009 53.7049 32.6882 53.9346C33.7754 54.1644 34.489 55.2089 34.3076 56.3053C34.2267 56.7338 34.4214 57.1668 34.795 57.391C35.1691 57.6156 35.6428 57.5831 35.9829 57.3102C36.4866 56.8979 37.1936 56.8415 37.7563 57.1689C38.3195 57.4962 38.6199 58.1382 38.5106 58.7801C38.4018 59.4221 37.9057 59.9288 37.2663 60.0518Z" fill="#FF8617"/>
<path d="M15.4967 3.92789C15.0916 2.26631 13.7116 1.02101 12.017 0.788722C10.3224 0.556436 8.65824 1.38392 7.82059 2.87574C6.75624 2.69683 5.67461 3.07702 4.95589 3.88215C3.10929 3.74491 1.4533 5.01511 1.10716 6.83478C0.761015 8.65393 1.83451 10.4431 3.60284 10.9941C3.77006 11.1008 3.96474 11.1577 4.16348 11.1577H16.6551C16.8396 11.1577 17.02 11.1054 17.1756 11.0068C18.9109 10.4909 20.0047 8.77947 19.7434 6.98828C19.4817 5.19708 17.9451 3.86893 16.1346 3.87096C15.9206 3.87096 15.7071 3.88977 15.4967 3.92789ZM17.6961 7.51435C17.6966 8.25645 17.1741 8.89587 16.4472 9.04429C16.4076 9.05242 16.3689 9.0631 16.3303 9.0758H4.48929C4.45066 9.0631 4.41152 9.05242 4.37187 9.04429C3.58556 8.88469 3.0483 8.1553 3.12912 7.35729C3.20942 6.55928 3.88189 5.95188 4.68396 5.9529C4.83543 5.95595 4.98537 5.98238 5.12871 6.02965C5.61463 6.17553 6.13461 5.94985 6.36028 5.49544C6.49346 5.23419 6.73032 5.04002 7.01292 4.96073C7.29604 4.88194 7.59898 4.92464 7.84854 5.07916C8.13369 5.26367 8.49051 5.29772 8.80514 5.17065C9.11976 5.04358 9.35256 4.77063 9.4288 4.44024C9.70633 3.3642 10.7819 2.69733 11.8691 2.92708C12.9563 3.15682 13.6699 4.20135 13.4885 5.29772C13.4077 5.72621 13.6023 6.15926 13.9759 6.38342C14.35 6.60808 14.8237 6.57555 15.1638 6.3026C15.6284 5.91935 16.2734 5.84057 16.8167 6.1003C17.3601 6.36004 17.7032 6.91203 17.6961 7.51435Z" fill="#FF8617"/>
</g>
<defs>
<clipPath id="clip0">
<rect width="62" height="62" fill="white" transform="translate(0 0.427734)"/>
</clipPath>
</defs>
</svg>
