<?xml version="1.0" encoding="utf-8"?>
<svg version="1.1" xmlns="http://www.w3.org/2000/svg" xmlns:xlink="http://www.w3.org/1999/xlink" x="0px" y="0px"
	 width="68px" height="45px" viewBox="0 0 570.2 375.9" style="enable-background:new 0 0 570.2 375.9;" xml:space="preserve" fill="#FF8617"
	>
<g>
	<g>
		<path d="M371.4,272.6c-10.9-3.9-43.7-15.9-43.7-15.9c0.2-2.1-0.5-4.2-2-5.7l-14-14.7v-24.6c1.5-1.2,2.9-2.5,4.3-3.8
			c17.6-16.5,27.7-39.8,27.7-64v-19.7c5.3-11.6,8-23.8,8-36.5V7.5c0-4.1-3.4-7.5-7.5-7.5H232c-39.5,0-71.7,32.1-71.7,71.7v16
			c0,12.6,2.7,24.9,8,36.5v16.9c0,28,12.5,53.3,32.1,69.9v25.2l-14,14.7c-1.5,1.6-2.2,3.7-2,5.7l-46.1,16.8
			c-3.3,1.2-6.5,2.9-9.3,4.9l-7.2-3.6c21.6-9.4,28.4-22.6,28.7-23.3c1.1-2.1,1.1-4.6,0-6.7c-5.4-10.8-6.1-30.6-6.6-46.6
			c-0.2-5.3-0.3-10.3-0.7-14.8c-2.6-36-29.9-63.1-63.6-63.1s-61.1,27.1-63.6,63.1c-0.3,4.5-0.5,9.5-0.7,14.8
			c-0.5,15.9-1.2,35.7-6.6,46.6c-1.1,2.1-1.1,4.6,0,6.7c0.3,0.7,7.1,13.8,28.8,23.2l-20.1,10.1C6.7,290.1,0,300.9,0,313v55.4
			c0,4.1,3.4,7.5,7.5,7.5s7.5-3.4,7.5-7.5V313c0-6.3,3.5-12,9.2-14.8l25.1-12.5l8.7,8.3c6.1,5.8,13.9,8.7,21.7,8.7
			c7.8,0,15.6-2.9,21.7-8.7l8.7-8.3l8.2,4.1c-3.8,6.2-6,13.4-6,20.9v57.7c0,4.1,3.4,7.5,7.5,7.5s7.5-3.4,7.5-7.5v-57.7
			c0-10.3,6.5-19.6,16.2-23.1l48.7-17.7l20.3,30.4c2.6,3.9,6.7,6.4,11.4,6.8c0.5,0.1,1,0.1,1.5,0.1c4.1,0,8-1.6,11-4.5l12.4-12.4
			v78.1c0,4.1,3.4,7.5,7.5,7.5s7.5-3.4,7.5-7.5v-78.1l12.4,12.4c2.9,2.9,6.9,4.5,11,4.5c0.5,0,1,0,1.5-0.1c4.6-0.5,8.8-3,11.4-6.8
			l20.3-30.4l48.7,17.7c9.7,3.5,16.2,12.8,16.2,23.1v57.7c0,4.1,3.4,7.5,7.5,7.5s7.5-3.4,7.5-7.5v-57.7c0-10.4-4.1-20.2-11.1-27.4
			C388.8,283.2,380.3,275.8,371.4,272.6z M48.1,262.7c-14-5-21.1-11.8-24.1-15.5c2-5.4,3.4-11.5,4.3-18c4.1,9.9,11.1,18.4,19.8,24.4
			V262.7z M91.1,283c-6.4,6.1-16.4,6.1-22.8,0l-7-6.6c1.2-2.2,1.8-4.7,1.8-7.3v-8c5.2,1.6,10.8,2.5,16.6,2.5
			c5.8,0,11.3-0.9,16.6-2.5l0,8c0,2.6,0.6,5.1,1.8,7.3L91.1,283z M79.7,248.6c-22.4,0-40.6-18.2-40.6-40.6c0-4.1-3.4-7.5-7.5-7.5
			c-0.4,0-0.8,0-1.2,0.1c0-0.6,0-1.3,0.1-1.9c0.2-5.2,0.3-10,0.6-14.2c1-13.5,6.3-25.9,15.2-35c8.9-9.2,20.8-14.2,33.5-14.2
			s24.6,5,33.5,14.2c8.8,9.1,14.2,21.5,15.2,35c0.3,4.2,0.5,9,0.6,14.2c0,0.4,0,0.9,0,1.3c-8.2-12.6-20.8-21.8-37-27.1
			c-15-4.8-28-4.5-28.5-4.5c-2,0.1-3.8,0.9-5.2,2.3l-13.5,14c-2.9,3-2.8,7.7,0.2,10.6s7.7,2.8,10.6-0.2l11.3-11.7
			c9.7,0.5,40.9,4.1,53,30.8C116.7,234,99.8,248.6,79.7,248.6z M111.2,262.8l0-8.9c8.7-6,15.7-14.5,19.8-24.4
			c0.9,6.5,2.2,12.6,4.3,17.9C132.3,250.9,125.2,257.7,111.2,262.8z M183.4,141.1v-18.6c0-1.1-0.3-2.2-0.7-3.3
			c-4.8-10-7.3-20.6-7.3-31.5v-16c0-31.2,25.4-56.7,56.7-56.7h104.8v72.7c0,10.9-2.4,21.5-7.3,31.5c-0.5,1-0.7,2.1-0.7,3.3v21.4
			c0,20.3-8.2,39.1-23,53c-1.9,1.7-3.8,3.4-5.8,4.9c0,0-0.1,0.1-0.1,0.1c-13.9,10.5-30.9,15.7-48.7,14.5
			C213.2,213.9,183.4,180.8,183.4,141.1z M225.6,292c-0.1,0.1-0.2,0.2-0.4,0.1c-0.2,0-0.3-0.2-0.4-0.2l-23.3-35l7.5-7.9l35.4,24.2
			L225.6,292z M256.1,263l-40.6-27.8v-14c10.5,5.7,22.3,9.2,34.8,10c2,0.1,3.9,0.2,5.9,0.2c14.3,0,28.1-3.4,40.5-9.9v13.7L256.1,263
			z M287.4,291.9c0,0.1-0.1,0.2-0.4,0.2c-0.2,0-0.4-0.1-0.4-0.1l-18.8-18.8l35.4-24.2l7.5,7.9L287.4,291.9z"/>
	</g>
</g>
<g>
	<g>
		<path d="M39.6,322.7c-4.1,0-7.5,3.4-7.5,7.5v38.2c0,4.1,3.4,7.5,7.5,7.5s7.5-3.4,7.5-7.5v-38.2C47.1,326,43.7,322.7,39.6,322.7z"
			/>
	</g>
</g>
<g>
	<g>
		<path d="M317.5,90.4C289.2,62,229.8,67.5,205.6,71.1c-7.6,1.1-13.2,7.6-13.2,15.3v17.3c0,4.1,3.4,7.5,7.5,7.5s7.5-3.4,7.5-7.5
			V86.5c0-0.3,0.2-0.5,0.4-0.5c9.7-1.5,28.9-3.7,48.7-2.4c23.4,1.6,40.3,7.4,50.3,17.4c2.9,2.9,7.7,2.9,10.6,0
			C320.5,98.1,320.5,93.3,317.5,90.4z"/>
	</g>
</g>
<g>
	<g>
		<path d="M167.9,328.8c-4.1,0-7.5,3.4-7.5,7.5v32.1c0,4.1,3.4,7.5,7.5,7.5s7.5-3.4,7.5-7.5v-32.1
			C175.4,332.1,172,328.8,167.9,328.8z"/>
	</g>
</g>
<g>
	<g>
		<path d="M344.3,328.8c-4.1,0-7.5,3.4-7.5,7.5v32.1c0,4.1,3.4,7.5,7.5,7.5s7.5-3.4,7.5-7.5v-32.1
			C351.8,332.1,348.4,328.8,344.3,328.8z"/>
	</g>
</g>
<g id="surface1">
	<path d="M570,163.9l0-0.2c-0.1-2.4-0.2-5-0.2-7.8c-0.2-13.8-11.2-25.3-25-26c-28.8-1.6-51.2-11-70.2-29.6l-0.2-0.2
		c-6.2-5.7-15.6-5.7-21.8,0l-0.2,0.2c-19.1,18.6-41.4,28-70.2,29.6c-13.8,0.8-24.8,12.2-25,26c0,2.8-0.1,5.4-0.2,7.8l0,0.5
		c-0.6,29.4-1.3,66,11,99.2c6.7,18.3,16.9,34.2,30.3,47.2c15.2,14.9,35.2,26.7,59.3,35.1c0.8,0.3,1.6,0.5,2.4,0.7
		c1.2,0.2,2.4,0.4,3.5,0.4c1.2,0,2.4-0.1,3.5-0.4c0.8-0.2,1.7-0.4,2.4-0.7c24.1-8.4,44-20.2,59.2-35.1
		c13.4-13.1,23.6-28.9,30.3-47.2C571.2,230.1,570.5,193.4,570,163.9z M545.1,258.3c-12.9,35-39.3,59.1-80.6,73.5
		c-0.1,0-0.3,0.1-0.5,0.1c-0.4,0.1-0.9,0.1-1.3,0c-0.2,0-0.3-0.1-0.5-0.1c-41.4-14.4-67.8-38.5-80.7-73.5
		c-11.3-30.6-10.6-64.2-10.1-93.9l0-0.2c0.1-2.5,0.2-5.2,0.2-8.1c0.1-6.1,5-11.2,11.1-11.6c16.3-0.9,30.7-4.1,43.8-9.6
		c13.2-5.6,24.8-13.4,35.7-24c0.6-0.5,1.3-0.5,1.8,0c10.9,10.6,22.6,18.4,35.7,24c13.2,5.6,27.5,8.7,43.8,9.6
		c6.2,0.3,11,5.4,11.1,11.6c0,2.9,0.1,5.6,0.2,8.1C555.8,194,556.4,227.6,545.1,258.3z"/>
	<path d="M463.4,158.8c-34.5,0-62.5,28-62.5,62.5c0,34.5,28,62.5,62.5,62.5c34.5,0,62.5-28,62.5-62.5
		C525.9,186.8,497.9,158.8,463.4,158.8z M463.4,269.1c-26.4,0-47.8-21.4-47.8-47.8s21.4-47.8,47.8-47.8c26.4,0,47.8,21.4,47.8,47.8
		S489.7,269.1,463.4,269.1z"/>
	<path d="M481.4,201.9l-29,29l-7.9-7.9c-2.9-2.9-7.5-2.9-10.4,0c-2.9,2.9-2.9,7.5,0,10.4l13.1,13.1c1.4,1.4,3.3,2.2,5.2,2.2
		c1.9,0,3.8-0.7,5.2-2.2l34.2-34.2c2.9-2.9,2.9-7.5,0-10.4C488.9,199,484.2,199,481.4,201.9z"/>
</g>
</svg>
