<svg width="59" height="59" viewBox="0 0 59 50" fill="none" xmlns="http://www.w3.org/2000/svg">
<path d="M58.0781 13.8281H54.3906V8.29688H28.5781V4.60938H21.2031V8.29688H19.3594V4.60938H11.9844V8.29688H9.67969L6.45312 12.5993V13.8281H2.76562V19.3594H6.45312V27.0865L0.921875 29.8522V45.1719H6.45312V47.0156H10.195C10.655 51.1576 14.1738 54.3906 18.4375 54.3906C22.7012 54.3906 26.22 51.1576 26.68 47.0156H34.1638C34.6238 51.1576 38.1426 54.3906 42.4062 54.3906C46.6699 54.3906 50.1887 51.1576 50.6487 47.0156H54.3906V19.3594H58.0781V13.8281ZM23.0469 6.45312H26.7344V8.29688H23.0469V6.45312ZM13.8281 6.45312H17.5156V8.29688H13.8281V6.45312ZM4.60938 17.5156V15.6719H6.45312V17.5156H4.60938ZM2.76562 43.3281V30.9916L6.45312 29.1478V43.3281H2.76562ZM18.4375 52.5469C15.1934 52.5469 12.508 50.138 12.0581 47.0156H13.9212C14.3499 49.1166 16.2112 50.7031 18.4375 50.7031C20.6638 50.7031 22.5251 49.1166 22.9538 47.0156H24.8169C24.367 50.138 21.6816 52.5469 18.4375 52.5469ZM15.8415 47.0156H21.0326C20.6509 48.0859 19.6369 48.8594 18.4366 48.8594C17.2363 48.8594 16.2232 48.0859 15.8415 47.0156ZM42.4062 52.5469C39.1622 52.5469 36.4768 50.138 36.0269 47.0156H37.89C38.3187 49.1166 40.1799 50.7031 42.4062 50.7031C44.6326 50.7031 46.4938 49.1166 46.9225 47.0156H48.7856C48.3358 50.138 45.6503 52.5469 42.4062 52.5469ZM39.8102 47.0156H45.0013C44.6197 48.0859 43.6056 48.8594 42.4053 48.8594C41.205 48.8594 40.1919 48.0859 39.8102 47.0156ZM52.5469 45.1719H8.29688V13.2132L10.6016 10.1406H52.5469V45.1719ZM56.2344 17.5156H54.3906V15.6719H56.2344V17.5156Z" fill="#FF8617"/>
<path d="M50.7031 11.9844H24.8906V28.5781H50.7031V11.9844ZM48.8594 19.3594H39.6406V13.8281H48.8594V19.3594ZM26.7344 26.7344V13.8281H37.7969V21.2031H48.8594V26.7344H26.7344Z" fill="#FF8617"/>
<path d="M32.2656 15.6719C30.232 15.6719 28.5781 17.3257 28.5781 19.3594C28.5781 21.393 30.232 23.0469 32.2656 23.0469C34.2993 23.0469 35.9531 21.393 35.9531 19.3594C35.9531 17.3257 34.2993 15.6719 32.2656 15.6719ZM32.2656 21.2031C31.2488 21.2031 30.4219 20.3762 30.4219 19.3594C30.4219 18.3425 31.2488 17.5156 32.2656 17.5156C33.2825 17.5156 34.1094 18.3425 34.1094 19.3594C34.1094 20.3762 33.2825 21.2031 32.2656 21.2031Z" fill="#FF8617"/>
<path d="M43.3281 15.6719H41.4844V17.5156H43.3281V15.6719Z" fill="#FF8617"/>
<path d="M47.0156 15.6719H45.1719V17.5156H47.0156V15.6719Z" fill="#FF8617"/>
<path d="M47.0156 23.0469H45.1719V24.8906H47.0156V23.0469Z" fill="#FF8617"/>
<path d="M43.3281 23.0469H41.4844V24.8906H43.3281V23.0469Z" fill="#FF8617"/>
<path d="M39.6406 23.0469H37.7969V24.8906H39.6406V23.0469Z" fill="#FF8617"/>
<path d="M14.278 26.1554C14.0918 26.715 14.1867 27.3354 14.5315 27.8139C14.8781 28.2923 15.4359 28.5781 16.0259 28.5781C16.7274 28.5781 17.358 28.1882 17.6723 27.5604L22.6947 17.5156H18.7952L20.6389 11.9844H14.0641L10.7454 23.0469H15.3142L14.278 26.1554ZM13.2234 21.2031L15.4359 13.8281H18.0798L16.236 19.3594H19.7124L16.0277 26.7381L17.8733 21.2031H13.2234Z" fill="#FF8617"/>
<path d="M35.0312 30.4219H12.9062C11.3815 30.4219 10.1406 31.6627 10.1406 33.1875V40.5625C10.1406 42.0873 11.3815 43.3281 12.9062 43.3281H35.0312C36.556 43.3281 37.7969 42.0873 37.7969 40.5625V33.1875C37.7969 31.6627 36.556 30.4219 35.0312 30.4219ZM35.0312 41.4844H12.9062C12.3974 41.4844 11.9844 41.0705 11.9844 40.5625V33.1875C11.9844 32.6795 12.3974 32.2656 12.9062 32.2656H35.0312C35.5401 32.2656 35.9531 32.6795 35.9531 33.1875V34.1094H33.1875C31.6627 34.1094 30.4219 35.3502 30.4219 36.875C30.4219 38.3998 31.6627 39.6406 33.1875 39.6406H35.9531V40.5625C35.9531 41.0705 35.5401 41.4844 35.0312 41.4844ZM35.9531 35.9531V37.7969H33.1875C32.6786 37.7969 32.2656 37.383 32.2656 36.875C32.2656 36.367 32.6786 35.9531 33.1875 35.9531H35.9531Z" fill="#FF8617"/>
<path d="M41.4844 43.3281H50.7031V30.4219H41.4844V43.3281ZM43.3281 32.2656H48.8594V41.4844H43.3281V32.2656Z" fill="#FF8617"/>
</svg>
