<svg width="45" height="45" viewBox="0 0 45 45" fill="none" xmlns="http://www.w3.org/2000/svg">
<path d="M36.1726 12.3524L36.1589 12.4492L36.2269 12.5195L39.6489 16.0564C40.097 16.5198 40.097 17.2552 39.649 17.7182L39.7927 17.8572L39.649 17.7182L36.2271 21.2546L36.1591 21.3249L36.1728 21.4217L36.8621 26.296C36.9523 26.9344 36.5202 27.5292 35.8852 27.6405L32.0056 28.3209L31.8402 28.35V28.5179V43.6047C31.8402 44.0188 31.6257 44.4035 31.2734 44.6213C30.9211 44.8391 30.481 44.8589 30.1107 44.6737L30.0213 44.8526L30.1107 44.6737L22.5901 40.9143L22.5007 40.8696L22.4113 40.9143L14.8895 44.6737L14.8894 44.6738C14.7208 44.7582 14.5378 44.7999 14.3551 44.7999C14.1366 44.7999 13.9187 44.74 13.7269 44.6214L13.7268 44.6213C13.3745 44.4036 13.1601 44.019 13.1601 43.6049V28.5178V28.3498L12.9946 28.3208L9.11517 27.6407L9.11515 27.6407C8.48026 27.5295 8.04811 26.9346 8.13829 26.2964L8.82743 21.4221L8.84112 21.3253L8.77313 21.255L5.35126 17.7184L5.20764 17.8573L5.35125 17.7183C4.90287 17.255 4.90287 16.5198 5.35109 16.0565L8.77314 12.5195L8.84112 12.4492L8.82743 12.3524L8.13829 7.48063L8.13829 7.48062C8.04794 6.84232 8.48023 6.24737 9.11515 6.13616L9.11517 6.13616L13.9626 5.2865L14.0589 5.26962L14.1047 5.18322L16.4109 0.835476C16.4109 0.83546 16.4109 0.835444 16.411 0.835429C16.7133 0.265884 17.4123 0.0386174 17.9914 0.321718L17.9914 0.321731L22.4127 2.48233L22.5005 2.52525L22.5883 2.48232L27.0085 0.321722L27.0085 0.32169C27.5871 0.0386013 28.2868 0.265779 28.5889 0.83508L30.8961 5.18325L30.9419 5.26962L31.0382 5.2865L35.8851 6.13616L35.8851 6.13616C36.5202 6.24737 36.9523 6.84229 36.862 7.48062L37.06 7.50865L36.8619 7.48063L36.1726 12.3524ZM15.5501 41.348V41.6715L15.8395 41.5269L21.9662 38.4645L21.8768 38.2856L21.9663 38.4645C22.3028 38.2963 22.6987 38.2964 23.0349 38.4645L29.1607 41.5269L29.4501 41.6716V41.348V32.1223L29.0735 32.0285L28.5891 32.9408C28.3751 33.3439 27.9616 33.5758 27.5326 33.5758C27.3565 33.5758 27.1776 33.5368 27.0083 33.4541C27.0083 33.4541 27.0083 33.4541 27.0083 33.454L22.5886 31.292L22.5007 31.249L22.4128 31.292L17.9917 33.4541L17.9917 33.4541C17.413 33.7374 16.7132 33.5103 16.4111 32.9407L16.2345 33.0344L16.4111 32.9407L15.9268 32.0276L15.5501 32.1214V41.348ZM34.1429 25.5196L34.3334 25.4862L34.3063 25.2946L33.7106 21.0815C33.659 20.7164 33.7786 20.348 34.035 20.0831L36.9926 17.0263L37.1272 16.8872L36.9926 16.7482L34.0348 13.6911C33.7786 13.4261 33.659 13.0577 33.7106 12.6926L34.3063 8.48211L34.3335 8.29051L34.1429 8.2571L29.9539 7.52277C29.9539 7.52277 29.9539 7.52277 29.9539 7.52276C29.5907 7.45901 29.2773 7.2313 29.1046 6.90582L28.928 6.99956L29.1046 6.90581L27.1101 3.14745L27.0195 2.97656L26.8456 3.06152L23.0254 4.92898L23.0253 4.92899C22.6943 5.09087 22.3069 5.09087 21.9758 4.92899L21.9758 4.92897L18.1544 3.06151L17.9806 2.97656L17.8899 3.14749L15.8965 6.9056C15.7236 7.23138 15.4102 7.4592 15.0471 7.52276L15.0471 7.52276L10.8572 8.25728L10.6666 8.2907L10.6937 8.48229L11.2893 12.6928L11.4873 12.6648L11.2893 12.6928C11.3409 13.0577 11.2213 13.4261 10.965 13.6911L8.00726 16.7482L7.87271 16.8872L8.00727 17.0263L10.9649 20.0831L10.9649 20.0831C11.2212 20.3479 11.3409 20.7164 11.2893 21.0813L11.2893 21.0813L10.6937 25.2946L10.6666 25.4862L10.8572 25.5196L15.0471 26.2541L15.0471 26.2541C15.4102 26.3177 15.7236 26.5454 15.8963 26.871L15.8963 26.8711L17.8897 30.6281L17.9804 30.7991L18.1543 30.7141L21.9755 28.8453L21.9756 28.8452C22.141 28.7642 22.3207 28.7237 22.5005 28.7237C22.6802 28.7237 22.8599 28.7643 23.0258 28.8453L26.846 30.714L27.0198 30.7991L27.1105 30.6281L29.1046 26.871C29.2775 26.5454 29.591 26.3177 29.9539 26.2541L29.9539 26.2541L34.1429 25.5196Z" fill="#FF8617" stroke="white" stroke-width="0.4"/>
<path d="M13.16 16.8873C13.16 11.7378 17.3503 7.54814 22.5006 7.54814C27.65 7.54814 31.8398 11.7378 31.8398 16.8873C31.8398 22.0379 27.65 26.2284 22.5006 26.2284C17.3503 26.2284 13.16 22.0379 13.16 16.8873ZM15.55 16.8873C15.55 20.7203 18.6678 23.8384 22.5006 23.8384C26.3326 23.8384 29.4498 20.7203 29.4498 16.8873C29.4498 13.0553 26.3325 9.93817 22.5006 9.93817C18.6679 9.93817 15.55 13.0552 15.55 16.8873Z" fill="#FF8617" stroke="white" stroke-width="0.4"/>
<path d="M25.4857 13.4899L25.4858 13.4899C25.9524 13.0232 26.7091 13.0233 27.1756 13.49C27.6424 13.9569 27.6423 14.7136 27.1755 15.1801L27.1755 15.1801L22.0688 20.2857L22.0688 20.2857C21.8355 20.519 21.5299 20.6356 21.2238 20.6356C20.9179 20.6356 20.6127 20.5192 20.3794 20.286L20.3794 20.286L17.825 17.7344L17.825 17.7344C17.358 17.268 17.3575 16.5115 17.8239 16.0445C18.2905 15.5775 19.0471 15.5771 19.5139 16.0435L19.5139 16.0436L21.0821 17.6099L21.2235 17.7511L21.3649 17.6098L25.4857 13.4899Z" fill="#FF8617" stroke="white" stroke-width="0.4"/>
</svg>
