<svg width="97" height="60" viewBox="0 0 97 53" fill="none" xmlns="http://www.w3.org/2000/svg">
<path d="M9.625 31.45H9.575V31.5V33.25V33.3H9.625H11.375H11.425V33.25V31.5V31.45H11.375H9.625Z" fill="#FF8617" stroke="#FF8617" stroke-width="0.1"/>
<path d="M13.125 31.45H13.075V31.5V33.25V33.3H13.125H14.875H14.925V33.25V31.5V31.45H14.875H13.125Z" fill="#FF8617" stroke="#FF8617" stroke-width="0.1"/>
<path d="M6.125 31.45H6.075V31.5V33.25V33.3H6.125H7.875H7.925V33.25V31.5V31.45H7.875H6.125Z" fill="#FF8617" stroke="#FF8617" stroke-width="0.1"/>
<mask id="path-4-outside-1" maskUnits="userSpaceOnUse" x="0.75" y="0.75" width="54" height="54" fill="black">
<rect fill="white" x="0.75" y="0.75" width="54" height="54"/>
<path d="M51.625 1.75H16.625C15.9288 1.75 15.2611 2.02656 14.7688 2.51884C14.2766 3.01113 14 3.67881 14 4.375V19.25H4.375C3.67881 19.25 3.01113 19.5266 2.51884 20.0188C2.02656 20.5111 1.75 21.1788 1.75 21.875V42.875C1.75 43.5712 2.02656 44.2389 2.51884 44.7312C3.01113 45.2234 3.67881 45.5 4.375 45.5H7V46.375C7 46.8391 7.18437 47.2842 7.51256 47.6124C7.84075 47.9406 8.28587 48.125 8.75 48.125H9.625V51.625C9.625 52.3212 9.90156 52.9889 10.3938 53.4812C10.8861 53.9734 11.5538 54.25 12.25 54.25H49.875C50.8033 54.25 51.6935 53.8812 52.3499 53.2249C53.0062 52.5685 53.375 51.6783 53.375 50.75C53.375 49.8217 53.0062 48.9315 52.3499 48.2751C51.6935 47.6188 50.8033 47.25 49.875 47.25H41.125C40.6609 47.25 40.2158 47.0656 39.8876 46.7374C39.5594 46.4092 39.375 45.9641 39.375 45.5C39.375 45.0359 39.5594 44.5908 39.8876 44.2626C40.2158 43.9344 40.6609 43.75 41.125 43.75H47.25C47.9462 43.75 48.6139 43.4734 49.1062 42.9812C49.5984 42.4889 49.875 41.8212 49.875 41.125V29.75H51.625C52.3212 29.75 52.9889 29.4734 53.4812 28.9812C53.9734 28.4889 54.25 27.8212 54.25 27.125V4.375C54.25 3.67881 53.9734 3.01113 53.4812 2.51884C52.9889 2.02656 52.3212 1.75 51.625 1.75ZM15.75 4.375C15.75 4.14294 15.8422 3.92038 16.0063 3.75628C16.1704 3.59219 16.3929 3.5 16.625 3.5H51.625C51.8571 3.5 52.0796 3.59219 52.2437 3.75628C52.4078 3.92038 52.5 4.14294 52.5 4.375V22.75H19.25V21.875C19.25 21.1788 18.9734 20.5111 18.4812 20.0188C17.9889 19.5266 17.3212 19.25 16.625 19.25H15.75V4.375ZM7.875 21H13.125V21.875H7.875V21ZM3.5 42.875V21.875C3.5 21.6429 3.59219 21.4204 3.75628 21.2563C3.92038 21.0922 4.14294 21 4.375 21H6.125V21.875C6.125 22.3391 6.30937 22.7842 6.63756 23.1124C6.96575 23.4406 7.41087 23.625 7.875 23.625H13.125C13.5891 23.625 14.0342 23.4406 14.3624 23.1124C14.6906 22.7842 14.875 22.3391 14.875 21.875V21H16.625C16.8571 21 17.0796 21.0922 17.2437 21.2563C17.4078 21.4204 17.5 21.6429 17.5 21.875V42.875C17.5 43.1071 17.4078 43.3296 17.2437 43.4937C17.0796 43.6578 16.8571 43.75 16.625 43.75H4.375C4.14294 43.75 3.92038 43.6578 3.75628 43.4937C3.59219 43.3296 3.5 43.1071 3.5 42.875ZM8.75 45.5H12.25V46.375H8.75V45.5ZM48.125 41.125C48.125 41.3571 48.0328 41.5796 47.8687 41.7437C47.7046 41.9078 47.4821 42 47.25 42H41.125C40.1967 42 39.3065 42.3688 38.6501 43.0251C37.9938 43.6815 37.625 44.5717 37.625 45.5C37.625 46.4283 37.9938 47.3185 38.6501 47.9749C39.3065 48.6312 40.1967 49 41.125 49H49.875C50.3391 49 50.7842 49.1844 51.1124 49.5126C51.4406 49.8408 51.625 50.2859 51.625 50.75C51.625 51.2141 51.4406 51.6592 51.1124 51.9874C50.7842 52.3156 50.3391 52.5 49.875 52.5H12.25C12.0179 52.5 11.7954 52.4078 11.6313 52.2437C11.4672 52.0796 11.375 51.8571 11.375 51.625V48.125H12.25C12.7141 48.125 13.1592 47.9406 13.4874 47.6124C13.8156 47.2842 14 46.8391 14 46.375V45.5H16.625C17.3212 45.5 17.9889 45.2234 18.4812 44.7312C18.9734 44.2389 19.25 43.5712 19.25 42.875V29.75H28.875V33.25H25.375C25.1429 33.25 24.9204 33.3422 24.7563 33.5063C24.5922 33.6704 24.5 33.8929 24.5 34.125V37.625C24.5 37.8571 24.5922 38.0796 24.7563 38.2437C24.9204 38.4078 25.1429 38.5 25.375 38.5H42.875C43.1071 38.5 43.3296 38.4078 43.4937 38.2437C43.6578 38.0796 43.75 37.8571 43.75 37.625V34.125C43.75 33.8929 43.6578 33.6704 43.4937 33.5063C43.3296 33.3422 43.1071 33.25 42.875 33.25H39.375V29.75H48.125V41.125ZM42 35V36.75H26.25V35H42ZM30.625 33.25V29.75H37.625V33.25H30.625ZM51.625 28H19.25V24.5H52.5V27.125C52.5 27.3571 52.4078 27.5796 52.2437 27.7437C52.0796 27.9078 51.8571 28 51.625 28Z"/>
</mask>
<path d="M51.625 1.75H16.625C15.9288 1.75 15.2611 2.02656 14.7688 2.51884C14.2766 3.01113 14 3.67881 14 4.375V19.25H4.375C3.67881 19.25 3.01113 19.5266 2.51884 20.0188C2.02656 20.5111 1.75 21.1788 1.75 21.875V42.875C1.75 43.5712 2.02656 44.2389 2.51884 44.7312C3.01113 45.2234 3.67881 45.5 4.375 45.5H7V46.375C7 46.8391 7.18437 47.2842 7.51256 47.6124C7.84075 47.9406 8.28587 48.125 8.75 48.125H9.625V51.625C9.625 52.3212 9.90156 52.9889 10.3938 53.4812C10.8861 53.9734 11.5538 54.25 12.25 54.25H49.875C50.8033 54.25 51.6935 53.8812 52.3499 53.2249C53.0062 52.5685 53.375 51.6783 53.375 50.75C53.375 49.8217 53.0062 48.9315 52.3499 48.2751C51.6935 47.6188 50.8033 47.25 49.875 47.25H41.125C40.6609 47.25 40.2158 47.0656 39.8876 46.7374C39.5594 46.4092 39.375 45.9641 39.375 45.5C39.375 45.0359 39.5594 44.5908 39.8876 44.2626C40.2158 43.9344 40.6609 43.75 41.125 43.75H47.25C47.9462 43.75 48.6139 43.4734 49.1062 42.9812C49.5984 42.4889 49.875 41.8212 49.875 41.125V29.75H51.625C52.3212 29.75 52.9889 29.4734 53.4812 28.9812C53.9734 28.4889 54.25 27.8212 54.25 27.125V4.375C54.25 3.67881 53.9734 3.01113 53.4812 2.51884C52.9889 2.02656 52.3212 1.75 51.625 1.75ZM15.75 4.375C15.75 4.14294 15.8422 3.92038 16.0063 3.75628C16.1704 3.59219 16.3929 3.5 16.625 3.5H51.625C51.8571 3.5 52.0796 3.59219 52.2437 3.75628C52.4078 3.92038 52.5 4.14294 52.5 4.375V22.75H19.25V21.875C19.25 21.1788 18.9734 20.5111 18.4812 20.0188C17.9889 19.5266 17.3212 19.25 16.625 19.25H15.75V4.375ZM7.875 21H13.125V21.875H7.875V21ZM3.5 42.875V21.875C3.5 21.6429 3.59219 21.4204 3.75628 21.2563C3.92038 21.0922 4.14294 21 4.375 21H6.125V21.875C6.125 22.3391 6.30937 22.7842 6.63756 23.1124C6.96575 23.4406 7.41087 23.625 7.875 23.625H13.125C13.5891 23.625 14.0342 23.4406 14.3624 23.1124C14.6906 22.7842 14.875 22.3391 14.875 21.875V21H16.625C16.8571 21 17.0796 21.0922 17.2437 21.2563C17.4078 21.4204 17.5 21.6429 17.5 21.875V42.875C17.5 43.1071 17.4078 43.3296 17.2437 43.4937C17.0796 43.6578 16.8571 43.75 16.625 43.75H4.375C4.14294 43.75 3.92038 43.6578 3.75628 43.4937C3.59219 43.3296 3.5 43.1071 3.5 42.875ZM8.75 45.5H12.25V46.375H8.75V45.5ZM48.125 41.125C48.125 41.3571 48.0328 41.5796 47.8687 41.7437C47.7046 41.9078 47.4821 42 47.25 42H41.125C40.1967 42 39.3065 42.3688 38.6501 43.0251C37.9938 43.6815 37.625 44.5717 37.625 45.5C37.625 46.4283 37.9938 47.3185 38.6501 47.9749C39.3065 48.6312 40.1967 49 41.125 49H49.875C50.3391 49 50.7842 49.1844 51.1124 49.5126C51.4406 49.8408 51.625 50.2859 51.625 50.75C51.625 51.2141 51.4406 51.6592 51.1124 51.9874C50.7842 52.3156 50.3391 52.5 49.875 52.5H12.25C12.0179 52.5 11.7954 52.4078 11.6313 52.2437C11.4672 52.0796 11.375 51.8571 11.375 51.625V48.125H12.25C12.7141 48.125 13.1592 47.9406 13.4874 47.6124C13.8156 47.2842 14 46.8391 14 46.375V45.5H16.625C17.3212 45.5 17.9889 45.2234 18.4812 44.7312C18.9734 44.2389 19.25 43.5712 19.25 42.875V29.75H28.875V33.25H25.375C25.1429 33.25 24.9204 33.3422 24.7563 33.5063C24.5922 33.6704 24.5 33.8929 24.5 34.125V37.625C24.5 37.8571 24.5922 38.0796 24.7563 38.2437C24.9204 38.4078 25.1429 38.5 25.375 38.5H42.875C43.1071 38.5 43.3296 38.4078 43.4937 38.2437C43.6578 38.0796 43.75 37.8571 43.75 37.625V34.125C43.75 33.8929 43.6578 33.6704 43.4937 33.5063C43.3296 33.3422 43.1071 33.25 42.875 33.25H39.375V29.75H48.125V41.125ZM42 35V36.75H26.25V35H42ZM30.625 33.25V29.75H37.625V33.25H30.625ZM51.625 28H19.25V24.5H52.5V27.125C52.5 27.3571 52.4078 27.5796 52.2437 27.7437C52.0796 27.9078 51.8571 28 51.625 28Z" fill="#FF8617"/>
<path d="M51.625 1.75H16.625C15.9288 1.75 15.2611 2.02656 14.7688 2.51884C14.2766 3.01113 14 3.67881 14 4.375V19.25H4.375C3.67881 19.25 3.01113 19.5266 2.51884 20.0188C2.02656 20.5111 1.75 21.1788 1.75 21.875V42.875C1.75 43.5712 2.02656 44.2389 2.51884 44.7312C3.01113 45.2234 3.67881 45.5 4.375 45.5H7V46.375C7 46.8391 7.18437 47.2842 7.51256 47.6124C7.84075 47.9406 8.28587 48.125 8.75 48.125H9.625V51.625C9.625 52.3212 9.90156 52.9889 10.3938 53.4812C10.8861 53.9734 11.5538 54.25 12.25 54.25H49.875C50.8033 54.25 51.6935 53.8812 52.3499 53.2249C53.0062 52.5685 53.375 51.6783 53.375 50.75C53.375 49.8217 53.0062 48.9315 52.3499 48.2751C51.6935 47.6188 50.8033 47.25 49.875 47.25H41.125C40.6609 47.25 40.2158 47.0656 39.8876 46.7374C39.5594 46.4092 39.375 45.9641 39.375 45.5C39.375 45.0359 39.5594 44.5908 39.8876 44.2626C40.2158 43.9344 40.6609 43.75 41.125 43.75H47.25C47.9462 43.75 48.6139 43.4734 49.1062 42.9812C49.5984 42.4889 49.875 41.8212 49.875 41.125V29.75H51.625C52.3212 29.75 52.9889 29.4734 53.4812 28.9812C53.9734 28.4889 54.25 27.8212 54.25 27.125V4.375C54.25 3.67881 53.9734 3.01113 53.4812 2.51884C52.9889 2.02656 52.3212 1.75 51.625 1.75ZM15.75 4.375C15.75 4.14294 15.8422 3.92038 16.0063 3.75628C16.1704 3.59219 16.3929 3.5 16.625 3.5H51.625C51.8571 3.5 52.0796 3.59219 52.2437 3.75628C52.4078 3.92038 52.5 4.14294 52.5 4.375V22.75H19.25V21.875C19.25 21.1788 18.9734 20.5111 18.4812 20.0188C17.9889 19.5266 17.3212 19.25 16.625 19.25H15.75V4.375ZM7.875 21H13.125V21.875H7.875V21ZM3.5 42.875V21.875C3.5 21.6429 3.59219 21.4204 3.75628 21.2563C3.92038 21.0922 4.14294 21 4.375 21H6.125V21.875C6.125 22.3391 6.30937 22.7842 6.63756 23.1124C6.96575 23.4406 7.41087 23.625 7.875 23.625H13.125C13.5891 23.625 14.0342 23.4406 14.3624 23.1124C14.6906 22.7842 14.875 22.3391 14.875 21.875V21H16.625C16.8571 21 17.0796 21.0922 17.2437 21.2563C17.4078 21.4204 17.5 21.6429 17.5 21.875V42.875C17.5 43.1071 17.4078 43.3296 17.2437 43.4937C17.0796 43.6578 16.8571 43.75 16.625 43.75H4.375C4.14294 43.75 3.92038 43.6578 3.75628 43.4937C3.59219 43.3296 3.5 43.1071 3.5 42.875ZM8.75 45.5H12.25V46.375H8.75V45.5ZM48.125 41.125C48.125 41.3571 48.0328 41.5796 47.8687 41.7437C47.7046 41.9078 47.4821 42 47.25 42H41.125C40.1967 42 39.3065 42.3688 38.6501 43.0251C37.9938 43.6815 37.625 44.5717 37.625 45.5C37.625 46.4283 37.9938 47.3185 38.6501 47.9749C39.3065 48.6312 40.1967 49 41.125 49H49.875C50.3391 49 50.7842 49.1844 51.1124 49.5126C51.4406 49.8408 51.625 50.2859 51.625 50.75C51.625 51.2141 51.4406 51.6592 51.1124 51.9874C50.7842 52.3156 50.3391 52.5 49.875 52.5H12.25C12.0179 52.5 11.7954 52.4078 11.6313 52.2437C11.4672 52.0796 11.375 51.8571 11.375 51.625V48.125H12.25C12.7141 48.125 13.1592 47.9406 13.4874 47.6124C13.8156 47.2842 14 46.8391 14 46.375V45.5H16.625C17.3212 45.5 17.9889 45.2234 18.4812 44.7312C18.9734 44.2389 19.25 43.5712 19.25 42.875V29.75H28.875V33.25H25.375C25.1429 33.25 24.9204 33.3422 24.7563 33.5063C24.5922 33.6704 24.5 33.8929 24.5 34.125V37.625C24.5 37.8571 24.5922 38.0796 24.7563 38.2437C24.9204 38.4078 25.1429 38.5 25.375 38.5H42.875C43.1071 38.5 43.3296 38.4078 43.4937 38.2437C43.6578 38.0796 43.75 37.8571 43.75 37.625V34.125C43.75 33.8929 43.6578 33.6704 43.4937 33.5063C43.3296 33.3422 43.1071 33.25 42.875 33.25H39.375V29.75H48.125V41.125ZM42 35V36.75H26.25V35H42ZM30.625 33.25V29.75H37.625V33.25H30.625ZM51.625 28H19.25V24.5H52.5V27.125C52.5 27.3571 52.4078 27.5796 52.2437 27.7437C52.0796 27.9078 51.8571 28 51.625 28Z" stroke="#FF8617" stroke-width="0.2" mask="url(#path-4-outside-1)"/>
<path d="M33.25 25.325H33.2V25.375V27.125V27.175H33.25H35H35.05V27.125V25.375V25.325H35H33.25Z" fill="#FF8617" stroke="#FF8617" stroke-width="0.1"/>
<path d="M32.4004 16.5815L32.4004 16.5814C32.1126 16.4273 31.8721 16.1979 31.7047 15.9176C31.5373 15.6373 31.4492 15.3168 31.45 14.9903M32.4004 16.5815L34.2481 16.4915L37.0481 14.626L37.0481 14.626C37.2946 14.4616 37.4968 14.2389 37.6366 13.9776C37.7764 13.7164 37.8495 13.4247 37.8495 13.1284C37.8495 12.8321 37.7764 12.5403 37.6366 12.2791C37.4968 12.0178 37.2946 11.7951 37.0481 11.6308L37.0481 11.6308L34.2481 9.76526M32.4004 16.5815C32.6877 16.7351 33.0113 16.8078 33.3367 16.792M32.4004 16.5815L33.3367 16.792M31.45 14.9903C31.45 14.9903 31.45 14.9903 31.45 14.9902L31.5 14.9904H31.45V14.9903ZM31.45 14.9903V11.2594V11.2593C31.4507 10.9338 31.5396 10.6147 31.7073 10.3358C31.875 10.0569 32.1151 9.82862 32.4022 9.67534C32.6893 9.52207 33.0125 9.44948 33.3376 9.46532C33.6626 9.48115 33.9773 9.5848 34.2481 9.76526M34.2481 9.76526L34.2204 9.80687L34.2481 9.76525L34.2481 9.76526ZM33.3367 16.792C33.6621 16.7761 33.9771 16.6723 34.2481 16.4915L33.3367 16.792ZM35.9599 13.1249L33.3 14.9021V11.3528L35.9599 13.1249Z" fill="#FF8617" stroke="#FF8617" stroke-width="0.1"/>
<path d="M34.1249 20.175H34.125C35.5194 20.175 36.8824 19.7615 38.0418 18.9869C39.2011 18.2122 40.1048 17.1111 40.6384 15.8229C41.1719 14.5347 41.3116 13.1172 41.0395 11.7496C40.7675 10.3821 40.0961 9.12586 39.1101 8.1399C38.1241 7.15394 36.868 6.48249 35.5004 6.21047C34.1328 5.93844 32.7153 6.07805 31.4271 6.61165C30.1389 7.14525 29.0378 8.04887 28.2631 9.20823C27.4885 10.3676 27.075 11.7306 27.075 13.125L27.075 13.1251C27.0771 14.9942 27.8205 16.7861 29.1422 18.1078C30.4639 19.4295 32.2558 20.1729 34.1249 20.175ZM34.1251 7.925C35.1535 7.92501 36.1588 8.22999 37.014 8.80136C37.8691 9.37274 38.5356 10.1849 38.9292 11.135C39.3228 12.0852 39.4257 13.1308 39.2251 14.1395C39.0244 15.1482 38.5292 16.0747 37.802 16.802C37.0747 17.5292 36.1482 18.0244 35.1395 18.2251C34.1308 18.4257 33.0852 18.3228 32.135 17.9292C31.1849 17.5356 30.3727 16.8691 29.8014 16.014C29.23 15.1588 28.925 14.1535 28.925 13.1251C28.9264 11.7463 29.4747 10.4245 30.4496 9.44958C31.4245 8.47468 32.7463 7.92638 34.1251 7.925Z" fill="#FF8617" stroke="#FF8617" stroke-width="0.1"/>
<path d="M58.5135 37.5566C58.1641 37.906 58.1641 38.4739 58.5135 38.8232C58.8628 39.1726 59.4308 39.1726 59.7801 38.8232C62.2238 36.3796 66.2044 36.3796 68.6481 38.8232C68.8237 38.9988 69.053 39.0848 69.2823 39.0848C69.5116 39.0848 69.7409 38.9971 69.9165 38.8232C70.2658 38.4739 70.2658 37.906 69.9165 37.5566C66.7706 34.416 61.6576 34.416 58.5135 37.5566Z" fill="#FF8617"/>
<path d="M61.0467 40.0893C60.6973 40.4386 60.6973 41.0066 61.0467 41.3559C61.396 41.7053 61.964 41.7053 62.3133 41.3559C63.3273 40.3419 65.0991 40.3419 66.1131 41.3559C66.2887 41.5315 66.518 41.6175 66.7473 41.6175C66.9767 41.6175 67.2059 41.5298 67.3815 41.3559C67.7309 41.0066 67.7309 40.4386 67.3815 40.0893C65.6903 38.3999 62.7378 38.3999 61.0467 40.0893Z" fill="#FF8617"/>
<path d="M64.2141 42.3613C63.2252 42.3613 62.4226 43.1639 62.4226 44.1528C62.4226 45.1417 63.2252 45.9443 64.2141 45.9443C65.203 45.9443 66.0056 45.1417 66.0056 44.1528C66.0056 43.1639 65.203 42.3613 64.2141 42.3613Z" fill="#FF8617"/>
<path d="M57.2468 36.2915C61.0896 32.4487 67.3402 32.4487 71.1812 36.2915C71.3568 36.4671 71.586 36.5531 71.8154 36.5531C72.0447 36.5531 72.274 36.4654 72.4496 36.2915C72.7989 35.9422 72.7989 35.3743 72.4496 35.0249C67.9099 30.4852 60.5217 30.4852 55.982 35.0249C55.6326 35.3743 55.6326 35.9422 55.982 36.2915C56.3312 36.6391 56.8974 36.6391 57.2468 36.2915Z" fill="#FF8617"/>
</svg>
