<svg width="63" height="63" viewBox="0 0 63 40" fill="none" xmlns="http://www.w3.org/2000/svg">
<path d="M1.09176 33.4583C3.31048 33.4583 4.36119 34.1199 5.5777 34.8864C6.8907 35.7133 8.37855 36.6504 11.2279 36.6504C14.0773 36.6504 15.5646 35.7133 16.8776 34.8864C18.0941 34.1199 19.1448 33.4583 21.3635 33.4583C23.5822 33.4583 24.6329 34.1199 25.8494 34.8864C27.1624 35.7133 28.6503 36.6504 31.4996 36.6504C34.349 36.6504 35.8368 35.7133 37.1493 34.8864C38.3658 34.1199 39.4165 33.4583 41.6358 33.4583C43.8545 33.4583 44.9052 34.1199 46.1222 34.8864C47.4347 35.7133 48.9226 36.6504 51.7719 36.6504C54.6207 36.6504 56.1091 35.7133 57.4216 34.8864C58.6386 34.1199 59.6893 33.4583 61.9081 33.4583C62.511 33.4583 62.9998 32.9695 62.9998 32.3665C62.9998 31.7636 62.511 31.2748 61.9081 31.2748C59.0587 31.2748 57.5709 32.2119 56.2584 33.0388C55.0419 33.8053 53.9906 34.4669 51.7719 34.4669C49.7958 34.4669 48.7573 33.9418 47.6917 33.285C47.7199 33.1944 47.7364 33.1001 47.7407 33.0052V16.8505C47.737 15.3584 48.9439 14.1466 50.436 14.144C51.0389 14.1445 51.5283 13.6562 51.5294 13.0533C51.5299 12.4504 51.0416 11.961 50.4387 11.9605C47.7407 11.9637 45.5556 14.1525 45.5566 16.8505V18.2509H38.0508V16.8505C38.0609 15.353 39.2779 14.144 40.7759 14.144C41.3788 14.1424 41.8666 13.6525 41.8655 13.0496C41.8639 12.4466 41.374 11.9589 40.7711 11.9605C38.0689 11.9621 35.8768 14.1482 35.8672 16.8505V32.8447C35.8731 32.9225 35.888 32.9993 35.9104 33.0739C34.7174 33.8245 33.6741 34.4669 31.4895 34.4669C29.2708 34.4669 28.2249 33.8048 27.0078 33.0388C25.7199 32.2269 24.2635 31.3094 21.5154 31.2758C20.7435 30.5935 20.1294 30.0204 19.4822 29.4202C19.1682 29.128 18.8377 28.8194 18.4683 28.4803C19.2994 29.1893 20.3554 29.5785 21.4477 29.5779C21.9702 29.5774 22.4889 29.4905 22.9825 29.321C24.1526 28.9148 25.1111 28.0565 25.6437 26.9381C26.1848 25.8298 26.2519 24.5493 25.8303 23.3899C25.294 21.8109 23.9501 20.6418 22.3119 20.3294C20.6737 20.017 18.9939 20.6098 17.9144 21.8812C16.8349 23.1521 16.522 24.906 17.0961 26.4716C17.3307 27.1423 17.7151 27.7505 18.2194 28.2506C17.7524 27.823 17.223 27.3448 16.5929 26.7872C14.9131 25.3015 13.2435 23.8003 11.6896 22.3994C10.9763 21.7565 10.1639 21.5283 9.27467 21.7224C8.29005 21.9367 7.30491 22.1488 6.31869 22.3578C5.19494 22.5977 4.03281 22.8456 2.88987 23.0967C1.43987 23.416 0.514963 24.8409 0.813493 26.2957C1.08643 27.7191 2.45434 28.6573 3.88088 28.3993C5.40605 28.1141 6.96799 27.7798 8.52141 27.4061C8.63389 27.3758 8.74851 27.3566 8.86419 27.3491C8.89298 27.3784 8.91856 27.4099 8.94202 27.4435C9.2123 27.8166 9.50549 28.1727 9.81948 28.5107C9.87226 28.5672 9.89678 28.644 9.88772 28.7207C9.88025 28.7991 9.83867 28.87 9.77417 28.9148L5.20294 32.1533C4.18314 31.6597 2.91706 31.2748 1.09176 31.2748C0.488842 31.2748 0 31.7636 0 32.3665C0 32.9695 0.488842 33.4583 1.09176 33.4583ZM45.5566 27.2579H38.0508V25.2109H45.5566V27.2579ZM38.0508 31.9038V29.4415H45.5566V32.0536C44.6013 31.6085 43.3283 31.2748 41.6278 31.2748C40.4059 31.255 39.1921 31.4688 38.0508 31.9038ZM45.5566 20.4344V23.0274H38.0508V20.4344H45.5566ZM19.2423 23.868C19.5254 23.2848 20.0303 22.8397 20.6444 22.6318C21.951 22.1755 23.2986 22.8243 23.7795 24.1394C23.9975 24.7466 23.9596 25.4167 23.6744 25.9956C23.2485 26.8933 22.322 27.4445 21.3299 27.3891C20.3378 27.3342 19.478 26.6838 19.1544 25.7445C18.9316 25.1325 18.963 24.4566 19.2423 23.868ZM11.036 30.6958C11.6096 30.2896 11.9817 29.6563 12.0579 28.9574C12.1336 28.258 11.906 27.5602 11.4331 27.0399C11.1794 26.7675 10.9416 26.4807 10.722 26.18C9.78377 24.8575 8.49582 25.1672 8.01072 25.2839C6.49301 25.6486 4.96838 25.9748 3.47893 26.2531C3.23425 26.2872 3.00502 26.1246 2.95704 25.882C2.91972 25.7418 2.94158 25.5931 3.01728 25.4694C3.09298 25.3463 3.21612 25.2594 3.35792 25.2295C4.49447 24.9801 5.6534 24.7322 6.77395 24.4934C7.76283 24.2822 8.75117 24.0695 9.73899 23.8558C9.88665 23.8233 10.0007 23.8174 10.2268 24.021C11.785 25.4257 13.4589 26.9312 15.145 28.4227C16.3935 29.5273 17.2454 30.32 17.9976 31.0189C18.2151 31.2209 18.4294 31.4208 18.6469 31.6218C17.4128 31.9694 16.5295 32.5254 15.7138 33.0393C14.4973 33.8059 13.4466 34.4674 11.2284 34.4674C9.33384 34.4674 8.29112 33.9845 7.26919 33.3661L11.036 30.6958Z" fill="#FC8524"/>
<path d="M1.09176 40.6406C3.31048 40.6406 4.36119 41.3027 5.5777 42.0687C6.8907 42.896 8.37855 43.8332 11.2279 43.8332C14.0773 43.8332 15.5646 42.896 16.8776 42.0687C18.0941 41.3027 19.1448 40.6406 21.3635 40.6406C23.5822 40.6406 24.6329 41.3027 25.8494 42.0687C27.1624 42.896 28.6503 43.8332 31.4996 43.8332C34.349 43.8332 35.8368 42.896 37.1493 42.0687C38.3658 41.3027 39.4165 40.6406 41.6358 40.6406C43.8545 40.6406 44.9052 41.3027 46.1222 42.0687C47.4347 42.896 48.9226 43.8332 51.7719 43.8332C54.6207 43.8332 56.1091 42.896 57.4216 42.0687C58.6386 41.3027 59.6893 40.6406 61.9081 40.6406C62.511 40.6406 62.9998 40.1517 62.9998 39.5488C62.9998 38.9459 62.511 38.457 61.9081 38.457C59.0587 38.457 57.5709 39.3947 56.2584 40.2216C55.0413 40.9876 53.9901 41.6497 51.7714 41.6497C49.5527 41.6497 48.502 40.9876 47.2849 40.2221C45.9725 39.3953 44.4846 38.4576 41.6352 38.4576C38.7864 38.4576 37.298 39.3953 35.9856 40.2221C34.7685 40.9881 33.7178 41.6502 31.4991 41.6502C29.2804 41.6502 28.2291 40.9876 27.0126 40.2221C25.7002 39.3953 24.2123 38.4576 21.363 38.4576C18.5136 38.4576 17.0258 39.3953 15.7128 40.2221C14.4963 40.9887 13.4461 41.6502 11.2274 41.6502C9.00866 41.6502 7.95901 40.9876 6.74143 40.2221C5.42897 39.3953 3.94112 38.4576 1.09176 38.4576C0.488842 38.4576 0 38.9464 0 39.5493C0 40.1528 0.488842 40.6411 1.09176 40.6411V40.6406Z" fill="#FC8524"/>
<path d="M1.09176 47.8237C3.31048 47.8237 4.36119 48.4858 5.5777 49.2518C6.8907 50.0792 8.37855 51.0163 11.2279 51.0163C14.0773 51.0163 15.5646 50.0792 16.8776 49.2518C18.0941 48.4858 19.1448 47.8237 21.3635 47.8237C23.5822 47.8237 24.6329 48.4858 25.8494 49.2518C27.1624 50.0792 28.6503 51.0163 31.4996 51.0163C34.349 51.0163 35.8368 50.0792 37.1493 49.2518C38.3658 48.4858 39.4165 47.8237 41.6358 47.8237C43.8545 47.8237 44.9052 48.4858 46.1222 49.2518C47.4347 50.0792 48.9226 51.0163 51.7719 51.0163C54.6207 51.0163 56.1091 50.0792 57.4216 49.2518C58.6386 48.4858 59.6893 47.8237 61.9081 47.8237C62.511 47.8237 62.9998 47.3348 62.9998 46.7319C62.9998 46.129 62.511 45.6401 61.9081 45.6401C59.0587 45.6401 57.5709 46.5773 56.2584 47.4047C55.0413 48.1712 53.9901 48.8339 51.7714 48.8339C49.5527 48.8339 48.502 48.1718 47.2849 47.4052C45.9725 46.5784 44.4846 45.6412 41.6352 45.6412C38.7864 45.6412 37.298 46.5784 35.9856 47.4052C34.7685 48.1718 33.7178 48.8339 31.4991 48.8339C29.2804 48.8339 28.2297 48.1718 27.0132 47.4052C25.7002 46.5778 24.2123 45.6401 21.363 45.6401C18.5136 45.6401 17.0258 46.5773 15.7133 47.4047C14.4968 48.1707 13.4461 48.8328 11.2274 48.8328C9.00866 48.8328 7.95794 48.1707 6.74143 47.4047C5.42897 46.5778 3.94112 45.6401 1.09176 45.6401C0.488842 45.6401 0 46.129 0 46.7319C0 47.3348 0.488842 47.8237 1.09176 47.8237Z" fill="#FC8524"/>
</svg>
