<svg width="56" height="56" viewBox="0 0 56 47" fill="none" xmlns="http://www.w3.org/2000/svg">
<g clip-path="url(#clip0)">
<path d="M10.876 38.7683C10.4615 38.7683 10.0826 38.5342 9.89758 38.1633L0.938232 20.2186C0.930115 20.2023 0.922424 20.1861 0.915588 20.1699C0.308044 18.7877 0 17.3167 0 15.7979C0 9.80103 4.87915 4.92188 10.876 4.92188C16.8732 4.92188 21.7524 9.80103 21.7524 15.7979C21.7524 17.3167 21.4443 18.7877 20.8368 20.1699C20.8295 20.1861 20.8218 20.2023 20.8141 20.2186L11.8548 38.1633C11.6694 38.5342 11.2908 38.7683 10.876 38.7683ZM2.90741 19.2658L10.876 35.2264L18.845 19.2658C19.3226 18.1699 19.5649 17.0031 19.5649 15.7979C19.5649 11.0071 15.6671 7.10938 10.876 7.10938C6.08527 7.10938 2.1875 11.0071 2.1875 15.7979C2.1875 17.0031 2.42975 18.1695 2.90741 19.2658Z" fill="#FC8524"/>
<path d="M45.1235 38.7683C44.7091 38.7683 44.3301 38.5342 44.1451 38.1633L35.1858 20.2186C35.1777 20.2023 35.17 20.1861 35.1631 20.1699C34.5556 18.7877 34.2476 17.3167 34.2476 15.7979C34.2476 9.80103 39.1263 4.92188 45.1235 4.92188C51.1208 4.92188 55.9999 9.80103 55.9999 15.7979C55.9999 17.3167 55.6919 18.7877 55.0844 20.1699C55.0771 20.1861 55.0694 20.2028 55.0617 20.2186L46.1024 38.1633C45.9169 38.5342 45.5384 38.7683 45.1235 38.7683ZM37.155 19.2658L45.1235 35.2264L53.0921 19.2658C53.5702 18.1699 53.8124 17.0031 53.8124 15.7979C53.8124 11.0071 49.9147 7.10938 45.1235 7.10938C40.3328 7.10938 36.4351 11.0071 36.4351 15.7979C36.4351 17.0027 36.6773 18.1695 37.155 19.2658Z" fill="#FC8524"/>
<path d="M10.876 21.7027C7.62036 21.7027 4.97144 19.0538 4.97144 15.7982C4.97144 12.5425 7.62036 9.89404 10.876 9.89404C14.1316 9.89404 16.7805 12.5425 16.7805 15.7982C16.7805 19.0538 14.132 21.7027 10.876 21.7027ZM10.876 12.0811C8.82648 12.0811 7.15894 13.7487 7.15894 15.7982C7.15894 17.8477 8.82648 19.5152 10.876 19.5152C12.9255 19.5152 14.593 17.8477 14.593 15.7982C14.593 13.7487 12.9259 12.0811 10.876 12.0811Z" fill="#FC8524"/>
<path d="M45.1235 21.7027C41.8679 21.7027 39.219 19.0538 39.219 15.7982C39.219 12.5425 41.8679 9.89404 45.1235 9.89404C48.3792 9.89404 51.0281 12.5425 51.0281 15.7982C51.0281 19.0538 48.3796 21.7027 45.1235 21.7027ZM45.1235 12.0811C43.074 12.0811 41.4065 13.7487 41.4065 15.7982C41.4065 17.8477 43.074 19.5152 45.1235 19.5152C47.173 19.5152 48.8406 17.8477 48.8406 15.7982C48.8406 13.7487 47.1735 12.0811 45.1235 12.0811Z" fill="#FC8524"/>
<path d="M10.8759 51.1156C8.24878 51.1156 6.11084 48.9781 6.11084 46.3505C6.11084 43.7234 8.24878 41.5854 10.8759 41.5854C13.5035 41.5854 15.641 43.7234 15.641 46.3505C15.6414 48.9781 13.5035 51.1156 10.8759 51.1156ZM10.8759 43.7729C9.45489 43.7729 8.29834 44.9291 8.29834 46.3505C8.29834 47.7715 9.45489 48.9281 10.8759 48.9281C12.2974 48.9281 13.4535 47.7715 13.4535 46.3505C13.4539 44.9291 12.2974 43.7729 10.8759 43.7729Z" fill="#FC8524"/>
<path d="M45.1235 51.1156C42.4963 51.1156 40.3584 48.9781 40.3584 46.3505C40.3584 43.7234 42.4963 41.5854 45.1235 41.5854C47.751 41.5854 49.889 43.7234 49.889 46.3505C49.889 48.9781 47.751 51.1156 45.1235 51.1156ZM45.1235 43.7729C43.7025 43.7729 42.5459 44.9291 42.5459 46.3505C42.5459 47.7715 43.7025 48.9281 45.1235 48.9281C46.5449 48.9281 47.7015 47.7715 47.7015 46.3505C47.7015 44.9291 46.5449 43.7729 45.1235 43.7729Z" fill="#FC8524"/>
<path d="M41.4521 47.4443H32.3749C31.7708 47.4443 31.2811 46.9547 31.2811 46.3506C31.2811 45.7465 31.7708 45.2568 32.3749 45.2568H41.4521C42.0563 45.2568 42.5459 45.7465 42.5459 46.3506C42.5459 46.9547 42.0563 47.4443 41.4521 47.4443ZM23.6249 47.4443H14.5476C13.9435 47.4443 13.4539 46.9547 13.4539 46.3506C13.4539 45.7465 13.9435 45.2568 14.5476 45.2568H23.6249C24.229 45.2568 24.7186 45.7465 24.7186 46.3506C24.7186 46.9547 24.229 47.4443 23.6249 47.4443Z" fill="#FC8524"/>
<path fill-rule="evenodd" clip-rule="evenodd" d="M28 47.4443C28.6024 47.4443 29.0938 46.953 29.0938 46.3506C29.0938 45.7482 28.6024 45.2568 28 45.2568C27.3976 45.2568 26.9062 45.7482 26.9062 46.3506C26.9062 46.953 27.3976 47.4443 28 47.4443Z" fill="#FC8524"/>
</g>
<defs>
<clipPath id="clip0">
<rect width="56" height="56" fill="white"/>
</clipPath>
</defs>
</svg>
